<?xml version="1.0" encoding="UTF-8"?>
<!DOCTYPE svg PUBLIC "-//W3C//DTD SVG 1.1//EN" "http://www.w3.org/Graphics/SVG/1.1/DTD/svg11.dtd">
<!-- Creator: CorelDRAW -->
<svg xmlns="http://www.w3.org/2000/svg" xml:space="preserve" width="210mm" height="297mm" version="1.1" style="shape-rendering:geometricPrecision; text-rendering:geometricPrecision; image-rendering:optimizeQuality; fill-rule:evenodd; clip-rule:evenodd"
viewBox="0 0 21000 29700"
 xmlns:xlink="http://www.w3.org/1999/xlink"
 xmlns:xodm="http://www.corel.com/coreldraw/odm/2003">
 <defs>
  <style type="text/css">
   <![CDATA[
    .str0 {stroke:#931B24;stroke-width:474.39;stroke-miterlimit:22.9256}
    .fil12 {fill:none;fill-rule:nonzero}
    .fil7 {fill:#300F3B;fill-rule:nonzero}
    .fil17 {fill:#885E3C;fill-rule:nonzero}
    .fil8 {fill:#A67C50;fill-rule:nonzero}
    .fil4 {fill:#C84427;fill-rule:nonzero}
    .fil10 {fill:#E55325;fill-rule:nonzero}
    .fil5 {fill:#E7B793;fill-rule:nonzero}
    .fil15 {fill:#EE643D;fill-rule:nonzero}
    .fil13 {fill:#F3AC3B;fill-rule:nonzero}
    .fil16 {fill:#F4911E;fill-rule:nonzero}
    .fil6 {fill:white;fill-rule:nonzero}
    .fil2 {fill:url(#id0)}
    .fil3 {fill:url(#id1)}
    .fil0 {fill:url(#id2)}
    .fil11 {fill:url(#id3);fill-rule:nonzero}
    .fil14 {fill:url(#id4);fill-rule:nonzero}
    .fil9 {fill:url(#id5);fill-rule:nonzero}
    .fil21 {fill:url(#id6);fill-rule:nonzero}
    .fil20 {fill:url(#id7);fill-rule:nonzero}
    .fil19 {fill:url(#id8);fill-rule:nonzero}
    .fil1 {fill:url(#id9);fill-rule:nonzero}
    .fil18 {fill:url(#id10);fill-rule:nonzero}
   ]]>
  </style>
  <linearGradient id="id0" gradientUnits="userSpaceOnUse" x1="7199.44" y1="3873.17" x2="15808.99" y2="6969.07">
   <stop offset="0" style="stop-opacity:1; stop-color:#D33230"/>
   <stop offset="1" style="stop-opacity:1; stop-color:#FD8F04"/>
  </linearGradient>
  <linearGradient id="id1" gradientUnits="userSpaceOnUse" xlink:href="#id0" x1="5035.73" y1="6755.35" x2="9831.27" y2="15846.82">
  </linearGradient>
  <linearGradient id="id2" gradientUnits="userSpaceOnUse" xlink:href="#id0" x1="8799.38" y1="4428.1" x2="4724.54" y2="8810.72">
  </linearGradient>
  <linearGradient id="id3" gradientUnits="userSpaceOnUse" x1="48232.68" y1="13383.05" x2="46534.45" y2="13383.05">
   <stop offset="0" style="stop-opacity:1; stop-color:#F4CBA1"/>
   <stop offset="1" style="stop-opacity:1; stop-color:#D48F70"/>
  </linearGradient>
  <linearGradient id="id4" gradientUnits="userSpaceOnUse" xlink:href="#id3" x1="53875.49" y1="16410.92" x2="52809.17" y2="16410.92">
  </linearGradient>
  <linearGradient id="id5" gradientUnits="userSpaceOnUse" xlink:href="#id3" x1="56971.51" y1="17281.98" x2="53177.84" y2="17281.98">
  </linearGradient>
  <linearGradient id="id6" gradientUnits="userSpaceOnUse" x1="85153.95" y1="23669.6" x2="82223.26" y2="25029.47">
   <stop offset="0" style="stop-opacity:1; stop-color:#E97103"/>
   <stop offset="0.678431" style="stop-opacity:1; stop-color:#DF0613"/>
   <stop offset="0.988235" style="stop-opacity:1; stop-color:#AE0F0B"/>
   <stop offset="1" style="stop-opacity:1; stop-color:#AE0F0B"/>
  </linearGradient>
  <linearGradient id="id7" gradientUnits="userSpaceOnUse" xlink:href="#id6" x1="79276.41" y1="23966.48" x2="76179.73" y2="25498.59">
  </linearGradient>
  <linearGradient id="id8" gradientUnits="userSpaceOnUse" xlink:href="#id6" x1="77323.98" y1="23831.88" x2="75970.18" y2="24551.99">
  </linearGradient>
  <linearGradient id="id9" gradientUnits="userSpaceOnUse" xlink:href="#id3" x1="48289.9" y1="7244.97" x2="47226.25" y2="7343.05">
  </linearGradient>
  <linearGradient id="id10" gradientUnits="userSpaceOnUse" xlink:href="#id6" x1="75693.03" y1="24651.92" x2="74878.14" y2="25108.74">
  </linearGradient>
 </defs>
 <g id="Layer_x0020_1">
  <metadata id="CorelCorpID_0Corel-Layer"/>
  <g id="_2516898249776">
   <path class="fil0" d="M10298.83 15916.96c-5361.82,-1478.99 -6217.6,-7196.39 -4061.53,-9169.3 5365.99,-4910.13 8744.99,296.56 8744.99,296.56 0,0 1826.75,-1188.21 1654.72,-2843.69 0,0 -1740.65,196.3 -4013.18,-423.35 -2272.5,-619.69 -8130.61,81.25 -8607.21,5767.93 0,0 89.42,5290.94 6198.41,6522.37m83.8 -150.52l0 0 0 0z"/>
   <path class="fil1" d="M4870.01 13752.72l206.88 -1009.17c0,0 -514.12,-984.73 -448.46,-1575.98 65.61,-591.22 -189.1,-389.28 -218.58,-364.94 -29.48,24.34 -313.5,721.44 -411.53,1273.33 -98.06,551.93 80.41,1809.29 212.36,2039.2 131.87,229.88 659.33,-362.44 659.33,-362.44z"/>
   <path class="fil2" d="M12063.46 4150.73c-1286.91,-350.9 -3723.74,-278.16 -5681.93,883.6 2029.91,-1517.03 4829.26,-1642.49 6242.29,-1257.16 2272.55,619.65 4013.19,423.35 4013.19,423.35 172.03,1655.49 -1654.73,2843.68 -1654.73,2843.68 0,0 -646.3,-2273.8 -2918.82,-2893.47z"/>
   <path class="fil3" d="M5676.91 7121.27c540.53,-494.61 1060.88,-886.41 1559.66,-1191.39 -324.85,234.38 -658.01,505.51 -999.27,817.78 -2156.06,1972.9 -1300.29,7690.31 4061.53,9169.29l-83.8 150.51c-1906.34,-384.26 -3226.46,-1163.83 -4140.61,-2054.6 -1939.81,-2311.19 -1902.91,-5514.1 -397.51,-6891.59z"/>
   <path class="fil4" d="M5833.78 18809.68c0,0 -600.8,-180.64 -678.83,-241.6 -78.05,-61.08 -242.15,-277.44 -446.23,-965.31 -204.09,-687.83 -791.33,-3498.9 -791.33,-3498.9 335.58,61.31 1033.25,-380.44 1033.25,-380.44 0,0 1005.49,1729.59 1148.58,2004.99 143.05,275.31 142.26,1048.28 142.26,1048.28 1014.79,-445.23 1290.64,367.89 1290.64,367.89 230.89,98.81 2363.68,716.65 2843.66,746.15 480.01,29.5 1044.28,55.8 1044.28,55.8l99.52 467.75c0,0 45.74,-13.29 125.61,-35.94 -45.19,155.33 -116.87,337.44 -229.88,539.18 -364.97,651.54 -2364.95,1061.99 -2364.95,1061.99 0,0 -1446.99,-722.84 -2393.44,-959.97 -333.38,-83.51 -608.06,-139.92 -824.34,-178.22 0.72,-20.49 1.2,-31.65 1.2,-31.65z"/>
   <path class="fil5" d="M9923.21 16315.97c43.52,-48.99 297.03,-477.65 672.51,-971.36 -103.11,-116.23 -236.54,-273.69 -280.3,-356.83 -60.31,-114.53 501.75,-243.6 827.22,-293.16 280.85,-297.07 592.42,-568.31 915.39,-744.12 652.48,-355.2 1290.55,-162.65 1664.4,94.88 996.81,686.73 1118.65,1694.64 808.51,2226.29 -310.12,531.66 -1262.67,996.89 -1750.07,1683.54 -487.33,686.79 -365.49,1052.3 -365.49,1052.3 -564.94,-420.93 -2093.44,-686.68 -2093.44,-686.68 0,0 199.41,-564.91 166.15,-742.18 -33.22,-177.27 -674.89,-590.2 -852.13,-844.98 -177.19,-254.73 198.64,-317.99 287.25,-417.7z"/>
   <path class="fil6" d="M11835.74 15503.2c0,0 -92.43,-245.14 -140.68,-345.62 -48.22,-100.47 -241.12,-225.05 -241.12,-225.05 0,0 -144.67,88.39 -136.66,136.64 8.06,48.23 518.46,434.03 518.46,434.03z"/>
   <path class="fil7" d="M11395.84 15024.04c-41.82,39.72 -49.76,99.33 -17.66,133.15 32.1,33.81 92.03,29 133.87,-10.75 41.84,-39.73 49.76,-99.36 17.64,-133.17 -32.09,-33.8 -92.02,-28.97 -133.85,10.77z"/>
   <path class="fil8" d="M10296.38 15729.84c0,0 -107.8,49 -48.97,156.78 0,0 -333.23,58.84 -196.02,215.64 137.2,156.81 529.26,156.81 529.26,156.81l-284.27 -529.23z"/>
   <path class="fil9" d="M10488.09 17578.65c-1.81,-9.58 -5.69,-19.98 -10.89,-30.85 1736.5,777.17 2458.72,-1972.18 2458.72,-1972.18 595.72,10.24 968.89,499.29 1174.87,1162.02 -417.36,363.11 -987.97,735.84 -1329.93,1217.56 -487.33,686.79 -365.48,1052.3 -365.48,1052.3 -564.95,-420.94 -2093.44,-686.68 -2093.44,-686.68 0,0 199.4,-564.9 166.15,-742.17z"/>
   <path class="fil10" d="M12016.6 18509.08c-589.96,-121.22 -1185.39,-224.66 -1464.53,-271.82 -250.12,5.06 -526.72,24.69 -795.02,72.48 -808.57,143.94 -1894,-155.12 -2403.52,-88.62 -509.52,66.42 -1227.42,6.93 -1227.42,6.93 0,0 -420.38,-2284.44 -99.13,-2937.91 100.93,-205.37 -3.87,-680.12 72.11,-820.18 -12.27,-224.29 -1006.39,-794.59 -1001.98,-804.09 -178.18,176.82 -966.75,4267.25 -1033.22,5086.88 -66.46,819.62 287.96,797.47 631.33,941.43 343.37,144.01 2403.32,815.42 2403.32,815.42 0,0 136.66,789.07 236.6,1655.38 41.88,744.91 150.69,3309.82 186.93,4172.5l4207.2 0.01c-84.28,-737.88 527.06,-3820.98 527.06,-3820.98 0,0 -0.44,-0.1 -1.17,-0.22 213.67,-713.11 509.61,-1511.62 913.42,-2268.26 371.28,-695.69 -343.45,-1572.81 -1151.98,-1738.95z"/>
   <path class="fil11" d="M5178.44 13787.52c0,0 -82.19,-470.06 -69.65,-679.98 12.58,-210.02 317.87,-597.96 556.32,-700.64 238.4,-102.69 495.18,-45.44 571.73,41.52 76.5,86.97 88.47,192.5 88.47,192.5 0,0 149.4,20.38 186.97,123.14 37.6,102.76 164.27,138.36 139.82,311.75 0,0 261.7,36.39 203.05,273.71 -58.63,237.4 -351.1,651.86 -551.9,788.34 -200.81,136.46 -431.38,230.71 -431.38,230.71l-693.43 -581.05z"/>
   <line class="fil12 str0" x1="14357.36" y1="6254.58" x2="14337.49" y2= "10172.12" />
   <path class="fil13" d="M14448.32 10063.49c0,0 395.14,211.34 354.77,809.22l-956.77 -19.78c-0.01,0.01 162.25,-1045.87 602,-789.44z"/>
   <path class="fil13" d="M12819.75 5004.77c-0.46,20.32 -121.68,7084.72 -3578.63,7195.39 -2813.64,90.09 -3285.51,-2069.43 -3761.55,-4248 -44.94,-205.7 -89.93,-411.59 -133.67,-601.79l162.06 -37.09c48.18,209.55 91.27,406.73 134.32,603.74 461.19,2110.65 918.35,4202.84 3593.63,4117.18 3298.04,-105.58 3417.44,-7012.82 3417.88,-7032.69l165.96 3.26z"/>
   <path class="fil13" d="M12081.37 4584.84c0.36,18.68 158.75,6513.86 -3010.97,6504.83 -2211.31,-6.34 -2514.63,-1746.87 -2817.8,-3486.57 -82.87,-475.53 -165.74,-951.02 -288.1,-1386.92l147.41 -41.35c124.69,444.19 208.19,923.32 291.69,1402.51 292.14,1676.38 584.42,3353.56 2666.8,3359.53 3012.28,8.58 2858.51,-6331.4 2858.16,-6349.63l152.81 -2.4z"/>
   <path class="fil7" d="M10349.02 15324.93c0,0 -210.6,0 -96.66,225.76 92.93,183.98 199.26,1239.03 709.82,1207.88 510.56,-31.11 180.55,-485.65 180.55,-485.65 0,0 18.69,255.29 -174.34,180.55 -193.02,-74.7 -249.05,-796.96 -292.65,-1008.66 -43.55,-211.68 -326.72,-119.88 -326.72,-119.88z"/>
   <path class="fil7" d="M12192.09 16056.58c0,0 -188.57,87.53 -186.33,199.83 2.59,130.75 114.94,132.42 179.61,89.8 152.49,-100.52 249.1,-311.38 318.62,-539.78 155.12,-509.48 177.18,-1617.1 177.18,-1617.1 1517.51,-420.94 2470.04,2658.24 2126.65,3068.15 -343.35,409.86 -897.18,409.81 -930.37,631.34 -23.65,157.67 -24.97,360.14 -123.53,503.74 47.57,174.97 133.85,341.46 290.31,377.16 354.95,80.92 -535.45,143.23 -983.72,-74.73 -448.32,-217.93 -952.65,-460.77 -716.04,-778.3 71.04,-95.34 167.34,-180.5 267.34,-253.11 146.59,-388.99 664.87,-856.87 800.5,-1026.39 177.12,-221.51 -132.99,-620.27 -321.3,-454.13 -188.25,166.2 -598.13,531.63 -952.52,487.36 -27.91,-3.46 -50.1,-8.64 -67.25,-15.39 -179.49,-21.24 -548.23,-663.55 120.85,-598.45z"/>
   <path class="fil14" d="M12549.75 16744.79c0,0 540.14,-627.94 682.77,-699.16 142.58,-71.3 493.61,-60.38 446.95,197.38 -46.64,257.76 -252.25,425.02 -597.74,515.51 -345.49,90.45 -567.61,200.18 -531.98,-13.73z"/>
   <path class="fil10" d="M17027.92 3879.02c0,0 -486.2,-54.82 -500.89,277.03 -14.67,331.95 -150.56,2126.88 -1619.85,2839.42 0,0 -293.22,209.52 -156.86,363.94 136.39,154.42 1361.44,-530.6 1843,-1524.81 481.55,-994.18 530.63,-1293.91 434.6,-1955.58z"/>
   <path class="fil10" d="M15781.44 4036.15c0,0 122.05,887.8 -409.74,1583.13 -531.74,695.26 -1065.81,874.9 -1065.81,874.9 0,0 -184.59,4.42 -237.23,-132.04 -52.67,-136.52 -75.31,-240.18 126.69,-352.8 202.05,-112.62 1004.68,-678.57 1063.97,-1872.7 0,0 9.33,-305.58 257.63,-279.91 248.26,25.7 264.49,179.42 264.49,179.42z"/>
   <path class="fil13" d="M12779.82 3629.96c0,0 209.05,476.54 22.41,949.42 -186.7,472.86 -456.46,657.93 -456.46,657.93 0,0 -102.44,31.8 -153.52,-36.07 -51.08,-67.89 -80.21,-122.26 14.75,-217.24 94.98,-94.98 453.55,-538.49 297.08,-1214.96 0,0 -43.27,-172.23 99.5,-197.28 142.75,-25.07 176.24,58.2 176.24,58.2z"/>
   <path class="fil13" d="M11481.68 3401.84c0,0 247.5,376.67 156.48,807.43 -91.07,430.84 -294.69,627.94 -294.69,627.94 0,0 -82.86,41.92 -136.32,-8.62 -53.42,-50.66 -86.17,-92.82 -18.76,-187.67 67.34,-94.81 309.38,-525.45 77.89,-1080.53 0,0 -61.83,-140.75 56.44,-182.84 118.33,-42.07 158.96,24.29 158.96,24.29z"/>
   <path class="fil13" d="M7552.48 4059.75c0,0 456.77,182.73 644.16,625.23 187.43,442.56 128.11,746.1 128.11,746.1 0,0 -47.93,89.25 -127.4,77.41 -79.46,-11.95 -135.03,-29.32 -133.96,-156.28 1.12,-126.93 -51.03,-663.67 -604.72,-1016.03 0,0 -143.26,-87.49 -63.63,-198.93 79.66,-111.57 157.44,-77.5 157.44,-77.5z"/>
   <path class="fil13" d="M9803.26 3496.69c0,0 356.59,275.61 410.68,712.57 54.09,437.03 -74.31,689.66 -74.31,689.66 0,0 -64.72,66.6 -131.7,36.21 -66.95,-30.48 -111.64,-59.76 -78.8,-171.33 32.8,-111.56 121.59,-597.59 -277.95,-1047.09 0,0 -104.27,-113.02 -6.11,-191.21 98.17,-78.29 158.19,-28.81 158.19,-28.81z"/>
   <path class="fil15" d="M12392.48 19010.47c0,0 -1196.51,-865.14 -3167.67,-668.6 -544.5,54.28 -1088.41,-123.22 -1553.88,-141.33 -871.12,-33.88 -1491.05,36.83 -1491.05,36.83 0,0 -1285.91,456.52 385.04,754.54 1961.95,349.88 1941.42,72.41 2983.6,239.46 1081.79,173.41 2079.54,563.71 2421.99,763.51 672.42,392.24 1066.41,-59.83 421.97,-984.41z"/>
   <path class="fil16" d="M12015.72 17176.44c-1.27,-52.55 3.27,-104.04 16.6,-152.3l2.16 -9.03 2.87 -8.9 5.97 -17.57c4.21,-11.55 7.64,-23.17 13.15,-34.07 5.11,-10.91 10.17,-21.78 15.21,-32.57 5.19,-10.74 12.33,-21.83 18.4,-32.39 12.83,-23.26 24.99,-36.28 37.14,-52.7l2.28 -2.96 1.13 -1.5 0.59 -0.74c-0.2,0.32 3.33,-5.24 2.17,-3.29l5.65 -6.17 11.2 -12.29c7.62,-7.93 14.38,-16.34 22.53,-23.53 7.97,-7.16 15.96,-14.25 23.89,-21.27 4.04,-3.46 7.73,-7.09 11.93,-10.24l12.66 -9.18c8.33,-5.97 16.62,-11.9 24.8,-17.8 8.58,-5.35 17.39,-10.16 25.85,-15.18 16.44,-10.69 34.41,-18.13 51.27,-26.15 8.33,-4.25 17.25,-7.04 25.81,-10.13 8.56,-3.15 17.02,-6.25 25.34,-9.3 68.03,-21.22 132.45,-26.06 187.96,-23.07 55.74,2.49 102.53,15.54 139.71,27.96 9.16,3.39 17.96,6.56 26.14,9.58 8.12,3.21 15.41,7.09 22.33,10.24 1.95,0.93 3.77,1.78 5.61,2.66 -0.38,0.26 -0.8,0.45 -1.19,0.71 -1.65,-0.71 -3.25,-1.4 -4.98,-2.15 -7.08,-2.87 -14.34,-6.45 -22.56,-9.35 -8.33,-2.53 -17.17,-5.21 -26.52,-8.06 -37.4,-10.46 -84.79,-18.8 -138.46,-14.39 -53.39,3.9 -112.96,19.23 -168.59,51.08 -27.5,16.38 -54.46,35.62 -78.35,59.24 -5.97,5.95 -12.02,11.84 -17.79,17.92 -5.3,6.55 -10.67,13.22 -16.1,19.9l-8.06 9.88c-2.61,3.32 -4.79,7.15 -7.18,10.69 -4.73,7.13 -9.4,14.33 -14.12,21.56 -4.79,7.13 -8.17,15.35 -12.33,22.91l-5.99 11.54 -2.99 5.76c-1.49,2.49 1.59,-2.63 1.19,-1.78l-0.37 0.87 -2.16 5.15c-7.16,18 -17.1,38.49 -19.3,52.9 -1.8,7.98 -4.26,14.96 -5.77,23.48 -1.41,8.53 -2.86,17.15 -4.33,25.79 -1.91,8.43 -1.81,17.37 -2.51,25.97 -0.17,8.76 -2.14,17.12 -1.41,25.93 0.17,8.61 0.29,17.26 0.47,25.95 0.21,8.6 2.02,17.3 2.65,25.81l1.19 12.81 2.53 12.71c1.89,8.47 2.99,16.92 5.25,25.21 7.81,30.18 19.38,58.96 32.88,86.45 23.65,-6.4 48.47,-9.86 74.13,-9.86 137.5,0 252.11,97.95 278.04,227.84 25.5,0.2 51.2,-1.41 76.67,-5.86 8.46,-1.33 16.62,-3.74 25.08,-5.49l12.62 -2.87 12.16 -4.14c8.04,-2.96 16.67,-4.88 24.6,-8.18 7.99,-3.38 15.92,-6.78 23.82,-10.16 30.68,-15.32 61.85,-32.27 87.75,-55.47 14.15,-10.51 25.39,-23.63 37.88,-35.93l2.31 -2.33 1.19 -1.16 0.59 -0.57c0.48,-0.74 -2.57,4.32 -1.03,1.82l4.54 -5.89 9.07 -11.71 8.96 -11.65c2.95,-3.84 6.26,-7.92 8.01,-11.06 4.4,-6.78 8.75,-13.5 13.09,-20.19 2.16,-3.46 4.65,-6.61 6.55,-10.36l5.76 -11.37c3.88,-7.65 7.76,-15.23 11.55,-22.77 3.22,-7.79 6.09,-15.68 9.15,-23.51 11.91,-31.42 18.34,-63.88 22.16,-95.61 6.35,-63.78 -3.84,-124.38 -22.13,-174.73 -17.81,-50.79 -44.84,-90.64 -69.64,-120.5 -0.09,-0.05 -0.11,-0.11 -0.17,-0.2 1.25,-0.5 2.45,-1.1 3.68,-1.64 26.38,28.68 57.15,65.84 82.11,115.31 25.43,49.42 47.5,110.19 55.95,180.97 0.64,8.88 1.3,17.87 1.93,26.95 0.71,9.1 1.82,18.4 1.34,27.74 -0.39,18.66 0.17,38.11 -2.8,57.54 -1.05,9.81 -1.98,19.8 -3.29,29.84 -2,9.91 -4.02,19.9 -6.09,30l-3.2 15.3c-1.13,5.15 -3.12,10.4 -4.68,15.64 -3.47,10.62 -6.97,21.31 -10.49,32.09 -1.8,5.82 -3.73,9.9 -5.53,14.47l-5.64 13.6 -5.65 13.65 -2.87 6.89 -5.47 9.82c-10.96,19.44 -21.3,40.16 -35.37,58.74 -25.92,38.99 -59.51,74.63 -98.04,106.38 -38.65,31.99 -83.93,57.07 -132.4,77.51 -48.95,19.27 -101.87,31.02 -156.35,35.16 -7.47,0.5 -14.97,0.73 -22.47,0.85 -51.17,73.94 -136.57,122.36 -233.23,122.36 -156.65,0 -283.62,-126.95 -283.62,-283.55 0,-49.12 12.48,-95.32 34.45,-135.6 -6.92,-14.34 -13.31,-28.91 -18.79,-43.75 -18.37,-51.4 -29.4,-104.42 -31.64,-156.96z"/>
   <path class="fil6" d="M12184.57 17512.74c0,80.35 65.14,145.49 145.47,145.49 80.38,0 145.53,-65.13 145.53,-145.49 0,-80.36 -65.16,-145.51 -145.53,-145.51 -80.33,0 -145.47,65.15 -145.47,145.51z"/>
   <path class="fil17" d="M11122.79 15206.47c0,0 -122.93,505.87 -359.3,274.25 0,0 245.83,85.05 359.3,-274.25z"/>
   <path class="fil17" d="M10498.74 15102.49c0,0 349.84,212.73 293.12,274.19 -56.75,61.45 -89.84,-14.18 -118.19,-75.64 -28.36,-61.47 -174.93,-198.55 -174.93,-198.55z"/>
   <path class="fil8" d="M11598.66 14876.29c163.95,70.43 257.15,642.99 257.15,642.99l-478.22 -598.8c0,0 144.63,-77.01 221.07,-44.19z"/>
   <path class="fil7" d="M11794.08 14752.62c-23.21,-10.48 -165.47,4.73 -75.66,113.47 89.85,108.73 250.58,255.28 255.29,444.41 4.74,189.09 28.37,278.92 28.37,278.92 0,0 47.28,-118.18 9.46,-392.42 -37.82,-274.2 -70.89,-378.2 -217.46,-444.38z"/>
   <path class="fil17" d="M11869.73 15523.21l-468.03 -420.76c0,0 -85.08,-89.8 -122.93,-42.55 -37.82,47.28 434.9,411.32 590.96,463.31z"/>
   <path class="fil6" d="M11457.98 15106.46c37.73,0 37.73,-58.5 0,-58.5 -37.72,0 -37.72,58.5 0,58.5l0 0z"/>
   <path class="fil6" d="M11457.98 15106.46c37.73,0 37.73,-58.5 0,-58.5 -37.72,0 -37.72,58.5 0,58.5l0 0z"/>
   <path class="fil4" d="M6741.16 20392.55c2.55,-4.23 3.97,-6.63 3.97,-6.63 0,0 1024.95,335.78 1431.42,388.78 193.16,25.2 1156.38,47.52 1203.85,319.13 17.25,98.6 -65.99,227.05 -186.29,374.66 -93.3,226.7 -381.62,1040.14 -302.15,2271.64 94.34,1463.08 247.86,2597.35 247.86,2597.35l-1605.76 0.01c0,0 -246.8,-4036.83 -246.8,-4532.36 0,-7.01 0.51,-13.81 1.28,-20.56 -91.13,-703.89 -190.01,-1274.96 -190.01,-1274.96 0,0 -141.93,-46.3 -357.37,-117.06z"/>
   <path class="fil18" d="M15712.08 15639.57c0,0 500.13,16.4 362.4,673.87 -137.67,657.41 -1414.55,1637.19 -1822.15,1597.65 -407.65,-39.58 1459.75,-2271.52 1459.75,-2271.52z"/>
   <path class="fil19" d="M14838.97 13650.63c0,0 623.07,105.53 1046.45,610.85 423.39,505.28 30.73,1504.38 -346.53,1970.06 -377.32,465.65 -894.48,1129.22 -1130.2,1250.45 -235.79,121.16 -116.57,-1281.67 117.59,-2042.29 234.16,-760.61 312.69,-1789.07 312.69,-1789.07z"/>
   <path class="fil20" d="M14067.21 17815.02c0,0 56.41,-1675.65 -944.8,-2920.82 -1001.24,-1245.14 -1193.36,-2004.7 -531.32,-2126.93 661.96,-122.24 1380.74,453 1624.11,1743.71 243.38,1290.69 319.21,2946.74 186.68,3164.39 -132.58,217.65 -205.61,608.18 -334.67,139.65z"/>
   <path class="fil21" d="M13106.38 13036.29c0,0 -70.95,-523.79 588.22,-532.72 659.14,-8.93 1479.42,809.4 1430.75,1736.91 -48.68,927.56 -409.2,3412.75 -586.25,3691.83 -177.09,279.09 -302.87,-824.17 -411.58,-1479.97 -108.74,-655.8 -952.38,-2958.73 -1021.14,-3416.05z"/>
  </g>
 </g>
</svg>
