<?xml version="1.0" encoding="UTF-8"?>
<!DOCTYPE svg PUBLIC "-//W3C//DTD SVG 1.1//EN" "http://www.w3.org/Graphics/SVG/1.1/DTD/svg11.dtd">
<!-- Creator: CorelDRAW -->
<svg xmlns="http://www.w3.org/2000/svg" xml:space="preserve" width="105.079mm" height="120mm" version="1.1" style="shape-rendering:geometricPrecision; text-rendering:geometricPrecision; image-rendering:optimizeQuality; fill-rule:evenodd; clip-rule:evenodd"
viewBox="0 0 10507.9 12000"
 xmlns:xlink="http://www.w3.org/1999/xlink"
 xmlns:xodm="http://www.corel.com/coreldraw/odm/2003">
 <defs>
  <style type="text/css">
   <![CDATA[
    .fil0 {fill:url(#id0)}
   ]]>
  </style>
  <linearGradient id="id0" gradientUnits="userSpaceOnUse" x1="1682.6" y1="2707.14" x2="8823.33" y2="9806.13">
   <stop offset="0" style="stop-opacity:1; stop-color:#D33230"/>
   <stop offset="1" style="stop-opacity:1; stop-color:#FD8F04"/>
  </linearGradient>
 </defs>
 <g id="Layer_x0020_1">
  <metadata id="CorelCorpID_0Corel-Layer"/>
  <path class="fil0" d="M2268.73 2296.16c-53.56,-53.56 -53.56,-139.83 0,-193.39 53.56,-53.56 139.84,-53.56 193.4,0l1434.09 1434.09c-38.68,23.81 -74.38,53.57 -107.11,86.29 -32.72,32.72 -62.48,68.43 -86.28,107.11l-1434.1 -1434.1zm4462.96 1326.99c32.72,32.72 62.48,68.43 86.28,107.11l1434.1 -1434.1c53.56,-53.56 53.56,-139.83 0,-193.39 -53.56,-53.56 -139.84,-53.56 -193.4,0l-1434.09 1434.09c35.7,23.81 71.4,53.57 107.11,86.29zm574.24 6239.22c345.14,-41.65 663.49,-95.21 946.15,-157.69 803.34,-181.5 1264.5,-434.39 1264.5,-696.23l0 -508.78 -1225.83 0.01c-163.64,529.6 -505.81,1005.65 -984.82,1362.69zm1053.25 -1636.42l1157.39 0 0 -723 -1133.58 0c29.75,241 20.82,482 -23.81,723zm-23.81 -999.7l1181.2 0 0 -723 -1478.72 0c136.86,229.1 238.02,470.09 297.52,723zm-487.94 -996.72l1672.12 0 0 -1270.46c-449.27,458.2 -1335.91,728.95 -2055.93,871.77 142.8,124.95 270.75,258.84 383.81,398.69zm-1166.32 3695.32c-413.57,32.72 -847.96,50.58 -1282.35,53.56l-229.1 0c-449.27,-2.98 -898.54,-20.83 -1329.97,-53.56 -892.59,-437.37 -1443.02,-1255.58 -1443.02,-2139.24 0,-476.05 157.69,-934.24 449.27,-1324.02 5.95,-5.94 11.9,-14.87 14.88,-20.82 151.74,-202.33 342.16,-383.81 562.33,-541.5 196.37,29.75 401.67,56.52 609.94,77.35 785.48,77.36 1624.52,80.34 2412.97,2.98 223.15,-20.83 443.32,-47.6 654.56,-83.3 220.17,157.69 407.62,342.16 562.33,541.5 5.95,8.93 8.93,14.88 14.88,20.83 208.27,279.68 348.11,592.08 410.6,925.31 0,2.98 0,5.95 2.98,11.9 23.8,127.94 35.7,258.85 35.7,389.76 0,883.67 -553.41,1698.91 -1446,2139.25zm648.61 -2061.88c-32.72,-249.93 -166.62,-455.22 -386.79,-595.07 -208.27,-130.92 -401.67,-145.79 -559.36,-107.11 -68.43,-249.93 -223.15,-455.22 -458.2,-601.01 -458.2,-288.61 -862.84,-139.84 -1121.69,113.06 -261.82,-255.88 -663.49,-404.64 -1121.69,-113.06 -279.68,175.54 -446.3,434.39 -487.95,752.75 -47.61,380.85 104.13,815.24 401.66,1130.62 312.41,333.23 818.21,562.33 1103.84,883.67 53.56,62.47 154.71,62.47 211.24,0 124.97,-142.82 294.56,-264.81 455.22,-377.87 199.34,148.77 452.25,297.53 606.96,470.1 26.78,32.72 65.46,47.6 107.11,47.6 38.69,0 77.36,-17.86 104.13,-47.6 214.22,-241 598.04,-416.55 836.06,-672.42 229.13,-246.95 348.15,-586.14 309.46,-883.66zm-5099.67 636.71l-1225.82 0 0 508.78c0,261.83 461.16,514.73 1267.48,696.23 282.65,62.48 601.02,116.04 946.15,157.69 -482,-357.05 -824.17,-833.1 -987.81,-1362.7zm-92.24 -996.73l-1133.58 0 0 723 1157.39 0c-44.63,-241 -53.56,-482 -23.81,-723zm345.14 -996.72l-1478.72 0 0 723 1181.2 0c59.5,-255.89 160.66,-496.88 297.52,-723zm577.21 -672.42c-720.02,-142.82 -1606.66,-413.57 -2055.93,-871.77l0 1270.46 1672.12 0c110.08,-142.82 241,-276.71 383.81,-398.69zm-862.84 -511.75c354.06,121.99 758.71,223.15 1202.03,294.56 2.98,0 8.93,0 11.9,0 1166.32,190.41 2526.03,190.41 3698.3,0 2.98,0 8.93,0 11.9,0 440.34,-71.41 844.99,-172.57 1202.03,-294.56 758.7,-264.81 1196.07,-609.94 1196.07,-949.12 0,-339.19 -434.39,-684.32 -1196.07,-949.12 -196.38,-68.43 -407.62,-127.94 -630.77,-181.5l-767.64 767.63c2.98,29.76 5.95,59.51 5.95,89.27 0,374.89 -303.49,678.37 -678.37,678.37 -374.88,0 -678.37,-303.49 -678.37,-678.37 0,-374.9 303.49,-678.37 678.37,-678.37 29.76,0 62.48,2.98 89.27,5.95l360.01 -360.02c-931.27,-113.06 -1948.82,-113.06 -2880.09,0l360.01 360.02c202.33,-26.78 413.57,35.7 571.26,193.39 264.8,264.8 264.8,696.23 0,961.02 -130.92,133.89 -306.46,199.34 -479.02,199.34 -371.92,0 -678.37,-300.5 -678.37,-678.37 0,-29.75 2.98,-62.47 5.94,-92.23l-767.63 -767.63c-223.15,53.56 -434.39,113.06 -630.77,181.5 -758.7,264.8 -1196.08,609.94 -1196.08,949.12 -2.95,339.18 431.44,684.31 1190.14,949.12zm2359.41 -934.26c157.7,-157.69 157.7,-413.56 0,-571.26 -77.35,-77.35 -181.49,-119 -285.62,-119 -104.14,0 -208.28,38.68 -285.63,119 -157.7,157.7 -157.7,413.57 0,571.26 157.69,157.7 413.57,157.7 571.25,0zm1692.95 -690.26c-107.11,0 -208.27,41.65 -285.63,119 -157.69,157.7 -157.69,413.57 0,571.26 157.7,157.7 413.57,157.7 571.26,0 157.69,-157.69 157.69,-413.56 0,-571.26 -74.37,-77.35 -175.54,-119 -285.63,-119zm-1431.11 4165.43c32.72,-249.93 166.62,-455.22 386.79,-595.07 214.22,-136.86 416.55,-148.76 577.21,-101.16 110.09,32.72 208.27,89.26 294.56,166.62 17.85,-14.88 35.7,-32.72 56.53,-47.6 -41.66,-205.29 -163.65,-374.9 -351.09,-493.9 -517.71,-327.29 -847.96,145.79 -862.84,166.62 -56.53,86.28 -181.5,74.38 -226.12,0 0,0 -92.23,-130.92 -246.94,-214.22 -83.31,-44.64 -169.59,-68.43 -258.86,-68.43 -116.04,0 -235.05,38.68 -357.03,116.04 -208.28,130.91 -333.24,321.33 -362.99,553.41 -38.68,303.49 86.28,651.59 330.26,907.47 252.91,270.75 702.18,493.9 1008.63,785.48 107.11,-101.16 226.12,-193.4 345.14,-276.7l-14.88 -17.86c-238.04,-243.99 -357.05,-583.18 -318.37,-880.7zm1978.58 -362.99c-181.5,-116.04 -330.26,-92.23 -437.38,-35.7 -2.98,2.98 -8.92,5.95 -11.89,8.93 -95.22,56.53 -154.72,133.88 -160.68,145.79 -56.52,80.34 -172.56,80.34 -226.11,0 -300.51,-434.39 -877.72,-92.23 -874.75,368.93 5.95,211.25 104.13,425.47 249.93,577.21 193.39,202.33 505.8,360.02 737.88,571.26 113.05,-101.16 240.99,-190.42 365.96,-276.7 142.82,-98.18 279.68,-193.4 377.86,-297.53 178.52,-187.44 270.75,-443.32 241,-663.49 -23.81,-169.6 -110.08,-303.5 -261.82,-398.7z"/>
  <g id="Master_Layer_3">
  </g>
 </g>
</svg>
