<?xml version="1.0" encoding="UTF-8"?>
<!DOCTYPE svg PUBLIC "-//W3C//DTD SVG 1.1//EN" "http://www.w3.org/Graphics/SVG/1.1/DTD/svg11.dtd">
<!-- Creator: CorelDRAW -->
<svg xmlns="http://www.w3.org/2000/svg" xml:space="preserve" width="105.079mm" height="80mm" version="1.1" style="shape-rendering:geometricPrecision; text-rendering:geometricPrecision; image-rendering:optimizeQuality; fill-rule:evenodd; clip-rule:evenodd"
viewBox="0 0 10507.9 8000"
 xmlns:xlink="http://www.w3.org/1999/xlink"
 xmlns:xodm="http://www.corel.com/coreldraw/odm/2003">
 <defs>
  <style type="text/css">
   <![CDATA[
    .fil10 {fill:#C92E1C}
    .fil1 {fill:#F3AC3B;fill-rule:nonzero}
    .fil9 {fill:url(#id0)}
    .fil5 {fill:url(#id1)}
    .fil0 {fill:url(#id2)}
    .fil6 {fill:url(#id3)}
    .fil7 {fill:url(#id4)}
    .fil3 {fill:url(#id5)}
    .fil2 {fill:url(#id6)}
    .fil8 {fill:url(#id7)}
    .fil4 {fill:url(#id8)}
   ]]>
  </style>
  <linearGradient id="id0" gradientUnits="userSpaceOnUse" x1="600.43" y1="4217.73" x2="709.25" y2="4906.53">
   <stop offset="0" style="stop-opacity:1; stop-color:#D33230"/>
   <stop offset="1" style="stop-opacity:1; stop-color:#FD8F04"/>
  </linearGradient>
  <linearGradient id="id1" gradientUnits="userSpaceOnUse" xlink:href="#id0" x1="5908.54" y1="2659.97" x2="6016.32" y2="6378.76">
  </linearGradient>
  <linearGradient id="id2" gradientUnits="userSpaceOnUse" xlink:href="#id0" x1="3282.95" y1="2659.97" x2="3390.71" y2="6378.76">
  </linearGradient>
  <linearGradient id="id3" gradientUnits="userSpaceOnUse" xlink:href="#id0" x1="1610.59" y1="4340.52" x2="7286.06" y2="4670.84">
  </linearGradient>
  <linearGradient id="id4" gradientUnits="userSpaceOnUse" xlink:href="#id0" x1="4454.41" y1="3312.64" x2="7808.29" y2="5948.83">
  </linearGradient>
  <linearGradient id="id5" gradientUnits="userSpaceOnUse" xlink:href="#id0" x1="4595.76" y1="2659.97" x2="4703.51" y2="6378.76">
  </linearGradient>
  <linearGradient id="id6" gradientUnits="userSpaceOnUse" xlink:href="#id0" x1="3939.33" y1="2659.97" x2="4047.09" y2="6378.76">
  </linearGradient>
  <linearGradient id="id7" gradientUnits="userSpaceOnUse" xlink:href="#id0" x1="2477.39" y1="1809.17" x2="9146.96" y2="5908.04">
  </linearGradient>
  <linearGradient id="id8" gradientUnits="userSpaceOnUse" xlink:href="#id0" x1="5252.13" y1="2659.97" x2="5359.92" y2="6378.76">
  </linearGradient>
 </defs>
 <g id="Layer_x0020_1">
  <metadata id="CorelCorpID_0Corel-Layer"/>
  <g id="_2516641496096">
   <path class="fil0" d="M3401.21 6404.74c0,35.49 -28.91,64.26 -64.26,64.26l0 0c-35.49,0 -64.22,-28.77 -64.22,-64.26l0 -4018.11c0,-35.54 28.72,-64.31 64.22,-64.31l0 0c35.35,0 64.26,28.77 64.26,64.31l0 4018.11z"/>
   <path class="fil1" d="M3512.89 2339.11c0,67.82 -77.52,122.9 -173.18,122.9 -95.6,0 -173.18,-55.02 -173.18,-122.9 0,-67.87 77.58,-122.9 173.18,-122.9 95.64,0 173.18,55.03 173.18,122.9z"/>
   <path class="fil1" d="M3512.89 6445.84c0,67.82 -77.52,122.89 -173.18,122.89 -95.6,0 -173.18,-55.07 -173.18,-122.89 0,-67.93 77.58,-122.95 173.18,-122.95 95.64,0 173.18,55.02 173.18,122.95z"/>
   <path class="fil2" d="M4057.59 6404.74c0,35.49 -28.82,64.26 -64.22,64.26l0 0c-35.54,0 -64.26,-28.77 -64.26,-64.26l0 -4018.11c0,-35.54 28.72,-64.31 64.26,-64.31l0 0c35.4,0 64.22,28.77 64.22,64.31l0 4018.11z"/>
   <path class="fil1" d="M4169.31 2339.11c0,67.82 -77.52,122.9 -173.18,122.9 -95.66,0 -173.23,-55.02 -173.23,-122.9 0,-67.87 77.57,-122.9 173.23,-122.9 95.64,0 173.18,55.03 173.18,122.9z"/>
   <path class="fil1" d="M4169.31 6445.84c0,67.82 -77.52,122.89 -173.18,122.89 -95.66,0 -173.23,-55.07 -173.23,-122.89 0,-67.93 77.57,-122.95 173.23,-122.95 95.64,0 173.18,55.02 173.18,122.95z"/>
   <path class="fil3" d="M4714.01 6404.74c0,35.49 -28.83,64.26 -64.23,64.26l0 0c-35.54,0 -64.26,-28.77 -64.26,-64.26l0 -4018.11c0,-35.54 28.72,-64.31 64.26,-64.31l0 0c35.4,0 64.23,28.77 64.23,64.31l0 4018.11z"/>
   <path class="fil1" d="M4825.72 2339.11c0,67.82 -77.57,122.9 -173.18,122.9 -95.6,0 -173.18,-55.02 -173.18,-122.9 0,-67.87 77.58,-122.9 173.18,-122.9 95.61,0 173.18,55.03 173.18,122.9z"/>
   <path class="fil1" d="M4825.72 6445.84c0,67.82 -77.57,122.89 -173.18,122.89 -95.6,0 -173.18,-55.07 -173.18,-122.89 0,-67.93 77.58,-122.95 173.18,-122.95 95.61,0 173.18,55.02 173.18,122.95z"/>
   <path class="fil4" d="M5370.42 6404.74c0,35.49 -28.82,64.26 -64.22,64.26l0 0c-35.49,0 -64.32,-28.77 -64.32,-64.26l0 -4018.11c0,-35.54 28.83,-64.31 64.32,-64.31l0 0c35.4,0 64.22,28.77 64.22,64.31l0 4018.11z"/>
   <path class="fil1" d="M5482.19 2339.11c0,67.82 -77.61,122.9 -173.23,122.9 -95.66,0 -173.23,-55.02 -173.23,-122.9 0,-67.87 77.57,-122.9 173.23,-122.9 95.66,0 173.23,55.03 173.23,122.9z"/>
   <path class="fil1" d="M5482.19 6445.84c0,67.82 -77.61,122.89 -173.23,122.89 -95.66,0 -173.23,-55.07 -173.23,-122.89 0,-67.93 77.57,-122.95 173.23,-122.95 95.66,0 173.23,55.02 173.23,122.95z"/>
   <path class="fil5" d="M6026.84 6404.74c0,35.49 -28.83,64.26 -64.23,64.26l0 0c-35.59,0 -64.31,-28.77 -64.31,-64.26l0 -4018.11c0,-35.54 28.72,-64.31 64.31,-64.31l0 0c35.4,0 64.23,28.77 64.23,64.31l0 4018.11z"/>
   <path class="fil1" d="M6138.5 2339.11c0,67.82 -77.57,122.9 -173.18,122.9 -95.61,0 -173.13,-55.02 -173.13,-122.9 0,-67.87 77.52,-122.9 173.13,-122.9 95.61,0 173.18,55.03 173.18,122.9z"/>
   <path class="fil1" d="M6138.5 6445.84c0,67.82 -77.57,122.89 -173.18,122.89 -95.61,0 -173.13,-55.07 -173.13,-122.89 0,-67.93 77.52,-122.95 173.13,-122.95 95.61,0 173.18,55.02 173.18,122.95z"/>
   <rect class="fil6" x="1071.41" y="4310.53" width="6768.01" height="368.33"/>
   <path class="fil7" d="M8130.76 4361.67c-11.05,-333.15 -116.49,-775.11 -467.37,-979.15 -353.98,-205.87 -736.78,-308.6 -954.21,-309.23l0 368.41c164.71,0.58 464.11,70.32 713.05,219.19 242.37,144.9 331.43,480.3 340.06,706.89 -8.61,226.53 -62.69,786.35 -340.06,1057.44 -284.26,277.9 -808.9,216.28 -813.58,215.84l-9.24 -0.9 -2463.61 -0.02 0 368.28 2446.17 0c19.21,1.62 62.15,4.38 121.63,4.38 215.63,0 654.97,-30.63 959.81,-309.23 537.3,-491.23 471.27,-1460.55 467.35,-1341.9z"/>
   <path class="fil8" d="M6068.46 6007.52l-2602.22 -4.11c0,0 -1622.49,151.31 -1611.79,-1672.32 0,0 -252.83,-1543.24 1703.44,-1597.26 1303.9,-35.98 4917.74,-301.26 5690.07,-833.38l549.3 -463.44 0 3072.33 -549.3 -463.4c-772.33,-532.08 -4385.52,-568.25 -5690.07,-573.98 0,0 -1218.62,-72.53 -1218.62,818.23 0,335.4 -212.01,1417.96 1796.42,1350.17 240.11,-8.08 1981.71,0 1981.71,0l-48.94 367.16z"/>
   <path class="fil1" d="M1263.94 4543.02c0,239.25 -458.74,433.17 -609.02,433.17 0,0 0,-193.92 0,-433.17 0,-239.22 0,-433.17 0,-433.17 150.26,0 609.02,193.95 609.02,433.17z"/>
   <path class="fil1" d="M740.78 4543.02c0,239.25 -38.39,433.17 -85.82,433.17 -47.41,0 -85.74,-193.92 -85.74,-433.17 0,-239.22 38.39,-433.17 85.74,-433.17 47.45,0 85.82,193.95 85.82,433.17z"/>
   <path class="fil9" d="M719.85 4539.18c0,212.1 -29.05,384.07 -64.89,384.07 -35.76,0 -64.86,-171.97 -64.86,-384.07 0,-212.01 29.1,-383.98 64.86,-383.98 35.86,-0.03 64.89,171.92 64.89,383.98z"/>
   <path class="fil1" d="M9930.98 2963.11c0,842.8 -59.85,1526.01 -133.72,1526.01 -73.87,0 -133.81,-683.21 -133.81,-1526.01 0,-842.81 59.94,-1526.07 133.81,-1526.07 73.87,0 133.72,683.26 133.72,1526.07z"/>
   <path class="fil10" d="M9859.41 2963.11c0,774.84 -49.88,1402.94 -111.31,1402.94 -61.57,0 -111.44,-628.1 -111.44,-1402.94 0,-774.85 49.84,-1402.9 111.44,-1402.9 61.43,0 111.31,628.1 111.31,1402.9z"/>
   <path class="fil1" d="M9833.82 2963.12c0,547.74 -38.41,991.75 -85.73,991.75 -47.43,0 -85.85,-444.01 -85.85,-991.75 0,-547.75 38.39,-991.72 85.85,-991.72 47.32,0 85.73,444.01 85.73,991.72z"/>
   <path class="fil10" d="M9799.68 2963.12c0,360.02 -23.13,651.85 -51.62,651.85 -28.54,0 -51.67,-291.83 -51.67,-651.85 0,-360.01 23.11,-651.82 51.67,-651.82 28.49,0 51.62,291.84 51.62,651.82z"/>
  </g>
 </g>
</svg>
