<?xml version="1.0" encoding="utf-8"?>
<!-- Generator: Adobe Illustrator 27.5.0, SVG Export Plug-In . SVG Version: 6.00 Build 0)  -->
<svg version="1.1" id="Layer_1" xmlns="http://www.w3.org/2000/svg" xmlns:xlink="http://www.w3.org/1999/xlink" x="0px" y="0px"
	 viewBox="0 0 492 492" style="enable-background:new 0 0 492 492;" xml:space="preserve">
<g>
	
		<linearGradient id="SVGID_1_" gradientUnits="userSpaceOnUse" x1="126.3961" y1="-69.5961" x2="366.1051" y2="170.113" gradientTransform="matrix(1 0 0 1 0 204)">
		<stop  offset="0" style="stop-color:#D33230"/>
		<stop  offset="1" style="stop-color:#FD8F04"/>
	</linearGradient>
	<path style="fill-rule:evenodd;clip-rule:evenodd;fill:url(#SVGID_1_);" d="M145.7,121.6c-1.8-1.8-1.8-4.7,0-6.5
		c1.8-1.8,4.7-1.8,6.5,0l48.2,48.2c-1.3,0.8-2.5,1.8-3.6,2.9c-1.1,1.1-2.1,2.3-2.9,3.6L145.7,121.6z M295.7,166.2
		c1.1,1.1,2.1,2.3,2.9,3.6l48.2-48.2c1.8-1.8,1.8-4.7,0-6.5c-1.8-1.8-4.7-1.8-6.5,0l-48.2,48.2C293.3,164.1,294.5,165.1,295.7,166.2
		z M315,375.9c11.6-1.4,22.3-3.2,31.8-5.3c27-6.1,42.5-14.6,42.5-23.4v-17.1h-41.2C342.6,347.9,331.1,363.9,315,375.9z M350.4,320.9
		h38.9v-24.3h-38.1C352.2,304.7,351.9,312.8,350.4,320.9z M349.6,287.3h39.7V263h-49.7C344.2,270.7,347.6,278.8,349.6,287.3z
		 M333.2,253.8h56.2v-42.7c-15.1,15.4-44.9,24.5-69.1,29.3C325.1,244.6,329.4,249.1,333.2,253.8z M294,378
		c-13.9,1.1-28.5,1.7-43.1,1.8h-7.7c-15.1-0.1-30.2-0.7-44.7-1.8c-30-14.7-48.5-42.2-48.5-71.9c0-16,5.3-31.4,15.1-44.5
		c0.2-0.2,0.4-0.5,0.5-0.7c5.1-6.8,11.5-12.9,18.9-18.2c6.6,1,13.5,1.9,20.5,2.6c26.4,2.6,54.6,2.7,81.1,0.1
		c7.5-0.7,14.9-1.6,22-2.8c7.4,5.3,13.7,11.5,18.9,18.2c0.2,0.3,0.3,0.5,0.5,0.7c7,9.4,11.7,19.9,13.8,31.1c0,0.1,0,0.2,0.1,0.4
		c0.8,4.3,1.2,8.7,1.2,13.1C342.6,335.8,324,363.2,294,378z M315.8,308.7c-1.1-8.4-5.6-15.3-13-20c-7-4.4-13.5-4.9-18.8-3.6
		c-2.3-8.4-7.5-15.3-15.4-20.2c-15.4-9.7-29-4.7-37.7,3.8c-8.8-8.6-22.3-13.6-37.7-3.8c-9.4,5.9-15,14.6-16.4,25.3
		c-1.6,12.8,3.5,27.4,13.5,38c10.5,11.2,27.5,18.9,37.1,29.7c1.8,2.1,5.2,2.1,7.1,0c4.2-4.8,9.9-8.9,15.3-12.7
		c6.7,5,15.2,10,20.4,15.8c0.9,1.1,2.2,1.6,3.6,1.6c1.3,0,2.6-0.6,3.5-1.6c7.2-8.1,20.1-14,28.1-22.6
		C313.1,330.1,317.1,318.7,315.8,308.7z M144.4,330.1h-41.2v17.1c0,8.8,15.5,17.3,42.6,23.4c9.5,2.1,20.2,3.9,31.8,5.3
		C161.4,363.9,149.9,347.9,144.4,330.1z M141.3,296.6h-38.1v24.3h38.9C140.6,312.8,140.3,304.7,141.3,296.6z M152.9,263.1h-49.7
		v24.3h39.7C144.9,278.8,148.3,270.7,152.9,263.1z M172.3,240.5c-24.2-4.8-54-13.9-69.1-29.3v42.7h56.2
		C163.1,249.1,167.5,244.6,172.3,240.5z M143.3,223.3c11.9,4.1,25.5,7.5,40.4,9.9c0.1,0,0.3,0,0.4,0c39.2,6.4,84.9,6.4,124.3,0
		c0.1,0,0.3,0,0.4,0c14.8-2.4,28.4-5.8,40.4-9.9c25.5-8.9,40.2-20.5,40.2-31.9c0-11.4-14.6-23-40.2-31.9c-6.6-2.3-13.7-4.3-21.2-6.1
		l-25.8,25.8c0.1,1,0.2,2,0.2,3c0,12.6-10.2,22.8-22.8,22.8s-22.8-10.2-22.8-22.8c0-12.6,10.2-22.8,22.8-22.8c1,0,2.1,0.1,3,0.2
		l12.1-12.1c-31.3-3.8-65.5-3.8-96.8,0l12.1,12.1c6.8-0.9,13.9,1.2,19.2,6.5c8.9,8.9,8.9,23.4,0,32.3c-4.4,4.5-10.3,6.7-16.1,6.7
		c-12.5,0-22.8-10.1-22.8-22.8c0-1,0.1-2.1,0.2-3.1l-25.8-25.8c-7.5,1.8-14.6,3.8-21.2,6.1c-25.5,8.9-40.2,20.5-40.2,31.9
		C103.2,202.8,117.8,214.4,143.3,223.3z M222.6,191.9c5.3-5.3,5.3-13.9,0-19.2c-2.6-2.6-6.1-4-9.6-4s-7,1.3-9.6,4
		c-5.3,5.3-5.3,13.9,0,19.2C208.7,197.2,217.3,197.2,222.6,191.9z M279.5,168.7c-3.6,0-7,1.4-9.6,4c-5.3,5.3-5.3,13.9,0,19.2
		c5.3,5.3,13.9,5.3,19.2,0c5.3-5.3,5.3-13.9,0-19.2C286.6,170.1,283.2,168.7,279.5,168.7z M231.4,308.7c1.1-8.4,5.6-15.3,13-20
		c7.2-4.6,14-5,19.4-3.4c3.7,1.1,7,3,9.9,5.6c0.6-0.5,1.2-1.1,1.9-1.6c-1.4-6.9-5.5-12.6-11.8-16.6c-17.4-11-28.5,4.9-29,5.6
		c-1.9,2.9-6.1,2.5-7.6,0c0,0-3.1-4.4-8.3-7.2c-2.8-1.5-5.7-2.3-8.7-2.3c-3.9,0-7.9,1.3-12,3.9c-7,4.4-11.2,10.8-12.2,18.6
		c-1.3,10.2,2.9,21.9,11.1,30.5c8.5,9.1,23.6,16.6,33.9,26.4c3.6-3.4,7.6-6.5,11.6-9.3l-0.5-0.6
		C234.1,330.1,230.1,318.7,231.4,308.7z M297.9,296.5c-6.1-3.9-11.1-3.1-14.7-1.2c-0.1,0.1-0.3,0.2-0.4,0.3
		c-3.2,1.9-5.2,4.5-5.4,4.9c-1.9,2.7-5.8,2.7-7.6,0c-10.1-14.6-29.5-3.1-29.4,12.4c0.2,7.1,3.5,14.3,8.4,19.4
		c6.5,6.8,17,12.1,24.8,19.2c3.8-3.4,8.1-6.4,12.3-9.3c4.8-3.3,9.4-6.5,12.7-10c6-6.3,9.1-14.9,8.1-22.3
		C305.9,304.2,303,299.7,297.9,296.5z"/>
</g>
<g id="Master_Layer_3">
</g>
<path style="fill:#DD4925;" d="M246.3,6.7C312.5,6.7,372.5,33.6,416,77c43.4,43.4,70.3,103.4,70.3,169.7S459.4,373,416,416.4
	s-103.4,70.3-169.7,70.3S120,459.9,76.6,416.4C33.1,373,6.3,313,6.3,246.7S33.1,120.5,76.6,77C120,33.6,180,6.7,246.3,6.7L246.3,6.7
	z M408.4,84.6c-41.5-41.5-98.8-67.2-162.1-67.2S125.6,43.1,84.1,84.6S17,183.4,17,246.7s25.7,120.6,67.2,162.1S183,476,246.3,476
	s120.6-25.7,162.1-67.2s67.2-98.8,67.2-162.1S449.9,126.1,408.4,84.6z"/>
</svg>
