<?xml version="1.0" encoding="UTF-8"?>
<!DOCTYPE svg PUBLIC "-//W3C//DTD SVG 1.1//EN" "http://www.w3.org/Graphics/SVG/1.1/DTD/svg11.dtd">
<!-- Creator: CorelDRAW -->
<svg xmlns="http://www.w3.org/2000/svg" xml:space="preserve" width="500mm" height="500mm" version="1.1" style="shape-rendering:geometricPrecision; text-rendering:geometricPrecision; image-rendering:optimizeQuality; fill-rule:evenodd; clip-rule:evenodd"
viewBox="0 0 50000 50000"
 xmlns:xlink="http://www.w3.org/1999/xlink"
 xmlns:xodm="http://www.corel.com/coreldraw/odm/2003">
 <defs>
  <style type="text/css">
   <![CDATA[
    .fil8 {fill:url(#id0)}
    .fil9 {fill:url(#id1)}
    .fil20 {fill:url(#id2)}
    .fil2 {fill:url(#id3)}
    .fil10 {fill:url(#id4)}
    .fil19 {fill:url(#id5)}
    .fil7 {fill:url(#id6)}
    .fil6 {fill:url(#id7)}
    .fil13 {fill:url(#id8)}
    .fil17 {fill:url(#id9)}
    .fil16 {fill:url(#id10)}
    .fil24 {fill:url(#id11)}
    .fil11 {fill:url(#id12)}
    .fil0 {fill:url(#id13)}
    .fil5 {fill:url(#id14)}
    .fil23 {fill:url(#id15)}
    .fil3 {fill:url(#id16)}
    .fil12 {fill:url(#id17)}
    .fil22 {fill:url(#id18)}
    .fil15 {fill:url(#id19)}
    .fil4 {fill:url(#id20)}
    .fil18 {fill:url(#id21)}
    .fil14 {fill:url(#id22)}
    .fil1 {fill:url(#id23)}
    .fil21 {fill:url(#id24)}
   ]]>
  </style>
  <linearGradient id="id0" gradientUnits="userSpaceOnUse" x1="29014.87" y1="18619.36" x2="31444.3" y2="21221.37">
   <stop offset="0" style="stop-opacity:1; stop-color:#D33230"/>
   <stop offset="1" style="stop-opacity:1; stop-color:#FD8F04"/>
  </linearGradient>
  <linearGradient id="id1" gradientUnits="userSpaceOnUse" xlink:href="#id0" x1="33164.58" y1="21008.7" x2="35659.66" y2="23809.86">
  </linearGradient>
  <linearGradient id="id2" gradientUnits="userSpaceOnUse" xlink:href="#id0" x1="23887.46" y1="16308.84" x2="26357.51" y2="17188.99">
  </linearGradient>
  <linearGradient id="id3" gradientUnits="userSpaceOnUse" xlink:href="#id0" x1="10112.98" y1="3095.9" x2="39812.73" y2="26435.84">
  </linearGradient>
  <linearGradient id="id4" gradientUnits="userSpaceOnUse" xlink:href="#id0" x1="11202.96" y1="1741.21" x2="13707.19" y2="3991.19">
  </linearGradient>
  <linearGradient id="id5" gradientUnits="userSpaceOnUse" xlink:href="#id0" x1="34102.64" y1="20280.83" x2="36157.16" y2="22225.69">
  </linearGradient>
  <linearGradient id="id6" gradientUnits="userSpaceOnUse" xlink:href="#id0" x1="23847.52" y1="17284.9" x2="26424.27" y2="19626.29">
  </linearGradient>
  <linearGradient id="id7" gradientUnits="userSpaceOnUse" xlink:href="#id0" x1="30108.27" y1="23352.77" x2="33842.07" y2="27559.09">
  </linearGradient>
  <linearGradient id="id8" gradientUnits="userSpaceOnUse" xlink:href="#id0" x1="32792.58" y1="6162.75" x2="35199.84" y2="8274.61">
  </linearGradient>
  <linearGradient id="id9" gradientUnits="userSpaceOnUse" xlink:href="#id0" x1="29346.43" y1="17592.99" x2="31660.65" y2="19052.98">
  </linearGradient>
  <linearGradient id="id10" gradientUnits="userSpaceOnUse" xlink:href="#id0" x1="29859.06" y1="16422.36" x2="31869.28" y2="17959.5">
  </linearGradient>
  <linearGradient id="id11" gradientUnits="userSpaceOnUse" xlink:href="#id0" x1="19297.96" y1="16002.58" x2="20266.59" y2="16774.16">
  </linearGradient>
  <linearGradient id="id12" gradientUnits="userSpaceOnUse" xlink:href="#id0" x1="15446.2" y1="10822.21" x2="17757.84" y2="13135.53">
  </linearGradient>
  <linearGradient id="id13" gradientUnits="userSpaceOnUse" xlink:href="#id0" x1="11058.79" y1="15638.47" x2="37241.54" y2="42155.96">
  </linearGradient>
  <linearGradient id="id14" gradientUnits="userSpaceOnUse" xlink:href="#id0" x1="24156.78" y1="20222.73" x2="26372.4" y2="24721.11">
  </linearGradient>
  <linearGradient id="id15" gradientUnits="userSpaceOnUse" xlink:href="#id0" x1="19572.03" y1="17056.87" x2="20868.25" y2="17725.95">
  </linearGradient>
  <linearGradient id="id16" gradientUnits="userSpaceOnUse" xlink:href="#id0" x1="25763.8" y1="42709.88" x2="32182.59" y2="48618.64">
  </linearGradient>
  <linearGradient id="id17" gradientUnits="userSpaceOnUse" xlink:href="#id0" x1="20204.38" y1="20669.95" x2="22846.83" y2="23562.39">
  </linearGradient>
  <linearGradient id="id18" gradientUnits="userSpaceOnUse" xlink:href="#id0" x1="24136.35" y1="14214.6" x2="25961.09" y2="14912.68">
  </linearGradient>
  <linearGradient id="id19" gradientUnits="userSpaceOnUse" xlink:href="#id0" x1="24005.2" y1="15116.16" x2="26126.89" y2="16213.61">
  </linearGradient>
  <linearGradient id="id20" gradientUnits="userSpaceOnUse" xlink:href="#id0" x1="23888.59" y1="9684.69" x2="25969.23" y2="14024.5">
  </linearGradient>
  <linearGradient id="id21" gradientUnits="userSpaceOnUse" xlink:href="#id0" x1="34774.35" y1="19466.23" x2="36623.1" y2="21256.95">
  </linearGradient>
  <linearGradient id="id22" gradientUnits="userSpaceOnUse" xlink:href="#id0" x1="19723.83" y1="18065.07" x2="21414.69" y2="20271.54">
  </linearGradient>
  <linearGradient id="id23" gradientUnits="userSpaceOnUse" xlink:href="#id0" x1="9490.73" y1="30937.61" x2="24324.69" y2="48594.78">
  </linearGradient>
  <linearGradient id="id24" gradientUnits="userSpaceOnUse" xlink:href="#id0" x1="30341.68" y1="15364.91" x2="32069.3" y2="16646.54">
  </linearGradient>
 </defs>
 <g id="Layer_x0020_1">
  <metadata id="CorelCorpID_0Corel-Layer"/>
  <g id="_2517085637184">
   <path class="fil0" d="M34350.41 38753.78c384.24,21.35 737.67,-76.22 1089.05,-186.79 255.59,-80.43 347.34,-18.82 381.17,248.45 39.53,312.32 -125.65,567.15 -468.31,688.22 -393.32,138.95 -805.4,204.96 -1213.43,285.21 -135.12,26.57 -270.1,53.99 -399.83,118.23 284.52,99.76 561.78,14.11 838.65,-14.67 111.59,-11.6 220.59,-50.86 329.96,-80.57 352.83,-95.83 351.46,-96.42 339.31,264.78 -11.08,328.86 -182.69,543.22 -468.38,686.84 -387.88,195.01 -822.55,205.79 -1230.26,321.91 -87.11,24.8 -186.68,15.58 -267.21,125.06 434.6,32.58 839.16,-2.29 1224.88,-162.19 183.3,-75.98 212.6,-8.88 191.52,154.74 -65.57,508.87 -406.67,789.37 -847.41,931.8 -498.52,161.1 -1017.07,241.9 -1496.28,-89.4 -110.78,-76.59 -133.68,33.92 -168.6,80.73 -129.93,174.17 -263.73,348.66 -366.33,539.05 -84.02,155.9 -169.5,154.95 -318.85,102.81 -606.21,-211.56 -624.59,-217.64 -254.76,-752.29 1216.25,-1758.27 2411.47,-3530.5 3578.82,-5321.55 87.78,-134.68 171.09,-272.25 257.37,-407.92 89.91,-141.39 123.97,-277.96 68.11,-453.83 -90.79,-285.87 18.26,-411.68 305.38,-343.54 127.43,30.24 172.67,-3.27 224.27,-87.73 161.03,-263.44 347.91,-512.57 456.55,-828.83 212.39,142.74 376.78,346.75 643.77,404.32 -77.72,-69.84 -153.24,-142.33 -233.51,-209.1 -454.84,-378.3 -549.26,-782.54 -284.11,-1321.83 112.31,-228.44 244.44,-424.37 114.81,-707.38 -83.83,-183.04 46.82,-359.54 241.36,-416.45 171.44,-50.16 164.12,-138.53 127.96,-272.63 -126.2,-467.95 -385.4,-567.25 -763.68,-262.92 -478,384.58 -807.89,899.79 -1156.34,1393.77 -1101.82,1562.06 -2174.95,3145.36 -3459.5,4568.98 -21.88,24.26 -58.64,49.9 -6.64,136.64 386.1,-449.47 870.89,-585.54 1442.99,-487.32 376.35,64.61 740.04,139.23 1068.54,367.78 -748.09,1114.55 -1490.49,2220.59 -2264.62,3373.92 -281.76,-519.65 -787.31,-641.86 -1285.75,-788.04 -264.44,-77.55 -508.57,-221.76 -710.41,-406.22 -167.34,-152.94 -278.96,-105.84 -434.77,2.45 -764.13,531.09 -1574.55,972.45 -2451.54,1296.62 -395.73,146.27 -760.67,158.27 -1170.71,55.79 -1366.84,-341.59 -2736.39,-671.66 -4090.3,-1062.82 -639.26,-184.7 -1229.96,-488.35 -1837.63,-750.13 -261.65,-112.72 -526.87,-219.02 -807.37,-261.12 -217.73,-32.68 -359.94,-131.4 -465.51,-320.06 -951.44,-1700.08 -1976.02,-3360.17 -2813.3,-5122.56 -336.41,-708.14 -583.68,-1457.29 -986.19,-2135.62 -814.52,-1372.69 -1923.56,-2379.96 -3501.38,-2783.84 -903.44,-231.25 -1743.15,-76.88 -2480.53,516.16 43.69,-435.31 535.35,-1222.12 1237.42,-1957.63 544,-569.92 1177.13,-1030.23 1891.56,-1476.61 -262.64,-20.77 -448.94,57.79 -684.96,134.03 191.5,-585.81 375.36,-1127.92 543.88,-1674.74 58.04,-188.33 157.93,-194.07 317.82,-145.07 867.36,265.81 1737.45,522.7 2605.07,787.71 569.23,173.86 1134.54,360.59 1704.4,532.3 177.67,53.54 246.85,144.5 267.55,336.75 60.37,560.97 159.18,1116.48 483.88,1670.97 90.88,-805.35 173.12,-1551.3 473.03,-2300.35 125.76,376.17 215.71,716.01 273.2,1063.59 35.9,216.95 89.31,405.08 262.46,573 1480.85,1436.1 2953.09,2881.21 4247.71,4493.71 99.78,124.27 203.84,245.1 315.24,378.69 -36.59,-412.53 -1050.9,-1989 -1940.18,-2953.87 -807.32,-875.95 -1654.07,-1712.67 -2525.59,-2535.21 547.88,-112.02 1460.83,167.63 2010.05,587.87 688.95,527.16 1229.83,1203.17 1844.23,1805.09 65.81,64.47 120.93,139.84 209.62,192.95 -185.16,-579.84 -129.97,-1168.06 -133.9,-1744.4 -7.01,-1027.19 -190.74,-2009.62 -629.17,-3019.05 435.47,205.43 814.34,377.87 1187.38,562.08 304.94,150.59 600.95,320.01 923.29,432.33 65.97,22.98 110.63,44.78 141,117.27 153.08,365.28 469.25,607.37 710.99,959.16 30.39,-130.22 58.13,-216.81 70.07,-305.54 67.08,-498.39 34.76,-473.34 -401.52,-710.68 -1402.66,-763.07 -2892.09,-1346.63 -4296.41,-2104.7 -103.29,-55.75 -217.72,-207.71 -346.83,-77.62 -118.01,118.91 -131.09,273.71 -74.47,448.06 217.81,670.66 90.16,913.71 -581.93,1115.48 -445.1,133.63 -902.01,215 -1367.56,228.13 -211.3,5.95 -335.15,57.18 -306.17,309.16 26.63,231.68 -32.14,461.65 -72.81,694.3 -21.77,-10.16 -36.86,-13.18 -37.48,-18.07 -69.37,-534.93 -453.01,-679.46 -910.14,-809.09 -1400.67,-397.22 -2789.76,-835.14 -4185.24,-1250.92 -107.55,-32.04 -132.54,-62.34 -109.41,-172.75 28.65,-136.77 26.6,-279.96 42.17,-474.97 -103.97,118.41 -173.63,197.75 -276.79,315.23 -26.03,-555.88 -357.31,-920.8 -640.38,-1312.77 -892.28,-1235.55 -1033.35,-2587.19 -612,-4023.28 25.84,-88.08 57.46,-174.44 97.83,-296.09 -253.23,91.9 -448.12,227.28 -676.29,282.1 -318.68,76.54 -478.94,16.61 -623.52,-279.61 -205.02,-420.07 -199.58,-863.04 -85.71,-1303.07 283.46,-1095.36 1013.06,-1836.01 1950.09,-2401.71 1290.73,-779.24 2707.78,-923.05 4165.12,-764.99 1201.6,130.33 2396.54,321.54 3595.01,481.25 786.85,104.85 1054.9,445.73 939.73,1232.05 -77.99,532.46 -263.97,1012.23 -765.66,1291.44 -139.36,77.55 -125.71,166.62 -87.05,279.24 131.84,384.05 263.73,768.08 398.35,1151.16 84.86,241.48 99.37,484.48 -5.05,719.91 -83.69,188.73 -46.25,349.6 69.97,503.22 228.31,301.78 458.86,601.87 688.27,902.83 63.04,82.72 129.83,163.01 187.18,249.54 260.64,393.27 221.99,611.15 -200.98,814.28 -219.92,105.62 -256.56,241.41 -228.5,446.24 42.32,308.78 96.2,616.25 25.48,930.48 -38.85,172.68 124.92,190.97 228.1,235.76 953.32,413.96 1909.4,821.55 2863.56,1233.6 1161.1,501.42 2339.44,963.12 3480.65,1510.33 393.88,188.86 768.4,412.88 1108.29,685.46 256.91,206.03 543.63,287.47 886.2,310.93 -102.54,-243.23 -337.11,-334.01 -481.71,-508.17 487.32,-154.55 1087.16,25.39 1727.4,516.42 -14.05,-486.96 -101.99,-629.08 -530.18,-845.43 -501.2,-253.25 -1018.05,-344.33 -1559.45,-137.15 -66.97,25.65 -140.25,44.29 -178.72,-16.5 -43.81,-69.21 38.27,-116.96 72.97,-168.4 634.14,-940.12 1137.39,-1939.25 1407.4,-3048.67 39.48,-162.21 32.97,-250.33 -123.6,-344.78 -165.57,-99.87 -284.9,-270.07 -216.02,-481.16 67.61,-207.27 257.92,-285.15 453.1,-278.7 617.2,20.4 1197.58,172.15 1681.56,579.47 134.89,113.53 270.94,248.16 192.07,461.93 -81.71,221.53 -262.02,312.21 -471.15,280.42 -228.65,-34.76 -226.73,132.47 -263.08,251.39 -270.63,885.35 -387.57,1792.16 -345.58,2717.48 16.25,358.38 -3.02,719.21 81.95,1073.62 41.05,171.24 -15.6,309.92 -180.27,403.26 -147.61,83.67 -275.73,192.89 -336.65,399.54 806.02,-209.47 1420.67,112.56 1975.33,617.27 115.83,105.4 206.5,171.35 -24.78,281.89 -1433.24,685.01 -2870.75,1361.76 -4270.34,2115.36 -1865.6,1004.5 -3749.31,1976.63 -5538.04,3117.36 -682.43,435.2 -1301.53,944.28 -1800.94,1587.9 -95.66,123.29 -188.71,248.67 -227.56,359.48 2766.91,-2136.08 5955.39,-3592.5 9062.07,-5186.44 1690.68,-867.43 3395.58,-1711.39 5165.68,-2410.51 1229.16,-485.45 2480.79,-720.23 3788.94,-306.6 2875.54,909.22 3123.65,4123.48 1594.94,5761.31 -69.31,74.28 -132.57,129.95 -54.2,237.81 158.02,217.47 46.37,388.15 -133.88,501.52 -275.98,173.59 -467.34,403.49 -597.95,698.2 -96.77,218.36 -270.2,394.2 -501.91,424.89 -473.8,62.76 -692.63,411.3 -932.48,746.93 -134.49,188.19 -285.19,356.6 -118.36,626.31 95.66,154.66 -72.35,344.62 -278.55,305.42 -182.77,-34.74 -252.48,47.06 -337.09,166.31 -322.4,454.35 -672.34,890.05 -943.04,1379.29 -145.49,262.87 -341.28,469.63 -619.06,609.93zm-14637.54 -8438.16c-57.45,-48.08 -114.26,-96.97 -172.46,-144.13 -737.36,-597.46 -1541.7,-1092.11 -2377.25,-1537.04 -1295.07,-689.64 -2614.22,-1323.77 -4056.06,-1651.29 -387.54,-88.04 -782.45,-161.06 -1219.89,-48.71 2708.44,970.89 5331.48,2016.2 7825.66,3381.17zm50.57 3218.15c-143.44,-1811.11 -2742.48,-4560.61 -4797.84,-5042.99 2026.11,1327.84 3701,2892.32 4797.84,5042.99zm4135.32 -4913.32c877.66,-493.22 1769.24,-520.73 2696.81,-155.24 -130.45,-240.84 -242.69,-446.32 -353.11,-652.78 -46.21,-86.39 -100.83,-158.51 -208.05,-171.08 -519.69,-60.87 -1031.17,-66.09 -1527.59,146.05 -362.34,154.83 -563.88,412.83 -608.06,833.05zm-1671.84 -274.63c423.15,-528.19 852.34,-838.1 1473.77,-962.63 299.42,-60 394.36,-198.19 441.38,-471.78 40.36,-234.83 -37.39,-258.54 -230.28,-224.43 -502.12,88.76 -959.7,277.99 -1360.99,593.26 -342.67,269.2 -500.13,603.62 -323.88,1065.58zm6634.17 -1380.32c-69.87,-409.07 -298.18,-617.52 -691.21,-633.34 -525.07,-21.15 -980.96,160.3 -1378.36,489.32 -331.71,274.63 -432.94,637.92 -291.91,962.87 521.47,-797.49 1703.35,-1250.04 2361.48,-818.85zm9436.37 6637.01c150.64,-17.61 316.83,0.25 338.15,-139.14 18.3,-119.73 -147.95,-116.32 -238.4,-145.49 -549.24,-177.11 -1072.24,-405.91 -1539.72,-749.8 -80.6,-59.3 -153.8,-157.93 -257.2,-27.69 -87.82,110.62 -30.63,195.65 46.36,271.21 467.94,459.37 1050.82,674.8 1650.81,790.91zm-25711.72 -5060.45c236.89,-0.83 425.28,-196.28 419.53,-435.25 -5.43,-226.03 -212.86,-416.82 -449.8,-413.73 -211.94,2.77 -426.58,205.19 -431.63,407.08 -5.36,213.39 234.33,442.69 461.9,441.9zm1022.2 -2812.16c-2.14,-234.8 -195.44,-426.22 -432.08,-427.94 -205,-1.5 -429.76,212.18 -429.53,408.35 0.27,226.59 229.58,444.52 463.34,440.31 228.69,-4.09 400.41,-185.51 398.27,-420.72zm12674.48 1194.06c242.7,-483.35 238.15,-505.5 -163.26,-768.51 -94.31,-61.79 -188.46,-127.01 -290.62,-173.06 -388.88,-175.33 -772.54,-370.74 -1214.74,-386.5 587.1,405.48 1419.31,484.45 1668.62,1328.07z"/>
   <path class="fil1" d="M19934.62 45174.99c-902.35,-303.91 -1804.25,-609.18 -2707.21,-911.27 -618.74,-207.02 -1234.99,-422.89 -1859.6,-610.73 -731.39,-219.95 -1269.26,-673.85 -1719.62,-1276.33 -601.56,-804.75 -1135.86,-1652.52 -1671.21,-2500.12 -777.77,-1231.38 -1578.75,-2449.33 -2221.61,-3760.73 -462.15,-942.74 -896.45,-1894.55 -1020,-2955.83 -42.64,676.05 24.44,1339.34 170.11,1998.61 -309.32,-510.99 -512.44,-1064.72 -645.35,-1641.06 -166.67,-722.77 -228.72,-1454.61 -134.43,-2197.16 189.84,-1495.11 1306.53,-2262.01 2780.13,-1895.15 1208.46,300.87 2125.71,1038.82 2918.26,1960 730.41,848.98 1269.14,1807.56 1641.11,2862.99 472.74,1341.35 1055.07,2631.72 1808.79,3841.09 24.38,39.13 44,81.23 89.41,165.87 -1190.29,-560.56 -2271.17,-498.4 -3247.08,388.75 1391.63,-553.82 2707.63,-571.43 3932.27,542.45 -579.42,87.3 -1016.74,341.54 -1397.47,745.42 1460.28,-697.96 2713.61,-44.24 3953.73,595.69 -578.66,110.1 -1087.94,412.42 -1566.45,828.91 51.21,8.61 80.2,23.56 97.21,14.9 1106.28,-561.42 2258.48,-555.44 3428.83,-268.25 944.49,231.77 1884.27,482.7 2828.54,715.51 132.96,32.79 197.05,76.05 191.39,218.67 -53.1,1341.43 -386.72,2594.53 -1168.23,3704.9 -84.86,120.57 -203.53,217.31 -332.62,352.44 324.88,7.66 609.04,-48.97 806.36,-278.59 119.37,-138.9 242.76,-127 377.24,-110.02 153.46,19.38 96.06,165.88 114.04,254.13 181.15,889.34 303.66,1787.54 378.72,2691.9 29.75,358.44 23.77,353.59 -329.83,363.41 -2965.42,82.36 -5810.46,-481.21 -8555.16,-1587.67 -1840.35,-741.88 -3551.03,-1697.53 -4988.71,-3085.36 -1493.35,-1441.56 -2304.05,-3184.59 -2268.42,-5287.88 8.97,-529.09 1.34,-1058.44 1.34,-1588.37 107.9,-18.54 103.21,73 132.07,121.23 592.75,991.02 1240.21,1946.14 1903.63,2890.37 95.52,135.97 113.28,246.38 78.74,412.61 -254.87,1226.87 127.82,2295.2 862.1,3262.09 291.76,384.19 619.32,738.32 1045.08,1034.23 154.88,-464.82 304.47,-917.71 456.82,-1369.7 111.63,-331.2 111.21,-326.26 421.65,-184.04 1279.08,585.92 2639.16,918.74 3993.59,1267.26 464.63,119.56 934.67,218.04 1402.24,326.17 6.52,-17.11 13.06,-34.21 19.6,-51.34zm2770.28 -478.15c-233.69,-14.92 -441.34,155.59 -455.9,374.38 -16.29,244.99 156.7,443.1 401.16,459.44 246.76,16.49 429.87,-133.59 449.56,-368.46 20.1,-239.61 -158.64,-450.29 -394.82,-465.36z"/>
   <path class="fil2" d="M33465.25 12925.59c-167.48,177.77 -339.55,303.34 -570.84,321.21 -164.48,12.71 -173.46,161.14 -208.51,270.16 -188.95,587.86 -249.79,1201.79 -355.15,1806.66 -14.52,83.29 -29.39,166.5 -49.81,282.05 -419.72,-531.67 -963.93,-671.97 -1607.28,-610.16 57.5,-283.88 181.31,-543.81 291.81,-808.11 167.94,-401.73 309.17,-812.32 430.37,-1230.81 44.38,-153.26 29.32,-262.48 -84.77,-380.78 -182.4,-189.12 -272.41,-421.67 -146.64,-674.44 121.34,-243.85 351.29,-342.64 612.5,-338.83 738.74,10.79 1337.73,291.31 1737.86,975.61 -13.07,-775.56 -722.56,-1289.67 -1742.36,-1286.79 105.8,-270.27 264.95,-514.99 323.1,-839.59 -476.38,486.02 -958.91,879.58 -1594.89,1059.98 -983.61,279.01 -1868.35,78.12 -2685.98,-495.41 -808.53,-567.15 -1344.86,-1356.65 -1785.27,-2221.81 -76.63,-150.58 -160.42,-297.5 -259.37,-480.22 -102.3,315.8 14.9,612.82 -38.06,918.32 -492.12,-269.29 -987.15,-256.19 -1482.92,-53.22 -123.36,50.5 -150.76,9.31 -149.48,-103.35 8,-700.16 12.18,-1400.38 22.45,-2100.5 9.85,-671.24 17.03,-1342.71 43.41,-2013.39 9.09,-230.89 -193.42,-257.73 -298.15,-374.9 -227.85,-254.93 -278.58,-220.8 -540.85,14.33 -575.53,516.03 -1156.89,1023.74 -1847.9,1395.94 -736.32,396.61 -1500.02,696.06 -2326.57,823.34 -1313.54,202.27 -2553.46,-5.25 -3701.92,-691.41 -201.26,-120.24 -396.02,-251.29 -596.23,-373.37 -44.18,-26.95 -98.69,-36.93 -234.58,-85.51 754.39,1591.93 1476.25,3115.2 2207.23,4657.74 -615.09,32.99 -1132.17,239.07 -1531.31,740.74 -298.16,-630.63 -550.75,-1267.25 -795.07,-1907.69 -316.92,-830.72 -647.11,-1656.51 -952.05,-2491.56 -98.19,-268.89 -234.78,-455.88 -544.14,-495.37 -126.75,656.39 -277.16,1313.64 -551.02,1936.83 -415.91,946.45 -983.41,1763.05 -1845.47,2369.3 -503.92,354.38 -1064.72,594.35 -1593.3,897.43 -492.47,282.37 -916.1,630.51 -1041.28,1198.21 -95.38,432.54 -50.68,867.34 258.24,1250.01 169.02,209.37 384.11,370.94 538.35,598.47 105.18,155.14 50.72,228.7 -23.89,335.84 -90.96,130.67 -199.8,149.22 -343.29,78.91 -685.11,-335.72 -1019.65,-917.59 -1095.06,-1642.77 -113.51,-1091.57 396.66,-1854.68 1324.22,-2388.6 529.35,-304.7 1107.71,-525.09 1593.47,-902.78 314.59,-244.6 612.82,-501.98 876.11,-814.06 245.16,-290.58 446.58,-607.48 603.6,-933.18 231.81,-480.81 417.04,-991.97 521.04,-1524.02 68.88,-352.39 132.35,-706.58 222.7,-1053.59 27.58,-105.9 7.7,-137.1 -65.25,-202.61 -343.92,-308.86 -377,-590.11 -68,-931.58 460.23,-508.55 1043.92,-778.49 1739.02,-743.44 516.02,26.01 699.03,310.09 538.04,799.02 -26.31,79.87 -48.55,147.87 31.71,199.17 526.76,336.67 962.64,797.29 1548.96,1058.62 778.03,346.79 1572.42,514.32 2424.68,454.85 818.09,-57.08 1568.9,-307.5 2295.78,-672.08 709.45,-355.83 1313.29,-839.98 1893.84,-1375.81 286.13,-264.1 522.25,-586.01 856.94,-796.7 416.09,-261.93 432.8,-534.96 106.32,-1003.73 -83.61,-120.06 -224.79,-200.08 -339.75,-298.21 -269.41,-229.97 -271.82,-453.2 -8.2,-691.5 244.32,-220.84 550.16,-301.18 860.47,-329.83 479.97,-44.33 963.17,-57.54 1434.13,91.03 127.32,40.16 246.69,90.67 358.89,164.09 409.4,267.96 422.91,523.09 19.51,804.25 -267.43,186.39 -469.6,406.89 -538.97,733.48 -27.6,129.89 -31.84,255.98 90.97,396.69 -1077.88,-292.76 -1796.56,-91.45 -1902.58,499.83 533.48,-446.73 1132.17,-470.71 1755.87,-257.73 525,179.27 641.47,591.33 278.94,1007.93 -188.13,216.2 -241.35,415.36 -198.32,710.49 165.12,1132.48 543.54,2194.78 1031.92,3215.35 346.37,723.84 801.84,1398.96 1431.37,1909.03 714.11,578.6 1537.92,841.23 2446.56,514.65 316.2,-113.65 593.36,-338.1 846.01,-568.28 432.2,-393.79 816.63,-828.2 1172.59,-1296.74 138.51,-182.35 225.45,-403.02 396.32,-561.18 26.8,-24.81 63.38,-65.03 59.47,-93.14 -56.05,-403.21 234.54,-244.52 408.16,-243.87 183.49,0.68 346.38,94.31 499.91,187.12 157.7,95.33 285.85,142.51 148.36,423.98 -176.55,361.44 -176.68,804.63 -227.99,1217.58 -87.17,701.65 -27.09,1400.95 119.06,2079.34 86.41,401.08 243.99,799.62 425.39,1185.04 273.28,580.62 658.1,1058 1137.26,1464.02 542.9,460.04 1169.96,590.52 1845.74,353.22 217.05,-76.22 415.81,-217.1 607.33,-350.76 376.03,-262.43 734.61,-565.08 1159.37,-732.3 318.33,-125.32 592.22,-272.38 797.58,-543.59 39.72,-52.44 113.4,-98.91 119.46,-153.86 37.17,-337.29 244.14,-240.84 426.36,-167.2 249.45,100.8 459.26,263.7 625.62,476.47 83.61,106.95 156.57,220.9 25.98,348.76 -50.44,49.38 -81.98,102.57 -11.3,166.83 149.7,136.07 537.85,177.58 725.75,68.76 245.94,-142.43 287.84,-376.81 281.29,-634.18 -3.56,-139.39 -94.9,-115.01 -178.29,-103.65 -221.31,30.15 -407.68,142.03 -591,268.15 -237.48,-489.67 -607.34,-792.84 -1158.84,-859.8 97.21,-349.35 76.33,-671.16 -78.43,-997.43 -149.73,-315.7 27.26,-559.38 380.88,-576.54 1016.72,-49.32 2101.51,883.78 2204.29,1891.3 28.23,276.86 109.75,536.64 49.06,833.64 -179.71,879.36 -1284.1,1155.82 -1923.32,736.44 -200.31,-131.42 -257.47,-65.14 -352.58,94.82 -245.79,413.38 -451.4,851.97 -773.87,1255.49 -203.79,-550.78 -670.69,-799.86 -1162.83,-916.01 -177.83,-41.97 -550.77,17.56 -714.8,304.18 760.79,-157.8 1540.78,286.54 1804.2,1022.56 177.99,497.25 -113.54,908.23 -624.46,853.01 -160.48,-17.34 -244.23,31.74 -327.07,147.53 -464.48,649.16 -779.82,1361.15 -896.13,2153.32 -193.67,1319.08 -265.27,2646.9 -263.95,3979.12 0.19,183.41 -23.65,339.98 157.45,512.71 218.89,208.77 215.89,566.09 280.49,866.63 75.99,353.52 7.2,719.7 105.31,1076.7 82.28,299.37 63.25,614.92 30.05,926.11 -14.87,139.38 -72.81,128.13 -165.75,77.47 -405.35,-220.93 -845.49,-343.19 -1300.26,-357.75 -307.05,-9.84 -332.55,-284.94 -314.34,-396.01 107.64,-655.91 99.14,-1334.77 348.68,-1964.93 27.72,-69.98 39.16,-169.04 91.53,-202.76 249.14,-160.41 188,-385.15 180.42,-622.52 -29.09,-911.27 -20.21,-1820.21 115.47,-2728 71.94,-481.38 -188.29,-879.31 -526.77,-1201.96 -294.75,-280.96 -654.2,-445.94 -1073.38,-452.72 104.28,-273.11 357.57,-440.98 625.46,-400.55 537.68,81.16 911.36,384.37 1146.39,869.04 130.23,268.56 35.01,510.27 -125.09,786.75 301.61,-255.46 392.16,-582.37 270.41,-928.95 -216.77,-617.03 -660.7,-945.14 -1335.67,-1004.02 250.64,-275.85 497.13,-537.76 732.6,-809.21 191.97,-221.27 343.72,-484.97 561.3,-674.86 390.67,-340.96 256.61,-764.41 250.07,-1172.93 -1.98,-123.02 -98.52,-68.73 -144.89,-56.34 -932.67,249.18 -1731.75,-35.85 -2446.53,-622.57 -501.56,-411.71 -887.18,-922.68 -1156.69,-1512.46 -85.95,-188.12 -172.64,-373.94 -292.74,-589.14zm-18902.28 -8138.71c-227.42,-280.98 -562.87,-289.84 -1070.76,-56.35 -468.18,215.23 -699.88,543.4 -629.27,900.2 411.64,-572.24 972.6,-843.68 1700.03,-843.85zm24066.58 11062.05c-172.23,-149.7 -356.11,-294.57 -700.97,-212.34 283.99,78.29 494.77,127.11 700.97,212.34z"/>
   <path class="fil3" d="M25154.02 45584.41c468.63,-991.19 793.97,-1954.02 937.19,-2971.85 27.41,-194.77 86.77,-285.75 314.37,-284.16 309.69,2.14 621.16,-50.3 929.53,-95.28 1443.95,-210.58 2791.63,165.43 4121.76,661.71 390.56,145.72 781.22,289.18 1104.51,562.79 162.14,137.22 330.1,295.2 201.45,530.21 -127.42,232.78 -344.34,275.69 -588.92,189.9 -326.53,-114.54 -653,-229.2 -1018.94,-357.66 82.81,201.07 245.36,218.13 371.89,269.59 228.38,92.86 457.75,183.99 656.54,329.61 192.42,140.95 343.37,332.18 248.1,580.75 -89.8,234.35 -311.33,273.91 -546.62,260.65 -395.43,-22.26 -732.18,-229.03 -1170.1,-367.98 229.62,218.14 458.45,286.87 669.45,385.17 162.59,75.73 337.95,129.87 488.63,224.02 288.26,180.09 260.26,522.08 -47.89,670.37 -183.25,88.18 -374.53,114.94 -579,61.83 -340.34,-88.4 -664.81,-217.22 -986.34,-355.98 -86.78,-37.44 -174.51,-73.16 -263.44,-105.07 -82.05,-29.45 -152.02,-4.54 -194.38,70.92 -55.97,99.71 29.06,135.86 92.29,171.41 205.98,115.85 419.63,218.88 620.42,342.88 133.7,82.58 302.19,178.77 252.15,368.68 -53.2,201.98 -249.77,252.67 -430.43,261.45 -290.3,14.12 -566.41,-74.28 -807.39,-228.41 -200.28,-128.1 -286.78,-63.47 -384.06,120.75 -287.01,543.42 -605.63,1070.89 -848.64,1636.3 -107.48,250.1 -264.97,298.34 -495.06,191.84 -85.52,-39.58 -173.08,-77.73 -251.55,-129.01 -397.87,-260.06 -414.56,-422.04 -124.38,-795.07 325.17,-418 631.12,-850.9 952.02,-1272.31 114.04,-149.76 69.24,-200.42 -97.31,-229.55 -609.22,-106.59 -1190.66,-300.17 -1749.13,-566.65 -421.92,-201.32 -865.47,-258.99 -1376.72,-131.85z"/>
   <path class="fil4" d="M25996.45 14098.25c-668.32,-345.73 -1296.44,-313.56 -1952.23,31.57 48.44,-558.41 98.75,-1098.17 141.14,-1638.57 39.89,-508.42 61.4,-1017.79 49.54,-1528.08 -3.22,-138.18 -45.81,-232.01 -181.03,-314.21 -504.93,-306.96 -478.15,-909.09 50.02,-1166.95 500.78,-244.48 1025.07,-244.33 1541.64,-58.49 268.67,96.65 475.34,294.57 519.6,589.46 42.82,285.37 -115.71,485.01 -361.25,616.82 -180.88,97.08 -150.36,274.54 -148.15,426.3 11.14,765.82 100.21,1524.48 231.42,2278.76 41.96,241.09 69.83,484.63 109.3,763.39zm-1925.47 -4281.64c364.06,-104.62 659.61,-166.28 1039.29,-133.37 -388.29,-193.85 -721.47,-151.17 -1039.29,133.37z"/>
   <path class="fil5" d="M26588.42 24830.28c-636.43,-318.33 -1249.3,-428.59 -1858.31,-555.83 -383.58,-80.13 -414.97,-120.13 -333.29,-515.99 179.26,-868.89 176.27,-1746.46 162.43,-2626.39 -2.7,-171.92 -35.87,-273.34 -230.76,-315.5 -214.48,-46.4 -381.36,-188.16 -382.2,-432.48 -0.76,-224.01 171.84,-328.56 351.62,-398.25 607.33,-235.39 1220.23,-220.35 1828.9,-5.07 174.94,61.88 333.09,169.81 327.03,382.06 -6.35,222.86 -140.14,378.87 -354,422.4 -167.78,34.15 -201.16,117.6 -206.07,267.86 -34.9,1066.38 84.4,2108.72 459.93,3114.16 71.99,192.81 137.58,387.99 234.72,663.03z"/>
   <path class="fil6" d="M29753.55 26546.29c442.21,-389.46 857.93,-743.54 1259.81,-1112.69 461.73,-424.12 851.71,-911.97 1208.24,-1426.52 92.13,-132.95 154.04,-239.03 34.23,-425.03 -215.35,-334.39 -20.97,-619.92 377.48,-610.99 525.33,11.76 1365.07,635.93 1531.69,1130.01 58.76,174.22 69.01,333.95 -67.2,473.74 -143.28,147.05 -337.57,174.44 -498,89.22 -179.42,-95.33 -238.91,-17.74 -330.42,106.88 -565.26,769.74 -1030.5,1585.76 -1216.45,2536.98 -12.61,64.44 -31.13,130.68 -61.79,188.15 -111.41,208.89 -269.46,218.63 -415.51,34.72 -454.55,-572.38 -1013.54,-958.46 -1822.08,-984.47z"/>
   <path class="fil7" d="M26205.87 19665.49c-724.97,-292.43 -1359.1,-314.48 -2037.85,17.62 340.77,-439.91 157.01,-768.25 -125.92,-1084.7 -119.13,-133.23 -240.35,-269.24 -332.26,-421.14 -184.46,-304.84 -127.06,-567.44 144.33,-769.1 634.06,-471.2 2013.23,-440.44 2628.84,53.56 199.22,159.85 231.92,354.79 152.36,580.96 -80.07,227.68 -240.72,403.61 -391.07,584.78 -250.27,301.58 -380.68,614.24 -38.43,1038.02z"/>
   <path class="fil8" d="M30618 21284.53c-503.37,-512.51 -1083.07,-706.78 -1833.93,-625.22 524.54,-381.6 335.35,-779.65 162.77,-1186.57 -332.2,-783.32 -45.91,-1161.54 807.18,-1078.34 574.66,56.05 1109.11,219.81 1563.54,593.5 489.24,402.33 485.14,797.09 -14.5,1179.87 -104.86,80.34 -216.9,151.24 -323.67,229.16 -392.47,286.39 -425.87,362.89 -361.39,887.6z"/>
   <path class="fil9" d="M34333.66 23877.83c-264.26,-626.98 -745.72,-970.11 -1406.11,-1187.45 346.72,-109.61 404.33,-344.34 396.68,-612.53 -6.73,-236 -29.24,-472.23 -23.09,-707.78 11.86,-453.17 290.25,-689.77 725.03,-595.06 815.71,177.67 1409.13,662.6 1788.89,1397.09 199.3,385.46 49.95,737.23 -350.49,896.37 -148.16,58.87 -304.65,104.62 -461.6,132.06 -376.35,65.81 -681.63,192.89 -669.31,677.3z"/>
   <path class="fil10" d="M12301.26 4045.79c-217.42,-379.21 -542.99,-592.56 -956.52,-705.13 -385.92,-105.06 -480.75,-372.7 -270.22,-717.24 356.03,-582.6 944.14,-817.6 1557.45,-1002.79 292.02,-88.17 596.62,-95.95 899.06,-72.1 383.97,30.29 529.55,273.78 333.03,600.06 -219.64,364.69 -304.17,729.58 -135.14,1129.5 51.97,122.98 10.52,146.01 -102.22,146.65 -530.49,3 -955.91,237.5 -1325.44,621.05z"/>
   <path class="fil11" d="M17983.23 13191.67c-525.75,-41.04 -1022.98,-82.34 -1520.68,-117.13 -139.22,-9.73 -156.31,-122.88 -197.1,-211.11 -125.18,-270.75 -245.02,-497.96 -614.18,-534.17 -359.59,-35.26 -521.96,-461.4 -364.62,-799.75 267.16,-574.54 1329.79,-1055.74 1945.47,-880.95 415.19,117.87 554.96,503.7 289.33,899.48 -126.1,187.86 -117.41,342.46 -37.79,522.37 163.18,368.67 328.07,736.62 499.57,1121.26z"/>
   <path class="fil12" d="M23104.47 23632.58c-650.95,-267.33 -1255.28,-529.04 -1870.53,-761.88 -263.88,-99.87 -330.32,-316.99 -415.15,-533.23 -88.14,-224.71 -167.49,-397.91 -482.27,-399.96 -353.88,-2.31 -500.82,-370.89 -276.36,-634.28 433.21,-508.4 984.58,-816.86 1654.92,-888.57 213.71,-22.86 431.61,-3.92 530.34,229.18 91.33,215.54 -20.68,400.42 -176.85,526.37 -174.65,140.86 -141.49,277.88 -70.56,441.74 300.22,693.54 635.95,1367.65 1106.46,2020.63z"/>
   <path class="fil13" d="M34227.61 8325.86c-352.01,-426.98 -778.7,-578.83 -1337.47,-494.11 170.39,-445.92 -12.91,-803.86 -245.56,-1163.84 -177.21,-274.19 -54.09,-534 286.62,-624.61 708.19,-188.33 1345.58,6.69 1933.28,406.16 204.83,139.23 382.11,310.83 496.16,535.6 151.58,298.73 70.19,541.22 -246.17,619.68 -409.35,101.5 -736.32,282.72 -886.86,721.12z"/>
   <path class="fil14" d="M21579.55 20102.97c-324.82,7.24 -592.64,55.22 -840.07,186.58 -66.48,35.29 -107.55,67.9 -150.3,-25.61 -238.77,-522.33 -650.6,-925.08 -967.99,-1393.27 -137.15,-202.32 -16.5,-696.19 209.26,-795.08 341.06,-149.41 701.15,-232.83 1075.63,-205.82 394.98,28.49 612.12,293.78 569.51,692.65 -17.96,168.12 -60.85,334.76 -105.1,498.64 -101.09,374.49 -210.26,746.94 209.06,1041.91z"/>
   <path class="fil15" d="M26313.99 16229.96c-841.18,-497.73 -1655.56,-409.99 -2466.36,10.27 -143.93,-735.07 52.36,-1025.29 781.61,-1170.55 281.54,-56.08 564.66,-74.01 845.45,-23.31 738.65,133.36 926.55,397.79 839.3,1183.59z"/>
   <path class="fil16" d="M31908.42 17996.8c-576.62,-677.47 -1261.5,-930.38 -2080.86,-825.65 -122.71,15.68 -174.02,8.61 -155.93,-133.98 53.7,-423.51 271.85,-673.74 697.6,-734.93 595.77,-85.63 1106.49,114.43 1512.75,545.26 332.51,352.64 131.44,737.05 26.44,1149.3z"/>
   <path class="fil17" d="M29126.58 18127.09c73.34,-508.32 223.42,-651.02 738.42,-665.24 592.22,-16.33 1148.08,104.76 1621.32,482.75 443.47,354.2 495.03,591.34 268.24,1143.81 -682.66,-846.35 -1569.52,-1106.4 -2627.98,-961.32z"/>
   <path class="fil18" d="M36454.39 21300.41c-318.5,-894.85 -963.74,-1337.62 -1855.66,-1469.66 191.66,-461.83 489.12,-621.87 972.69,-473.47 465.63,142.89 846.11,416.2 1103.56,840.07 221.61,364.83 161.42,667.87 -220.59,1103.06z"/>
   <path class="fil19" d="M36073.07 22272.89c-320.97,-1031.67 -1169.17,-1714.57 -2165.61,-1765.37 85.95,-282.28 314.06,-424.14 644.55,-400.8 695.22,49.09 1537.04,713.94 1775.25,1379.07 120.63,336.86 -151.99,514.19 -254.19,787.1z"/>
   <path class="fil20" d="M26573.4 17210.35c-975.14,-604.22 -1931.38,-563.24 -2894.08,-45.67 -69.04,-336.05 -15.51,-503.12 306.84,-657.64 765.06,-366.71 1545.18,-368.63 2318.8,-18.45 307.25,139.08 324.12,408.85 268.44,721.76z"/>
   <path class="fil21" d="M32105.3 16677.65c-514.98,-641.34 -1161.56,-831.78 -1927.75,-681.7 9.12,-530.38 241.32,-759.04 767.24,-746.95 370.58,8.52 702.25,130.14 997.76,348.56 337.04,249.11 377.13,511.45 162.75,1080.09z"/>
   <path class="fil22" d="M23975.96 14929.61c-66.93,-372.78 132.31,-545.61 438.03,-654.39 422.44,-150.34 847.24,-168.01 1272.77,-30.82 160.25,51.67 325.77,124.58 391.92,297.87 38.71,101.41 101.44,234.87 22.16,322.53 -71.96,79.56 -162.62,-38.68 -246.7,-62.37 -636.74,-179.46 -1257.2,-139.65 -1878.18,127.18z"/>
   <path class="fil23" d="M20994.63 17606.49c-427.74,-83.82 -844.66,-47.9 -1245.54,117.65 -110.5,45.64 -145.38,0.92 -187.02,-91.93 -201.74,-450.07 -159.15,-542.44 335.67,-612.7 194.71,-27.65 397.87,-30.61 593.44,-9.79 353.96,37.69 483.34,201.08 503.45,596.77z"/>
   <path class="fil24" d="M20361.04 16678.13c-322.13,-32.76 -617.71,-9.85 -906.17,87.72 -77.23,26.12 -174.9,57.24 -229.03,-33.8 -55.68,-93.65 15.85,-148.12 86.85,-205.71 162.43,-131.77 284,-298.59 371.08,-488.97 39.99,-87.39 78.85,-147.8 183.95,-66.59 233.71,180.59 425.63,387.01 493.32,707.35z"/>
  </g>
 </g>
</svg>
