<?xml version="1.0" encoding="UTF-8"?>
<!DOCTYPE svg PUBLIC "-//W3C//DTD SVG 1.1//EN" "http://www.w3.org/Graphics/SVG/1.1/DTD/svg11.dtd">
<!-- Creator: CorelDRAW -->
<svg xmlns="http://www.w3.org/2000/svg" xml:space="preserve" width="300mm" height="300mm" version="1.1" style="shape-rendering:geometricPrecision; text-rendering:geometricPrecision; image-rendering:optimizeQuality; fill-rule:evenodd; clip-rule:evenodd"
viewBox="0 0 30000 30000"
 xmlns:xlink="http://www.w3.org/1999/xlink"
 xmlns:xodm="http://www.corel.com/coreldraw/odm/2003">
 <defs>
  <style type="text/css">
   <![CDATA[
    .fil4 {fill:url(#id0)}
    .fil13 {fill:url(#id1)}
    .fil8 {fill:url(#id2)}
    .fil15 {fill:url(#id3)}
    .fil3 {fill:url(#id4)}
    .fil0 {fill:url(#id5)}
    .fil12 {fill:url(#id6)}
    .fil16 {fill:url(#id7)}
    .fil2 {fill:url(#id8)}
    .fil11 {fill:url(#id9)}
    .fil1 {fill:url(#id10)}
    .fil6 {fill:url(#id11)}
    .fil9 {fill:url(#id12)}
    .fil7 {fill:url(#id13)}
    .fil5 {fill:url(#id14)}
    .fil10 {fill:url(#id15)}
    .fil14 {fill:url(#id16)}
   ]]>
  </style>
  <linearGradient id="id0" gradientUnits="userSpaceOnUse" x1="5754.28" y1="12728.94" x2="11125.66" y2="16730.2">
   <stop offset="0" style="stop-opacity:1; stop-color:#D33230"/>
   <stop offset="1" style="stop-opacity:1; stop-color:#FD8F04"/>
  </linearGradient>
  <linearGradient id="id1" gradientUnits="userSpaceOnUse" xlink:href="#id0" x1="12477.96" y1="11017.04" x2="13610.41" y2="12310.15">
  </linearGradient>
  <linearGradient id="id2" gradientUnits="userSpaceOnUse" xlink:href="#id0" x1="19117.65" y1="7357.03" x2="20218.28" y2="13037.09">
  </linearGradient>
  <linearGradient id="id3" gradientUnits="userSpaceOnUse" xlink:href="#id0" x1="13034.03" y1="15289.55" x2="13776.64" y2="16767.09">
  </linearGradient>
  <linearGradient id="id4" gradientUnits="userSpaceOnUse" xlink:href="#id0" x1="4344.17" y1="11243.37" x2="9910.8" y2="17711.68">
  </linearGradient>
  <linearGradient id="id5" gradientUnits="userSpaceOnUse" xlink:href="#id0" x1="18591.55" y1="13041.67" x2="28567.1" y2="25865.96">
  </linearGradient>
  <linearGradient id="id6" gradientUnits="userSpaceOnUse" xlink:href="#id0" x1="13556.22" y1="11654.05" x2="14705.36" y2="12937.2">
  </linearGradient>
  <linearGradient id="id7" gradientUnits="userSpaceOnUse" xlink:href="#id0" x1="16086.08" y1="16086.9" x2="16403.84" y2="16953.48">
  </linearGradient>
  <linearGradient id="id8" gradientUnits="userSpaceOnUse" xlink:href="#id0" x1="11243.17" y1="16031.99" x2="16413.33" y2="26522.62">
  </linearGradient>
  <linearGradient id="id9" gradientUnits="userSpaceOnUse" xlink:href="#id0" x1="6980.68" y1="17049.23" x2="8074.91" y2="17853.84">
  </linearGradient>
  <linearGradient id="id10" gradientUnits="userSpaceOnUse" xlink:href="#id0" x1="1880.56" y1="4488.12" x2="16980.99" y2="18412.07">
  </linearGradient>
  <linearGradient id="id11" gradientUnits="userSpaceOnUse" xlink:href="#id0" x1="9070.39" y1="13531.02" x2="12398.52" y2="19709.58">
  </linearGradient>
  <linearGradient id="id12" gradientUnits="userSpaceOnUse" xlink:href="#id0" x1="7796.43" y1="17494.93" x2="9136.44" y2="19255.66">
  </linearGradient>
  <linearGradient id="id13" gradientUnits="userSpaceOnUse" xlink:href="#id0" x1="17302.18" y1="4573.19" x2="18783.56" y2="10671.01">
  </linearGradient>
  <linearGradient id="id14" gradientUnits="userSpaceOnUse" xlink:href="#id0" x1="10132.72" y1="14134.54" x2="13476.47" y2="20289.45">
  </linearGradient>
  <linearGradient id="id15" gradientUnits="userSpaceOnUse" xlink:href="#id0" x1="8251.46" y1="12736.7" x2="9646.92" y2="14522.19">
  </linearGradient>
  <linearGradient id="id16" gradientUnits="userSpaceOnUse" xlink:href="#id0" x1="11381.37" y1="10389.8" x2="12490.87" y2="11668.79">
  </linearGradient>
 </defs>
 <g id="Layer_x0020_1">
  <metadata id="CorelCorpID_0Corel-Layer"/>
  <g id="_2516886814992">
   <path class="fil0" d="M18836.89 26177.17c297.35,-662.67 600.57,-1279.44 821.72,-1930.7 219.68,-646.9 419.42,-1296.32 436.36,-1989.86 11.05,-452.62 -166.62,-770.04 -570.71,-975.56 -426.51,-216.91 -846.49,-446.75 -1267.49,-674.33 -154.14,-83.32 -303.55,-176.19 -429.22,-300.45 -246.97,-244.19 -245.24,-525.79 7.41,-762.31 72.04,-67.44 150.04,-132.06 234.84,-181.71 280.65,-164.33 440.58,-408.36 503.21,-722.41 24.05,-120.57 62.66,-236.08 129.62,-340.03 -187.21,-128.55 -390.43,-84.51 -626.58,-53.39 164.51,-361.7 318.83,-700.98 482.66,-1061.16 124.93,182.9 245.11,352.85 408.7,486.99 88.19,72.33 127.19,78.09 185,-35.39 123.49,-242.37 330.94,-404.81 572.87,-520.63 110.87,-53.08 117.72,-108.69 38.27,-195.01 -98.74,-107.26 -194.36,-217.56 -287.74,-329.53 -55.82,-66.93 -114.7,-134.34 -155.03,-210.59 -139.33,-263.42 -48.97,-445.4 243.38,-486.38 536.66,-75.21 1071.28,-151.76 1594.89,-303.54 437.98,-126.96 717.07,-373.46 777.3,-836.31 16.75,-128.64 84.79,-210.63 205.69,-256.84 627.15,-239.71 1236.79,-519.26 1838.59,-815.88 79.5,-39.18 144.94,-20.27 216.74,7.48 228.22,88.16 460.97,160.54 711.64,180.78 -83.99,-35.39 -167.02,-73.25 -252.16,-105.62 -153.32,-58.28 -301.95,-126.43 -437.8,-218.1 -439.53,-296.57 -479.39,-824.06 -96.61,-1196.01 291.5,-283.25 658.19,-386.96 1043.49,-445.62 285.07,-43.4 570,-38.45 851.6,32.4 89.75,22.58 180.04,43.55 250.43,105.03 4.13,39.42 -26.52,35.98 -44.09,42.55 -491.1,183.57 -559.59,718.27 -156.54,1060.63 348,295.59 746.33,520.16 1120.02,779.5 831.27,576.89 1523.55,1281 1931.93,2214.47 664.19,1518.23 539.6,2992.17 -360.69,4384.02 -646.54,999.56 -1607.79,1565.97 -2729.03,1895.3 -706.56,207.52 -917.11,480.52 -970.75,1229.38 -12.97,181 -13.94,361.52 1.15,542.16 5.37,64.16 2.47,107.97 -85.14,113.08 -1635.79,95.51 -3160.72,615.37 -4663.65,1219.56 -486.49,195.53 -960.6,418.82 -1474.28,654.03z"/>
   <path class="fil1" d="M18453.29 17029.79c-188.91,416.89 -360.21,794.92 -541.37,1194.72 -61.32,-111.57 -112.88,-206.26 -165.24,-300.49 -119.68,-215.41 -316.01,-334.68 -532.42,-433.81 -108.64,-49.76 -119.88,41.18 -150.17,91.89 -217.27,363.71 -503.58,657.26 -875.77,861.48 -282.93,155.23 -582.42,261.91 -906.19,303.38 -108.05,13.84 -115.93,-19.67 -108.77,-105.44 15.03,-180.17 28.42,-360.67 34.95,-541.31 5.46,-151.52 133.51,-111.69 207.99,-127.96 626.24,-136.8 1125.99,-675.33 1195.92,-1307.18 76.89,-694.86 -181.47,-1249.07 -740.43,-1653.18 -492.28,-355.89 -1038.05,-627.84 -1562.73,-932.16 -1190.83,-690.7 -2378.94,-1386.84 -3584.18,-2051.8 -1307.69,-721.49 -2606.4,-1460.4 -3941.69,-2131.14 -602.24,-302.52 -1224.47,-544.88 -1900.32,-627.79 -893.74,-109.66 -1740.32,55.71 -2556.86,418.17 -408.67,181.4 -770.07,437.75 -1136.09,688.04 -67.29,46.02 -137.08,89.08 -208.72,127.98 -297.42,161.49 -517.56,37.82 -533.27,-305.3 -14.01,-306.08 50.87,-603.62 132.1,-895.8 347.39,-1249.54 942.3,-2380.55 1671.57,-3445.16 552.49,-806.56 1158.52,-1567.4 1926.15,-2185.06 223.42,-179.77 453.89,-349.7 737.18,-426.03 288.68,-77.77 465.12,53.21 476.39,355.13 4.99,134.05 7.5,268.82 -0.39,402.59 -78.72,1333.79 414.29,2457 1254.06,3461.02 720.22,861.06 1570.67,1577.69 2451.32,2263.84 837.63,652.63 1689.41,1287.51 2573.38,1874.51 639.54,424.69 1317.95,790.97 1979.17,1183.05 642.74,381.11 1329.46,677.75 1986.3,1031.79 411.85,221.99 816.65,453.24 1127.95,814.96 476.1,553.25 662.69,1199.91 590.49,1915.97 -21.5,213.19 49.42,304.15 225.72,398 273.06,145.31 547.94,177.66 873.97,83.09zm-1228.18 -1216.24c8.87,-57.37 12.95,-68.94 11.82,-79.96 -1.75,-17.15 -6.65,-34.03 -10.89,-50.85 -171.13,-679.3 -600.46,-1146.59 -1187.54,-1507.49 -883.94,-543.4 -1821.82,-986.95 -2720.23,-1503.88 -1248.69,-718.47 -2459.91,-1491.64 -3621.3,-2342.05 -921.6,-674.83 -1828.97,-1368.2 -2662.72,-2152.73 -846.7,-796.71 -1521.71,-1702.76 -1858.84,-2832.58 -34.75,-116.49 -83.99,-230.68 -141.76,-337.74 -61.31,-113.61 -159.35,-192.25 -299.21,-166.45 -142.99,26.38 -217.11,130.27 -245.66,265.38 -15.66,74.09 -7.99,149.71 7.66,225.44 49.18,237.92 161.49,449 275.28,659.17 529.67,978.2 1305.86,1740.41 2154.83,2435.85 1127.46,923.59 2306.35,1778.65 3521.53,2582.48 1633.92,1080.8 3347.24,2029.5 5047.32,2999.88 743.63,424.45 1445.52,889.29 1729.71,1805.53zm-12190.63 -12053.34c-74.08,-15.68 -121.98,22.44 -174.36,44.22 -398.69,165.75 -710.09,450.53 -991.22,763.18 -1066.21,1185.69 -1903.16,2517.49 -2511.78,3991.87 -157.48,381.49 -275.99,774.78 -372.76,1177.64 1048.51,-2194.96 2277.29,-4265.62 4050.12,-5976.91z"/>
   <path class="fil2" d="M16917.43 26637.8c-1727.61,319.63 -3349.23,101.46 -4868.47,-777.53 -211.49,-122.35 -370.5,-267.33 -483.89,-481.11 -254.11,-479.06 -517.18,-953.44 -781.69,-1426.9 -53.62,-95.99 -39.71,-144.74 50.98,-210.04 541.15,-389.73 1122.7,-712.86 1698.69,-1045.47 47.04,-27.17 106.12,-40.2 139.95,-111.31 -193.82,59.63 -375.53,115.54 -574.46,176.76 18.94,-313.41 34.56,-613.32 -6.97,-913.66 -44.7,-323.4 -168.59,-604.49 -396.07,-839 -229.94,-237.06 -419.13,-499.64 -532.4,-813.68 -38.28,-106.13 -36.44,-201.84 13.74,-302.87 529.04,-1064.96 1057.39,-2130.27 1582.77,-3197.04 40.33,-81.89 79.89,-77.5 148.49,-41.98 253.71,131.35 507.03,264.04 766.17,383.99 94.07,43.54 110.65,85.25 60,168.77 -30.12,49.69 -46.11,109.31 -81.66,153.97 -47.61,59.8 -71,96.03 17.55,143.79 76.71,41.39 122.12,48.13 164.56,-38.96 94.47,-193.86 192.17,-386.24 293.14,-576.81 58.97,-111.28 -18.27,-192.4 -58.89,-275.74 -158.43,-325.2 -264.47,-659.68 -231.9,-1027.3 13.82,-155.99 59.56,-297.95 175.3,-407.97 156.43,-148.7 344.3,-127.47 454.89,56.14 74.96,124.47 136.29,257.19 202.5,386.83 130.82,256.18 296.89,487.52 488.89,701.22 122.51,136.38 187.86,301.96 95.62,466.23 -263.54,469.43 -272.98,981.24 -279.33,1494.69 -4.67,378.23 -66.84,748 -214,1092.53 -265.32,621.15 -236.76,1249.25 -102.21,1887.66 27.6,130.95 25.26,273.29 76.71,393.26 214.97,501.34 307.54,1039.35 483.94,1551.91 405.72,1178.9 900.15,2313.55 1635.75,3330.43 20.1,27.74 36.62,58.05 62.3,99.19z"/>
   <path class="fil3" d="M3815.34 13268.47c9.99,-1931.87 1843.34,-3136.33 3523.11,-2387.68 1033.08,460.44 2024.05,1008.42 3025.88,1532.93 80.13,41.95 126.09,86.13 51.46,171.57 -11.16,12.76 -16.38,30.76 -24.14,46.45 -68.75,139.08 -137.45,278.18 -206.16,417.28 -138.23,-73.54 -275.69,-148.54 -414.8,-220.36 -891.08,-460.05 -1775.13,-936.48 -2694.66,-1336.73 -1034.93,-450.48 -2251.92,171.73 -2508.5,1253.49 -187.93,792.34 171.16,1652.14 879.28,2062.32 847.66,491.01 1732.99,911.76 2600.33,1366.07 650.4,340.68 1306.83,669.87 1960.84,1003.66 83.59,42.66 166.82,86.99 230.84,156.13 105.22,113.65 134.12,247.74 60.07,385.67 -68.32,127.23 -242.56,186.16 -382.6,125.21 -154.41,-67.22 -299.49,-155.58 -449.89,-232.29 -1148.42,-585.76 -2298.23,-1168.85 -3445.2,-1757.44 -404.28,-207.47 -827.65,-382.85 -1193.95,-657.65 -672.09,-504.19 -989,-1189.32 -1011.91,-1928.63z"/>
   <path class="fil4" d="M6163.18 13227c140.18,0.96 314.12,67 480.44,153.87 919.86,480.52 1840.49,959.65 2756.18,1447.98 122.31,65.23 163.38,44.05 218.93,-70.91 349.8,-723.88 705.55,-1444.92 1060.58,-2166.27 135.95,-276.22 137.35,-275.33 404.7,-125.74 157.78,88.27 312.46,183.02 475.01,261.49 117.98,56.95 102.73,118.79 53.86,216.8 -463.31,929.01 -923,1859.82 -1382.03,2790.95 -167.38,339.53 -332.26,680.33 -493.36,1022.86 -30.89,65.65 -47.58,89.85 -124.64,49.78 -972.26,-505.63 -1946.67,-1007.13 -2920.49,-1509.77 -316.15,-163.18 -634.61,-322.09 -947.71,-490.93 -419.31,-226.15 -591.38,-613.38 -454.43,-1000.99 118.37,-335.03 460.26,-575.99 872.96,-579.12zm2984.51 2631.43c-2.6,-95.69 36.53,-163.71 76.74,-223.01 93.06,-137.19 31.85,-193.04 -92.26,-256.3 -596.99,-304.3 -1189.5,-617.38 -1784.5,-925.6 -341.33,-176.82 -681.12,-357.14 -1028.04,-522.42 -170.53,-81.25 -344.14,-22.42 -390.4,113.71 -57.12,168.06 96.73,198.47 190.15,265.81 18.74,13.51 40.72,22.64 61.51,33.23 404.58,206.08 809.4,411.71 1213.77,618.2 579.86,296.09 1159.4,592.79 1753.03,896.38z"/>
   <path class="fil5" d="M9816.78 19929c70.02,-148.35 144.55,-312.8 224.48,-474.6 831.12,-1682.51 1663.19,-3364.56 2494.74,-5046.86 121.32,-245.44 243.88,-490.33 360.5,-737.98 42.42,-90.1 80.5,-124.13 180.75,-62.92 213.81,130.54 433.33,252.23 654.71,369.66 90.29,47.89 81.91,90.17 41.32,171.96 -930.09,1874.53 -1856.58,3750.83 -2783.97,5626.7 -87.81,177.63 -178.46,353.87 -265.05,532.08 -57.62,118.61 -137.66,167.09 -265.89,103.99 -172.55,-84.91 -347.63,-164.81 -518.82,-252.35 -82.77,-42.32 -134.8,-111.24 -122.77,-229.68z"/>
   <path class="fil6" d="M8754.21 19391.25c7.37,-21.13 18.08,-66.69 38.28,-107.56 209.24,-423.34 423.26,-844.36 628.45,-1269.64 65.07,-134.86 137.94,-148.56 257.22,-69.27 118.41,78.72 252.47,122.21 397.68,106.57 224.26,-24.13 392.87,-165.03 442.55,-364.26 50.05,-200.72 -40.03,-419.09 -237.69,-559.91 -61.21,-43.61 -127.94,-89.34 -198.94,-107.4 -164.36,-41.79 -149.19,-126.18 -88.4,-248.1 366.92,-735.9 731.02,-1473.2 1093.56,-2211.25 241.57,-491.8 480.94,-984.71 716.77,-1479.27 52.69,-110.5 101.52,-144.46 221.9,-75.2 212.02,121.98 430.77,232.26 636.58,365.53 61.84,40.03 79.4,67.88 39.45,148.97 -770.52,1564.18 -1534.4,3131.63 -2301.9,4697.31 -238.75,487.03 -483.56,971.09 -726.7,1455.98 -102.63,204.68 -149.36,224.55 -354.77,135.44 -144.37,-62.63 -284.55,-135.21 -424.87,-206.75 -75.04,-38.25 -136.69,-90.9 -139.17,-211.19z"/>
   <path class="fil7" d="M18927.25 5954.68c15.68,528.14 -213.31,991.22 -729.74,1262.97 -383.24,201.67 -478.65,464.17 -409.98,880.23 108.98,660.3 230.25,1318.3 343.44,1977.76 56.93,331.72 -153.29,653.81 -479.61,729.59 -153.53,35.66 -292.74,4.33 -395.87,-120.96 -110.73,-134.53 -115.6,-290.71 -56.47,-445.85 92.34,-242.24 272.51,-406.87 507.88,-502.02 110.64,-44.73 127.08,-96.27 109.96,-208.06 -96.95,-633.31 -225.39,-1261.45 -301.09,-1898.45 -35.22,-296.44 43.73,-527.33 314.65,-654.43 261.79,-122.82 308.19,-313.88 287.19,-579.21 -59.3,-749.21 -35.41,-1504.74 -174.33,-2248.16 -7.56,-40.45 -39.27,-103.49 19.76,-123.55 73.77,-25.05 73.07,49.46 95.18,93.97 104.75,210.94 257.64,387.84 406.78,567.4 292.46,352.07 468.66,748.69 462.25,1268.77zm-573.77 582.56c510.68,-436.62 360.73,-1259.37 -74.89,-1499.57 24.77,495.95 49.08,982.87 74.89,1499.57z"/>
   <path class="fil8" d="M20325.59 8865.16c-3.64,266.86 -69.4,500.1 -194,716.32 -52.35,90.82 -99.36,188.66 -168.98,264.91 -296.01,324.19 -319.78,699.97 -255.67,1110.27 79.03,505.88 133.12,1015.71 193.75,1524.34 32.49,272.57 -118.44,544.84 -354.8,644.83 -139.49,59.01 -282.88,80.13 -413.2,-24.68 -132.72,-106.73 -135.6,-253.72 -100.7,-400.21 53.56,-224.78 200.41,-391.06 406.93,-473.38 170.27,-67.88 206.61,-161.49 184.6,-327.54 -211.92,-1598.66 -213.01,-3209.51 -272.53,-4816.98 -1.73,-46.61 -0.14,-93.42 -3.65,-139.87 -4.65,-61.62 10.61,-101.1 82.94,-101.44 54.1,-0.25 109.69,-8.83 122.1,63.95 68.88,403.6 314.5,721.57 514.14,1061.84 165.64,282.32 250.29,587.4 259.07,897.64zm-672.14 913.35c612.34,-676.14 569.38,-1429.93 -76.33,-1812.37 25.09,595.65 49.99,1187.23 76.33,1812.37z"/>
   <path class="fil9" d="M8457.54 17335.25c13.1,5.49 35.1,13 55.55,23.54 232.98,120.11 465.12,241.87 698.96,360.32 58.29,29.52 70.06,53.08 36.35,118.06 -222.8,429.48 -437.13,863.34 -658.87,1293.37 -95.5,185.2 -163.02,205.64 -350.68,117.3 -152.89,-71.98 -303.76,-148.59 -452.97,-227.96 -107.54,-57.21 -149.17,-141.12 -89.22,-260.78 226.97,-453.13 452.13,-907.16 678.39,-1360.65 15.18,-30.44 27.53,-66.42 82.49,-63.2z"/>
   <path class="fil10" d="M8118.88 13434.57c21.06,-346.65 177.56,-610.62 504.39,-769.42 332.52,-161.56 634.61,-97.25 916.79,115.51 100.89,76.08 161.69,186.71 190.76,306.63 9.76,40.29 95.85,108.5 -6.34,141.33 -63.35,20.36 -134.03,38.17 -184.01,-45.25 -76.07,-126.99 -176.88,-228.77 -320.61,-284.97 -286.89,-112.17 -617.61,0.77 -752.04,262.1 -147.52,286.75 -36.49,660.91 244.36,823.52 267.54,154.9 633.06,85.78 792.01,-170.16 67.29,-108.35 120.05,-111.2 217.67,-59.54 119.8,63.4 30.99,131.46 5.5,187.87 -81.6,180.51 -172.75,356.73 -261.4,534.02 -28.97,57.92 -54.23,119.51 -142.91,72.87 -257.49,-135.41 -541.89,-215.09 -787.55,-375.08 -263.51,-171.59 -396.86,-417.95 -416.62,-739.43z"/>
   <path class="fil11" d="M7352.02 16980.61c295.56,-31.02 536.35,106.72 785.96,214.86 52.86,22.91 50.69,52.67 30.06,95.35 -85.88,177.53 -170.19,355.82 -256.4,533.19 -23.81,48.98 -57.04,61.95 -113.05,36.94 -243.73,-108.82 -495.76,-201.16 -717.51,-353.39 -115.93,-79.59 -239.92,-167.08 -194.87,-334.61 47.7,-177.44 204.81,-182.15 351.68,-191.93 40.51,-2.7 81.36,-0.41 114.13,-0.41z"/>
   <path class="fil12" d="M14817.41 12020.8c-2.87,150 -130.1,218.11 -263.56,157.68 -213.98,-96.88 -213.96,-96.86 -310.59,114.57 -16.92,37.03 -28.24,78.34 -52.18,110.14 -86.45,114.87 -63.93,195.69 65.65,255.28 145.68,67.02 75.87,160.65 26.81,250.93 -61.12,112.45 -127.53,35.42 -187.19,2.21 -188.07,-104.69 -371.02,-218.85 -561.7,-318.35 -85.48,-44.61 -107.54,-90.5 -69.96,-177.52 36.8,-85.19 96.48,-129.4 175.86,-75.58 192.96,130.87 261.29,25.88 308.7,-144.37 13.88,-49.85 39.33,-97.15 63.96,-143.23 40.74,-76.23 57.88,-134.57 -51.88,-172.7 -118.78,-41.26 -156.76,-132.46 -106.45,-251.69 57.11,-135.37 155.37,-89.02 248.28,-51.7 211.18,84.83 412.66,188.75 602.14,315.06 53.44,35.61 104.48,74.52 112.11,129.27z"/>
   <path class="fil13" d="M12970.09 11343.05c-3.76,-80.71 -65.65,-82.11 -110.45,-103.74 -95.49,-46.12 -171.37,-97.49 -121,-227.21 53.91,-138.85 143.47,-128.69 251.44,-78.14 216.46,101.32 436.29,196.58 635.03,331.21 67.65,45.83 133.11,91.13 70.42,196.67 -56.53,95.18 -130.9,128.73 -214.9,72.28 -199.58,-134.12 -277.99,-31.12 -329.81,147.72 -4.8,16.57 -11.91,34.14 -22.9,47.01 -118.59,138.88 -157.38,254.98 64.43,335.54 84.28,30.62 121.27,101.1 51.02,195.81 -56.92,76.73 -99.35,111.77 -196.18,48.8 -190.16,-123.66 -389.22,-233.83 -586.11,-346.96 -74.73,-42.94 -118.44,-87.65 -70.89,-180.97 44.55,-87.43 111.96,-113.24 183.96,-59.54 187.64,139.95 231.32,9.69 282.54,-132.96 31.33,-87.21 77.56,-169.09 113.4,-245.52z"/>
   <path class="fil14" d="M12007.51 11691.33c8.43,4.02 -13.19,-4.75 -33.32,-16.16 -192.57,-109.1 -384.8,-218.77 -577.29,-328.01 -88.15,-50.02 -158.4,-111.4 -98.83,-222.38 57.61,-107.33 154.1,-53.76 214.27,-18.45 109.75,64.43 158.93,41.08 190.25,-73.72 12.08,-44.31 35.18,-86.88 59.58,-126.34 86.51,-139.88 123.89,-258.4 -83.31,-331.2 -89.67,-31.51 -106.54,-110.8 -57.78,-202.67 45.91,-86.48 104.04,-123.29 197.1,-81.47 244.86,110.05 482.96,232.82 710.25,376.29 82.1,51.82 89.15,109.62 39.07,189.61 -48.67,77.74 -96.18,117.47 -198.87,83.69 -82.78,-27.23 -156.87,-142.6 -239.3,-82.78 -61.12,44.35 -75.25,153.07 -110.84,232.89 -11.86,26.62 -20.77,56.33 -38.91,78.08 -87.75,105.17 -58.91,174.84 61.04,222.87 148.11,59.31 124.83,159.08 60.12,266.83 -14.09,23.43 -22.18,57.45 -93.23,32.92z"/>
   <path class="fil15" d="M13670.38 15227.12c-45.45,114.2 -69.11,221.41 -75.93,332.66 -19.27,313.73 50.17,612.19 155.51,904.32 23.65,65.6 54.45,128.6 78.48,194.07 15.91,43.31 37.23,95.75 -0.33,131.68 -35.4,33.87 -78,-6.87 -110.69,-22.67 -230.32,-111.35 -457.25,-229.73 -687.8,-340.57 -70.31,-33.81 -80.33,-77.05 -49.9,-139.35 173.54,-355.22 347.55,-710.22 521.71,-1065.13 21.3,-43.43 46.03,-83.1 105.87,-59.88 34.75,13.47 56.12,36.97 63.08,64.87z"/>
   <path class="fil16" d="M16371.19 16008.23c96.86,333.2 73.57,611.93 -5.71,890.29 -20.89,73.35 -51.86,102.69 -120.29,46.98 -13.49,-10.99 -28.01,-21.57 -43.68,-28.86 -148.3,-69.06 -190.41,-150.55 -93.37,-311.32 103.02,-170.66 164.08,-366.58 263.05,-597.09z"/>
  </g>
 </g>
</svg>
