<?xml version="1.0" encoding="UTF-8"?>
<!DOCTYPE svg PUBLIC "-//W3C//DTD SVG 1.1//EN" "http://www.w3.org/Graphics/SVG/1.1/DTD/svg11.dtd">
<!-- Creator: CorelDRAW -->
<svg xmlns="http://www.w3.org/2000/svg" xml:space="preserve" width="1200mm" height="1000mm" version="1.1" style="shape-rendering:geometricPrecision; text-rendering:geometricPrecision; image-rendering:optimizeQuality; fill-rule:evenodd; clip-rule:evenodd"
viewBox="0 0 120000 100000"
 xmlns:xlink="http://www.w3.org/1999/xlink"
 xmlns:xodm="http://www.corel.com/coreldraw/odm/2003">
 <defs>
  <style type="text/css">
   <![CDATA[
    .fil0 {fill:url(#id0)}
   ]]>
  </style>
  <linearGradient id="id0" gradientUnits="objectBoundingBox" x1="7.96645%" y1="8.14277%" x2="91.8238%" y2="97.8236%">
   <stop offset="0" style="stop-opacity:1; stop-color:#D33230"/>
   <stop offset="1" style="stop-opacity:1; stop-color:#FD8F04"/>
  </linearGradient>
 </defs>
 <g id="Layer_x0020_1">
  <metadata id="CorelCorpID_0Corel-Layer"/>
  <g id="_2480797035808">
   <path class="fil0" d="M45434.31 89374.32c-169.31,128.77 -324.17,179.55 -286.57,348.14 25.35,114.35 130.78,181.35 286.57,141.87 0,-138.67 0,-270.38 0,-490.01l0 0zm-289.96 -36581.85c33.47,-106.34 74.14,-186.06 81.62,-268.9 24.77,-277.65 -33.21,-330.49 -304.96,-316.84 -209.97,10.56 -420.24,11.88 -630.16,21.27 -85.46,3.78 -170.47,18.1 -255.64,27.44 -4.45,24.84 -8.81,49.48 -13.26,74.19 360.35,148.62 720.53,297.19 1122.4,462.84l0 0zm-29364.7 -1129.56c134.2,178.38 221.43,313.77 329.88,429.18 48.21,51.22 139.86,86.2 211.3,85.62 151.53,-1.22 638.36,-321.15 790.68,-514.8 -436.96,0 -845.13,0 -1331.86,0l0 0zm19374.56 -6686.42c-231.25,-2.22 -454.42,207.91 -463.44,435.77 -9.6,250.77 200.13,491.25 437.89,501.39 247.84,10.72 481.73,-205.37 488.37,-450.93 5.95,-230.74 -235.12,-484.16 -462.82,-486.23l0 0zm-8304.05 904.46c248.47,0.26 472.2,-222.33 473.63,-471.04 1.38,-215.34 -234.32,-450.88 -454.69,-454.55 -260.35,-4.21 -494.06,209.87 -490.7,449.18 3.42,241.46 235.67,476.09 471.76,476.41l0 0zm59793.95 24896.6c-166.37,88.64 -325.07,160.92 -471.04,253.42 -476.28,302.47 -492.26,463.55 -100.52,877.46 8.07,8.33 16.25,16.7 24.61,24.77 159.49,153.75 273.58,172.22 472.94,76.23 442.42,-213.08 494.2,-811.67 74.01,-1231.88l0 0zm-63973.04 -23400.49c154.01,-1239.97 920.75,-2019.27 1988.61,-2624.53 -1303.95,-39.32 -2355.64,1363.71 -1988.61,2624.53l0 0zm16577.01 359.91c194.44,-819.86 81.99,-1569.4 -487.42,-2217.63 -459.42,-522.9 -1136.6,-839.87 -1570.62,-724.61 1242.63,601.39 1889.69,1603.03 2058.04,2942.24l0 0zm-31640.46 -1957.65c331.66,-3.81 645.42,-315.2 628.7,-628.7 -14.1,-262.65 -340.44,-639.87 -658.42,-612.85 -331.6,28.02 -611.06,298.77 -616.61,641.35 -5.34,324 296.39,604.14 646.33,600.2l0 0zm48178.03 4035.5c325.23,8.65 689.66,-337.69 700.09,-665.56 8.97,-277.6 -339.33,-634.13 -634.29,-649.23 -310.65,-16.03 -671.88,317.9 -681.7,630.03 -11.05,349.54 282.61,675.98 615.9,684.76l0 0zm-9587.86 2307.83c-63.1,9.08 -192.64,18.34 -317.31,48 -315.67,74.72 -400.34,193.65 -394.49,524.01 5.03,285.88 128.3,520.78 321.95,719.35 235.59,241.33 566.08,222.57 802.59,-20.74 208.02,-213.76 249.71,-469.56 222.59,-747 -36.15,-370.93 -200.38,-518.48 -635.33,-523.62l0 0zm-32174.6 -449.76c-72.44,381.77 -67.89,584.09 55.06,1026.32 159.23,571.87 211.93,707.15 767.34,221.88 266.78,-232.89 427.12,-529.64 414.76,-895.03 -8.81,-258.58 -101.94,-363.3 -351.76,-400 -291.18,-42.87 -583.09,-56.07 -885.4,46.83l0 0zm34732.62 2385.48c39.34,-90.01 88.37,-159.44 99.09,-234.47 49.79,-347.24 112.02,-695.06 126.29,-1044.52 23.34,-564.28 -189.1,-737.66 -749.54,-653.65 -80.3,12.04 -161.08,32.46 -237.01,61.25 -232.41,88.37 -310.65,208.44 -305.51,453.42 10.54,517.49 516.05,1210.7 1066.68,1417.97l0 0zm35375.56 18257.34c131.07,316.68 230.24,603.57 367.35,870.66 90.75,177.22 241.06,310.12 466.7,330.76 255.96,23.39 434.92,-95.73 557.79,-294.16 146.45,-236.43 242.28,-504.83 57.76,-757.05 -203.54,-278.66 -285.06,-553.72 -122.34,-874.5 5.58,-11.14 -19.21,-37.49 -51.7,-96.2 -418.84,269.46 -834.95,537.28 -1275.56,820.49l0 0zm-1551.36 797.85c51.38,277.18 75.19,499.03 136.21,710.14 81.78,282.84 184.57,561.92 494.37,687.92 240.64,98.21 417.25,64.24 550.15,-150.52 204.68,-330.49 333.61,-680.11 110.12,-1058.17 -117,-198.2 -114.04,-400.5 -43.6,-610.37 19.42,-57.81 32.31,-117.74 63.61,-234.42 -470.89,235.36 -886.87,443.22 -1310.86,655.42l0 0zm-259.45 212.11c-428.92,173.54 -805.76,326.13 -1164.35,471.2 -33.05,149.3 -61.65,262.18 -82.52,376.9 -98.4,543.48 149.15,1088.87 594.36,1313.6 219.95,111.13 345.33,95.57 486.41,-100.59 214.1,-297.34 316.68,-617.38 181.05,-989.59 -198.94,-545.55 -191.14,-548.36 -14.95,-1071.52l0 0zm-1361.23 571.9c-315.22,122.32 -589.39,239.32 -870.69,335.52 -650.88,222.28 -714.45,302.74 -722.6,992.82 -0.95,70.01 3.62,140.65 10.08,210.4 26.88,293.53 160.63,538.14 372.06,734.17 281.46,261.01 509.06,228.44 717.39,-97.66 197.91,-309.06 294.38,-640.64 139.04,-998.43 -183.57,-422.57 -122.74,-773.62 272.97,-1042.93 30.82,-20.97 43.25,-69.01 81.75,-133.89l0 0zm9135.93 -10865.19c-66.68,377 -294.96,490.43 -529.17,597.96 -31.91,14.74 -61.83,33.26 -92.66,50.11 -330.78,178.99 -439.58,394.39 -393.49,778.48 35.06,290.17 249.45,530.91 548.72,615.5 374.99,106.18 791.82,-28.05 1003.64,-322.84 281.09,-391.42 289.27,-658.94 29.58,-1063.78 -82.1,-127.87 -161.55,-258.71 -257.28,-375.84 -69.76,-85.36 -164.14,-150.58 -309.34,-279.59l0 0zm-11148.59 11580.41c-297.92,92.5 -595.68,185.26 -893.63,277.34 -186.16,57.39 -338.69,152.27 -425.64,338.01 -263.5,564.65 -97.02,1297.2 388.62,1692.14 237.01,192.64 409.71,181.03 597.03,-66.62 237.25,-313.66 357.37,-662.04 212.46,-1053.49 -155.67,-420.83 -203.51,-823.58 121.16,-1187.38l0 0zm-1725.69 621.77c-13.36,-20.53 -26.72,-40.93 -40.16,-61.52 -421.59,159.44 -846.96,310.07 -1262.14,484.82 -96.94,40.69 -194.12,149.46 -232.89,249.45 -260.59,669.5 -60.35,1346.97 453.73,1742.84 192.33,148.25 321.1,147.66 503.42,-15.74 287.21,-257.39 440.21,-575.42 377.38,-971.39 -29.5,-185.31 -59.93,-371.05 -101.57,-553.83 -56.28,-246.51 -11.19,-463.81 150.79,-659.26 55.71,-67.33 101.27,-143.4 151.44,-215.37l0 0zm-4007.72 815.08c-303.21,70.91 -530.17,113.35 -750.28,178.83 -190.45,56.54 -382.03,122 -557.53,213.33 -676.54,351.95 -932.74,1351.68 -509.64,1952.76 226.11,320.94 451.83,381.45 777.05,168.25 161.93,-106.44 301.41,-256.06 428.86,-405.1 250.61,-292.74 222.33,-656.3 213.33,-1007.19 -9.13,-342.58 68.42,-650.77 290.43,-917.23 27.9,-33.37 44.94,-75.44 107.78,-183.65l0 0zm2041.92 -320.39c-364.04,84.38 -687.76,181.64 -1018.54,230.03 -309.22,45.09 -528.74,161.82 -617.27,477.07 -31.59,112.18 -93.11,215.82 -125.81,327.87 -182.19,626.8 49.32,1314.77 566.18,1696.38 207.01,152.9 336.47,160.23 545.02,15.16 317.26,-220.53 514.59,-521.52 522.53,-911.78 4.68,-231.83 -20.37,-470.98 -75.75,-696.12 -80.14,-326.07 -61.09,-624.84 112.77,-914.11 39.91,-66.83 59.57,-145.68 90.87,-224.5l0 0zm4067.01 -10330.2c4.92,-649.87 -488.63,-1185.07 -1091.67,-1184.57 -578.17,0.58 -1090.59,523.58 -1083.95,1113.53 7.51,657.78 486.83,1104.69 1080.45,1101.46 731.35,-3.65 1090.04,-495.57 1095.17,-1030.42l0 0zm-8482.8 1052.01c-1358.45,-473.37 -2780,138.01 -3098.91,1330.4 303.05,35.06 602.09,78.98 902.65,102.31 501.46,39.08 1003.86,66.2 1506.01,96.15 148.3,8.97 288.21,-12.3 334.78,-184.68 120.97,-448.73 237.86,-898.33 355.47,-1344.18l0 0zm-34078.36 28807.27c38.76,28.55 64.32,64.45 90.01,64.45 3413.65,0.32 6827.23,-1.8 10240.94,-6.03 26.99,0 54.03,-31.41 101.89,-61.09 -1798.8,-674.53 -3264.4,-1794.06 -4577.32,-3203.42 -1790.52,1378.27 -3775.16,2364.32 -5855.52,3206.09l0 0zm9399.16 -4628.54c1290.64,1105.09 2717.93,1801.71 4364.99,2073.83 0,-66.41 10.4,-104.11 -1.64,-132.29 -152.21,-357.64 -113.35,-705.67 22.23,-1060.82 91.12,-239.21 191.85,-488.32 210.19,-739.14 39.24,-532.71 168.01,-1052.54 115.89,-1601.87 -69.48,-734.22 -38.6,-1477.75 -57.55,-2217.05 -2.96,-118.37 -41.12,-235.8 -63.02,-353.43 -33.58,-3.36 -67.47,-6.59 -101.26,-9.97 -185.9,327.42 -231.56,714.59 -388.36,1053.91 -166.95,361.05 -338.75,721.76 -537.69,1065.82 -189.55,327.69 -416.67,633.7 -646.64,978.3 -38.44,-76.07 -65.17,-104.43 -65.46,-133.22 -7.04,-633.12 -53.74,-1269.42 129.67,-1889.18 123.16,-416.14 248.15,-831.48 373.8,-1246.66 32.46,-107.32 105.01,-214.23 -23.6,-340.55 -51.41,45.51 -108.14,80.78 -144.67,130.57 -228.6,312.39 -457.94,624.73 -677.15,943.72 -544.12,791.98 -1140.38,1549.93 -1526.38,2443.32 -165.63,383.25 -442.28,690.14 -819.44,893.31 -47.99,25.89 -85.01,72.29 -163.91,141.4l0 0zm7942.71 -15972.39c-32.31,131.1 -51.7,271.07 -101.57,399.42 -88.27,226.96 -169.31,463.23 -299.24,666.27 -265.35,414.6 -560.73,810.31 -845.26,1212.61 -38.07,53.74 -85.17,101.31 -164.62,194.39 -225.85,-655.56 -379.44,-1299.24 -860.16,-1790.67 -52.94,228.02 -72.97,446.64 -70.91,665.29 13.26,1314.08 30.72,2628.16 50.83,3942.08 0.74,44.45 44.03,88.13 108.77,209.5 431.99,-1152.26 858.52,-2230.99 1919.34,-2884.06 10.72,37.91 29.77,70.06 26.7,99.83 -66.94,643.68 -165.95,1280.77 -417.99,1883.07 -140.39,335.47 -290.91,666.86 -431.14,1002.37 -41.22,98.37 -116.26,198.52 -46.67,341.05 84.75,-54.9 154.75,-94.14 217.88,-142.29 335.94,-256.49 667.76,-518.29 1005.6,-771.97 440.8,-331.07 870.14,-681.28 1333.95,-977.13 415.82,-265.3 776.26,-570.89 1016.26,-1000.47 197.67,-354.14 502.05,-581.87 838.57,-780.63 55.8,-33.21 110.12,-68.74 162.56,-101.47 -289.94,-609.24 -2427.32,-2069.66 -3442.9,-2167.19l0 0zm6297.04 10075.76c-607.17,241.96 -692.89,251.09 -1212.93,113.51 -101.63,-27.04 -197.04,-75.78 -297.18,-108.35 -356.37,-115.99 -706.09,-272.52 -1071.96,-335.09 -785.55,-133.99 -1579.06,-223.02 -2370.48,-322.42 -325.54,-40.96 -653.73,-63.71 -981.1,-88.05 -73.42,-5.61 -148.72,16.99 -246.06,29.61 69.59,216.88 244.92,251.99 382.93,317.87 734.7,350.04 1423.01,772.87 2047.32,1295.45 192.33,160.92 368.51,341.13 552.08,512.29 -11.62,24.5 -23.18,48.87 -34.79,73.21 -271.78,-32.99 -548.4,-44.13 -814.33,-103.48 -838.97,-186.9 -1653.25,-442.7 -2376.22,-930.88 -57.55,-38.6 -137.69,-43.87 -207.33,-64.58 15.58,136.95 62.57,228.76 131.15,299.51 628.41,649.13 1251.11,1304.26 1895.53,1936.91 321.52,315.83 710.62,528.43 1172.95,597.59 205.77,30.67 408.91,108.64 601.4,192.48 400.55,174.86 679.53,455.4 719.46,919.22 4.6,51.91 29.4,102.05 45.09,154.38 862.67,-312.58 2194.83,-3328.96 2064.47,-4489.18l0 0zm-1661.22 -6581.33c-69.85,101.15 -120.2,177.83 -174.55,251.78 -306.18,417.46 -696.7,729.01 -1181.68,911.83 -252.1,95.14 -520.2,149.3 -767.85,253.52 -344.01,144.94 -701.54,281.2 -1006.79,489.37 -600.34,409.55 -1169.27,865 -1748.71,1304.9 -48.42,36.8 -76.76,100.09 -169.28,225.16 661.91,-103.06 1197.35,-350.31 1765.38,-457.04 565.6,-106.02 1133.85,-203.78 1754.29,-168.83 -58.29,75.33 -81.47,115.83 -114.19,145.92 -738.4,678.63 -1581.92,1170.07 -2553.94,1432.03 -56.49,15.11 -121.39,17.57 -167.64,48.15 -42.28,27.86 -89.85,87.21 -88.11,130.84 1.64,42.39 55.38,101.26 99.7,119.06 62.89,25.08 138.06,19.71 207.96,26.14 572.72,53.92 1146.84,95.73 1717.81,163.88 926.68,110.38 1823.4,18.04 2701.29,-307.63 403.2,-149.62 822.25,-186.16 1232.77,7.96 45.61,21.7 104.22,16.01 158.7,23.07 56.09,-1238.23 -709.19,-3587.42 -1665.16,-4600.11l0 0zm-1406.58 12256.11c-614.02,-144.15 -950.97,-493.58 -1210.12,-950.97 -120.12,-211.88 -278.82,-408.07 -446.91,-585.71 -838.68,-886.49 -1685.71,-1765.11 -2531.72,-2644.75 -75.62,-78.55 -138.59,-192.8 -327.45,-153.75 179.12,595.23 494.27,1119.69 684.4,1691.59 195.71,588.2 253.52,1199.14 348.24,1836.82 -75.35,-26.3 -116.26,-28.1 -135.36,-49.21 -242.7,-270.06 -505.94,-525.78 -717.81,-818.44 -406.27,-561.58 -760.1,-1156.23 -984.81,-1819.25 -38.18,-112.82 -64,-250.51 -244.03,-290.91 17.07,204.36 39.05,388.2 46.73,572.45 25.08,609.89 42.12,1220.26 68.69,1830.33 10.4,240.06 8.39,486.57 63.87,717.81 139.49,579.97 271.65,1164.35 566.45,1694.71 200.74,361.05 244.92,731.18 13.41,1102.2 -15.58,25.08 -4.76,66.52 -7.99,139.07 1834.46,-236.39 3390.35,-1015.72 4814.41,-2271.99l0 0zm6143.95 4225.03c-64.29,-43.71 -101.73,-70.27 -140.39,-95.14 -843.62,-543.06 -1069.9,-1350.14 -742.21,-2193.08 144.49,-371.79 299.72,-739.72 436.93,-1114.16 254.48,-693.74 527.84,-1382.34 741.76,-2088.7 363.8,-1201.21 699.24,-2411.33 1023.65,-3624 181.69,-679.16 318.9,-1370.28 471.88,-2057.14 15.58,-70.49 1.96,-147.56 1.96,-277.07 -95.57,78.82 -145.36,122.5 -197.93,162.56 -232.89,177.51 -451.09,382.19 -704.61,522.68 -216.72,119.96 -291.49,266.62 -301.57,500.57 -35.37,811.95 -165.31,1612.27 -370.79,2397.5 -409.5,1563.5 -1115.27,2983.81 -2086.48,4276.73 -1430.97,1904.76 -3224.61,3328.83 -5462.51,4175.47 -21.01,8.02 -29.66,48.68 -59.03,100.41 282.52,0 537.69,-0.21 792.98,0 2020.17,1.59 4040.19,3.94 6060.36,2.96 159.01,0 318.06,-24.39 497.28,-39.29 14,-232.95 25.62,-430.14 38.72,-650.3l0 0zm-30297.44 -21458.19c14.1,-1037.48 -226.11,-1926.99 -783.17,-2701.18 -1182.05,-1642.43 -3214.58,-2275.65 -5050.02,-1697.75 -1926.99,606.58 -3282.16,2522.33 -3100.28,4517.52 126.6,1388.53 806.08,2483.25 1951.33,3271.6 1032.06,710.3 2172.71,957.61 3413.5,723.4 2054.24,-387.46 3576.44,-2316.88 3568.64,-4113.59l0 0zm-192.35 -4706.51c1188.27,-979.73 2362.28,-1968.5 3611.43,-2861.36 1244.55,-889.56 2549.08,-1683.91 3930.09,-2361.09 -948.06,1308.97 -1910.93,2600.46 -3024.13,3770.34 -1121.07,1177.98 -2385.35,2196.84 -3637.52,3236.75 99.72,-3.89 181.61,-33.89 257.55,-75.12 1648.12,-897.73 3294.46,-1798.21 4943.63,-2694.17 432.83,-235.06 875.82,-451.46 1309.13,-685.8 212.3,-114.83 447.23,-209.81 508.16,-494.64 11.88,-55.17 118.3,-97.79 188.22,-131.55 157.27,-76.2 324.64,-132.85 477.92,-215.82 547.37,-296.86 971.68,-737.5 1349.77,-1219.2 381.03,-485.4 778.72,-940.46 1377.39,-1164.62 17.91,-6.61 27.57,-35.96 40.67,-55.06 -409.81,-1018.86 -3689.16,-4286.86 -4542.34,-4567.16 -7.06,95.57 -18.52,187.96 -20.27,280.41 -13.52,709.22 -345.49,1235.9 -947.31,1584.14 -509.06,294.38 -908.71,696.81 -1268.89,1151.1 -276.12,348.24 -525.62,720.17 -895.64,987.53 -81.04,58.61 -160.44,195.45 -151.53,287.36 19.1,193.91 -72.5,307.1 -190.02,428.39 -89.06,91.81 -171.16,192.48 -242.97,298.4 -685.09,1009.86 -1365.04,2022.92 -2051.31,3031.91 -335.47,493.31 -680.91,979.72 -1022.03,1469.26l0 0zm-15084.11 -9970.06c-1214.62,527.58 -4642.86,3941.42 -4831.24,4677.75 573.46,98.11 929.72,499.45 1267.25,927.63 145.34,184.26 289.8,370.31 448.02,543.43 484.45,529.54 972.34,1054.92 1683.91,1293.97 87.95,29.69 188.83,122.03 216.67,207.27 50.43,154.62 158.01,220.85 283.5,289.43 648.92,354.73 1302.2,701.97 1942.68,1071.48 1453.36,838.7 2900.18,1688.84 4350.31,2533.04 18.36,10.56 46.57,4.13 138.48,9.87 -1311.91,-1052.43 -2396.36,-2240.44 -3445.14,-3456.86 -1050.63,-1218.7 -1996.89,-2519.57 -2802.33,-3918.08 2812.07,1492.7 5093.26,3626.49 7258.92,5907.83 -3.81,-69.59 -25.66,-120.99 -54.42,-168.25 -591.74,-972.45 -1191.5,-1939.98 -1773.93,-2917.85 -432.46,-726.04 -841.35,-1466.08 -1263.86,-2198 -103.69,-179.71 -266.36,-330.33 -218.04,-573.38 9.82,-49.87 -54.74,-122.42 -97.84,-174.12 -261.86,-314.35 -543.8,-613.54 -787.82,-940.88 -313.93,-420.77 -684.4,-768.43 -1128.13,-1047.25 -207.49,-130.41 -402.83,-284.72 -586.08,-447.86 -378.17,-336.63 -577.48,-761.58 -580.13,-1273.7 -0.57,-111.68 -13.11,-223.55 -20.78,-345.47l0 0zm69507.73 10200.56c-4867.54,3702.98 -10424.87,5599.67 -16448.41,6385.43 -136.63,-942.87 -281.31,-1855.97 -398.46,-2772.52 -116.89,-914.27 -206.32,-1831.74 -312.92,-2793.63 -950.36,-51.36 -1906.08,-102.9 -2876.81,-155.2 -17.7,105.01 -41.72,172.27 -37.76,237.89 25.35,433.28 18.18,873.02 94.09,1297.91 202.38,1131.89 447.38,2255.86 663.97,3385.37 193.54,1009.28 258.45,2024.72 92.5,3046.31 -63.13,388.25 -121.68,777.32 -183.41,1171.97 405,-179.26 810.52,-356.74 1214.25,-537.95 933.53,-419.21 1459.76,-1145.67 1621.29,-2148.79 25.51,-158.86 68.69,-314.99 99.22,-452.09 921.91,-106.92 1812,-175.34 2689.25,-320.62 1075.82,-177.96 2155.59,-366.5 3207.12,-649.18 1141.12,-306.94 2268.88,-683.02 3370.69,-1110.88 1102.81,-427.96 2182.68,-924.24 3241.7,-1452.4 859.71,-428.7 1687.2,-926.89 2504.57,-1434.04 1131.57,-702.07 2099.02,-1616.82 3095.2,-2491.32 345.65,-303.21 380.87,-567.93 169.73,-1032.06 -41.38,19.1 -86.15,33.05 -123.75,57.55 -1383.82,909.35 -2942.56,1338.05 -4547.61,1609.38 -1285,217.46 -2583.82,330.09 -3888.55,371.05 -1703.47,53.31 -3407.54,53.58 -5104.24,-99.25 -1753.34,-157.85 -3500.89,-379.12 -5251.32,-569.83 -210.85,-22.91 -424.95,-48.63 -640.37,31.72 222.49,118.75 448.6,207.43 680.27,277.6 1069.08,323.48 2157.6,562.64 3265.09,702.28 1094.13,137.85 2188.87,303.79 3288.32,361.61 2334.34,122.74 4670.95,169.62 6998.12,-155.02 1118.21,-155.97 2213.98,-406.11 3297,-718.77 71.98,-20.77 147.42,-28.57 221.23,-42.52l0 0zm-59551.09 -1341.96c8.7,-84.75 27.44,-169.89 24.39,-254.32 -67.95,-1853.38 -136.37,-3706.73 -212.46,-5559.8 -6.03,-147.56 -31.25,-319.38 -112.77,-432.99 -134.46,-187.38 -91.44,-330.41 36.12,-471.04 150.36,-165.79 163.88,-347.98 130.1,-557.05 -39.34,-242.83 -70.75,-489.66 -74.88,-735.33 -13.52,-820.29 -167.11,-1602 -516.65,-2352.6 -286.04,-614.12 -194.81,-1212.03 215.34,-1756.89 45.24,-60.09 79.45,-128.35 160.76,-261.36 -437.04,32.12 -808.25,43.55 -1174.86,89.38 -1155.96,144.78 -2288.43,403.62 -3400.95,747.34 -943.03,291.15 -1870.08,624.79 -2732.11,1115.14 -105.54,60.09 -237.09,96.92 -281.89,254.16 708.32,201.9 1021.74,694.64 1132.15,1385.15 52.52,328.43 198.04,648.55 338.9,955.12 293.63,639.68 620.02,1264.31 915.01,1903.28 76.33,165.31 139.49,309.64 320.62,386.9 75.64,32.31 137.74,122.9 180.66,200.85 486.83,883.89 963.56,1773.26 1453.57,2655.2 535.62,964.35 1081.93,1922.57 1625.04,2882.48 18.89,33.79 53.58,58.61 80.88,87.39 -48.74,-286.04 -144.01,-546.07 -233.15,-807.98 -90.91,-266.51 -182.35,-533.03 -261.25,-803.17 -82.21,-281.31 -150.47,-566.82 -223.31,-850.95 -69.74,-272.79 -144.04,-544.86 -204.21,-819.86 -60.35,-274.85 -105.7,-552.93 -157.85,-829.73 -51.96,-276.6 -105.12,-553.03 -156.24,-829.84 -51.12,-277.07 -106.18,-553.51 -148.4,-831.9 -42.44,-278.39 -71.38,-558.69 -106.18,-838.07 -36.27,-291.17 -76.65,-581.92 -107.76,-873.76 -29.82,-279.88 -59.19,-560.44 -72.13,-841.45 -12.04,-263.39 -142.98,-523 -57.97,-853.49 1624.11,2841.73 2655.7,5848.59 3621.48,8899.19l0 0zm35424.3 1680.55c-3016.49,-179.71 -5994.27,-357.06 -9053.35,-539.14 115.41,197.78 182.77,329.35 265.3,450.77 92.08,135.26 208.33,254.9 295.86,392.75 221.27,349.2 208.81,652.91 -49.53,974.09 -202.43,251.62 -445.74,448.12 -788.46,482.34 -157.72,15.8 -313.03,53.26 -469.37,80.72 -5.03,32.41 -10.03,64.77 -15.16,97.05 2389,390.58 4510.91,1340.8 6313.78,2956.03 1795.09,1608.16 3020.06,3586.08 3790.16,5871.13 69.59,-182.09 106.6,-360.97 151.95,-537.4 314.83,-1227.35 461.49,-2472.95 300.3,-3733.19 -113.19,-882.86 -265.93,-1763.69 -458.58,-2632.71 -263.82,-1190.65 -372.8,-2386.09 -283.61,-3601.03 5.02,-68.03 0.71,-136.77 0.71,-261.41l0 0zm-33859.26 -1638.88c1121.49,-2986.54 2121.48,-6000.54 3780.08,-8733.74 129.78,387.88 -198.57,3097.16 -547.56,4639.42 -344.86,1524.58 -828.36,3006.99 -1342.13,4486.35 91.6,-68.58 146.5,-153.43 200.42,-239.05 280.88,-446.75 562.64,-893 842.04,-1340.64 763.64,-1223.33 1630.97,-2381.36 2301.64,-3663.71 70.38,-134.62 223.76,-225.45 336.84,-338.46 105.28,-104.96 251.2,-194.07 305.09,-321.52 383.04,-906.99 751.13,-1820.52 1114.27,-2735.66 94.72,-238.73 148.88,-493.34 232.57,-736.92 116.89,-340.62 337.69,-583.78 688.47,-698.16 127.61,-41.7 251.94,-92.76 439.16,-162.51 -311.44,-195.71 -556.9,-373.27 -822.25,-513.45 -2112.67,-1115.72 -4371.58,-1746.54 -6738.67,-2011.42 -108.24,-11.99 -218.78,-1.43 -320.36,-1.43 -6.19,54.5 -12.67,68.84 -7.75,76.36 50.06,78.87 101.26,156.95 153.11,234.47 336.52,503.29 401.72,1042.19 207.33,1612.9 -37.76,110.81 -85.88,218.47 -135.52,324.75 -160.18,343.27 -262.65,697.84 -289.37,1080.35 -35.96,514.77 -95.14,1028.36 -157.69,1540.77 -29.92,246.51 -25.14,463.39 200.82,627.64 110.15,80.04 144.33,189.71 98.69,341.13 -63.39,209.66 -103.69,430.19 -121.13,648.78 -35.53,444.34 -38.81,891.25 -73.58,1335.7 -110.25,1415.55 -229.45,2830.38 -343.38,4245.61 -8.18,100.11 -1.14,201.42 -1.14,302.44l0 0zm15746.15 14868.57c-614.02,29.5 -964.62,-313.45 -1324.95,-656.56 -424.79,-404.52 -856.88,-803.59 -1310.72,-1174.49 -297.92,-243.6 -628.2,-454.85 -966.36,-639.58 -222.59,-121.71 -476.22,-169.68 -583.41,-449.87 -30.67,-80.41 -159.86,-129.04 -251.2,-178.96 -113.03,-61.83 -236.99,-103.37 -350.2,-164.57 -1785.33,-965.12 -3569.57,-1932.54 -5354.53,-2898.22 -323.74,-175.18 -650.11,-345.6 -975.23,-517.97 -16.43,23.65 -32.89,47.41 -49.32,71.07 1312.49,1131.73 2627.02,2260.23 3779.6,3560.23 1130.09,1274.68 2942.35,3805.16 2988.92,4221.96 -2917.69,-1795.28 -5551.2,-3929.22 -8021.27,-6283.11 -1.4,65.35 14.42,116.47 43.05,158.75 315.25,466.57 648.07,921.86 946.57,1398.93 983.17,1571.31 1953.1,3151.32 2931.95,4725.59 97.5,156.63 169.57,304.8 44.08,478.47 430.45,278.34 655.98,700.91 923.66,1081.11 398.44,565.86 849.39,1062.14 1480.29,1372.05 62.89,30.82 122.05,70.49 179.44,111.05 405.63,285.99 652.91,663.15 682.12,1170.44 10.56,182.67 37.17,364.6 60.19,581.9 112.02,-65.03 193.38,-105.7 267.52,-156.37 633.28,-433.86 1170.54,-976.1 1708.36,-1517.54 1113.47,-1121.17 2091.66,-2347.62 2884.81,-3716.76 96.74,-166.67 163.15,-350.85 266.63,-577.55l0 0zm-22161.53 -6781.13c-13.94,-20.85 -27.94,-41.54 -41.86,-62.26 -31.41,5.72 -66.94,4.13 -93.66,18.52 -763.06,414.18 -1519.18,841.45 -2288.75,1243.17 -1300.56,679.05 -2609.06,1342.71 -3915.17,2011.15 -189.81,97.26 -372.32,194.12 -470.14,403.67 -30.45,65.14 -107.71,137 -175.34,151.79 -440.95,97.21 -793.62,360.6 -1126.65,632.12 -517.92,421.96 -990.12,899.69 -1502.04,1329.5 -446.11,374.36 -886.22,801.48 -1560.38,621.93 -13.36,-3.39 -34.85,23.34 -52.49,36.12 387.67,1406.58 3357.59,4961.78 4905.35,5906.21 15.85,-124.91 31.41,-235.53 43.6,-346.5 52.78,-479.24 256.96,-876.14 652.78,-1158.77 151.9,-108.35 319.93,-195.55 485.67,-282.79 379.39,-199.42 710.57,-457.04 978.09,-792.4 256.17,-321.42 500.04,-652.75 764.17,-967.32 164.15,-195.24 356.05,-367.29 535.62,-549.99 55.8,-56.81 153.75,-109.38 160.18,-171.37 29.82,-286.6 215.24,-491.86 349.73,-721.62 503.66,-861.3 995.63,-1730.06 1529.21,-2572.52 659.1,-1041.03 1355.65,-2058.19 2034.7,-3086.71 58.71,-89.16 107.34,-184.73 160.5,-277.39 -1304.69,1083.57 -2549.76,2205.17 -3833.76,3280.36 -1215.73,1018.12 -3851.22,2708.51 -4146.74,2727.01 927.47,-1360.75 1907.67,-2687.77 2999.69,-3933.61 1100.21,-1255.31 2298.9,-2402.01 3607.69,-3438.3l0 0zm8154.4 2826.57c-17.07,9.1 -34.21,18.07 -51.44,27.15 23.23,86.73 41.96,175.02 70.06,260.32 344.7,1047.04 728.53,2082.83 1025.39,3143.09 284.08,1014.84 540.62,2045.73 694.37,3086.44 157.37,1064.74 175.87,2150.06 252.1,3226.62 3.07,44.93 -26.88,92.08 -55.48,183.09 -391.16,-807.56 -774.41,-1557.52 -1120.01,-2324.55 -342.11,-759.25 -661.17,-1529.82 -962.85,-2306.06 -306.15,-786.98 -583.25,-1585.52 -865.11,-2381.62 -277.97,-785.28 -440.37,-1608.48 -764.43,-2381.09 6.06,2591.49 203.97,5164.43 494.06,7741.07 -87.89,34.69 -161.77,67.26 -237.83,93.13 -283.34,96.15 -294.48,104.96 -283.61,395.08 16.85,445.64 29.5,891.83 63.16,1336.41 40.06,529.59 144.57,1044.79 401.35,1520.19 72.13,133.48 127.5,277.39 177.56,421.11 137,392.91 136.37,784.33 -50.8,1161.97 -101.79,205 -221.17,401.29 -334.62,605.68 1545.48,350.86 7264.9,-1353 8321.7,-2469.3 -14.05,-17.62 -25.08,-44.93 -43.13,-51.22 -626.06,-214.1 -963.48,-665.43 -1110.3,-1297.68 -73.71,-317.55 -176.34,-633.7 -308.48,-931.73 -342.21,-771.71 -709.16,-1532.86 -1063.63,-2299.47 -52.28,-112.95 -110.23,-207.33 -251.46,-209.34 -143.93,-1.8 -192.06,-103.21 -240.37,-218.25 -108.48,-258.97 -212.17,-522.05 -345.76,-768.16 -957.13,-1765.22 -2041.92,-3453.47 -3117.53,-5146.94 -90.9,-142.97 -194.96,-277.65 -292.91,-415.94l0 0zm-4127.42 13766.93c-3.39,-21.7 0.69,-49.9 -11.51,-64 -514.85,-596.69 -555.57,-1250.84 -201.74,-1929.74 499.98,-959.51 546.07,-2002.68 607.01,-3046.36 8.97,-154.33 -41.22,-272.31 -163.25,-366.87 -53.47,-41.54 -95.14,-98.37 -95.89,-99.09 57.86,-578.64 114.19,-1100.8 161.34,-1623.88 47.31,-526.12 84.59,-1053.23 127.77,-1579.54 42.28,-514.99 95.73,-1028.83 127.45,-1544.24 32.25,-527.05 62.49,-1055.63 59.56,-1583.19 -2.75,-514.19 113.98,-1030 1.22,-1548.45 -953.32,3271.76 -2260.71,6379 -4022.46,9294.52 -32.31,-64.14 -38.29,-120.28 -31.41,-174.76 98.08,-780.07 201.19,-1559.27 296.7,-2339.5 141.61,-1156.28 398.09,-2289.49 724.35,-3404 368.78,-1260.5 786.66,-2506.74 1180.15,-3760.21 20.37,-64.61 11.14,-138.59 15.69,-208.17 -97,34.63 -139.44,85.17 -173.22,140.6 -250.19,411 -491.15,827.83 -749.11,1233.99 -975.2,1535.03 -1964.8,3061.31 -2829.16,4663.6 -43.92,81.2 -93.5,192.03 -166.37,219.05 -303.9,111.87 -411.14,357.53 -498.77,633.7 -34.95,109.96 -107.92,207.75 -163.57,311.07 -489.8,908.45 -1001.53,1802.45 -1231.4,2829.96 -117.74,526.68 -510.54,855.72 -1026.19,1022.19 -86.62,27.86 -176.08,47.47 -269.85,72.39 733.99,1085.79 6937.54,3199.94 8332.66,2850.93l0 0zm-4766.7 -20240.47c4.87,-23.07 9.87,-45.93 14.68,-69 -33.63,-24.71 -64.14,-55.64 -101.15,-73.13 -1856.29,-875.67 -3560.39,-1994.46 -5182.58,-3244.29 -408.86,-314.93 -792.03,-678.31 -1239.07,-925.41 -809.73,-447.7 -1646.63,-848.81 -2577.39,-1010.13 -401.72,-69.64 -811.21,-155.07 -1158.77,-394.12 -157.48,-108.19 -299.72,-238.73 -448.65,-359.12 -795.89,1048.78 -1740.56,4187.32 -1716.43,5064.57 341.26,-97.92 680.27,-57.28 1001.63,56.96 1326.33,472.04 2648.08,956.44 3970.23,1439.76 71.97,26.35 132.05,85.33 254.74,166.95 -150.73,65.25 -248.18,119.12 -352.4,150.52 -1089.18,328.32 -2175.14,668.97 -3271.07,973.75 -882.12,245.35 -887.6,225.5 -1787.82,83.26 0.9,1902.38 295.96,3743.59 938.87,5601.68 345.6,-506.25 817.38,-609.63 1319.69,-678.15 498.29,-68 997.74,-154.49 1482.88,-284.43 417.09,-111.92 813.99,-298.98 1221.42,-448.71 404.36,-148.56 697.73,-516.55 1146.2,-577.74 20.85,-2.96 38.76,-25.4 58.5,-38.18 246.19,-159.49 491.15,-320.83 739.09,-477.63 723.87,-457.94 1423.7,-962.16 2179.35,-1359.75 1140.96,-600.39 2321.53,-1125.3 3484.14,-1684.71 51.83,-24.82 92.5,-73.24 183.52,-147.08 -109.56,-6.03 -154.91,-14.53 -198.83,-9.66 -1483.78,163.67 -2938.86,488.21 -4397.14,792.4 -907.39,189.12 -1807.79,411.96 -2716.29,594.97 -723.82,145.76 -1455.1,254.42 -2183.63,376.26 -35.96,6.01 -77.07,-18.65 -150.36,-38.34 530.54,-373.7 1010.47,-746.47 1523.84,-1065.37 866.43,-538.08 1754.45,-1041.77 2632.71,-1561.23 94.83,-55.91 185.05,-119.8 320.25,-207.86 -1409.75,-977.29 -2745.58,-1951.33 -3879.64,-3174.81 321.42,40.67 633.39,87.23 931.31,179.26 1221.05,377.32 2444.17,750.01 3654.69,1159.67 1323.37,447.97 2652.4,870.56 4019.55,1164.14 92.18,19.86 189.07,16.9 283.93,24.7l0 0zm23655.18 -5732.67c-327.4,334.62 -736.71,433.28 -1144.19,550.76 -585.07,168.51 -1168.74,347.5 -1739.87,557.48 -481.28,176.66 -958.35,358.96 -1378.4,684.34 -443.55,343.43 -957.45,594.97 -1410.55,927.52 -1594.38,1169.91 -3279.62,2186.86 -5049.33,3066.92 -65.88,32.73 -122,85.17 -230.98,163.25 122.9,0 182.09,9.97 236.59,-1.64 711.78,-150.47 1428.62,-281.31 2132.73,-461.75 1124.88,-288.05 2240.6,-611.37 3361.35,-916.17 973.46,-264.87 1948.21,-524.48 2922.35,-786.55 114.99,-30.82 229.76,-62.57 344.81,-93.98 10.56,20.85 20.96,41.54 31.51,62.26 -631.9,515.54 -1244.65,1056.59 -1900.95,1538.9 -658.63,484.08 -1360.59,909.56 -2060.36,1371.79 45.67,39.08 89.54,91.76 145.6,121.84 340.94,182.83 689.93,351.26 1026.45,541.52 1052.49,595.23 2101.43,1196.6 3148.99,1800.38 88.87,51.22 226.96,72.81 227.3,248.26 -70.22,0 -127.77,4.87 -184.15,-0.74 -1344.14,-133.99 -2685.26,-290.7 -3999.81,-615.5 -1492.06,-368.83 -2972.75,-789.2 -4504.16,-975.49 -162.82,-19.95 -326.55,-31.83 -489.93,-44.93 -166.11,-13.36 -332.13,-23.34 -498.18,-34.95 53.9,97.53 119.94,137.74 189.71,169.57 308.9,141.87 626.22,267.1 927.29,423.73 1532.89,798.33 2987.36,1724.32 4407.46,2707.48 548.38,379.54 1086.96,772.03 1707.57,1044.26 942.18,412.86 1889.76,763.32 2938.3,781.53 298.08,5.03 602.46,97.21 888.44,194.97 190.69,65.35 353.99,211.61 564.38,343.27 91.92,-248.97 194.81,-484.24 265.62,-728.69 127.29,-439.26 244.74,-882.12 349.3,-1327.6 247.23,-1054.39 393.75,-2123.39 418.89,-3207.25 2.65,-110.86 -13.78,-222.14 -20.43,-317.02 -378.91,10.61 -718.08,50.69 -1050.79,20.74 -324.38,-29.18 -645.32,-118.8 -962.45,-201.61 -1089.29,-284.93 -2176.49,-577.74 -3263.77,-870.66 -70.91,-19.05 -134.22,-65.78 -247.52,-123.32 96.41,-48.47 142.72,-76.97 192.75,-96.04 1008.67,-384.41 2016.63,-770.81 3027.26,-1150.2 667.49,-250.45 1318.79,-571.92 2064.2,-513.32 17.89,1.48 37.76,-23.6 56.22,-36.12 85.7,-795.26 -892.28,-4061.41 -1439.25,-4817.24l0 0zm37191.5 28739.36c-254.32,-100.01 -480.43,-197.09 -712.26,-278.39 -390.53,-136.84 -710.04,-363.99 -930.25,-716.23 -236.43,-377.9 -451.93,-769.09 -696.12,-1141.7 -1346.52,-2056.18 -3022.55,-3794.57 -5025.68,-5222.13 -360.18,-256.54 -704.51,-552.5 -997.27,-882.44 -426.96,-481.01 -550.17,-1052.43 -298.93,-1672.93 83.66,-206.59 164.31,-414.66 250.19,-620.34 285.25,-682.86 562.21,-1369.43 672.47,-2106.8 86.6,-579.33 -89.75,-1076.77 -911.2,-1100.32 -1545.64,-44.29 -3012.73,261.83 -4399.2,932.79 -1338.16,647.54 -2344.08,1635.18 -2906.55,3027.84 -240.96,596.69 -457.2,1206.76 -634.71,1825.04 -371.16,1292.38 -592.59,2610.86 -527.21,3962.27 33.73,695.48 30.77,1384.72 -145.86,2063.88 -48.58,186.48 -0.37,331.68 158.01,463.97 596.69,498.5 1133.79,1057.17 1600.15,1679.71 156.47,208.97 334.72,275.85 596.21,275.01 2713.06,-10.56 5425.92,-5.16 8139.14,-7.22 2137.33,-1.59 4274.98,-7.17 6412.47,-12.62 122.74,-0.32 245.32,-15.43 399.49,-25.51 -17.49,-180.91 -30.54,-315.59 -42.89,-443.88l0 0zm-78650.71 -38828.45c61.3,-121.1 136.53,-237.12 181.58,-363.99 393.07,-1107.65 1138.69,-1822.87 2310.45,-2028.56 652.09,-114.35 1244.07,47.57 1677.59,583.91 548.14,678.31 269.43,1566.23 -560.31,1838.14 -438.63,143.54 -854.76,116.26 -1252.91,-124.96 -69.43,-41.99 -142.48,-77.81 -224.82,-122.61 -213.44,132.74 -245.8,337.85 -226.64,552.08 64.32,717.71 450.88,1227.72 1075.98,1546.6 928.93,474 2252.9,286.68 2996.14,-790.2 632.96,-917.23 900.27,-1927.36 803.59,-3032.05 -176.4,-2016.05 -999.62,-3720.73 -2486.21,-5098.55 -334.72,-310.28 -733.03,-504.61 -1181.52,-592.4 -207.38,-40.4 -416.56,-71.65 -623.78,-113.24 -1110.56,-222.99 -1896.16,-832.64 -2155.69,-1962.31 -396.77,-1727.09 762.37,-3182.73 2362.01,-3339.54 765.55,-75.04 1454.68,125.7 2098.94,552.4 975.57,646.11 1632.93,1540.3 2099.1,2589.42 190.24,427.96 349.94,870.35 501.73,1313.63 75.3,219.79 99.67,456.72 150.36,685.09 19.26,87.05 47.89,172.11 109.14,249.61 247.23,-1258.44 -14.42,-2417.37 -663.02,-3509.86 -658.79,-1109.61 -1686.56,-1757.26 -2821.04,-2274.01 19.74,-33.21 30.08,-65.35 40.11,-65.19 1133.58,11.3 2220.86,194.23 3170.05,873.71 912.36,652.99 1531.49,1504.53 1787.66,2610.75 231.99,1001.9 150.2,1980.54 -167.53,2949.87 -104.96,320.2 -188.81,647.33 -292.66,1007.08 123.27,17.78 210.24,41.12 297.23,41.38 974.78,2.96 1949.48,2.33 2924.25,2.54 528.11,0.11 1056.32,0.74 1584.35,-2.38 67.36,-0.32 134.65,-21.43 242.86,-39.93 -29.82,-115.83 -49.58,-213.1 -79.93,-307.05 -93.77,-290.12 -196.66,-577.43 -286.31,-869.08 -74.19,-241.22 -88.69,-489.48 15.05,-725.14 82.95,-188.22 33.1,-327.71 -85.01,-483.66 -133.32,-176.03 -243.76,-372.48 -342.69,-570.57 -123.27,-246.78 -107.76,-505.2 16.27,-748.06 373.8,-731.73 968.64,-1167 1785.86,-1266.69 313.19,-38.1 633.54,-35.37 949.7,-24.98 711.62,23.39 1331.52,260.54 1793.48,829.57 36.54,45.09 60.62,100.33 90.54,150.79 22.75,-15.95 45.56,-31.86 68.32,-47.68 -15,-58.92 -16.48,-126.29 -47.15,-175.5 -246.83,-394.49 -531.39,-748.8 -1007.08,-883.58 -33.95,-9.66 -66.94,-28.47 -101.04,-29.95 -806.87,-36.75 -1621.53,-139.49 -2403.21,151.69 -271.33,101.15 -458.42,57.39 -662.44,-138.17 -717.92,-688.02 -669.55,-1554.72 -67.42,-2307.38 391.58,-489.35 891.35,-865.48 1468.94,-1126.6 42.17,-19.05 81.2,-44.61 150.42,-83.21 -184.63,-382.19 -547.11,-561.63 -872.86,-808.88 179.76,-369.99 500.14,-599.92 817.22,-854.97 -272.84,-114.94 -526.04,-201.4 -760.31,-324.06 -647.33,-338.69 -1046.61,-866.7 -1113.31,-1604.35 -51.12,-565.28 174.02,-1019.7 680.75,-1286.64 301.25,-158.7 504.56,-377.9 618.65,-686.25 166.79,-450.77 324.86,-904.88 483.45,-1358.58 55.75,-159.28 76.6,-316.26 -31.43,-470.72 -107.08,-152.69 -50.85,-299.61 67.95,-411.37 127.13,-119.49 272.36,-220.69 414.34,-323.51 298.08,-215.66 270.8,-586.55 -57.55,-745.41 -543.69,-262.65 -754.51,-624.58 -687.81,-1178.56 46.41,-384.68 287.31,-603.57 630.69,-725.73 330.65,-117.53 629.6,-39.24 879.53,197.04 372.8,352.37 411.53,1007.48 93.35,1415.49 -72.07,92.55 -150.05,180.6 -225.64,270.48 -225.95,268.84 -216.24,458.52 44.45,692.89 122.16,109.8 253.89,209.07 381.77,312.29 162.24,130.92 229.5,268.95 132.29,488.53 -56.22,127.13 -55.06,302.58 -21.59,442.22 87.79,364.28 200.58,723.08 316.42,1079.87 114.51,351.95 309.64,648.81 591.85,900.32 189.55,168.83 346.82,381.34 489.85,593.46 474.69,704.19 242.86,1455.16 -245.93,1957.63 -288.79,297.02 -626.69,530.65 -1031.32,652.49 -52.73,15.85 -101.47,44.5 -191.48,84.88 317.05,247.52 604.68,472.15 907.28,708.37 -296.76,355.1 -698.79,546.52 -917.71,946.31 928.53,524.48 1827.21,1056.85 2207.23,2162.76 910.19,-678.79 1930.64,-686.7 3020.46,-451.93 0,-166.18 -0.58,-292.47 0,-418.62 6.06,-1351.78 614.97,-2384.16 1691.9,-3159.07 661.01,-475.59 1405.26,-743.11 2215.46,-829.89 1035.87,-110.81 2065.21,-121.39 3057.92,253.63 1386.95,524.01 2324.55,1477.01 2694.54,2931.64 73.85,290.12 48.05,605.84 64.93,910.03 5.53,100.67 0.69,202.01 0.69,326.39 1073.76,-200.16 2084.23,-159.6 3024.93,478.63 387.77,-1060.24 1259.28,-1618.77 2174.77,-2185.7 -303.32,-287.26 -571.24,-541.31 -840.13,-796.05 207.75,-369.09 525.38,-585.55 910.03,-821.66 -170.74,-63.82 -275.75,-100.25 -378.49,-141.76 -537.16,-217.78 -982.48,-534.62 -1246.13,-1076.85 -370.15,-761.1 -167.24,-1496.88 426.06,-2008.24 377.06,-325.23 560.73,-706.25 703.18,-1139.11 83.95,-255.75 136.79,-522.26 197.46,-785.34 42.7,-185 66.09,-372.37 -36.7,-548.38 -79.45,-136.13 -34.63,-246.99 66.25,-347.13 141.5,-140.65 290.38,-274.53 424.89,-421.53 243.71,-266.3 209.97,-457.94 -102.84,-643.1 -505.78,-299.67 -708.69,-700.64 -603.83,-1193.99 84.59,-398.17 502.39,-758.61 869.92,-750.44 405.69,9.13 779.33,329.94 863.79,749.43 60.62,301.25 13.04,585.81 -169.73,837.46 -96.47,132.72 -213.17,250.67 -309.25,383.57 -187.33,259.53 -147.56,440.64 121.44,605.45 140.07,85.8 288.05,161.66 416.82,261.96 198.68,154.89 206.27,232.09 132.16,486.41 -24.5,84.27 -39.5,186.8 -14.84,267.41 185.74,606.8 383.67,1211.98 716.49,1756.15 105.6,172.69 266.51,333.14 438.89,439.47 804.7,495.49 1001.79,1398.67 462.76,2178.55 -336.36,486.89 -801.18,780.28 -1359.4,943.82 -73.45,21.54 -144.65,50.03 -243.81,84.59 289.43,281.89 553.3,538.98 832.86,811.21 -311.12,318.74 -711.09,477.18 -937.23,834.13 360.34,238.89 693.95,453.52 1020.63,678.31 362.61,249.29 662.44,562.32 885.03,943.03 379.86,649.55 314.83,1277.54 -254.32,1938.71 -163.99,190.55 -348.56,236.22 -597.11,141.39 -215.66,-82.1 -453.58,-131.58 -684.34,-143.03 -527.13,-25.96 -1056.14,-30.35 -1584.25,-24.24 -733.85,8.39 -1300,463.55 -1488.36,1212.82 77.66,-57.55 135.94,-84.01 170.31,-128.67 349.89,-457.62 838.52,-663.65 1383.19,-762.58 692.89,-125.97 1384.14,-97.95 2055.28,111.13 634.6,197.46 1060.98,633.07 1262.14,1268.99 92.66,293.05 -41.46,553.24 -186.95,798.72 -59.45,100.12 -131.84,195.87 -213.15,278.98 -111.18,113.77 -152.74,239.9 -91.81,384.52 180.6,429.34 85.46,852.65 -11.99,1278.7 -102.05,446.22 -198.25,893.87 -293.56,1341.86 -11.46,53.9 -1.48,112.37 -1.48,173.28 1897.01,0 3778.28,0 5707.86,0 -73.71,-259.5 -133.06,-470.72 -193.65,-681.59 -187.96,-653.97 -411.69,-1299.98 -556.05,-1963.37 -219.79,-1010.13 -168.41,-2024.25 284.88,-2963.68 760.84,-1577.08 2084.18,-2291.19 3801.72,-2320.69 303.05,-5.29 607.56,49.79 910.62,84.85 59.03,6.93 113.93,49.69 232.3,104.27 -107.92,29.53 -147.29,48.31 -187.38,50.22 -1219.2,57.12 -2143.07,631.48 -2802.12,1635.76 -554.14,844.26 -848.12,1777.21 -823.04,2794.85 9.6,386.74 51.01,772.72 81.99,1158.56 4.82,60.99 32.12,120.17 68.84,250.51 108.35,-445.35 185.74,-818.96 291.33,-1184.41 142.98,-495.54 304.22,-985.97 464.5,-1476.38 98.56,-301.41 280.04,-492.84 627.99,-520.78 373.38,-30.11 743.53,-103.9 1114.16,-165.47 240.74,-40.06 479.74,-92.18 740.99,-143.3 11.46,49.16 28.52,122.13 47.15,202.49 35.8,-11.93 75.88,-13.68 98.77,-34.37 171.79,-155.76 210.71,-360.44 194.71,-578.8 -14.08,-190.55 -82.52,-242.97 -277.07,-222.7 -431.19,45.19 -863.36,85.01 -1292.97,142.24 -251.04,33.36 -498.03,96.49 -792.67,155.34 239,-554.51 506.41,-1045.37 1022.64,-1380.41 709.27,-460.27 1907.09,-162.82 2424.22,330.91 513.29,490.41 573.62,1079.45 458.68,1717.38 -56.28,312.02 -253.58,547.71 -516.97,728.42 -406.43,278.55 -817.38,551.5 -1209.38,849.21 -1665.02,1264.6 -2418.53,2973.07 -2426.92,5037.85 -0.69,211.35 3.28,422.72 8.07,634.02 0.74,33.15 18.04,65.96 43.02,151.95 44.03,-108.93 82.95,-172.8 95.73,-241.64 149.78,-811.11 385.31,-1596.28 709.48,-2354.08 410.05,-958.45 945.14,-1840.28 1689.1,-2576.94 707.73,-700.64 1531.96,-1173.72 2569.55,-1108.66 933.11,58.55 1690.42,480.85 2224.41,1242.17 211.03,300.62 361.98,662.44 462.28,1018.33 285.83,1013.99 -50.69,1850.6 -836.32,2513.25 -407.01,343.27 -867.91,620.92 -1400.31,708.26 -1690.66,277.65 -2754.87,1362.87 -3604.26,2740.53 -767.61,1245.08 -1272.86,2587.52 -1484,4034.9 -173.96,1191.97 -73.69,2347.89 556.79,3406.96 366.61,615.92 812.99,1156.55 1548.71,1357.87 1217.9,332.82 2473.59,-46.88 3041.68,-1300.72 203.15,-448.71 226.48,-909.77 -73.03,-1341.54 -26.56,-38.23 -58.13,-73.71 -91.6,-106.18 -15.69,-15.32 -41.43,-20.29 -88.42,-41.43 -73.34,45.83 -158.64,102.05 -246.78,153.75 -672.2,394.97 -1520.83,230.82 -1914.15,-369.25 -373.27,-569.25 -227.94,-1375.17 341.07,-1749.61 700.8,-461.33 1462.64,-529.43 2211.49,-163.25 1181.79,578.22 1799.64,1567.76 1938.39,2866.76 227.12,2128.1 -1195.6,3944.46 -2854.46,4780.07 -79.98,40.19 -159.6,81.47 -242.7,124.06 25.88,33.73 37.6,64.16 51.28,65.03 1170.44,79.98 2341.38,151.69 3511.44,237.83 678.47,50.06 1354.96,129.67 2033.27,183.83 620.13,49.61 1241.82,77.81 1862.16,126.71 155.92,12.3 239.63,-50.06 307.5,-174.7 106.42,-195.87 216.09,-390.15 329.75,-581.92 711.23,-1202.16 1660.76,-2157.92 2942.54,-2738.57 989.17,-448.12 2043.51,-620.92 3125.44,-546.63 654.58,44.93 1306.33,142.72 1956.04,239.47 244.03,36.27 418.62,-8.33 594.94,-188.97 904.72,-925.57 1948.68,-1655.21 3148.36,-2149.26 1541.54,-634.87 3140.87,-830.9 4797.4,-641.01 1535.03,176.34 2960.16,717.81 4383.14,1268.68 1797.76,695.96 3645.69,969.49 5563.98,718.13 183.2,-24.08 369.36,-25.72 547.24,-37.17 100.09,371.95 93.82,386.45 -252.41,551.18 61.09,97.34 114.25,194.97 179.86,283.08 69.85,93.72 155.92,175.34 227.28,267.94 222.01,288.85 218.89,318.77 -14.1,591.74 -45.4,53.02 -87.68,111.89 -117.21,174.44 -95.25,201.74 -34.79,342.11 179.73,407.27 76.97,23.34 161.66,23.34 243.18,28.52 68.26,4.39 136.95,1.01 230.82,1.01 -74.51,244.66 -143.3,455.14 -375.92,576.16 -101.31,52.52 -212.62,130.2 -264.13,225.95 -155.47,289.22 -417.96,429.18 -690.51,570.57 -233.89,121.44 -431.09,284.98 -505.51,557.05 -103.21,377.32 -4.39,680.27 297.18,901.65 350.2,257.02 693.16,300.14 1007.8,57.28 217.41,-167.93 424.31,-383.51 554.99,-622.09 159.76,-291.91 -33.52,-564.54 -199.26,-808.41 -50.19,-73.87 -141.79,-119.7 -198.01,-164.89 101.41,-277.81 187.77,-514.06 289.37,-791.71 50.38,70.91 109.41,116.58 113.19,166.37 13.36,175.02 10.87,351.68 8.65,527.69 -6.77,524.06 178.06,935.43 668.34,1180.04 191.03,95.3 376.34,206.75 329.51,501.73 -105.28,31.56 -213.84,84.16 -325.97,93.24 -232.15,18.79 -341.97,150.94 -350.89,361.92 -11.77,280.41 -159.07,405.26 -416.72,480.11 -326.87,94.67 -577.48,314.93 -750.76,606.98 -200.85,338.38 -220.48,693.84 -8.65,1034.2 196.93,315.94 599.81,464.56 990.81,378.38 443.65,-97.92 749.96,-366.02 929.24,-782.43 30.24,-70.64 67.26,-138.48 136.26,-279.29 109.33,489.85 427.54,694.32 793.14,848.49 163.25,68.9 230.08,197.09 212.28,365.92 -18.39,174.44 -35.53,351.21 -79.88,520.04 -51.7,197.04 -137,222.01 -428.6,150.52 230.24,-248.31 449.87,-498.92 261.51,-874.24 -278.98,5 -432.09,199.55 -531.5,398.91 -129.51,259.74 -315.57,416.88 -572.19,532.13 -318.48,143.03 -510.65,408.91 -598.12,743.37 -100.17,382.19 19.47,750.01 295.06,949.54 290.01,209.97 744.86,208.92 1060.08,-21.17 446.8,-326.39 710.94,-743.48 606.24,-1326.54 -9.97,-55.91 -1.48,-115.41 -1.48,-175.29 318.48,125.49 424.79,403.89 252.68,650.13 -117.58,168.41 -95.73,306.1 80.94,407.17 76.2,43.76 170.74,55.32 271.01,85.91 78.71,-162.72 147.29,-305.14 230.35,-477.07 185.95,171.9 145.86,350.78 58.34,492.15 -127.71,207.17 -87.55,360.34 48.31,540.73 198.94,264.03 200.42,559.59 83.85,868.65 -180.21,-11.19 -209.13,-103.06 -174.6,-239.63 54.05,-212.78 35.27,-415.77 -79.56,-621.93 -263.1,-1.32 -429.6,163.72 -585.97,331.97 -33.36,35.69 -26.3,137.27 -1.32,191.9 32.25,70.27 101.15,123.75 150.36,179.97 -177.51,187.64 -373.27,353.32 -516.86,555.89 -233.57,329.75 -224.63,709.45 -20.4,987.27 252.2,343.11 797.85,379.54 1070.66,52.57 139.07,-166.34 233.87,-369.46 361.82,-577.37 185.42,203.04 391.27,401.98 700.78,446.22 62.97,8.92 139.49,124.8 157.27,203.2 26.56,117.74 6.91,245.93 6.91,430.45 -235.93,-104.38 -408.2,-180.55 -608.46,-269.11 -89.14,353.4 262.07,383.78 362.35,625.48 -68.26,75.01 -138.75,179.71 -234,252.36 -386.05,294.43 -450.66,697.76 -390.74,1137.47 48.76,356.47 376.58,641.88 662.62,601.56 392.17,-55.38 640.29,-409.52 590.68,-817.38 -40.96,-336.21 -64.45,-674.79 -87.79,-1012.77 -4.29,-60.67 30.35,-123.75 47.1,-185.74 24.84,0 49.77,0 74.74,0 18.52,154.01 44.64,307.42 53.18,461.91 7.17,128.46 -14.53,258.39 -8.97,387.03 7.36,177.61 58.45,305.54 280.93,329.75 242.38,26.41 256.8,71.65 297.44,401.82 -111.44,11.3 -222.46,22.65 -375.73,38.23 50.96,88.21 76.68,162.51 126.71,212.14 74.43,73.4 158.04,147.4 251.94,189.55 448.55,201.48 536.02,600.97 609.04,1028.83 303.05,1778.32 -27.17,3452.15 -783.33,5067.54 -419.18,895.46 -863.63,1772.79 -1477.38,2554.31 -487.57,620.5 -1066.93,1145.41 -1700.64,1628.17 721.49,-815.37 1077.86,-1798.48 1314.98,-2826.73 237.28,-1029.52 229.79,-2063.72 -70.49,-3146.98 -324.91,425.16 -605.21,828.04 -1045,1087.33 95.73,-167.38 221.01,-325.07 281.78,-504.32 150.36,-442.86 310.96,-888.18 395.87,-1345.8 189.12,-1019.39 194.23,-2055.71 200.85,-3089.65 0.58,-91.02 -19.37,-182.35 -33.63,-309.32 -1591.26,-109.38 -3156.14,-320.52 -4687.25,-756.34 -1529.42,-435.37 -2977.99,-1074.71 -4454.21,-1698.76 -23.97,56.38 -57.6,105.17 -64.88,157.53 -346.23,2435.83 -1684.97,4203.17 -3702.24,5519.16 -481.44,314.09 -960.52,634.31 -1420.52,978.61 -327.4,245.19 -640.42,516.39 -925.88,809.31 -770.81,791.4 -948.32,1726.78 -599.76,2764.71 298.77,889.19 782.88,1682.33 1340.22,2426.02 800.34,1067.99 1732.81,2009.88 2844.85,2758.68 330.41,222.49 680.01,418.78 1031.95,606.24 1139.08,606.4 2149.69,1382.08 3066.6,2285.79 217.3,214.05 455.88,406.53 669.66,623.73 128.51,130.47 269.58,163.67 442.97,163.51 3582.25,-7.06 7164.63,-10.56 10747.19,-15.58 112.02,-0.05 224.37,-10.24 409.07,-19.16 -99.67,-94.03 -139.04,-143.91 -189.55,-176.87 -630.4,-409.18 -1068.31,-1275.53 -760.15,-2119.95 208.81,-572.16 372.22,-1161.26 547.08,-1745.17 366.53,-1225.71 512.45,-2483.09 487.79,-3757.82 -9.29,-479.56 -58.29,-963.64 -145.81,-1435.26 -112.47,-606.03 -69.9,-1192.74 100.14,-1774.35 266.2,-909.88 371.48,-1839.15 362.37,-2783.39 -4.26,-444.13 -18.36,-887.81 -28.79,-1374.54 75.88,49.74 149.73,87.89 211.4,140.39 416.98,354.44 873.47,630.87 1413.19,758.75 733.43,173.86 1443.62,105.6 2135.9,-183.83 51.09,-21.43 100.99,-45.03 219.05,-97.92 -87.68,262.55 -152.27,467.81 -224.79,670.14 -384.1,1069.31 -627.7,2166.75 -610.95,3307.13 9.97,678.79 -174.86,1294.71 -480.14,1889.92 -353.35,688.76 -723.66,1371.2 -935.86,2122.81 -247.65,878.89 -338.69,1776.47 -274.37,2684.22 39.63,560.73 130.76,1117.79 199.18,1676.48 12.99,104.96 51.91,213.17 37.02,313.61 -55.91,378.22 161.55,565.86 445.06,751.76 470.51,308.16 928.21,638.36 1372.53,983.75 244.45,189.94 489.06,280.06 802.98,276.12 2245.23,-29.45 4483.05,127.03 6719.31,304.32 187.19,14.63 375.58,17.86 562.48,34.32 73.71,6.43 145.18,34.95 217.73,53.45 -2.2,26.14 -4.42,52.36 -6.61,78.66 -3121.05,179.71 -6241.97,359.6 -9363.05,539.46 -0.74,17.17 -1.59,34.37 -2.38,51.51 3495.52,213.04 6991.11,426.11 10569.13,644.34 -232.73,130.2 -419.47,128.3 -594.62,143.99 -1379.88,124.06 -2759.58,254 -4140.94,358.17 -4101.44,308.9 -8209.65,410.74 -12321.73,405.79 -5250.23,-6.3 -10500.39,-0.58 -15750.54,0.42 -6530.55,1.16 -13061.02,1.48 -19591.36,4.71 -3429.56,1.64 -6859.11,12.99 -10288.67,12.46 -6835.88,-0.53 -13671.76,-4.5 -20507.64,-11.09 -3288.8,-3.28 -6577.81,9.82 -9866.15,-32.81 -2277.67,-29.5 -4556.05,-106.02 -6830.67,-226.96 -1804.67,-96.04 -3604.1,-290.43 -5405.7,-443.02 -362.56,-30.8 -724.56,-68.84 -1086.49,-106.18 -114.19,-11.72 -227.49,-31.56 -340.23,-109.93 3961.9,-213.25 7923.69,-426.38 11885.48,-639.58 0.26,-25.98 0.58,-51.86 0.85,-77.55 -1794.06,-89.69 -3588.52,-167.03 -5384.32,-231.83 -1788.66,-64.64 -3575.84,-170.89 -5372.97,-317.74 199.36,-34.79 397.51,-83.93 598.38,-102.05 2797.33,-251.2 5601.2,-340.47 8408.99,-353.4 1244.55,-5.53 2488.91,-58.13 3733.3,-87.95 169.84,-4.07 339.83,-0.58 516.33,-65.78 -358.06,-151.47 -717.81,-299.77 -1074.02,-455.43 -2112.14,-922.97 -4051.01,-2121.32 -5805.78,-3620.14 -1455,-1242.85 -2726.85,-2653.56 -3842.62,-4200.63 -1507.54,-2090.23 -2702.03,-4348.43 -3424.18,-6831.99 -828.99,-2850.75 -1097.99,-5755.83 -771.13,-8714.4 167.22,-1513.55 506.99,-2987.54 993.83,-4423.97 601.82,-1775.25 1461.19,-3427.07 2483.41,-4999.8 1002.9,-1542.86 2164.45,-2954.6 3443.08,-4269.71 1132.68,-1164.78 2388.53,-2186.52 3755.05,-3070.6 1076.03,-696.12 2178.66,-1339.22 3359.97,-1845.34 1407.05,-602.67 2854.03,-1079.13 4345.62,-1416.08 2018.96,-456.22 4069.98,-556.05 6127.06,-435.69 1407.42,82.42 2788.76,360.92 4150.17,742.95 2581.01,724.4 4969.25,1861.05 7160.95,3390.05 1895.92,1322.76 3561.66,2904.36 5027.32,4699.87 1451.93,1778.64 2618.93,3723.22 3505.41,5836.36 481.65,1148 882.76,2325.4 1138.21,3547.72 148.3,709.8 296.15,1419.78 449.71,2156.3 197.93,-45.19 418.47,-95.57 660.59,-150.79 0,-153.33 20.96,-304.93 -3.39,-448.87 -164.89,-971.5 -300.88,-1950.11 -518.45,-2909.89 -511.12,-2253.38 -1438.72,-4339.48 -2645.33,-6304.44 -1231.71,-2005.75 -2754.44,-3768.54 -4480.88,-5361.94 -1622.43,-1497.44 -3404.95,-2769.24 -5357.5,-3798.65 -1479.71,-780.2 -3031.65,-1391.6 -4646.14,-1821.18 -2319.42,-617.14 -4685.08,-842.46 -7084.93,-738.66 -1744.16,75.46 -3455.8,337.21 -5138.29,799.12 -1671.29,458.84 -3269.69,1100.22 -4791.79,1928.73 -2267,1233.73 -4285.27,2784.4 -6037.13,4687.41 -1211.61,1315.98 -2342.91,2691.58 -3340.39,4176.71 -25.45,37.84 -59.03,70.33 -105.07,124.49 -418.36,-117.58 -804.02,-309.06 -1169.01,-538.98 -1108.82,-698.02 -1845.84,-1683.65 -2233.43,-2932.64 -27.31,-88.13 -23.28,-194.6 -153.54,-202.19 0.09,-610.52 0.09,-1221.37 0.09,-1832.26l0 0z"/>
   <path class="fil0" d="M103203.22 62247.99c12.51,-211.14 -216.67,-517.23 -386.72,-516.92 -142.88,0.16 -413.28,297.44 -426.38,468.34 -15.72,205.26 204.97,452.68 405.53,454.9 196.59,2.2 395.11,-195.79 407.57,-406.32l0 0zm-2495.6 -438.12c1.16,-215.82 -193.33,-508.9 -340.89,-513.42 -214.52,-6.46 -519.96,309.32 -514.24,531.81 5.74,217.88 214.71,397.62 454.9,390.53 208.64,-6.17 398.91,-200.56 400.23,-408.92l0 0zm12660.21 -5330.93c300.25,3.28 575.26,-244.77 593.14,-535.2 13.78,-220.85 -282.02,-524.4 -520.04,-533.98 -252.99,-10.45 -553.98,298.03 -563.48,577 -8.44,254.45 225.5,489.11 490.38,492.18l0 0zm-5335.09 -6281.32c-1.3,330.94 275.35,646.17 569.83,649.08 316.12,3.28 648.23,-317.55 648.23,-625.58 0,-297.92 -307.58,-591.32 -627.35,-598.49 -304.11,-7.04 -589.2,270.62 -590.71,574.99l0 0zm-13703.54 7298.11c-220.05,-186.16 -404.79,-367.82 -614.71,-512.34 -179.86,-123.43 -379.28,-236.78 -586.74,-297.71 -516.81,-151.58 -1043.07,-271.62 -1565.59,-402.78 -681.86,-171.16 -1364.77,-337.98 -2045.89,-511.94 -794.46,-202.91 -1587.76,-410.95 -2381.25,-618.25 -197.46,-51.75 -393.44,-109.56 -590.21,-164.52 55.38,104.72 132.29,149.2 212.7,186.64 1030.31,480.62 2054.44,974.78 3093.35,1435.52 974.59,432.41 1965.27,828.09 2947.64,1243.01 183.09,77.39 358.85,84.59 545.23,11.46 314.25,-123.32 632.28,-237.41 985.47,-369.09l0 0zm-35952.8 -16285.31c-14,22.17 -27.94,44.19 -41.88,66.38 98.5,92.23 191.64,190.84 296.28,275.11 411.27,331.71 820.45,666.27 1241.13,986.13 1638.46,1245.98 3396.4,2312.17 5157.31,3369.47 1801.81,1082.25 3668.08,2049.12 5560.27,2967.06 1722.83,835.87 3475.01,1604.2 5277.46,2246.15 1181.79,420.93 2394.45,754.99 3594.02,1126.04 49.32,15.24 105.12,9.39 158.06,13.36 -150.47,-146.66 -324.27,-232.89 -494.16,-326.39 -853.49,-469.29 -1697.59,-956.44 -2560.21,-1408.22 -2526.4,-1323.53 -5059.15,-2635.09 -7591.45,-3947.53 -1562.81,-809.89 -3132.38,-1606.89 -4692.86,-2421.04 -1352.36,-705.78 -2689.09,-1441.85 -4047.36,-2135.85 -600.23,-306.8 -1236.69,-542.73 -1856.61,-810.67l0 0zm-1714.18 452.78c-23.65,388.04 -37.84,700.54 -63.45,1012.08 -14.66,180.71 48,303.45 191.35,420.66 1608.72,1315.09 3208.13,2641.63 4818.83,3954.44 673.21,548.56 1350.94,1094.29 2055.39,1601.39 1867.91,1345.25 3782.09,2620.67 5785.04,3760.81 1676.21,954.22 3400.53,1807.55 5192.18,2518.2 1068.02,423.62 2151.33,812.54 3241.49,1175.17 1057.14,351.63 2124.71,677.89 3201.38,963.8 1133.69,300.99 2279.46,559.51 3427.23,802.56 1147.42,242.97 2302.96,448.07 3456.28,661.88 646.17,119.8 1293.92,232.99 1943.36,332.13 730.91,111.39 1463.97,208.44 2197.36,301.1 177.14,22.49 359.44,3.36 622.72,3.36 -103.64,-150.79 -147.56,-260.01 -228.02,-321.36 -119.62,-91.23 -261.36,-156.98 -400.1,-219.26 -1166.68,-523.16 -2339.98,-1032.01 -3501.36,-1566.62 -1696.27,-780.68 -3359.65,-1626.53 -4971.36,-2572.25 -352.82,-207.12 -721.68,-374.52 -1129.4,-475.69 -1491.91,-370.73 -2986.85,-736.28 -4460.88,-1170.97 -1451.35,-427.86 -2863.96,-977.4 -4266.01,-1549.29 -2251.84,-918.47 -4449.84,-1950.11 -6591.27,-3104.33 -1457.7,-785.81 -2897.58,-1600.23 -4286.01,-2503.36 -678.58,-441.48 -1353.5,-888.55 -2031.89,-1330.56 -678.47,-441.91 -1357.68,-883.13 -2039.38,-1320.27 -690.39,-442.32 -1384.15,-879.09 -2163.48,-1373.62l0 0zm-9244.3 4571.26c41.01,-592.27 -8.92,-1186.89 105.44,-1777.74 198.94,-1027.93 645.9,-1930.32 1332.47,-2717.61 719.3,-824.89 1638.09,-1152.68 2710.1,-1060.03 1053.02,91.18 2042.35,417.67 2982.91,890.61 344.43,173.12 673.21,377.4 1050.37,590.68 138.06,-309.32 139.65,-630.34 106.6,-948.8 -6.03,-58.13 -129.35,-117.9 -209.07,-152.27 -366.02,-157.4 -743.08,-290.7 -1101.78,-462.6 -275.27,-132.05 -524.91,-312.34 -679.48,-593.65 -171.48,-312.34 -122.9,-585.07 186.58,-749.27 201.06,-106.6 436.25,-191.58 660.16,-202.3 404.94,-19.63 812.96,23.6 1268.25,42.7 8.97,-94.67 26.72,-228.71 33.36,-363.41 87.05,-1782.89 170.31,-3565.92 258.79,-5348.66 99.56,-2005.36 205.26,-4010.37 304.38,-6015.75 24.95,-504.03 55.96,-1009.15 44.5,-1512.86 -8.1,-361.39 -81.62,-721.17 -127.13,-1081.56 -20.43,-162.93 -59.61,-325.01 -62.65,-488.21 -9.87,-522.95 414.76,-883.39 908.08,-718.4 497.44,166.34 983.32,384.15 1447.24,629.89 1261.82,668.66 2158.34,1716.06 2907.03,2903.19 326.65,517.71 665.4,1021.19 1123.5,1437.53 698.92,635.5 1498.6,781.1 2390.33,530.49 518.87,-145.76 1031.32,-324.33 1558.69,-428.44 747.47,-147.51 1456.95,-32.09 2029.09,523.58 505.51,491.15 632.86,1112.39 590.74,1823.19 -67.26,-37.02 -103.37,-45.56 -120.99,-68.32 -282.02,-363.51 -666.59,-453.36 -1099.42,-416.35 -473.1,40.48 -874.66,257.39 -1253.17,522.21 -278.71,195.02 -543,410.95 -822.67,604.92 -230.98,160.07 -464.98,321.52 -715.49,446.64 -498.48,249.05 -1026.19,325.07 -1575.14,186.48 -102.05,-25.88 -205.53,-45.67 -308.74,-66.52 -8.81,-1.75 -20.27,9.82 -83.85,43.6 144.62,73.13 255.64,146.42 377.48,187.8 615.92,209.07 1223.59,150.2 1828.59,-62.39 524.75,-184.57 1066.22,-303.05 1624.46,-245.03 287.89,30.08 585.34,85.43 850.21,196.56 759.86,318.61 1200.04,1067.99 1145.57,1890.55 -12.2,185 -46.14,368.62 -75.19,591.69 -60.35,-47.73 -106.28,-66.09 -121.73,-98.77 -224.34,-480.11 -635.29,-635.5 -1123.18,-623.62 -434.05,10.45 -823.15,179.12 -1180.2,419.07 -263.08,176.77 -520.2,362.51 -782.74,540.33 -1376.49,932.47 -3002.54,796.79 -4182.16,-372.22 -340.15,-337.13 -648.07,-712.42 -934.96,-1096.94 -856.3,-1148.05 -2037.72,-1693.52 -3414.55,-1893.62 -31.62,-4.55 -66.52,13.81 -97.1,20.85 -96.28,328 -399.02,7442.86 -326.81,7735.2 213.78,72.55 434.31,148.4 655.56,222.28 1222.16,408.17 2325.13,1066.59 3449.77,1672.62 3379.66,1821.71 6789.53,3583.62 10213.08,5321.17 2637.26,1338.29 5235.79,2754.15 7835.37,4165.41 1227.03,666.12 2418.93,1397.34 3620.24,2110.32 397.62,235.98 805.34,403.04 1265.05,498.18 998.83,206.98 1986.7,469.24 2977.14,715.96 1468.46,365.87 2934.23,741.57 4403.17,1105.14 512.42,126.71 1030.47,230.08 1546.07,342.95 114.41,24.98 230.56,61.7 310.01,-77.95 16.43,-29.08 88.82,-56.54 117.58,-44.08 262.26,115.09 490.86,-12.62 705.04,-117.26 343.11,-168.01 667.76,-374.02 1036.74,-584.73 -89.3,-71.6 -127.61,-113.19 -174.76,-138.27 -287.89,-153.75 -503.87,-380.29 -673.47,-654.87 -49.32,-79.98 -96.71,-161.08 -145.34,-241.49 -237.09,-392.8 -473.1,-786.55 -929.43,-999.23 446.41,4.18 878.47,44.4 1303.63,-92.76 417.2,-134.3 845.03,-235.37 1267.41,-350.92 -6.3,-25.08 -5.29,-42.28 -12.46,-46.94 -516.65,-339.2 -641.61,-832.38 -560.41,-1409.7 13.1,-92.5 3.7,-187.91 11.56,-281.46 20.19,-239.05 -53.26,-436.35 -237.09,-596.37 -92.08,-80.04 -169.6,-176.93 -220.37,-294.3 241.22,100.07 474.95,233.15 726.02,290.91 271.33,62.36 558.8,69.85 839.52,72.2 264.93,2.33 530.38,-32.89 786.26,-50.93 7.94,-45.51 16.01,-61.99 11.01,-68 -353.54,-436.93 -382.46,-935.43 -292.34,-1463.7 70.96,-414.76 -10.4,-794.15 -315.78,-1107.33 -46.83,-48.02 -76.23,-113.03 -84.16,-209.71 61.54,38.18 138.8,63.71 182.09,116.89 249,306.15 593.75,449.87 948.32,581.71 416.14,154.89 830.42,314.67 1246.4,470.03 16.32,6.11 41.7,-11.62 88.98,-26.62 -231.51,-509.88 -137.45,-1014.84 5.19,-1531.65 124.38,-451.17 227.28,-920.91 -105.28,-1362.39 157.96,33.23 217.88,144.04 284.51,239.77 167.27,239.95 393.07,392.17 659.87,505.83 407.46,173.38 806.24,366.77 1211.32,553.03 10.42,-9.82 42.73,-28.87 40.24,-39.74 -129.67,-554.09 4.55,-1064.47 226.99,-1571.04 86.78,-197.88 125.23,-424.02 145.34,-641.01 10.77,-115.83 -64.58,-239.79 -113.88,-402.03 68.53,25.98 123,29.02 137.11,54.58 163.57,294.27 444.42,449.45 722.52,598.65 424.21,227.57 782.9,514.77 1003.27,953.32 13.04,26.14 51.7,39.34 103.37,76.62 35.37,-187.33 85.28,-355.12 95.41,-525.17 19.37,-329.78 162.08,-612.43 326.13,-881.27 220.53,-361.32 366.77,-732.74 309.96,-1164.14 -4.42,-33.21 5.87,-68.74 12.28,-102.63 1.22,-6.16 16.91,-9.71 25.82,-14.42 10.61,3.07 28.84,4 30.45,9.55 138.43,476.59 474.64,797.69 853.92,1083.42 382.46,288.1 602.83,679.05 739.09,1128.66 34.21,112.87 92.39,218.41 165.95,388.2 66.94,-119.27 104.22,-164.47 119.3,-216.14 181.5,-620.34 542.42,-1138.79 913.74,-1655.63 362.51,-504.45 700.48,-1026.61 1051.11,-1539.4 23.2,-33.95 63.71,-55.85 152.74,-131.31 78.4,646.64 77.79,1236.85 39.9,1824.94 -38.02,592.85 -51.36,1191.5 -240.64,1773.18 269.9,-255.22 381.77,-598.81 537.85,-911.25 160.76,-321.95 278.82,-665.22 442.94,-1066.19 78.58,212.04 124.3,372.48 195.87,520.94 213.04,443.55 433.15,884.08 656.48,1322.49 149.3,292.92 305.99,581.82 464.08,869.92 348.01,634.6 254.61,1252.27 -103.82,1837.08 -120.78,196.77 -121.13,337.66 5.5,507.1 505.3,676.88 1008.83,1355.38 1514.61,2031.95 195.32,261.38 395.13,519.35 614.92,807.72 -620.02,694.9 -1227.03,1358.56 -1942.68,1914.92 -133.4,103.58 -276.28,48.74 -397.4,-22.65 -454.21,-267.78 -929.9,-509.48 -1347.21,-827.03 -770.49,-586.29 -1440.89,-1272.28 -1886.06,-2154.24 -516.73,-1023.54 -793.78,-2103.99 -817.14,-3249.11 -7.33,-361.32 -1.14,-722.97 -1.14,-1108.66 -117.63,6.69 -207.51,5.98 -295.57,17.67 -666.01,89.03 -1317.31,244.4 -1938.71,498.4 -2839.72,1160.36 -4746.86,3239.08 -5942.57,6027.74 -405.13,944.83 -676.28,1925.35 -908,2921.24 -23.92,102.79 -49.61,205.26 -79.14,306.57 -102.31,354.25 -112.45,372.06 229.18,548.53 363.46,187.64 739.14,358.54 1123.34,498.03 950.57,345.18 1943.42,531.5 2948.44,721.36 -35.69,-31.67 -66.36,-79.9 -107.76,-92.34 -684.66,-205.16 -1266.08,-608.44 -1870.71,-967 -403.73,-239.32 -803.28,-486.73 -1213.67,-714.32 -171.48,-94.99 -222.01,-196.56 -183.67,-394.23 258.71,-1338.74 734.59,-2591.75 1423.78,-3768.73 907.52,-1549.45 2102.96,-2821.38 3635.4,-3757.85 754.67,-461.17 1587.74,-745.57 2508.51,-922.18 7.22,145.79 13.49,273.69 18.94,386 -219.37,0 -406.88,-26.14 -582.85,7.22 -181.69,34.48 -207.51,144.7 -126.18,319.62 102.63,221.27 286.78,330.36 511.76,394.07 268.21,76.09 267.34,79.72 246.62,434.15 -280.46,0 -565.12,0 -902.71,0 148.62,462.65 459.16,647.65 834.02,728.69 189.97,41.14 288.21,134.36 341.07,302.63 5.74,18.47 -8.18,43.02 -15.66,77.07 -272.39,28.36 -585.47,-86.78 -834.28,204.79 178.22,370.63 498.18,528.58 878.73,594.36 271.62,46.99 272.79,40.24 431.64,317.74 -245.93,41.54 -519.72,-105.86 -740.73,126.13 10.87,169.73 102.37,308.48 249.71,383.94 217.62,111.63 451.19,191.48 677.62,285.46 134.04,55.8 267.49,112.77 393.91,208.02 -242.54,26.35 -491.36,-50.38 -694.16,157.27 -5.74,288.48 258.45,290.27 432.57,363.25 205.95,86.49 418.31,63.39 584.25,-159.12 118.9,92.18 214.18,166.03 380.07,294.51 -194.65,17.52 -304.61,16.88 -410.05,38.76 -211.46,43.92 -319.35,156.26 -291.76,284.29 39.48,182.03 240.53,335.2 421.43,293.18 146.82,-33.89 282.44,-113.77 427.36,-159.44 164.04,-51.51 324.22,-66.09 400,152.85 -208.23,61.99 -406.74,120.99 -673.63,200.42 167.61,184.1 290.54,335.36 430.45,468.34 124.22,118.22 263.82,64.06 388.67,-14.37 99.27,-61.94 189.39,-138.75 288.37,-201.48 103.8,-65.62 212.14,-101.41 324.33,18.63 -9.97,143.93 -119.22,185.47 -229.18,224.23 -110.15,38.81 -266.2,64.88 -241.38,206 16.17,92.66 138.75,169.99 221.22,246.25 31.46,28.76 83.9,34.9 124.22,50.38 175.34,-60.25 264.48,-343.85 543.61,-171.53 -64.19,135.41 -125.41,264.56 -192.8,407.17 194.07,130.52 342.29,47.89 496.12,-42.28 124.65,-72.97 227.04,-249.87 398.52,-157.37 182.03,98.35 64.64,271.22 58.55,414.66 -6.03,144.3 -3.23,294.38 153.19,361.87 161.34,69.8 263.37,-34.32 353.96,-152.21 42.73,-55.64 88.77,-109.96 140.55,-157.27 87.31,-80.04 178.22,-97.29 283.18,-17.17 118.03,90.12 245.67,167.93 403.04,273.95 46.86,-367.67 -292.66,-587.3 -250.93,-900.48 41.88,-11.72 65.78,-27.12 84.75,-22.6 452.52,109.54 472.63,84.59 390.42,-393.22 -19.82,-114.78 10.24,-238.15 20.53,-410.37 142.13,96.78 219.52,171.21 311.86,206.32 89.88,34.05 212.14,65.96 289.37,31.01 117.95,-53.47 68.58,-177.56 34.21,-280.78 -54.58,-165.15 -110.38,-332.98 2.91,-484.82 175.18,34.53 350.65,124.54 471.2,76.65 112.34,-44.66 165.21,-236.78 247.09,-362.19 11.14,-17.3 38.31,-24.13 75.64,-45.83 193.36,54.19 317.39,215.34 441.96,365.15 427.65,514.64 842.62,1039.87 1271.64,1553.24 202.8,242.76 424.89,468.97 640.64,700.38 120.04,128.61 248.71,249.45 367.29,379.23 206.75,225.69 327.03,485.46 296.92,800.39 -35.53,373.49 -59.32,748.48 -108.06,1120.27 -46.86,358.7 -119.22,713.95 -186.16,1103.84 -65.96,-38.81 -121.44,-55.64 -153.59,-92.82 -192.64,-222.33 -437.83,-347.82 -720.51,-409.55 -34.48,-7.43 -69.27,-12.89 -103.95,-18.63 -676.99,-109.56 -1117.79,-502.71 -1369.75,-1129.77 -50.35,-125.23 -125.54,-240.53 -221.11,-420.58 -198.97,217.78 -358.4,392.32 -487.42,533.59 323.61,485.27 628.57,926.47 914.66,1379.46 118.08,186.9 198.65,397.7 291.02,600.08 139.81,306.1 63.45,513.69 -219.05,777.58 -53.87,50.35 -148.56,87.47 -221.22,82.47 -350.33,-24.02 -705.64,-35.64 -1048.09,-106.6 -446.19,-92.18 -752.29,-343.85 -821.77,-841.72 -46.51,-334.78 -142.45,-665.37 -244.45,-989.17 -143.46,-454.26 -446.41,-713.53 -943.19,-766.71 -816.37,-87.23 -1639.31,-158.86 -2423.8,-426.69 -465.14,-158.86 -922.26,-341.97 -1382.84,-514.01 -51.38,-19.29 -102.47,-38.92 -189.55,-71.97 80.33,789.04 157.24,1543.61 237.46,2330.16 1320.51,133.14 2612.84,74.27 3905.83,-2.38 13.78,26.93 27.6,54.08 41.22,81.04 -32.68,11.62 -64.98,25.14 -98.48,34.53 -744.25,212.2 -1482.8,448.55 -2234.41,630.58 -1532.23,370.89 -3086.13,457.94 -4652.3,263.13 -1133.95,-141.08 -2235.57,-416.72 -3308.69,-811.21 -262.65,-96.47 -535.01,-173.12 -808.38,-233.31 -693.23,-152.37 -1324.72,-469.13 -1981.28,-719.43 -237.12,-90.3 -477.73,-172.22 -757.53,-272.39 -89.64,586.13 -172.32,1127.18 -255.01,1668.41 31.75,9.23 63.47,18.2 95.14,27.46 133.46,-335.2 267.1,-670.24 417.41,-1047.62 141.02,217.78 255.8,389.41 364.54,564.7 259.16,416.98 670.45,487.31 1075.08,335.52 195.71,-73.42 376.16,-188.52 561,-289.43 133.06,-72.65 244.18,-101.26 289.82,112.34 -196.11,151.69 -444.69,292.18 -302.87,613.75 71.38,162.19 263.66,273.1 427.12,250.72 202.04,-27.38 272.2,-131.07 356.05,-536.18 245.35,-10.56 482.76,2.33 682.28,204.68 -84.43,185 -364.57,267.36 -268.26,532.39 87.71,240.9 289.3,353.25 504.85,487.76 172.32,-230.08 443.52,-385.47 319.78,-741.02 254.85,-45.56 461.27,37.39 648.23,145.02 -50.96,168.14 -138.8,318.61 -125.78,460.16 9.23,102.47 137.77,212.43 237.94,284.72 233.15,168.54 462.65,98.32 684.08,-196.77 -95.73,-85.01 -192.51,-170.74 -328.14,-290.7 118.24,-39.66 181.13,-81.78 240.06,-76.52 174.12,15.21 349.46,38.02 519.46,78.34 287.63,68.32 298.77,117.63 90.91,375.02 120.49,212.3 245.77,432.88 383.78,675.88 247.41,-139.07 339.75,-385.89 525.62,-578.96 -100.89,-71.07 -180.92,-127.45 -263.71,-185.58 81.52,-190.45 248.15,-155.36 393.96,-168.41 199.05,-17.65 233.15,125.81 306.1,269.98 86.17,170.34 221.59,325.81 365.79,453.52 118.16,104.7 279.96,66.68 381.4,-50.06 135.1,-155.47 246.22,-331.81 391.45,-532.39 69.27,28.95 164.73,61.67 254,106.65 308.66,154.41 597.3,172.91 883.87,-64.77 183.73,-152.59 284.24,-120.23 358.85,114.51 124.38,391.48 227.89,789.46 334.78,1186.21 247.89,917.36 484.4,1837.93 744.75,2751.83 54.11,190.53 15.37,310.81 -113.43,435.87 -504.61,489.69 -1109.11,789.04 -1795.78,908.13 -1216,211.14 -2385.77,40.64 -3502.77,-481.12 -1472.27,-687.6 -2773.89,-1623.88 -3930.12,-2758.25 -770.57,-756.02 -1517.46,-1536.73 -2258.01,-2322.22 -262.23,-278.39 -474.11,-604.2 -737.08,-944.67 -113.93,103.95 -232.41,210.13 -348.69,318.77 -197.06,184.26 -385.1,378.75 -590.68,552.93 -313.03,265.46 -673.21,355.89 -1084.58,282.5 -635.19,-113.24 -1274.18,-205.42 -1911.27,-308.37 -1888.86,-304.96 -3780.02,-596.4 -5664.91,-922.92 -831.96,-144.17 -1656.21,-342.24 -2475.81,-548.22 -1479.13,-371.63 -2965.11,-724.46 -4424.12,-1165.67 -1357.84,-410.63 -2694.12,-899.58 -4021.56,-1402.32 -1515.82,-574.09 -2984.37,-1260.24 -4415.21,-2023.53 -1616.97,-862.73 -3188.49,-1802.18 -4713.98,-2818.77 -2054.38,-1369.01 -4018.17,-2856.36 -5894.33,-4461.3 -963.16,-823.81 -1945.83,-1625.04 -2920.02,-2435.99 -34.69,-28.95 -74.27,-52.02 -160.39,-111.55 -127.13,734.96 -41.65,1446.82 -112.13,2150.96 -228.04,114.41 -465.56,80.94 -695.54,90.06 -153.86,5.95 -191.61,-103.11 -190.61,-235.56 1.96,-281.73 -5.29,-563.91 4.74,-845.53 19.05,-539.62 30.08,-1080.66 78.98,-1618.03 25.24,-276.44 -78.4,-434.45 -294.08,-576.74 -830.05,-547.34 -1741.99,-823.25 -2731.11,-777.58 -1195.2,55.22 -2312.51,352.11 -3266.57,1136.12 -636.51,523 -1036.58,1203.77 -1400.73,1917.38 -153.43,300.73 -297.29,606.43 -445.51,909.88 -30.06,-10.02 -59.99,-20.16 -89.96,-30.18l0 0z"/>
   <path class="fil0" d="M41655.77 27785.43c-376.32,-985.18 -1064.37,-1675.26 -1739.29,-2376.06 -175.76,-182.51 -336.1,-379.81 -553.83,-627.96 -118.8,610.31 -224.82,1155.49 -335.09,1721.78 -43.44,-26.56 -104.38,-51.06 -148.56,-93.24 -322.42,-307.26 -536.18,-679.9 -653.07,-1108.92 -67.84,-249.18 -145.36,-496.28 -200.16,-748.37 -171.16,-788.91 -635.13,-1378.21 -1264.47,-1847.22 -284.67,-212.17 -597.54,-386.16 -934.69,-551.18 1393.43,1741.06 1428.22,3654.32 815.53,5711.24 -61.57,-72.95 -108.82,-107.18 -126.44,-152.82 -171.48,-446.64 -498.03,-758.03 -874.34,-1031.95 -502.73,-365.87 -1009.15,-727.9 -1495.03,-1115.27 -225.05,-179.26 -405.79,-414.44 -608.99,-626.96 -194.55,353.75 -226.38,1088.6 -75.19,1756.04 -276.75,-96.2 -458.36,-301.1 -623.99,-497.71 -382.61,-454.58 -630.93,-965.68 -476.59,-1587.76 134.36,-541.79 36.54,-1042.04 -233.05,-1526.28 -142.13,-255.16 -239.47,-535.28 -360.44,-802.69 -46.83,-103.64 -103.06,-203.07 -154.91,-304.38 -21.85,7.06 -43.76,14 -65.51,20.85 71.81,380.44 162.4,758.67 209.71,1142.13 39.95,323.8 87.79,664.45 29.66,978.61 -133.64,723.87 -73.13,1431.98 98.8,2129.08 381.93,1548.92 803.86,3087.66 1185.94,4636.37 117.26,475.43 201,967.53 223.02,1455.47 25.56,562.8 -226.11,1046.08 -622.67,1446.4 -154.17,155.5 -315.41,303.9 -501.31,482.6 112.77,66.2 178.57,105.7 245.35,143.88 345.49,197.62 721.36,356.47 1031.21,599.6 1031.58,809.2 950.62,2296.4 -204.13,2900.12 -287.21,150.2 -603.44,287.95 -920.12,330.52 -1015.52,136.58 -2036.55,171.53 -3046.68,-66.2 -901.65,-212.2 -1457.11,-927.63 -1399.09,-1850.28 39.24,-622.83 354.57,-1117.2 877.89,-1451.24 294.08,-187.91 625.48,-317.58 939.93,-473.52 68.32,-33.73 136.15,-68.1 226.43,-113.51 -185.9,-173.22 -347.72,-323.11 -508.48,-474.21 -515.81,-485.4 -728.79,-1094.71 -655.72,-1784.24 55.54,-523.11 150.68,-1046.56 280.3,-1556.46 309.22,-1216.47 659.1,-2422.47 973.59,-3637.62 185.63,-716.97 321.52,-1444.86 269,-2193.4 -9.08,-128.77 -6.19,-260.51 -33.63,-385.42 -115.99,-524.91 -98.5,-1049.05 -14.1,-1575.01 9.23,-57.6 11.46,-116.73 10.77,-175.02 -0.21,-18.36 -20.48,-36.54 -49.11,-83.74 -46.83,56.54 -93.08,100.65 -125.23,153.48 -91.33,150.31 -168.35,309.91 -266.2,455.59 -320.62,477.2 -407.11,992.72 -265.72,1546.65 148.25,581.58 -57.6,1067.59 -427.01,1492.33 -204.21,234.95 -455.16,429.39 -739.51,601.03 39.61,-186.37 98.05,-371.05 113.61,-559.44 15.43,-185.47 -7.91,-374.89 -22.81,-561.9 -15.37,-194.44 -41.06,-387.93 -68.79,-642.67 -141.98,144.46 -233.47,261.36 -347.56,349.14 -343.43,264.03 -690.67,523.74 -1045.87,771.55 -336.47,235.11 -688,448.87 -1027.62,679.69 -355.15,241.64 -657.15,530.17 -795.47,956.12 -18.2,55.91 -78.13,98.35 -139.33,171.64 -144.75,-1176.34 -317.74,-2313.25 -27.2,-3449.98 205.74,-804.55 521.73,-1557.79 1117.04,-2164.45 31.56,-32.17 54.16,-73.61 106.6,-145.97 -75.14,5 -122.03,-6.14 -149.73,12.04 -381.19,251.51 -774.67,487.47 -1135.43,765.76 -715.65,551.74 -1039.65,1340.64 -1262.25,2184.85 -110.7,419.68 -216.24,844.15 -494.53,1194.91 -76.62,96.63 -160.5,187.33 -284.27,330.78 -73.71,-338.43 -126.39,-605.63 -190.69,-870.24 -62.87,-257.7 -137.27,-512.55 -217.78,-809.63 -301.1,276.65 -561.9,523.16 -830,761.31 -456.88,405.95 -918.37,807.98 -1250.79,1329.66 -138.17,216.67 -259.29,443.97 -391,664.95 -32.31,53.87 -75.35,101.31 -152.43,203.39 -163.57,-871.3 -584.49,-1613.91 -571.13,-2465.36 16.32,-1019.25 335.94,-1934.42 934.69,-2753.89 148.14,-202.72 315.41,-391.69 474.27,-587.88 -27.46,-19.26 -40.56,-33.79 -45.93,-31.25 -847.22,371.42 -1631.61,838.78 -2200.57,1586.73 -225.45,296.44 -395.76,637.65 -569.52,969.8 -272.2,520.89 -528.58,1050.05 -955.86,1468.68 -89.11,87.23 -185.21,167.19 -346.5,311.86 22.17,-534.7 -61.78,-968.64 -146.82,-1460 -331.39,262.23 -615.5,482.44 -894.48,708.98 -336.89,273.69 -680.96,540.17 -1000.81,832.96 -349.25,319.78 -630.74,694.95 -783.38,1153.48 -9.97,29.77 -39.5,53.1 -93.82,123 -361.29,-1066.69 -545.7,-2107.67 -234.63,-3180.69 305.33,-1053.33 916.33,-1910.82 1749.35,-2638.29 -58.92,15.56 -123.59,20.27 -175.66,48.42 -350.26,190.16 -712.31,363.43 -1043.2,583.22 -704.4,468.02 -1185.2,1123.18 -1522.78,1894.89 -149.99,342.85 -321.68,679.69 -517.71,998.01 -196.61,319.3 -451.51,594.52 -826.72,744.56 -17.25,-245.4 -28.34,-472.84 -50.54,-699.16 -21.33,-216.72 -54.11,-432.3 -89.38,-707.15 -1094.5,864.37 -2290.39,1524.64 -2925.26,2799.56 -62.26,-57.02 -104.11,-76.23 -108.8,-102.37 -77.18,-426.96 -166.63,-852.75 -219.26,-1282.99 -75.51,-616.61 38.92,-1218.46 221.32,-1804.93 345.65,-1111.89 975.25,-2056.55 1793.8,-2868.24 548.88,-544.12 1144.98,-1041.08 1725.37,-1553.1 236.62,-208.76 478.82,-413.28 734.48,-597.69 195.87,-141.55 230.08,-130.15 559.46,-95.04 16.27,230.35 32.94,467.52 55.01,780.26 125.6,-98.4 193.23,-149.62 258.97,-203.09 253.15,-205.95 503.34,-415.5 760.04,-616.96 62.92,-49.32 143.03,-83.21 220.58,-106.39 338.16,-101.31 549.54,52.94 561.68,407.86 3.12,89.11 -7.62,178.65 -14.74,325.78 105.81,-70.33 173.22,-104.54 227.59,-153.25 166.08,-148.78 323.06,-308.05 491.62,-453.84 139.96,-121.18 280.72,-278.39 493.26,-200.26 215.87,79.4 209.66,287.63 231.67,473.79 15.9,133.88 35.96,267.36 65.35,483.61 140.07,-139.59 219.52,-218.31 298.34,-297.55 316.57,-318.51 644.53,-609.2 1102.68,-723.48 383.3,-95.7 565.02,-25.66 632.38,499.08 10.87,84.72 -9.39,173.38 -20.32,334.14 111.92,-98.64 169.78,-146.34 223.92,-198.04 229.08,-218.47 448.81,-447.97 688.02,-654.84 221.8,-191.9 369.68,-160.76 493.26,106.28 76.41,164.73 104.85,351.53 165.31,565.6 79.19,-52.18 147.72,-84.75 199.89,-134.36 110.38,-105.01 210.56,-220.85 317.98,-329.25 270.32,-272.04 612.27,-387.32 981.68,-426.32 292.02,-30.72 476.91,88.95 558.54,371 47.84,165.95 54.16,343.91 87.52,572.77 96.57,-76.33 174.7,-131.87 245.61,-195.29 218.36,-195.39 422.09,-409.81 655.45,-584.94 134.49,-101.15 309.64,-172.53 476.28,-201.16 297.44,-51.36 501.89,95.46 571.13,390.58 50.11,213.28 67.42,434.39 106.92,703.39 83.69,-74.72 152.11,-125.7 208.23,-187.8 204.52,-226.22 389.89,-472.47 612.38,-678.89 140.97,-130.68 324.17,-238.92 507.42,-295.59 330.23,-102.05 611.11,85.17 683.18,422.14 40.98,191.19 63.71,386.32 102.47,629.6 83.74,-80.78 136.58,-131.71 189.12,-182.77 276.49,-269.48 525.94,-576.32 835.45,-800.07 516.07,-372.8 965.25,-200.16 1175.33,407.11 56.54,163.43 93.4,333.45 153.17,550.49 71.17,-86.23 123.9,-137.32 161.34,-197.93 185,-298.82 347.24,-613.6 553.24,-896.99 200.26,-275.54 374.44,-265.83 603.36,-20.06 182.3,195.87 290.96,425.16 309.32,693.74 8.65,127.87 12.04,256.06 17.73,383.94 150.36,61.97 185.63,-65.62 244.5,-141.08 158.54,-203.52 301.73,-419.95 468.79,-615.82 508.48,-595.95 1095.08,-572.29 1546.97,61.83 140.97,197.46 258.13,411.85 408.75,654.98 67.26,-80.3 123.48,-130.97 159.49,-193.33 99.09,-172.53 176.19,-359.01 286.57,-523.32 188.12,-279.72 469.87,-375.87 797.43,-345.49 491.73,45.83 848.94,311.28 1131.57,698.61 129.2,177.11 265.03,349.12 437.57,575.68 42.7,-135.78 66.78,-205.69 86.76,-276.7 40.8,-145.81 60.83,-300.73 122.58,-436.83 214.66,-473.05 633.44,-617.99 1104.32,-392.17 248.73,119.22 446.51,297.34 601.82,527.42 109.25,161.77 234.58,312.71 406.21,538.77 65.51,-190.37 106.34,-303.9 143.62,-418.73 212.65,-654.66 811.21,-827.38 1344.96,-369.41 211.72,181.64 382.03,411.29 572.58,618.04 30.08,32.68 67.26,58.98 124.96,108.74 37.6,-76.49 70.64,-131.39 92.34,-190.45 44.4,-120.84 76.81,-245.93 124.38,-365.13 109.83,-274.85 313.35,-374.68 610.31,-368.67 435.5,8.65 761.05,198.2 1032.06,519.19 116.79,138.11 244.03,267.2 407.59,444.95 57.76,-172.48 89.43,-280.83 129.94,-385.68 37.17,-96.04 68.05,-200.32 128.98,-280.14 142.72,-187.06 223.28,-215.4 415.34,-83.16 229.92,158.17 432.41,356.37 644.68,539.46 51.28,44.19 94.46,97.6 170.58,177.8 71.38,-174.02 133.93,-317.58 189.34,-463.97 52.55,-139.33 148.99,-194.12 296.41,-198.83 395.29,-12.3 741.94,100.3 1026.66,379.12 199.63,195.55 393.33,397.11 633.49,640.48 49.05,-157.27 85.65,-272.68 120.99,-388.36 10.29,-33.63 16.59,-68.58 25.98,-102.47 116.58,-426.85 264.13,-529.91 705.09,-213.76 234.9,168.35 431.24,390.53 670.35,611.8 26.14,-197.46 53.47,-403.62 82.15,-620.77 355.41,-50.96 670.82,-6.19 988.06,96.31 326.87,105.44 416.3,462.65 730.75,657.2 54.24,-239.74 101.04,-447.97 157.43,-697.26 234.58,140.71 459.29,243.34 645.9,393.07 741.73,595.23 1477.17,1199.99 2092.09,1932.65 715.59,852.49 1328.34,1762.2 1575.59,2873.4 157.37,707.73 206.75,1415.81 49.74,2129.68 -64.4,293.5 -109.51,592.59 -214.18,913.84 -81.47,-57.23 -146.76,-78.08 -164.31,-119.22 -266.94,-627.38 -731.49,-1088.23 -1268.52,-1477.49 -519.77,-376.58 -1059.97,-725.46 -1630.55,-1113.23 -110.12,488.79 -155.63,964.78 -76.65,1492.04 -253.05,-109.27 -417.25,-270.3 -566.71,-445.64 -269.98,-316.84 -460.75,-678.58 -584.23,-1076.19 -317.58,-1021.9 -888.55,-1860.15 -1799.91,-2441.44 -292.5,-186.48 -605.37,-340.78 -948.37,-457.62 32.78,39.74 60.51,85.75 99.25,118.48 867.91,734.46 1392.95,1684.34 1627.27,2774.84 218.63,1017.8 -29.92,1970.11 -643.36,2898.22 -431.24,-1288.68 -1452.27,-2018.74 -2367.89,-2896.16 -125.23,506.41 -133.72,981.95 -134.73,1503.94 -92.82,-48.9 -165.36,-72.39 -219.1,-117.9 -338.08,-286.15 -575.57,-648.39 -760.99,-1045.42 -109.35,-233.87 -208.6,-472.78 -305.28,-712.1 -374.78,-928.34 -1006.45,-1628.85 -1872.88,-2123.23 -167.43,-95.62 -332.71,-194.97 -499.08,-292.66 -13.2,18.97 -26.46,37.91 -39.58,57.02 57.65,67.63 118,133.27 172.48,203.46 656.3,845.69 1094.55,1770.41 1086.8,2871.79 -3.7,497.02 -157.85,946.1 -353.99,1387.5 -152.53,343.06 -317.9,680.32 -480.22,1018.91 -18.84,39.39 -55.85,69.9 -126.76,155.81l0 0z"/>
   <path class="fil0" d="M102482.87 68756.64c19.1,24.82 55.96,119.06 120.84,145.65 112.37,46.51 335.97,-138.91 356.37,-272.2 19.39,-125.39 -63.87,-224.08 -197.35,-233.79 -160.32,-11.62 -250.28,84.9 -279.86,360.34l0 0zm-8359.94 -5737.94c170.89,-1.16 256.8,-78 247.86,-222.01 -11.46,-187.38 -207.96,-423.41 -357.72,-429.76 -142.43,-5.87 -248.97,129.51 -251.91,319.93 -3.35,213.36 127.64,333.48 361.77,331.84l0 0zm7291.95 5772.99c188.28,6.24 383.96,-160.76 388.51,-331.66 3.86,-144.04 -183.09,-315.52 -358.7,-329.17 -182.93,-14.1 -312.13,123.32 -315.67,336.1 -3.52,204.51 96.89,318.6 285.86,324.73l0 0zm-3289.01 -2188.29c2.91,-218.73 -179.15,-426.64 -376,-429.45 -150.94,-2.06 -268.26,128.46 -270.91,302 -3.23,212.94 162.98,405.58 349.89,405.26 156.63,-0.15 294.95,-129.48 297.02,-277.81l0 0zm-2406.92 -1562.15c240.74,-3.86 318.45,-59.77 316.89,-227.75 -1.53,-168.99 -239.37,-439.74 -390.74,-445.27 -145.68,-5.29 -302.15,188.65 -301.41,373.38 1.04,219.45 106.76,304.01 375.26,299.64l0 0zm8367.58 3387.51c-216.88,-6.91 -367.82,104.7 -379.12,280.72 -10.29,161.4 177.67,359.44 356.63,375.34 169.99,15.11 394.97,-192.38 405.1,-373.83 8.26,-145.52 -168.08,-275.61 -382.61,-282.23l0 0zm1310.56 590.21c110.54,-116.1 208.76,-201.74 284.67,-303.79 85.17,-114.62 86.2,-242.81 -21.7,-349.99 -105.28,-104.85 -385,-130.36 -534.93,-52.41 -127.82,66.36 -197.78,172.8 -158.7,316.39 16.56,61.67 70.96,119.86 122.03,163.57 87.36,75.02 185.63,137.6 308.63,226.23l0 0zm-5616.78 -1104.69c-21.17,198.36 114.8,398.65 285.09,420.26 181.21,22.75 385.71,-158.86 403.78,-358.85 15.27,-168.83 -175.76,-373.12 -372.64,-398.78 -171.19,-22.33 -291.63,106.02 -316.23,337.37l0 0zm-5393.8 -4231.06c-8.52,233.89 154.07,435.29 353.56,438.57 179.86,2.65 367.67,-150.52 370.15,-301.73 2.65,-175.02 -217.46,-434.71 -379.54,-447.81 -182.54,-14.65 -337.26,125.24 -344.17,310.97l0 0zm10918.67 6363.68c-154.46,125.6 -282.52,207.65 -381.87,315.73 -139.22,151.37 -126.71,392.01 5.11,540.89 132.74,150.2 364.3,167.08 536.52,39.34 171.64,-127.29 225.37,-338.59 116.73,-521.94 -69.43,-117.32 -161.98,-220.85 -276.49,-374.02l0 0zm-2243.78 -495.06c-6.06,-271.81 -220.37,-519.88 -432.96,-501.41 -212.22,18.63 -455.9,350.15 -442.54,601.66 12.46,231.99 192.51,383.83 454.26,383.57 272.47,-0.48 427.97,-178.86 421.24,-483.82l0 0zm-6657.94 -3505.62c-373.78,200.16 -437.41,374.89 -260.61,689.98 60.62,108.03 147.69,206.69 274.53,166.48 100.44,-31.88 225.69,-107.61 259.9,-195.29 47.12,-119.8 28.79,-270.17 17.91,-405.84 -6.01,-73.4 -54.8,-143.3 -66.99,-172.91 128.51,-170.74 242.76,-300.73 328.32,-447.23 29.82,-51.12 12.78,-187.96 -24.05,-207.17 -80.65,-42.6 -213.47,-76.91 -277.52,-37.44 -87.79,54 -149.04,172.64 -189.52,276.28 -41.44,105.57 -43.93,226.43 -61.97,333.14l0 0zm2416.78 1544.95c81.31,-148.19 152.21,-250.08 194.34,-362.69 39.79,-105.7 21.59,-223.76 -108.03,-255.16 -133.64,-32.31 -236.25,48.15 -261.22,173.86 -23.81,120.07 -5.11,248.84 -5.11,376.77 -88.11,43.6 -173.73,80.04 -253.42,126.71 -178.22,104.38 -252.1,272.02 -257.1,469.82 -5.72,223.49 123.48,342.37 381.5,365.15 219.31,19.42 341.5,-58.13 373.04,-274.53 31.54,-217.52 63.69,-442.92 -64,-619.93l0 0zm7971 390.37c25.66,-406.53 -133.06,-554.25 -543.85,-437.36 145.34,167.53 278.63,321.05 417.14,480.8 -46.57,100.99 -94.72,193.97 -132.42,291.02 -38.31,97.92 -78.13,197.93 -96.94,300.67 -34.05,187.8 58.87,375.15 206,447.7 151.21,74.61 403.3,0.9 537.34,-157.06 126.44,-148.88 144.36,-324.86 21.88,-481.59 -114.51,-146.58 -251.78,-275.46 -409.15,-444.18l0 0zm-4001.77 3393.12c-27.62,2.22 -55.17,4.29 -82.79,6.46 -63.42,197.19 -132.42,392.8 -188.38,592.01 -43.92,156.85 -123.38,254.05 -281.75,327.03 -285.75,131.42 -581.13,269.11 -821.19,466.59 -676.59,557.05 -980.1,1284 -797.69,2157.33 271.44,1299.24 1422.85,2038.67 2721.53,1748.92 1066.51,-237.86 1901.38,-1251.37 1702.46,-2431.81 -157.24,-932.63 -666.12,-1598.19 -1582.34,-1886.14 -330.2,-103.8 -536.63,-236.43 -543.69,-608.14 -2.52,-124.68 -81.98,-248.16 -126.16,-372.25l0 0zm3157.35 13567.41c185.9,-214.37 372.22,-405.63 531.23,-617.67 316.97,-422.57 618.73,-856.3 927.05,-1285.48 515.65,-717.66 1182.98,-1195.76 2075.66,-1326.7 220.27,-32.31 436.35,-91.44 654.98,-136.26 692.04,-142.37 1161.97,-563.48 1404.43,-1207.48 398.89,-1059.34 530.99,-2163.05 426.09,-3289.91 -21.46,-230.66 -92.76,-461.01 -171.48,-680.69 -236.09,-659.21 -836.45,-966.84 -1495.53,-716.65 -445.64,169.15 -876.25,399.39 -1279.29,656.14 -1217.64,776 -2514.57,1373.43 -3905.73,1748.45 -379.41,102.16 -562.64,256.91 -639.26,650.13 -127.93,655.88 -583.09,1042.46 -1206.02,1255.21 -1034.84,353.4 -1964.74,102.37 -2842.23,-470.88 -305.17,-199.52 -630.63,-388.36 -583.41,-881.27 -657.15,93.13 -1276.46,181.24 -1882.03,267.1 -686.22,-1605.36 -1403.03,-3174.23 -2033.51,-4777.11 -1600.68,-4070.54 -3235.85,-8129.11 -4601.63,-12325.11 171.32,-54.48 322.42,-103.11 473.79,-150.47 145.34,-45.67 292.02,-87.84 436.67,-136.1 399.79,-133.93 808.14,-248.05 1194.73,-413.33 263.23,-112.61 495.54,-297.92 764.22,-464.87 38.15,36.12 99.83,87.55 153.43,146.39 168.09,184.84 330.65,361.24 623.62,325.65 91.28,-11.03 193.65,67.57 289.8,104.7 456.14,-173.54 681.43,-76.52 830.74,377.38 -314.35,-52.49 -574.68,-299.14 -903.13,-220.85 -78.82,288.32 65.22,551.34 367.77,639.58 155.97,45.51 324.22,71.49 486.15,68.26 382.03,-7.33 693.63,102.05 878.31,452.83 -96.31,-54.32 -194.81,-133.03 -306.84,-167.53 -143.46,-44.24 -297.18,-61.22 -447.81,-74.27 -136,-11.93 -273.69,-2.7 -445.77,-2.7 107.92,360.76 398.75,524.72 564.54,783.01 266.36,-97.79 514.46,-188.97 811.48,-298.03 66.99,70.91 165.95,176.19 312.76,332.08 -344.75,113.24 -664.4,-7.75 -940.88,135.41 -2.33,33.31 -20.53,82.47 -5,98.37 361.24,365.15 692.47,778.88 1267.88,810.05 150.2,8.02 232.67,84.16 248.73,240.9 16.4,158.19 -17.07,338.16 154.57,443.92 192.17,118.32 391.27,212.88 626.53,194.97 114.49,-8.7 229.5,-11.93 337.34,-17.22 17.65,35.22 41.72,62.1 35.75,74.3 -146.71,298.66 -115.01,442.01 184.68,579.38 276.33,126.87 563.8,247.54 859.37,307.74 167.08,33.95 359.86,-60.35 541.47,-94.72 115.57,-21.7 231.72,-39.34 347.56,-59.03 13.49,24.71 27.04,49.21 40.69,73.71 -115.31,151.26 -230.56,302.79 -342.85,449.87 272.34,350.68 641.48,369.46 867.12,42.76 115.31,-166.37 214.84,-193.54 395.71,-29.66 -76.65,81.94 -140.65,158.17 -212.91,225.37 -115.36,107.61 -126.23,220.53 -25.51,339.59 90.28,106.92 270.88,126.29 380.23,29.24 77.71,-68.84 128.35,-166.77 199.42,-244.34 174.44,-190.55 395.71,-149.04 540.65,69.32 79.72,120.12 194.97,230.08 318.29,304.83 187.96,113.45 281.36,67.95 387.16,-137.32 148.46,-287.21 184.97,-296.44 477.36,-119.96 371.58,224.5 513.19,207.17 831.74,-99.4 24.71,-23.6 56.14,-40.32 81.94,-58.61 621.24,256.22 779.07,218.94 1124.98,-290.12 467.2,85.65 792.4,-199.26 1117.2,-503.03 165.05,-154.12 299.51,-361.18 558.06,-415.24 144.94,203.84 207.49,432.54 231.01,660.43 49.03,477.39 122.71,961.73 89.22,1436.48 -76.76,1088.28 -189.55,2175.19 -332.82,3256.54 -65.62,496.44 -237.68,978.56 -361.16,1467.25 -30.53,121.13 -59.93,242.28 -101.26,409.5 241.01,0 436.77,14.26 629.71,-2.8 572.77,-50.8 1149.32,-85.01 1714.74,-182.62 341.13,-59.03 663.2,-226.11 995.2,-340.94 331.26,-114.62 656.14,-271.75 997.43,-328.14 1220.52,-201.74 2069.23,451.93 2298.94,1670.39 66.7,353.14 56.54,723.71 54.64,1086.22 -4.87,1032.8 -50.38,2066.1 -28.2,3098.01 16.32,762.95 182.93,1512.49 371.92,2252.32 176.9,692.15 136.23,1349.77 -287.18,1952.07 -247.28,351.63 -566.63,632.65 -925.62,856.72 -728.27,454.87 -1332.44,1036.43 -1845.57,1717.97 -719.03,954.99 -1710.8,1192.82 -2823.87,1028.99 -811.21,-119.67 -1612.34,-308.21 -2417.21,-469.24 -39.2,-7.98 -71.69,-48.54 -120.98,-83.78l0 0z"/>
   <path class="fil0" d="M34649.41 9327.41c-242.17,-8.49 -419.66,183.09 -421.98,455.45 -2.49,281.04 177.35,506.99 413.17,519.88 263.39,14.42 482.44,-179.71 492.89,-436.77 11.57,-286.15 -206.74,-529.01 -484.08,-538.56l0 0zm-6619.37 548.4c1.64,-265.46 -225.9,-504.88 -477.92,-503.05 -260.91,2.22 -466.46,229.92 -461.59,511.44 4.07,251.04 192.91,452.78 429.29,458.95 266.36,7.09 508.45,-214.82 510.22,-467.34l0 0zm8544.25 1843.67c142.56,1449.04 1095.56,2317.22 2328.2,1999.17 -60.62,-53.1 -103.64,-100.09 -155.18,-134.04 -136.42,-89.69 -297.07,-152.8 -411.43,-264.08 -342.4,-333.77 -675.67,-678.05 -996.05,-1033.12 -210.13,-232.89 -397.43,-483.77 -765.54,-567.93l0 0zm-1046.56 2393.29c8.65,-55.91 25.56,-92.5 17.33,-122.16 -134.46,-485.67 -248.58,-978.77 -418.04,-1451.82 -96.6,-269.98 -254,-532.82 -438.26,-753.51 -300.99,-360.44 -730.59,-499.32 -1190.65,-588.78 331.86,1225.11 793.93,2322.2 2029.62,2916.27l0 0zm-12142.32 -513.03c255.75,273.63 982.53,304.77 1545.43,70.96 811.21,-336.84 1416.55,-1224.28 1395.76,-2060.31 -45.67,5.45 -92.97,2.49 -134.04,17.33 -492.79,178.22 -913.84,460 -1282.83,836.32 -446.67,455.72 -896.96,915.44 -1524.32,1135.7l0 0zm3777.96 722.34c586.71,-191.27 1319.21,-775.47 1598.32,-1296.3 321.26,-599.49 442.97,-1255.37 538.98,-1969.72 -210.71,88.03 -359.75,151.16 -509.64,212.49 -541.47,221.14 -914.59,595.82 -1078.31,1167.45 -176.58,616.66 -358.66,1231.9 -549.35,1886.08l0 0zm4134.99 -2671.47c-765.23,1275.45 -538.35,4070.14 71.12,4614.73 746.02,-873.71 945.09,-3500.31 -71.12,-4614.73l0 0zm-18563.43 6920.2c1096.14,-1125.86 2339.9,-2003.27 3596.35,-2864.75 1456.69,-998.7 3001.43,-1844.28 4599.94,-2585.72 924.72,-428.86 1885.39,-781.69 2837.23,-1149.83 612.59,-236.88 1242.17,-429.71 1856.77,-661.7 256.96,-97.05 494.9,-244.29 764.22,-380.29 -144.86,-125.7 -268.37,-212.75 -367.35,-322 -707.26,-780.1 -307.42,-1810.94 594.23,-2163.15 512.13,-199.97 1052.27,-229.39 1588.61,-284.4 548.56,-56.25 1097.68,-104.22 1646.05,-160.34 378.54,-38.92 708.58,-378.57 711.04,-751.02 0.48,-86.49 -69.27,-191.85 -137.21,-255.59 -92.66,-86.47 -219.21,-135.1 -323.48,-210.53 -661.01,-478.23 -844.1,-1294.02 -430.5,-1995.28 142.13,-240.8 317.16,-467.49 506.1,-674.5 530.01,-581.13 875.4,-1242.88 957.77,-2032.48 3.23,-30.88 31.51,-59.03 70.75,-128.61 53.42,102.66 100.3,175.13 130.84,253.87 273.37,704.59 619.92,1366.07 1103.52,1953.37 155.47,188.97 293.5,398.15 407.14,615.02 391.74,747.77 201.16,1498.49 -489.06,1978.79 -105.75,73.69 -219.52,135.63 -327.16,206.59 -131.84,86.89 -174.86,194.23 -129.62,360.44 121.71,447.38 312.29,639.42 768.43,695.03 640.64,78 1282.99,142.61 1924.45,214.84 446.64,50.22 878.05,141.39 1258.7,406.43 579.44,402.88 886.86,1281.51 232.62,1952.31 -70.8,72.58 -129.2,156.92 -229.82,280.41 487.52,232.28 923.45,491.33 1392.63,654.87 2181.57,760.86 4242.25,1770.99 6231.26,2938.3 1705.82,1001 3300.2,2157.44 4812.69,3429.24 268.68,225.8 526.39,464.56 788.46,698.29 5.29,4.68 0.58,20.69 0.58,45.56 -392.91,0 -786.55,21.27 -1177.29,-3.7 -1617.13,-103.37 -3232.73,-231.56 -4850.18,-330.49 -2273.75,-139.22 -4547.24,-289.43 -6823,-382.46 -2839.56,-116.15 -5681.72,-203.04 -8524.08,-110.44 -2018.59,65.78 -4036.27,163.88 -6053.35,265.3 -1852.98,93.24 -3704.62,209.5 -5556.65,317.13 -1008.09,58.71 -2015.94,121.6 -3023.98,180.6 -112.12,6.61 -225.04,0.89 -337.65,0.89l0 0z"/>
   <path class="fil0" d="M7414.37 42210.12c154.91,-132.85 307.68,-268.21 465.19,-397.88 886.38,-729.27 1896.8,-1167.69 3047.84,-1211.77 1025.23,-39.03 1876.9,374.6 2532.04,1155.28 923.77,1100.59 1410.39,2365.03 1349.03,3818.86 -7.17,170.21 -0.95,340.68 -64.51,528.74 -34.58,-48.05 -82.36,-91.28 -101.63,-144.75 -339.75,-938.82 -834.92,-1781.44 -1552.26,-2481.34 -549.96,-536.65 -1229.04,-851.01 -1952.81,-1075.82 -585.34,-181.61 -1182.48,-286.46 -1799.54,-270.99 -398.36,10.08 -797.69,-14.42 -1195.78,-1.16 -182.93,5.95 -363.96,65.46 -545.91,100.41 -51.54,9.97 -103.27,19.08 -154.91,28.63 -8.89,-16.01 -17.86,-32.18 -26.75,-48.21l0 0z"/>
   <path class="fil0" d="M53064.1 36190.61c-754.83,-717.84 -1065.66,-1626.68 -756.29,-2391.91 78.55,-194.6 189.12,-376.32 284.4,-564.28 58.18,-114.8 124.49,-226.56 171.05,-345.92 117.32,-300.41 108.66,-331.23 -165.95,-501.25 -697.12,-431.83 -646.32,-1355.2 -90.28,-1743.84 531.65,-371.53 1255.63,51.06 1356.07,570.84 91.81,474.21 -62.26,818.54 -477.31,1071.22 -386.27,234.95 -400.69,329.25 -136.68,717.13 171.05,251.35 354.73,499.08 486.41,770.84 221.43,457.09 199.15,928.82 -8.65,1392.95 -168.4,375.94 -434.33,683.14 -662.77,1024.22l0 0z"/>
   <path class="fil0" d="M47343.04 36119.96c-1029.36,-937.45 -1074.45,-1977.73 -456.88,-2884.65 65.46,-96.04 128.88,-197.09 171.48,-304.22 134.3,-338.88 80.88,-471.04 -242.28,-645.32 -385.55,-207.75 -543.96,-512.87 -499.93,-962.05 40.48,-413.7 271.89,-681.96 675.67,-805.92 523,-160.44 988.3,219.26 1114.43,662.38 107.92,378.91 -38.44,819.71 -382.03,1014.99 -529.48,300.99 -456.96,519.46 -122.58,903.71 312.23,358.54 542.05,761.74 570.97,1258.86 27.94,476.17 -187.38,865.11 -419.63,1246.13 -113.36,185.6 -270.9,344.19 -409.22,516.09l0 0z"/>
   <path class="fil0" d="M8311.6 36253.1c-337.58,-351.76 -584.23,-675.22 -739.67,-1058.6 -225.8,-557.45 -193.54,-1101.73 122.03,-1619.3 109.7,-180.05 240.27,-347.4 349.62,-527.74 176.82,-291.39 142.61,-417.57 -144.36,-596.79 -396.24,-247.65 -569.89,-665.27 -465.83,-1120.01 101.26,-442.65 456.19,-702.26 926.89,-678.15 435.98,22.44 759.04,335.62 817.48,774.2 58.39,437.99 -125.49,743.85 -482.44,976.58 -325.6,212.12 -336.63,277.07 -148.67,622.41 134.62,246.94 282.95,486.99 407.75,738.66 227.33,458.1 249.82,930.86 9.45,1387.63 -189.81,360.83 -414.63,703.15 -652.25,1101.11l0 0z"/>
   <path class="fil0" d="M13726.85 32482.23c-78.13,-35.53 -168.83,-64.16 -245.77,-113.93 -313.13,-202.49 -520.73,-467.2 -497.6,-866.85 21.8,-379.54 172.11,-671.46 521.15,-853.49 608.2,-317.13 1135.33,144.01 1247.4,620.13 97.37,413.33 -42.31,758.93 -393.01,1003.75 -38.39,26.88 -76.7,54.19 -115.57,80.14 -305.86,204.26 -327.61,307.31 -127.87,623.99 93.77,148.62 192.06,294.45 285.19,443.44 394.49,630.79 421.16,1279.87 72.87,1935 -141.39,265.93 -315.2,514.64 -473.37,769.96 -811.53,-477.81 -1369.75,-1765.11 -598.17,-2797.33 70.06,-93.82 143.77,-185.05 216.46,-276.91 131.68,-166.65 188.54,-347.68 108.29,-567.9l0 0z"/>
   <path class="fil0" d="M57150.69 19295.98c24.39,73.13 63.47,144.91 70.8,219.68 53,541.05 281.46,1011.58 567.19,1462.22 106.6,168.12 210.56,340.76 289.96,522.53 385.26,881.41 -366.61,1666.5 -1134.64,1586.34 -409.39,-42.76 -813.91,-363.86 -909.29,-766.82 -87.1,-368.19 -44.98,-710.14 167.96,-1041.98 392.32,-611.11 776,-1231 862.73,-1982.42 28.49,0.14 56.98,0.29 85.29,0.45l0 0z"/>
   <path class="fil0" d="M35947.04 30578.48c224.5,217.62 431.09,377.98 588.04,577.48 409.07,520.09 464.4,1090.61 148.14,1676.74 -104.7,193.81 -241.8,374.68 -387.64,541.05 -198.83,226.7 -266.04,222.75 -499.08,41.86 -640.4,-496.86 -821.03,-1467.56 -383.78,-2156.17 148.74,-234.16 342.97,-439.58 534.32,-680.96l0 0z"/>
   <path class="fil0" d="M24478.17 31875.65c27.75,-417.67 139.81,-809.68 519.09,-1080.45 224.02,-159.86 372.22,-172.06 611.95,-29.82 444.84,263.87 714.9,957.29 560.1,1477.54 -115.68,389.39 -343.69,712.71 -639.84,989.62 -113.35,105.86 -216.72,113.82 -338.16,10.87 -419.03,-355.17 -698.83,-781.13 -713.14,-1367.76l0 0z"/>
   <path class="fil0" d="M13879.28 30134.35c-518.66,3.55 -877.41,-341.84 -877.62,-844.68 -0.32,-570.15 413.23,-1028.67 932.47,-1033.94 448.07,-4.55 852.59,454.24 867.12,975.02 10.87,390.33 -340.23,931.64 -921.97,903.6l0 0z"/>
   <path class="fil0" d="M53948.26 29100.57c1.91,534.88 -400.08,953.16 -918.95,956.23 -525.22,3.25 -870.51,-350.89 -871.09,-893.1 -0.79,-545.97 403.25,-956.02 952.71,-967.16 460.8,-9.39 835.58,395.45 837.33,904.03l0 0z"/>
   <path class="fil0" d="M7412.65 29277.79c-10.08,-491.57 389.47,-939.85 841.08,-943.82 505.09,-4.29 932.89,416.56 947,931.78 12.94,473.63 -429.13,960.68 -893.42,947 -463.18,-13.5 -917.41,-244.74 -894.66,-934.96l0 0z"/>
   <path class="fil0" d="M19079.11 29221.35c-4.15,-684.93 552.34,-1011.9 990.49,-1011.77 460.75,0.32 808.88,439.9 794.94,977.32 -13.1,506.84 -427.28,890.77 -944.99,875.98 -499.63,-14.42 -849.04,-364.35 -840.44,-841.53l0 0z"/>
   <path class="fil0" d="M48223.73 29002.62c-15.48,850.69 -708.47,1284.26 -1344.08,976.34 -355.15,-171.9 -532.24,-688.29 -374.12,-1100.75 146.08,-380.44 426.64,-615.92 821.5,-688.6 126.6,-23.34 291.91,6.51 400.42,74.27 315.49,197.22 494.16,490.72 496.28,738.74l0 0z"/>
   <path class="fil0" d="M41374.28 30215.23c-492.42,2.8 -833.97,-353.14 -845.42,-881.22 -10.82,-504.93 401.45,-949.85 882.84,-952.61 475.32,-2.7 888.18,412.06 896.83,900.59 9.15,521.39 -400.06,930.04 -934.25,933.24l0 0z"/>
   <path class="fil0" d="M35951.75 30515.22c-177.51,-122.74 -347.4,-226.43 -501.57,-349.7 -310.54,-248.63 -379.7,-587.61 -276.91,-948.69 104.7,-367.67 374.54,-586.71 752.24,-650.72 364.83,-61.67 641.43,99.54 831.43,398.01 190.29,299.24 205.42,623.31 13.94,926.2 -83.85,132.72 -216.56,241.33 -344.59,337.82 -138.05,104.09 -296.48,181.16 -474.54,287.08l0 0z"/>
   <path class="fil0" d="M26164.2 29321.68c25.14,517.55 -470.88,950.54 -894.9,945.67 -492.47,-5.69 -859.92,-375.52 -855.72,-878.89 4.42,-531.07 398.65,-976.58 863.63,-976.42 467.52,0.32 887.15,430.67 886.99,909.64l0 0z"/>
   <path class="fil0" d="M28705.63 71837.79c-674.21,-44.98 -1218.86,555.41 -1222.96,1140.38 -4.55,635.13 534.04,1212.61 1155.12,1232.4 694.06,21.91 1232.56,-496.07 1242.99,-1196.02 10,-665.37 -485.86,-1161.97 -1175.15,-1176.76l0 0zm-3501.36 1184.27c-5.45,-1948.21 1560.91,-3478.56 3589.84,-3462.13 1942.84,15.58 3419.9,1568.82 3442.07,3434.58 22.28,1868.43 -1664.28,3455.54 -3548.46,3486.36 -1625.52,26.55 -3530.44,-1503.85 -3483.45,-3458.81l0 0z"/>
   <path class="fil0" d="M101639.08 74504.55c0.9,-614.44 554.3,-1192.66 1145.73,-1196.92 623.41,-4.45 1248.57,602.46 1242.7,1206.34 -6.01,633.97 -617.11,1246.13 -1258.86,1230.55 -650.75,-15.74 -1175.55,-611.53 -1129.57,-1239.97l0 0z"/>
  </g>
 </g>
</svg>
