<?xml version="1.0" encoding="UTF-8"?>
<!DOCTYPE svg PUBLIC "-//W3C//DTD SVG 1.1//EN" "http://www.w3.org/Graphics/SVG/1.1/DTD/svg11.dtd">
<!-- Creator: CorelDRAW -->
<svg xmlns="http://www.w3.org/2000/svg" xml:space="preserve" width="120mm" height="120mm" version="1.1" style="shape-rendering:geometricPrecision; text-rendering:geometricPrecision; image-rendering:optimizeQuality; fill-rule:evenodd; clip-rule:evenodd"
viewBox="0 0 12000 12000"
 xmlns:xlink="http://www.w3.org/1999/xlink"
 xmlns:xodm="http://www.corel.com/coreldraw/odm/2003">
 <defs>
  <style type="text/css">
   <![CDATA[
    .fil17 {fill:white}
    .fil12 {fill:url(#id0)}
    .fil8 {fill:url(#id1)}
    .fil18 {fill:url(#id2)}
    .fil9 {fill:url(#id3)}
    .fil15 {fill:url(#id4)}
    .fil10 {fill:url(#id5)}
    .fil13 {fill:url(#id6)}
    .fil11 {fill:url(#id7)}
    .fil0 {fill:url(#id8)}
    .fil7 {fill:url(#id9)}
    .fil6 {fill:url(#id10)}
    .fil16 {fill:url(#id11)}
    .fil1 {fill:url(#id12)}
    .fil2 {fill:url(#id13)}
    .fil14 {fill:url(#id14)}
    .fil3 {fill:url(#id15)}
    .fil4 {fill:url(#id16)}
    .fil5 {fill:url(#id17)}
   ]]>
  </style>
  <linearGradient id="id0" gradientUnits="userSpaceOnUse" x1="3886.87" y1="5084.74" x2="5033.98" y2="6376.19">
   <stop offset="0" style="stop-opacity:1; stop-color:#D33230"/>
   <stop offset="1" style="stop-opacity:1; stop-color:#FD8F04"/>
  </linearGradient>
  <linearGradient id="id1" gradientUnits="userSpaceOnUse" xlink:href="#id0" x1="6368.55" y1="6239.25" x2="8818.69" y2="8953.42">
  </linearGradient>
  <linearGradient id="id2" gradientUnits="userSpaceOnUse" xlink:href="#id0" x1="2766.06" y1="3209.37" x2="4004.75" y2="4771.3">
  </linearGradient>
  <linearGradient id="id3" gradientUnits="userSpaceOnUse" xlink:href="#id0" x1="7784.12" y1="3536.86" x2="10109.25" y2="6545.41">
  </linearGradient>
  <linearGradient id="id4" gradientUnits="userSpaceOnUse" xlink:href="#id0" x1="5925.28" y1="2518.64" x2="6632.62" y2="3837">
  </linearGradient>
  <linearGradient id="id5" gradientUnits="userSpaceOnUse" xlink:href="#id0" x1="7404.74" y1="5105.62" x2="9611.01" y2="7725.58">
  </linearGradient>
  <linearGradient id="id6" gradientUnits="userSpaceOnUse" xlink:href="#id0" x1="2659.53" y1="6275.52" x2="3836.47" y2="7355.47">
  </linearGradient>
  <linearGradient id="id7" gradientUnits="userSpaceOnUse" xlink:href="#id0" x1="7148.79" y1="2272.13" x2="9898.88" y2="5235.39">
  </linearGradient>
  <linearGradient id="id8" gradientUnits="userSpaceOnUse" xlink:href="#id0" x1="4808.02" y1="2090.05" x2="10478.8" y2="10887.39">
  </linearGradient>
  <linearGradient id="id9" gradientUnits="userSpaceOnUse" xlink:href="#id0" x1="3731.92" y1="8326.93" x2="6403.78" y2="10904.69">
  </linearGradient>
  <linearGradient id="id10" gradientUnits="userSpaceOnUse" xlink:href="#id0" x1="1257.13" y1="1394.46" x2="5882.29" y2="7293.97">
  </linearGradient>
  <linearGradient id="id11" gradientUnits="userSpaceOnUse" xlink:href="#id0" x1="6534.96" y1="1644.16" x2="6826.05" y2="2492.05">
  </linearGradient>
  <linearGradient id="id12" gradientUnits="userSpaceOnUse" xlink:href="#id0" x1="1194.05" y1="1363.64" x2="5568.91" y2="6880.11">
  </linearGradient>
  <linearGradient id="id13" gradientUnits="userSpaceOnUse" xlink:href="#id0" x1="1657.99" y1="7482.29" x2="4973.15" y2="10686.62">
  </linearGradient>
  <linearGradient id="id14" gradientUnits="userSpaceOnUse" xlink:href="#id0" x1="5054.8" y1="3835.61" x2="5986.38" y2="5106.23">
  </linearGradient>
  <linearGradient id="id15" gradientUnits="userSpaceOnUse" xlink:href="#id0" x1="3316.08" y1="6886.91" x2="6311.84" y2="10233.52">
  </linearGradient>
  <linearGradient id="id16" gradientUnits="userSpaceOnUse" xlink:href="#id0" x1="4963.47" y1="7344.16" x2="7757.86" y2="10341.85">
  </linearGradient>
  <linearGradient id="id17" gradientUnits="userSpaceOnUse" xlink:href="#id0" x1="6997.87" y1="5778.1" x2="10841.08" y2="11019.72">
  </linearGradient>
 </defs>
 <g id="Layer_x0020_1">
  <metadata id="CorelCorpID_0Corel-Layer"/>
  <g id="_2517724402128">
   <path class="fil0" d="M8686.82 3381.44c-99.45,-24.23 -158.81,-104.9 -227.1,-169.14 -515.16,-484.78 -1007.41,-992.09 -1467.47,-1529.56 -96.38,-112.58 -169.65,-244.94 -269.42,-391.47 125.32,23.25 192.51,98.58 262.11,158.19 678.13,580.77 1358.43,1159.22 2027.33,1750.51 529.63,468.18 1071.49,925.02 1554.95,1442.13 588.96,629.95 532.06,408.75 298.18,1226.52 -315.18,1101.95 -917.12,2046.9 -1671.37,2901.05 -740.72,838.84 -1543.46,1605.89 -2497.68,2202.67 -206.28,129 -416.25,177.47 -674.4,67.64 150.99,-97.45 288.07,-194.3 433.26,-276.91 110.32,-62.76 193.09,-183.59 343.85,-169.98 20.42,1.84 51.25,-29.64 65.32,-52.9 82.84,-136.9 1091.77,-1010.63 1232.97,-1063.62 14.88,-5.59 30.43,-9.38 47.74,-14.65 -17.06,-92.91 -92.34,-125.4 -154.36,-169.11 -1086.68,-766.05 -2171.53,-1534.75 -3262.14,-2295.14 -219.77,-153.23 -314.85,-384.55 -444.9,-597.13 -36.72,-60 4.43,-86.88 38.11,-119.46 293.27,-283.7 569.55,-583.32 822.76,-903.01 68.3,-86.21 102.86,-59.56 182.14,-11.44 585.59,355.42 911.39,940.21 1302.61,1465.02 551.26,739.49 1090.14,1488.24 1629.67,2236.37 62.98,87.32 93.36,97.3 164.55,10.64 201.56,-245.36 410.91,-484.34 618.41,-724.77 36.65,-42.46 61.28,-111.84 139.6,-84.15 30.36,10.73 58.01,60.44 90.5,16.95 31.69,-42.43 -10.31,-72.8 -32.26,-108.34 -57.51,-93.1 -167.77,-97.23 -247.14,-156.89 -996.07,-748.66 -1999.32,-1487.75 -2995.73,-2235.96 -245.17,-184.1 -348.38,-482.25 -525.91,-721.42 -45.99,-61.97 17.48,-97.22 47,-137.55 190.97,-260.95 389.84,-516.49 571.2,-783.92 65.23,-96.17 93.79,-69.84 172.57,-21.18 615.37,380.18 998.43,973.09 1410.53,1536.62 498.36,681.49 981.44,1374.2 1469.52,2063.2 54.52,76.96 98.53,161.38 154.82,254.56 127.74,-146.54 194.23,-322.19 291.29,-477.93 104.4,-167.53 195.77,-343.11 296.01,-513.31 72.74,-123.52 54.97,-202.42 -71.09,-293.78 -872.96,-632.65 -1734.66,-1280.83 -2609.5,-1910.82 -301.24,-216.94 -463.97,-546.98 -719.79,-795.65 -168.85,-164.13 -163.41,-300.66 -58.97,-493.37 141.99,-261.99 251.43,-541.61 381.82,-829.06 204.13,162.08 416.07,303.55 571.37,524.47 837.11,1190.88 1715.53,2351.73 2583.34,3520.23 22.93,30.88 35.69,79.18 84.73,77.69 54.23,-370.97 252.35,-689.66 361.87,-1038.94 39.63,-126.39 104.27,47.88 170.08,-26.9 -213.66,-164.54 -40.62,-345.73 -3.74,-528.3 17.29,-85.52 45.38,-168.86 50.28,-258.94 -124.09,141.64 -123.96,334.9 -225.05,506.65 -164.29,-193 -324.43,-382.29 -485.85,-570.5 -370.58,-432.1 -742.01,-863.45 -1112.45,-1295.67 -50.08,-58.43 -109.96,-111.81 -119.08,-195.54 475.22,355.79 950.41,711.55 1425.61,1067.3 -800.5,-689.49 -1511.72,-1475.69 -2339.01,-2134.26 286.35,375.37 636.57,694.37 918.31,1072.26z"/>
   <path class="fil1" d="M5994.76 1191.45c-36.66,355.27 -164.8,706.28 -329.57,1036.82 -910.02,1825.52 -2202.73,3324.33 -3880.04,4488.2 -177.86,123.42 -372.68,215.97 -582.53,271.91 -130.48,34.78 -263.62,49.67 -370.21,-59.05 -101.44,-103.47 -35.29,-219.51 0.54,-320.6 233.16,-657.85 569.47,-1264.44 948.94,-1846.98 741.64,-1138.53 1569.21,-2205.68 2616.67,-3084.87 316.43,-265.61 638.13,-525.69 1018.93,-698.03 70.72,-32.01 142.25,-63.71 216.07,-87.14 257.99,-81.94 372.05,7.65 361.2,299.74z"/>
   <path class="fil2" d="M1500.63 8024.94c-226.73,-279.78 -224.37,-282.17 109.57,-408.41 264.22,-99.88 511.36,-232.44 746.11,-388.63 47.11,-31.35 92.39,-60.88 141.62,-5.64 70.13,78.71 162.72,139.78 199.66,243.2 3.51,9.78 -50.15,43.2 -79.97,61.15 -226.1,136.06 -466.89,241.84 -709.7,343.65 -62.2,26.08 -132.71,40.37 -209.16,127.78 344.03,-97.48 631.96,-222.7 904.16,-382.55 120.93,-71.02 198.8,-65.95 324.14,27.03 467.15,346.5 714.29,863.83 1055.01,1306.71 434.17,564.33 842.82,1148.3 1262.16,1724.02 12.3,16.9 21.03,36.4 52.15,91.13 -652.68,-296.79 -1256.17,-817.26 -1810.09,-1265.52 -19.93,-45.82 -68.07,-82.48 -109.48,-115.35 -417.54,-331.36 -836,-661.6 -1255.42,-990.59 -55.91,-43.85 -508.28,-342.99 -620.76,-367.98z"/>
   <path class="fil3" d="M6583.43 10314.74c-213.6,-158.37 -427.82,-315.89 -640.69,-475.25 -796.23,-596.06 -1588.18,-1197.94 -2390.43,-1785.75 -221.64,-162.41 -360.99,-376.91 -497.54,-602.07 -39.28,-64.75 -29.1,-104.71 32.3,-146.08 308.5,-207.9 603.14,-433.94 875.58,-687.76 47.6,-44.34 82.12,-46.16 137.72,-6.2 224.39,161.22 421.22,336.79 570.78,581.84 623.9,1022.23 1266.77,2032.89 1902.54,3047.9 11.04,17.64 20.19,36.46 30.23,54.72 -6.83,6.21 -13.66,12.43 -20.49,18.65z"/>
   <path class="fil4" d="M4711.41 7071.98c1099.06,770.84 2198.11,1541.67 3318.91,2327.75 -404.92,337.16 -795.95,660.14 -1183.2,987.56 -71.16,60.16 -92.86,8.5 -120.99,-35.59 -109.35,-171.33 -217.41,-343.5 -324.76,-516.1 -567.98,-913.06 -1135.62,-1826.35 -1703.36,-2739.55 4.46,-8.01 8.93,-16.03 13.4,-24.07z"/>
   <path class="fil5" d="M10354.83 7957.35c-752.75,1117.54 -1653.66,2096.28 -2765.16,2869.08 -290.01,201.64 -607.8,330.71 -956.9,319.86 2061.07,-1495.4 3840.64,-3209.54 4473.62,-5844.11 116.39,234.03 127.56,460.28 90.58,687.04 -91.83,563.03 -566.82,1475.93 -842.14,1968.13z"/>
   <path class="fil6" d="M6036.41 858.81c210.97,19.99 265.35,159.35 286.89,320.71 32.4,242.84 -18.53,476.37 -92.08,706.27 -158.21,494.6 -412.77,942.44 -688.21,1377.15 -960.51,1515.95 -2158.54,2806.78 -3651.95,3813.07 -208.87,140.75 -431.4,258.15 -671.84,336.3 -142.8,46.42 -277.12,37.91 -355.61,-114.1 -84.26,-163.22 -57.61,-196.35 123.48,-193.97 190.31,2.5 363.72,-68.8 529.66,-152.17 551.56,-277.08 1021.38,-668.98 1471.26,-1082.67 1079.74,-992.9 1995.5,-2116.21 2661.31,-3430.57 175.72,-346.89 320.28,-707.34 395.76,-1092.68 31.52,-160.86 25.16,-318.77 -8.67,-487.34z"/>
   <path class="fil7" d="M3499.2 8092.88c413.19,309.91 826.49,619.69 1239.55,929.78 612.19,459.59 1221.65,922.88 1838.43,1376.23 126.17,92.74 108.49,137.14 -9.23,205.94 -139.22,81.37 -271.94,173.77 -409.11,258.74 -282.76,175.19 -589.13,128.96 -793.12,-143.16 -390.95,-521.52 -770.82,-1051.36 -1152.94,-1579.47 -247.06,-341.45 -489.93,-685.95 -734.68,-1029.08 7.04,-6.33 14.07,-12.66 21.1,-18.98z"/>
   <path class="fil8" d="M6142.56 5992.8c290.17,214.75 575.85,425.86 861.21,637.41 658.4,488.13 1315.32,978.26 1976.41,1462.71 96.18,70.49 102.16,114.39 21.15,203.03 -197.76,216.35 -384.99,442.38 -575.21,665.57 -48.73,57.19 -77.89,93.34 -143.41,2.99 -712.66,-982.89 -1430.43,-1962.09 -2146.4,-2942.58 -1.99,-2.73 1.9,-9.77 6.25,-29.13z"/>
   <path class="fil9" d="M9987.47 6618.42c-837.42,-1125.71 -1659.09,-2216.31 -2424.25,-3354.73 170.29,142.11 340.46,284.33 510.87,426.28 713.01,593.94 1424.12,1190.2 2141.1,1779.32 121.19,99.58 151.12,192.59 90,336.8 -108.82,256.75 -204.05,519.27 -317.72,812.33z"/>
   <path class="fil10" d="M7204.11 4867.74c316.14,232.87 632.31,465.69 948.43,698.6 510.42,376.07 1015.86,759.24 1534.21,1124.07 158.43,111.5 177.71,204.86 78.59,359.91 -125.47,196.24 -236.04,402.02 -353.29,603.52 -103.51,177.9 -103.58,177.76 -218.77,15.05 -449.23,-634.59 -896.5,-1270.57 -1348.63,-1903.08 -211.64,-296.08 -432.71,-585.43 -649.5,-877.81 3,-6.76 5.97,-13.51 8.96,-20.26z"/>
   <path class="fil11" d="M6931.29 2003.08c1253.68,928.85 2273.06,2083.33 3235.73,3299.95 -61.36,20.11 -91.54,-35.8 -126.4,-64.92 -891,-743.89 -1779.51,-1490.75 -2671.1,-2233.93 -224.64,-187.26 -333.47,-449.01 -462.31,-696.36 -50.29,-96.56 10.09,-210.26 24.08,-304.74z"/>
   <path class="fil12" d="M5145.83 5225.59c-6.01,57.78 -40.9,92.13 -71.8,128 -304.11,353.08 -617.15,697.44 -959.2,1015.08 -60.82,56.48 -89.03,47.12 -143.2,-0.64 -254.44,-224.36 -256.96,-232.75 -15.16,-467.6 278.71,-270.69 545.46,-552.99 792.91,-852 82.98,-100.27 139.6,-110.73 219.54,-12.63 55.56,68.17 142.87,107.96 176.91,189.79z"/>
   <path class="fil13" d="M3674.53 6177.45c89.29,97.58 198,188.18 267.29,302.65 41.76,68.99 -66.22,113.37 -115.11,156.51 -286.87,253.16 -596,477.44 -908.91,697.49 -112.9,79.4 -174.97,56.26 -240.63,-45.85 -28.88,-44.9 -65.86,-84.98 -101.78,-124.88 -34.07,-37.82 -41.64,-69.7 5.9,-102.55 364.48,-251.83 702.31,-536.21 1024.57,-839.62 12.18,-11.48 28.57,-18.49 68.67,-43.75z"/>
   <path class="fil14" d="M6077.21 4000.13c-19.31,36.97 -35.42,75.8 -58.22,110.21 -225.17,339.96 -479.77,657.72 -734.41,975.6 -50.54,63.08 -87.47,70.54 -138.74,6.98 -33.78,-41.88 -69.79,-82.6 -109.05,-119.3 -90.12,-84.24 -95.46,-155.01 -6.5,-255.31 242.95,-273.89 445.63,-579.13 636.82,-890.62 74.63,-121.57 137.6,-151.17 234.6,-30.37 54.96,68.47 142.95,108.93 175.5,202.81z"/>
   <path class="fil15" d="M6135.54 3868.99c-20.53,-8.81 -32.89,-11.33 -41.72,-18.33 -294.46,-232.59 -293.25,-231.97 -105.61,-547.96 152.69,-257.1 293.28,-521.23 400.71,-800.37 52.22,-135.69 98.48,-124.88 199.3,-42.08 121.47,99.75 142.01,189.94 77.43,336.77 -161,365.99 -319.82,731.89 -530.11,1071.97z"/>
   <path class="fil16" d="M6747.4 2512.63c-65.2,-69.63 -104.77,-123.46 -155.33,-163.32 -88.11,-69.43 -105.02,-143.44 -62.36,-248.94 68.37,-169.02 122.73,-343.72 189.03,-533.2 218.48,316.51 131.23,614.95 28.66,945.46z"/>
   <path class="fil17" d="M4633.09 2625.76c-17.51,169.77 -78.74,337.5 -157.48,495.44 -434.85,872.33 -1052.57,1588.53 -1854.07,2144.69 -85,58.97 -178.09,103.19 -278.37,129.93 -62.35,16.62 -125.97,23.73 -176.9,-28.22 -48.47,-49.44 -16.86,-104.89 0.26,-153.2 111.41,-314.35 272.12,-604.21 453.45,-882.58 354.39,-544.04 749.85,-1053.98 1250.37,-1474.1 151.21,-126.92 304.93,-251.2 486.9,-333.55 33.79,-15.3 67.97,-30.44 103.25,-41.64 123.27,-39.16 177.78,3.65 172.59,143.23z"/>
   <path class="fil18" d="M4125.33 3160.62c-10.38,100.59 -46.66,199.97 -93.32,293.56 -257.66,516.87 -623.67,941.25 -1098.58,1270.78 -50.36,34.94 -105.52,61.15 -164.94,76.99 -36.95,9.84 -74.64,14.06 -104.82,-16.72 -28.72,-29.3 -9.99,-62.15 0.15,-90.77 66.02,-186.27 161.24,-358.02 268.68,-522.96 209.99,-322.36 444.31,-624.51 740.88,-873.44 89.59,-75.2 180.68,-148.84 288.5,-197.64 20.02,-9.06 40.28,-18.03 61.18,-24.67 73.04,-23.2 105.34,2.16 102.27,84.87z"/>
  </g>
 </g>
</svg>
