<?xml version="1.0" encoding="UTF-8"?>
<!DOCTYPE svg PUBLIC "-//W3C//DTD SVG 1.1//EN" "http://www.w3.org/Graphics/SVG/1.1/DTD/svg11.dtd">
<!-- Creator: CorelDRAW -->
<svg xmlns="http://www.w3.org/2000/svg" xml:space="preserve" width="1454.03mm" height="1077.51mm" version="1.1" style="shape-rendering:geometricPrecision; text-rendering:geometricPrecision; image-rendering:optimizeQuality; fill-rule:evenodd; clip-rule:evenodd"
viewBox="0 0 145399.7 107748.74"
 xmlns:xlink="http://www.w3.org/1999/xlink"
 xmlns:xodm="http://www.corel.com/coreldraw/odm/2003">
 <defs>
  <style type="text/css">
   <![CDATA[
    .fil0 {fill:url(#id0)}
   ]]>
  </style>
  <linearGradient id="id0" gradientUnits="userSpaceOnUse" x1="11583.2" y1="8773.73" x2="133511.59" y2="105403.71">
   <stop offset="0" style="stop-opacity:1; stop-color:#D33230"/>
   <stop offset="1" style="stop-opacity:1; stop-color:#FD8F04"/>
  </linearGradient>
 </defs>
 <g id="Layer_x0020_1">
  <metadata id="CorelCorpID_0Corel-Layer"/>
  <path class="fil0" d="M111416.05 89500.64c2383.81,-7946.83 5356.06,-12857.74 7407.34,-22401.84 107.31,-500 216.38,-1243.5 331.36,-1673.92l637.38 -1574.86c310.72,4683.32 -571.34,10258.13 -1572.5,14624.82 -1079.58,4710.44 -2646.79,8015.82 -3764.1,12074.15l7213.35 903.29c869.09,-9589.5 1198.1,-17993.88 1400.93,-27754.37 2071.31,3368.47 -53.07,20124.75 804.82,27069.82 1699.27,-1317.2 2819.54,-1650.33 5574.81,-2107.28 254.72,-2190.43 -2729.92,-12468.6 -3508.8,-15439.67 -1081.35,-4124.95 -774.75,-14469.16 -2239.36,-17158.4 -1368.5,1228.17 -571.34,2192.19 -515.33,6459.24 -1602.57,-4091.34 1583.12,-6038.84 -2979.32,-6199.21 -2805.98,5399.69 -478.18,10655.53 -6964.54,22520.35l-5698.63 755.89 -1971.67 5991.08c1542.43,734.65 1566.01,987.61 2962.81,2025.32 472.28,350.23 1083.12,800.7 1443.97,1052.47 1307.77,912.14 40.1,191.04 1437.49,833.13zm-4505.84 -33272.58c53.07,-1755.88 386.2,-719.92 -515.32,-1709.89l515.32 1709.89zm-51650.88 3180.98c-515.92,357.3 -451.65,-526.53 -1089.61,1563.65l1089.61 -1563.65 3058.33 -2983.46c1616.14,-446.34 -432.18,642.68 691.62,-232.3 712.25,-554.83 362.02,-274.76 705.17,-760.01 1791.85,-446.34 -161.55,397.99 776.53,-231.72 872.63,-586.08 418.03,-280.65 791.85,-732.3 1175.1,-242.91 659.18,6.49 1823.68,-637.37 29.48,-15.92 767.09,-500 891.5,-598.47 432.78,-343.74 620.28,-600.23 749.99,-734.66 2025.91,-440.44 3012.34,-1207.53 3569.53,-3006.44 475.82,-327.24 278.89,77.24 840.79,-658.01 382.07,-500.59 372.05,-641.5 616.75,-1277.7l5981.05 -6109c-2257.05,838.43 -4949.81,3937.45 -5981.05,6109 -696.93,369.1 -227.59,-268.27 -876.76,583.14 -395.04,517.09 -397.4,792.44 -580.78,1352.58l-3569.53 3006.44 -2713.42 1193.97c-79.01,63.68 -201.65,177.48 -270.04,238.2l-481.71 538.32c-1212.25,258.25 189.86,-454 -792.44,212.85 -808.95,549.53 -415.09,276.53 -775.94,751.17 -2574.26,658.01 -1027.11,410.96 -1396.8,992.32 -1558.94,770.63 -2381.45,1368.5 -3058.33,2983.46zm43514.19 12121.3l138.56 86.09 1591.96 40.09 -12.38 -1646.79 2117.9 1959.88 3559.51 -3489.94 -4783.55 -5073.05 -3594.3 3420.36 548.35 1041.27c-603.18,234.07 -942.21,300.7 -1487.61,642.67l-1334.89 1124.98c3405.03,-1002.94 2340.77,-1063.07 2822.49,-1767.66l1423.33 1257.64 -1554.22 1270.62c-1341.38,515.92 -2278.87,1189.26 -3660.92,1814.84 -684.54,309.55 -1181,487.62 -1813.66,738.79 -1023.57,406.24 -1170.97,408.01 -1940.42,1005.3 -3417.41,143.87 -5636.13,1276.51 -10051.16,1038.9 -4169.76,-224.64 -5935.66,-1646.2 -9016.99,-2098.44l-1790.08 -903.88c-395.63,-479.36 -127.35,-324.87 -798.33,-876.76 -86.09,-70.75 -806.6,-558.37 -900.94,-619.1 -692.2,-448.11 -1089.6,-672.74 -1919.19,-1044.8 -303.65,-899.16 371.46,-576.65 -1107.29,-984.66 -51.3,-104.95 -123.24,-394.45 -147.41,-318.98l-721.1 -1140.9c-1560.11,660.36 -1574.27,-114.39 -1146.8,1518.25l2015.31 -58.37c-1452.82,1531.82 -646.22,-60.14 -869.68,1965.18 2036.52,-60.73 814.25,515.92 1976.97,-980.53l336.67 1047.75c53.66,774.75 40.09,279.47 -183.96,1262.96 3646.76,779.47 -540.1,-1041.86 3465.75,229.94l-426.88 1421.57c573.7,232.89 137.39,495.87 1059.55,236.43 60.73,-17.1 1045.39,-679.24 1157.41,-754.12l862.61 1900.93c44.22,91.98 125,257.07 193.98,382.66 1753.52,-823.7 492.92,-749.4 2603.16,-602l641.49 1574.85 -12388.99 515.33c-658.6,-1006.48 -5240.51,-513.56 -6830.11,-559.55 -2532.98,-72.52 -5146.16,65.45 -7646.13,-274.17 80.19,-2555.39 1165.08,-4290.04 775.35,-6980.45l7456.27 -40774.84c5524.1,-426.88 3254.08,-416.86 4132.6,-1185.13l-13228.6 107.9c-694.57,6042.97 -4692.75,23165.4 -4463.99,26982.57 -866.73,1330.17 -796.56,2791.82 -1479.34,6520.56 -449.29,2451.03 -1071.92,5058.9 -1145.03,7607.8l455.18 -748.81c235.84,-649.75 2369.66,-10175.58 2169.19,-13379.55 975.82,-1564.83 4107.85,-22575.19 5098.41,-26368.18l7832.45 -1.18c-646.8,6278.22 -2379.09,13699.12 -3527.67,20319.32 -606.72,3495.24 -3676.25,18469.11 -3299.48,20919.55 -1104.94,1212.83 -568.99,63.68 -1210.48,3634.97 -321.34,1791.84 -711.67,2656.81 -256.48,4323.65l11468.01 120.28 23776.83 22.41 15073.51 629.71c2030.05,-103.18 1612.01,-363.2 1952.81,-636.79l-12933.81 -538.32 266.5 -1432.18c1845.5,708.72 259.43,363.79 2336.65,985.84l383.25 -2007.63c549.53,126.77 840.79,281.24 1072.51,379.12 1897.97,798.34 -1110.24,-115.57 1548.32,640.32l94.34 -1958.7c1694.56,287.73 589.03,12.38 2237.01,637.96l327.23 -1033.01c682.18,-1433.95 103.78,-904.47 2168.61,-22.41l531.83 -1068.38zm-27861.67 -39013.66c2526.5,-828.4 778.88,23 1510,-1272.97l-1510 1272.97zm-12556.44 30796.2l-1642.08 1113.78c2926.85,-770.62 983.48,-88.44 1642.08,-1113.78l6352.51 -3192.76 -3042.41 -367.33c-480.54,676.88 -975.82,1317.79 -1663.9,1905.05l-1646.2 1655.05zm3376.73 -5858.41c1506.46,-304.83 -128.54,401.52 814.84,-206.37 826.05,-532.43 435.73,-288.32 762.96,-711.67 2563.06,-639.72 3353.73,-1810.71 3922.12,-2572.49 902.12,-294.21 136.21,253.53 1116.73,-389.73 1231.71,-808.36 609.08,-497.05 972.87,-1045.39 1254.7,-691.62 1602.57,-1343.15 1975.21,-2935.11 1262.95,-573.7 4201.59,-4113.15 4519.99,-4986.96 -1874.4,1215.78 -3479.92,2716.95 -4519.99,4986.96 -1124.98,836.08 -1350.22,1578.99 -1975.21,2935.11 -769.44,300.7 -181.6,-158.02 -1045.98,408.01 -1193.97,781.83 -647.39,504.71 -1043.63,1027.11 -1234.65,360.26 -766.49,214.62 -1967.54,946.93 -451.05,275.34 -425.7,192.22 -920.98,568.98 -982.89,747.63 -715.2,660.36 -1033.6,1056.59 -1441.02,290.68 234.66,-445.75 -767.67,195.76 -836.67,535.37 -457.55,310.73 -810.13,722.28 -2441.01,475.82 -1050.7,320.16 -1642.08,1244.08l1642.08 -1244.08zm-13891.34 -10501.64c99.65,-55.42 283.61,-218.74 320.75,-117.92 31.84,85.49 235.25,-83.73 273.58,-97.29 32.43,-10.61 159.2,-33.61 227,-75.47 391.5,2816.58 800.69,2308.34 1632.64,4326.59 -794.8,413.32 1012.96,519.46 -917.44,272.99 -2.36,0 -1146.21,-408.6 -1168.03,-418.03 1086.07,2305.98 463.44,479.94 -1459.89,2794.77l3030.03 -1410.95c-715.2,2299.5 -871.45,1065.43 -2385.58,2710.46 -1071.32,2551.26 2392.66,2941.59 895.63,4971.63 -51.89,70.76 -143.28,211.68 -205.19,286.55 -863.2,1050.11 -1722.86,1353.17 -2798.31,1783.59l1420.98 228.77c54.24,5.89 227.58,35.37 271.81,40.68 44.81,5.31 187.5,22.41 274.16,57.19 -3215.75,1701.05 -612.02,3395.6 10.62,5440.97l-2124.39 1256.47c68.4,125 300.7,537.73 337.85,649.16l-48.94 570.16c3.54,-67.21 -92.57,189.86 -134.43,287.14l-1720.5 286.55c971.69,617.34 -606.72,781.24 935.13,347.87 687.49,-193.39 714.02,-564.85 785.37,-634.43l1330.76 49.53c-2437.47,5939.2 -1887.36,7988.7 4788.27,8117.24 -3146.78,2243.48 -1708.71,1155.64 -4094.88,1565.42 -2768.24,475.82 -514.14,-176.89 -1732.88,726.4 1984.05,165.1 2854.92,290.68 4622,-553.06 2317.78,-1107.29 988.19,-1081.35 3524.13,-422.75 761.78,1105.52 -1085.48,-166.28 1035.96,1064.25 2755.27,1597.85 5428.58,513.56 7581.86,-1080.17l1437.48 -969.33c2798.31,2369.07 3833.68,547.75 6499.92,-45.99l340.21 1053.05c12.97,39.51 85.5,314.27 94.93,252.95 10.02,-63.1 56.61,178.65 101.42,259.42 510.61,-792.44 -847.28,-612.61 981.71,-665.08 498.22,986.43 -194.58,200.47 627.35,960.49 144.46,133.84 734.07,459.9 946.93,562.49 2469.89,1193.38 4804.19,936.31 6473.98,-1153.87 -4061.27,1791.84 -4376.72,1608.47 -8048.25,-369.1 265.32,-1187.48 -390.32,-207.55 478.18,-900.93 3062.46,1040.08 2985.81,3459.27 6980.46,24.76 781.82,287.73 629.71,355.54 956.94,556.01 76.07,46.58 100.24,373.23 811.9,530.07 1063.66,234.07 36.56,92.57 1042.45,-338.44l691.61 -281.83c1617.9,1726.39 3813.04,1581.34 5494.04,-134.44 1726.98,414.5 785.95,-491.74 1459.3,664.5 -2272.97,1673.91 -2265.9,1793.61 -6030,1933.34 -155.07,-181.61 -215.2,-325.47 -772.98,-777.7 -1071.92,-869.1 1755.28,873.81 -833.13,-457.55 564.86,938.68 -722.86,881.48 1606.11,1235.25 1374.99,1261.18 2899.73,1117.32 4607.84,152.71 2709.88,-1531.22 3076.03,-1813.07 2956.33,-2630.27l1116.73 89.62c2356.69,3104.92 4316.58,107.9 7374.91,-139.15l-1751.75 2271.2c-33.6,-79.01 -142.1,181.02 -208.72,275.35 -3386.75,636.2 -2587.83,692.2 -5672.7,-673.34 14.74,20.64 331.36,1442.2 2683.93,1682.76 3110.23,318.39 2986.41,-1007.07 2988.77,-1009.42 772.98,-384.43 830.76,-607.31 1441.02,-1032.42 824.28,-574.29 69.57,-330.78 1166.25,-503.54 591.39,1650.92 -482.3,600.82 1069.56,1703.99 2291.84,-560.73 248.81,240.56 1287.72,-816.03 38.92,-39.5 66.63,-182.78 100.83,-219.92l316.62 -352.59c32.43,-30.66 240.56,-25.94 265.91,-147.99 27.71,-135.62 209.91,-79.6 307.78,-133.85 1727.57,-567.21 1093.73,-128.54 1806.58,-1311.3 -2341.35,-451.06 -9628.41,-608.49 -11723.31,4.71 -110.27,-64.86 -248.23,-161.56 -331.95,-191.62 -86.09,-30.67 -245.28,-133.26 -356.72,-165.1l-5873.16 -182.2c-5734.01,198.71 -16771.02,-956.36 -21691.94,51.3 -2298.91,-1730.52 -15353.58,666.26 -19085.84,-1668.61 -708.13,-3355.5 932.77,-5945.68 1281.23,-9486.91 996.45,-4210.44 6562.42,-35175.26 6493.44,-37772.52 -928.06,1558.35 -146.23,2282.4 -1445.16,4417.4 -3732.26,-1067.2 -2476.38,-3221.06 -1409.18,-6277.04l-579.59 613.2c-1169.8,1813.66 -1783.59,4733.44 1241.14,5848.99 -1454,1852.57 -5206.31,3755.84 -3918,6357.81 352.59,711.67 385.02,457.55 808.95,871.46 -1353.17,-3549.49 1107.29,-5473.4 3886.16,-6382.59 -157.43,3292.41 -579.01,938.08 -2024.74,3349.02 423.93,3104.91 1126.16,503.53 936.31,4212.79l-2484.05 -836.07 1502.34 1659.77 -1048.93 686.9c-1039.5,-264.74 -901.52,-590.8 -901.52,270.04 -1057.78,0 -104.37,-120.88 -237.61,770.62l-744.1 1680.4c-183.37,121.47 -714.02,-862.6 -883.24,1606.7 -182.2,2663.3 1042.44,1948.09 1239.96,2113.77l-356.72 -3720.47zm54899.67 693.39l-723.46 -1775.34c-47.17,1768.26 -642.08,914.5 723.46,1775.34zm36931.13 40143.36l-56.6 1255.88 -1259.42 -20.63 -1460.48 68.98 -133.85 2780.62 -2435.69 -503.53c-21.23,510.02 -1.18,1025.94 -107.9,1528.87 -215.8,1019.45 -307.19,722.86 -542.45,1044.21l-1853.76 -1580.75c-551.88,584.9 -686.9,-420.99 -1056,2676.85 -1415.67,-715.2 -988.79,-633.25 -2143.84,-1509.41 -472.88,685.72 -1011.79,1642.67 -1636.77,2719.31l-1785.95 -1508.82c-94.93,92.57 -236.43,201.06 -294.22,268.27l-1116.13 2071.32 -1549.51 -1783.59c-60.73,-65.45 -268.27,-73.11 -314.26,-253.53 -141.51,-560.14 -1674.51,1281.82 -2346.07,1953.98l-1386.19 -2623.2 -2700.45 1947.5 -745.86 -2601.98 -2888.52 2042.43 -389.73 -3089c-1195.15,521.81 -1044.22,627.36 -2274.74,1287.13l-270.63 -2550.67 -2715.18 284.19 -495.28 -2776.5 -3031.81 689.85 -193.98 -2407.4c-2817.77,-672.74 -2139.13,267.69 -2991.71,-1266.49 694.56,-522.99 44.81,-363.79 1249.39,-686.31l3158.58 -169.22 63.09 -1370.27c-4637.92,-1033.01 -23588.74,-321.34 -29685.95,-326.05l-27899.41 -19.46c-1188.07,271.81 -282.42,2.95 -958.12,574.29 668.61,1215.78 68.98,790.08 2354.91,818.38l48686.3 439.27 -272.4 1745.26 13866.56 9619.57 3734.63 806c2089,472.28 5761.12,859.07 7899.66,987.02 9671.45,577.24 21009.76,-7857.22 23707.83,-13045.23l-2607.28 -2315.43 -60.73 3585.46 -2994.66 -193.99 -65.45 1406.82zm-27414.16 -76217.2l-665.08 1104.35c2303.63,-230.54 296.57,115.56 1168.61,-696.34 1798.92,-1597.26 5932.71,-4452.77 5257.61,-8244.59 -3745.83,-725.81 -5397.34,4728.72 -5761.13,7836.58zm-32001.37 41409.86l-968.74 372.64 -882.65 -234.67 299.52 -2827.79 -275.35 -7.07c-3421.54,1240.55 -5259.37,716.97 -7184.46,2706.34 -982.3,296.57 -870.86,182.19 -1004.71,1506.46 -12.38,120.28 33.02,799.51 51.89,923.93 286.55,1839.6 181.61,652.1 449.29,1041.85 1030.65,5111.37 6546.5,2123.79 7620.18,1004.71 1450.46,-115.57 2032.99,-502.95 3693.35,-787.73 1737.6,-297.75 2277.1,-25.94 3653.25,-1260.59 1863.78,-313.09 4708.08,128.53 5952.17,-1533.59 793.03,-1059.54 383.25,-1590.19 1281.23,-2709.87 1402.11,-1745.86 1244.09,148.58 1251.16,-2813.05l-2363.17 1702.8c-1566.6,-386.78 -2304.81,-2080.16 -5166.8,316.62 -2859.63,2395.02 -2289.48,1099.04 -4758.2,2450.44l-1647.97 148.59zm508.84 -20089.96c-433.37,-533.02 1165.08,-458.72 -684.54,-619.69 -1179.82,-102.6 -146.81,-127.95 -860.84,323.69l1545.38 295.99zm-6985.76 -374.99c1878.51,-487.03 1186.89,-550.71 1712.24,-1178.05 -1726.99,609.07 -150.95,-201.07 -905.06,360.25 -749.99,558.37 -473.46,387.96 -807.18,817.8l-1915.66 1501.15c1459.3,-476.41 577.83,254.12 1371.45,-532.42 739.37,-732.89 163.91,-86.68 544.22,-968.74zm-27983.14 24913.59c449.88,2474.03 350.82,1184.54 1203.99,1772.98 -66.04,-152.13 -150.35,-550.12 -198.11,-456.37 -45.99,89.04 -152.72,-335.49 -214.62,-422.16 -399.17,-556.6 -571.34,-678.05 -791.26,-894.45 145.05,-2189.24 -53.07,-1712.83 731.12,-3555.97 -258.25,216.97 -943.39,-33.61 -1235.24,1693.37 -359.67,2129.1 492.92,1849.04 504.12,1862.6zm-19677.23 29961.89l-228.18 -923.93 -291.85 -2755.27 -920.4 -349.05 314.27 2979.32 -37.15 749.4 1163.31 299.52zm-5723.4 -38401.05c390.91,291.27 -1148.57,1414.49 1160.95,0 -64.86,-43.04 1060.72,-1406.82 -1160.95,0zm54841.88 22925.42l-2581.93 -1205.17c403.89,509.43 84.32,553.06 922.16,924.52 1232.89,546.57 781.83,233.48 1659.77,280.65 165.09,133.84 208.73,350.23 949.28,653.88 148,60.73 1092.55,311.9 1172.15,329.59 2600.8,587.85 5599.58,587.85 8063.58,264.14 2897.96,-380.89 7741.06,-1335.48 9531.14,-3481.09 -3407.98,995.28 -5403.83,2124.39 -9208.61,2739.36 -5170.93,836.07 -6172.09,-434.55 -10507.53,-505.89zm-54175.03 -26419.48l1823.09 214.03c-431.01,-538.92 396.22,-801.29 -962.84,-676.88 -1814.84,166.87 -271.81,-21.23 -860.25,462.85zm82481.27 12291.12c637.96,-125.6 116.16,270.63 617.33,-346.11 51.3,-63.09 165.1,-220.51 216.98,-291.26l441.03 -789.5c-2.36,1.18 -1927.45,481.72 -1275.34,1426.88zm-73194.24 -7355.46c711.66,-868.5 591.98,1570.74 380.89,-552.47 -99.65,-1002.94 132.66,-173.35 -380.89,-823.69 -545.4,675.69 -1449.87,135.61 0,1376.16zm-3360.81 -4436.85c2077.8,1622.02 1489.37,5.3 1497.62,0 -933.36,-486.44 -855.53,-400.94 -1497.62,0zm78362.23 4578.94c-52.56,-118.37 -88.13,-210.16 -111.79,-282.2 -149.27,-454.65 177.81,-120.15 -264.78,-668.47 -39.65,-49.12 -85.27,-105.09 -138.17,-169.59 -976.41,-1189.84 -362.61,-455.18 -1362.6,-1074.86 655.05,1028.29 -138.57,100.82 693.38,1100.21 72.52,87.86 172.76,219.93 254.12,308.96l597.87 537.73c70.76,64.86 222.87,163.33 331.96,248.22zm-35127.51 -13102.42l1737.01 -3120.25c-616.74,509.43 -465.21,-53.66 -1189.84,1190.43 -349.05,598.46 -400.94,1148.57 -547.17,1929.81zm9479.25 -3132.04c-1133.83,-1321.92 1136.18,-663.31 -1801.87,-1224.04 669.21,1441.61 -20.04,615.56 1801.87,1224.04zm27572.76 20447.85c599.65,596.7 -572.51,760.01 682.19,448.7 708.71,-2551.26 -126.77,-245.27 893.85,-1282.41 -616.74,-487.62 900.35,-685.72 -985.84,-297.75 -167.45,2133.81 103.78,391.5 -590.21,1131.46zm-83914.63 -4719.87c283.02,-374.99 1496.44,260.61 0,-1399.16 -1399.75,1619.08 -422.75,1012.97 0,1399.16zm2496.43 -43.63c419.22,-528.89 1495.85,1358.48 0,-1230.53 -29.48,41.28 -2104.33,-285.37 0,1230.53zm43421.04 -14256.3l1721.67 -2978.15c-765.9,557.78 -1050.69,-472.87 -1721.67,2978.15zm-40925.2 14594.16c1164.49,-1619.67 221.1,-1060.73 0,-1441.62 -104.95,120.29 -1963.41,31.84 0,1441.62zm51181.56 -21634.75c1248.21,-646.8 431.01,179.25 1181.58,-711.07 481.13,-570.75 487.62,-860.25 810.13,-1695.74 -716.97,591.98 -397.99,149.77 -1030.65,913.32 -374.4,452.23 -597.87,885.6 -961.07,1493.49zm-77086.89 12036.41c-419.81,-1722.27 532.43,-1379.12 -1327.23,-1544.2 501.77,2084.29 -76.65,734.65 1327.23,1544.2zm82618.66 -3735.8c-224.64,-701.05 1172.15,-470.52 -802.47,-600.24l-537.73 2675.68c587.85,-311.31 431.6,-1277.7 1340.2,-2075.44 1944.54,3062.46 2916.23,527.7 1979.33,6698.61 683.95,-741.14 531.84,1031.83 1109.06,-1889.13 419.22,-2119.67 -663.31,-4108.43 -3088.4,-4809.49zm-83691.76 471.69c-366.73,-2813.05 -44.22,-961.67 -1374.39,-1735.24 760.01,2007.05 -538.32,1018.27 1374.39,1735.24zm116984.38 -17931.97c-308.36,-1267.08 -297.75,-928.65 -810.13,-1626.75 -728.76,671.57 447.52,296.58 -1610.24,522.41 750.58,1610.23 -134.43,357.3 472.29,577.82 -729.35,1518.26 -409.19,1360.84 -195.17,2932.75 1683.35,-198.12 1311.89,-73.71 2491.12,-441.63l-347.87 -1964.59zm4972.81 5257.6l2720.49 -706.35c-434.55,-107.32 -932.77,-251.76 -1395.62,-219.33 -3247.01,226.99 -1006.48,495.27 -1324.87,925.69zm-54525.85 43688.13c59.56,99.06 148.59,143.87 181.61,295.39 178.07,817.8 2376.15,1630.88 3017.06,1844.91l-1573.68 -1416.26c-495.28,-316.62 -1021.81,-504.71 -1624.98,-724.04 -457.54,-1100.22 640.91,-50.12 -1091.96,-1531.82 -410.96,-352 -833.12,-544.8 -1224.04,-812.49 175.71,1423.93 821.93,1728.76 2316.01,2344.31zm-64634.2 -19489.73c-568.99,-1559.53 -436.32,-1422.15 -1781.82,-2025.33 590.79,2224.63 120.28,1293.62 1781.82,2025.33zm77678.85 -18401.89c-706.95,-570.16 -414.5,450.46 -676.88,-1235.25l-1726.39 1936.88c403.3,-25.35 490.56,64.86 1028.88,-83.72l1374.4 -617.92zm-3301.26 -3856.68c1370.86,-837.25 345.52,715.2 1382.66,-1154.46 613.2,-1104.94 232.89,-1063.66 152.71,-1903.28l-1535.36 3057.74zm46779.49 -12289.94l-3107.87 -474.64c133.85,318.39 1228.76,1238.19 1984.64,1163.31 1446.33,-143.87 277.71,93.16 1123.22,-688.67zm-53572.44 26208.99c966.97,196.93 760.01,452.82 1722.27,70.16 2083.11,-828.41 1100.21,-762.37 1666.84,-1446.33l-3389.11 1376.17zm4280.61 -9450.36c3289.46,-1167.44 2727.56,-1409.77 3352.55,-2488.17 -746.45,410.96 -1271.21,681 -1801.28,1058.95l-1551.27 1429.23zm-69207.86 20696.67c-596.1,-1817.19 -718.73,-1767.08 -2218.72,-2419.19 625,1623.8 881.48,1939.83 2218.72,2419.19zm-4954.53 -5496.39c-238.2,-2175.09 132.08,-1945.73 -1759.41,-1737.6 452.82,1479.94 283.6,1335.48 1759.41,1737.6zm39540.78 38062.6c-0.22,-1.73 -0.41,-3.38 -0.63,-5.11m-1210.44 -2352.75c-112.03,2873.78 -237.61,2031.22 1211.07,2357.86l110.85 588.44c1416.26,-769.44 2323.67,-1078.99 3126.14,-2147.96 -722.87,-1139.73 -1020.63,-1360.84 -1620.85,-2144.44 -2225.21,438.68 -1587.24,867.33 -3314.22,1164.49l487.02 181.61zm4336.03 -13973.29c-1057.19,-2702.21 -1018.27,-2244.08 64.27,-4836.03 -906.83,666.85 -469.33,-155.66 -1058.95,882.66l-241.74 2653.27c926.87,2344.3 -38.92,354.94 1236.42,1300.1zm-19298.7 -55443.29c91.98,70.75 47.17,863.19 1056.6,284.78 1645.61,-943.39 218.15,1383.24 557.19,-957.54 1338.42,-242.33 3224.01,-1603.16 4466.33,-2538.29 83.72,-63.09 228.17,-204.6 295.98,-257.66 68.99,-54.84 201.65,-175.71 301.29,-264.73 -1724.63,-335.49 -2767.65,-155.67 -4354.31,1275.92 -1085.48,979.95 -813.67,221.1 -709.3,1784.77l-541.27 -995.86c2007.63,-1752.93 1766.49,-925.7 2724.61,-2848.43 -1404.11,1011.46 -2371.09,1823.61 -3209.8,2824.11m-475.23 605.51l-112.09 1087.42 118.52 -1149.75c0,-862.61 -159.79,-518.86 954,-518.86m-9996.92 70845.8c-1060.73,-841.97 -1378.53,-582.55 -2989.35,-501.77l-2444.55 -308.95c-1285.36,-882.07 -903.29,-853.76 -2508.22,-1257.06l-1340.2 2106.69c892.09,1336.66 1780.06,2422.73 3725.78,2952.21l122.64 -2872.02c3333.1,460.49 -56.01,1150.93 1076.05,3217.53 550.11,1004.71 2929.2,661.54 4130.25,772.98 -93.75,-1972.85 -303.65,-2335.47 982.3,-3445.71 0,-889.14 203.42,-620.28 -754.7,-663.9zm104350.69 -34882.82c1908,80.78 3800.66,-557.78 4827.77,-1867.9 -1326.63,28.89 -4167.4,1308.94 -4827.77,1867.9 -1675.69,-306.59 -3014.11,-113.8 -4535.32,-429.83 -1529.46,-317.8 -2411.52,-833.71 -3927.43,-1209.89 1599.04,1814.84 5050.65,2606.69 7487.52,2101.39 854.36,-177.48 917.45,-416.27 975.23,-461.67zm-45126.2 -10311.19c-384.43,-2250.57 -193.4,-1813.07 244.68,-3701.01 -841.38,430.42 -1191.61,-217.57 -1426.28,1630.28 -255.89,2016.48 1116.73,2015.89 1181.59,2070.73zm-2419.19 -5928.58c1735.24,-817.8 4228.72,-2303.63 5314.79,-3988.16 -1807.18,998.81 -4007.62,2231.69 -5314.79,3988.16zm8442.7 -2044.2c-1150.93,-300.11 -892.09,-418.62 -391.51,653.88m676.88 1235.25l1301.28 -182.2 -386.2 3418.59c1504.89,-1051.98 1407.01,-3706.68 403.42,-5565.43m52.36 -265.86l-166.23 65.08c-241.7,-406.49 -528.29,-767.94 -852.04,-1056.23l-637.96 1696.91m-49896.19 57808.24c783.6,-543.63 1408,1189.25 1081.94,-1609.06 -311.07,-2672.95 -386.7,-895.02 -1267.36,-1502.73 -0.7,-0.48 -1.38,-0.88 -2.08,-1.37l187.5 3113.17zm-1846.03 -3055.13c-0.82,0.83 -1.62,1.63 -2.43,2.45 0.81,-0.82 1.61,-1.62 2.43,-2.45zm-27.75 26.65c-0.77,0.69 -1.53,1.4 -2.3,2.09 0.77,-0.69 1.53,-1.4 2.3,-2.09zm-54.5 42.75c-0.68,0.45 -1.35,0.88 -2.03,1.33 0.68,-0.45 1.35,-0.88 2.03,-1.33zm-25.8 15.66c-0.65,0.36 -1.3,0.73 -1.95,1.08 0.65,-0.35 1.3,-0.72 1.95,-1.08zm-50.53 22.01c-0.57,0.18 -1.13,0.35 -1.69,0.52 0.56,-0.17 1.12,-0.34 1.69,-0.52zm-70.57 10.95c-0.44,0 -0.87,-0.02 -1.31,-0.03 0.44,0.01 0.87,0.03 1.31,0.03zm-304.2 -211.28c-1.95,-2.25 -3.88,-4.49 -5.78,-6.67 1.9,2.19 3.83,4.41 5.78,6.67zm-12.47 -14.29c-1.59,-1.79 -3.17,-3.57 -4.73,-5.3 -2.25,-2.5 -4.46,-4.92 -6.64,-7.27 -1.43,-1.54 -2.85,-3.06 -4.25,-4.53 -2.16,-2.27 -4.28,-4.46 -6.36,-6.55 -1.42,-1.43 -2.83,-2.82 -4.21,-4.16 -1.98,-1.92 -3.93,-3.75 -5.84,-5.48 -1.4,-1.27 -2.78,-2.48 -4.15,-3.64 -1.79,-1.53 -3.56,-2.98 -5.3,-4.32 -1.37,-1.07 -2.72,-2.07 -4.06,-3.01 -1.67,-1.17 -3.31,-2.25 -4.93,-3.23 -1.3,-0.79 -2.59,-1.51 -3.85,-2.16 -1.57,-0.81 -3.11,-1.52 -4.63,-2.11 -1.21,-0.47 -2.4,-0.86 -3.58,-1.19 -1.51,-0.42 -3,-0.73 -4.46,-0.9 -1.09,-0.13 -2.15,-0.17 -3.21,-0.15 -1.41,0.02 -2.8,0.17 -4.16,0.46 -1.01,0.22 -2,0.52 -2.98,0.9 -1.32,0.5 -2.62,1.15 -3.89,1.95 -0.92,0.58 -1.81,1.23 -2.69,1.96 -1.27,1.05 -2.5,2.26 -3.7,3.64 -0.81,0.93 -1.61,1.93 -2.4,3.02 -1.19,1.65 -2.35,3.5 -3.48,5.52 -0.71,1.28 -1.42,2.62 -2.1,4.05 -1.13,2.34 -2.23,4.91 -3.29,7.67 -0.61,1.59 -1.22,3.24 -1.81,4.98 -1.05,3.11 -2.07,6.47 -3.06,10.04 -0.52,1.92 -1.05,3.89 -1.56,5.95 -0.98,3.96 -1.91,8.2 -2.82,12.68 -0.44,2.19 -0.87,4.43 -1.3,6.75 -96.35,-1.88 -192.45,-4.27 -288.19,-7.34 -90.8,-2.95 -1971.08,-76.65 -2046.55,-70.75 -1120.86,90.8 -839.61,198.11 -1234.06,396.81m520.04 3679.19c1031.24,91.4 5120.81,418.04 5545.33,-334.31l4.72 -516.5m-187.5 -3113.17c-710.93,-34.73 -1455.68,-20.62 -2188.92,-31.78l0.3 0.35m-125.19 -2.42c-0.89,4.86 -1.73,10.03 -2.55,15.48 0.82,-5.45 1.66,-10.62 2.55,-15.48zm-3.7 23.61c-0.77,5.68 -1.5,11.64 -2.19,17.9 0.69,-6.26 1.42,-12.22 2.19,-17.9zm-3.16 27.11c-0.66,6.61 -1.29,13.52 -1.88,20.75 0.59,-7.23 1.21,-14.14 1.88,-20.75zm-2.7 31.37c-0.56,7.54 -1.07,15.41 -1.55,23.6 0.48,-8.19 0.99,-16.06 1.55,-23.6zm-2.24 35.92c-0.44,8.43 -0.84,17.19 -1.21,26.28 0.37,-9.09 0.77,-17.85 1.21,-26.28zm-1.73 39.86c-0.34,9.63 -0.64,19.63 -0.91,29.98 0.27,-10.35 0.57,-20.35 0.91,-29.98zm-1.26 44.25c-0.24,11.1 -0.45,22.61 -0.62,34.53 0.17,-11.92 0.38,-23.43 0.62,-34.53zm-0.8 48.99c-0.14,12.66 -0.24,25.75 -0.3,39.31 0.06,-13.56 0.16,-26.66 0.3,-39.31zm-0.35 53.79c-0.03,14.23 -0.02,28.94 0.04,44.15 -0.06,-15.22 -0.07,-29.92 -0.04,-44.15zm0.11 59.49c0.08,16.27 0.21,33.05 0.39,50.46 -0.18,-17.4 -0.31,-34.19 -0.39,-50.46zm0.55 64.1c0.21,18.07 0.46,36.66 0.76,55.92 -0.3,-19.26 -0.55,-37.86 -0.76,-55.92zm0.99 69.62c0.33,19.63 0.7,39.84 1.12,60.72 -0.42,-20.89 -0.79,-41.09 -1.12,-60.72zm1.43 75.63c0.46,21.46 0.96,43.55 1.51,66.34 -0.55,-22.79 -1.05,-44.88 -1.51,-66.34zm1.88 81.34c0.58,23.41 1.2,47.5 1.88,72.31 -0.67,-24.81 -1.3,-48.9 -1.88,-72.31zm2.28 86.65c0.71,25.47 1.47,51.7 2.28,78.65 -0.81,-26.96 -1.57,-53.18 -2.28,-78.65zm2.74 93.85c0.87,28.52 1.79,57.86 2.77,88.08 -0.98,-30.19 -1.9,-59.57 -2.77,-88.08zm3.05 96.79c1.04,31.9 2.14,64.79 3.3,98.6 -1.16,-33.81 -2.26,-66.69 -3.3,-98.6zm3.55 105.95c1.19,34.67 2.45,70.4 3.77,107.12 -1.32,-36.72 -2.58,-72.45 -3.77,-107.12zm3.99 113.23c1.35,37.61 2.77,76.33 4.25,116.13 -1.48,-39.8 -2.9,-78.52 -4.25,-116.13zm4.37 119.28c1.51,40.8 3.1,82.78 4.75,125.94 -1.65,-43.15 -3.24,-85.14 -4.75,-125.94zm4.89 129.59c1.65,42.92 3.35,86.95 5.13,132.26 -1.77,-45.28 -3.48,-89.37 -5.13,-132.26zm24 -76626.8l5030.59 -2988.17c-1344.91,-877.94 -1902.69,-277.7 -3749.36,1482.89l-1281.23 1505.28zm24996.14 56242.22l4119.05 -3379.67c1386.78,-1425.7 570.75,-492.92 1219.32,-1907.41 -1747.62,1252.34 -4822.46,3514.11 -5338.37,5287.08zm29019.69 -36382.79c-427.47,2127.33 -94.93,1475.81 -1370.86,2594.9m-57098.93 -8091.29c-218.15,-2785.93 491.74,-1575.45 1985.82,-987.61 1274.16,1153.87 1336.66,912.13 3289.46,1158.59l-953.41 1993.48c838.43,-476.99 887.37,-2.94 1724.04,-1964l3124.96 -111.44c1356.12,-6341.31 1583.11,-3402.67 2170.96,-5078.94 5.9,-1472.87 -130.3,-3642.64 -23.58,-5015.27 195.17,-2518.24 859.07,-1490.54 1068.38,-4591.33 -120.29,114.39 -279.48,134.43 -329.6,373.81 -48.93,229.95 -235.25,278.89 -299.52,373.23l-819.56 1264.13c-1382.06,1281.83 -5019.39,1211.07 -6701.57,3597.25 -2135.58,742.91 -4525.29,2443.95 -3762.33,5753.46l-220.51 857.89c-219.33,-140.92 -306.01,-423.93 -336.08,-353.18l-1170.97 -1742.31c-87.86,-109.67 -235.25,-256.48 -359.67,-377.94 217.57,890.32 425.12,1803.63 637.38,2635.58l198.12 772.98c192.81,701.05 174.53,635.61 363.2,1208.71 -958.13,1126.75 -1429.82,1622.03 -1844.91,3044.78 6961.59,673.33 6109.6,2634.4 11787.59,8280.56 -237.61,-5641.44 -6782.94,-10331.24 -9528.19,-11092.43zm-11651.98 46139.15c-387.38,-1518.84 -1880.29,-7127.85 -2897.96,-8291.75 265.33,2300.68 1160.36,6636.11 2897.96,8291.75zm11173.21 2748.2c-764.73,-1759.41 -3295.95,-4700.41 -5232.84,-4874.35 1060.72,1318.38 3563.05,4236.38 5232.84,4874.35zm38778.99 8715.11c703.41,1074.86 -694.56,446.34 1520.03,1636.18 552.47,297.16 1280.64,400.94 1926.86,457.54 3547.71,308.96 3420.35,-1535.35 3477.55,-1616.13 -3708.09,1360.24 -3493.47,1188.66 -6924.45,-477.59zm72630.57 6801.8c1018.27,-518.27 4968.1,-3988.75 5456.3,-5413.25 -1886.77,892.67 -5011.14,3520.59 -5456.3,5413.25 -1722.85,864.38 -1060.72,1160.95 -3403.26,2065.42 -6068.32,2343.13 -6943.31,3159.16 -12485.69,2719.31 -8659.68,-687.49 -6748.15,768.86 -12130.74,-3229.32 -1016.5,-754.7 -1849.04,-1449.87 -2997.6,-1936.88 421.57,1060.13 -112.03,580.78 1269.44,1664.48 6088.96,4774.71 5101.35,3585.46 14787.55,4342.52 4590.74,359.08 4420.93,-219.33 8423.24,-1655.64 1395.62,-500.58 4701,-1416.84 5691.56,-2335.47 1596.67,-1480.53 472.87,-171.58 845.5,-1634.41zm-21405.39 -14723.28c-4205.13,337.26 -4232.26,-77.83 -7809.46,-906.83 334.9,379.71 -28.3,1054.24 3293.59,1609.06 631.48,105.54 1877.93,283.6 2487.59,224.05 2932.74,-284.78 1389.72,-341.38 2028.27,-926.29zm-31185.34 -21341.71c882.06,-646.22 333.72,-169.23 1083.71,-924.52 572.52,-576.65 1142.08,-1517.67 2657.98,-1857.29 2323.09,-520.63 3453.97,602 4821.29,-13.56 -4001.72,-2012.95 -7167.95,-400.35 -8562.98,2795.36zm-51910.31 -3014.11c-1353.77,-981.13 -8041.77,-903.89 -10322.99,-943.98 754.11,708.71 -964.03,538.91 1987,847.87l8335.98 96.11zm13842.98 32421.76c-84.91,-148.59 -206.37,-538.32 -260.02,-443.39 -51.3,90.8 -186.91,-319.57 -257.07,-415.09 -1888.54,-2562.47 -2708.11,-2850.2 -890.32,-7800.61 -393.86,286.55 -1176.87,260.01 -1606.11,2084.29 -172.76,732.29 -107.31,1785.94 -2.95,2532.39 346.11,2476.97 1190.43,3150.91 3016.48,4042.4zm-20493.26 -69464.93c-748.21,146.65 -951.95,-10.25 -1070.52,-57.56 1640.1,-3624.74 5594.08,-6044.93 7295.09,-8586.2 -3030.62,-316.04 -4744.63,3107.27 -7333.05,6967.48 -1212.24,1808.94 -5364.31,6882.58 -5268.21,8571.83l2700.44 493.51c1671.56,-1418.03 2116.13,-3146.19 3613.76,-4834.85 914.49,-486.43 475.23,639.73 772.98,-644.44m112.09 -1087.42c-127.52,173.29 -253.3,353.2 -378.59,541.44 -777.11,-828.41 -285.37,258.84 -443.98,-1363.78l604.95 -525.35c47.76,-54.25 149.76,-189.86 203.42,-254.12 2341.36,-2785.34 3508.21,-3300.66 6636.7,-5314.79l1400.34 -1155.05c-3137.93,-1957.52 -8423.24,6400.27 -8845.4,7249.32m106177.31 22317.53c131.49,-2578.39 -1867.31,-3022.96 -4227.54,-3705.73 257.07,2578.98 1933.94,2894.42 4227.54,3705.73zm-127891.66 2881.45c370.86,318.39 165.68,293.62 927.46,685.71 330.78,170.41 705.77,268.87 1054.24,402.71l-693.38 2945.72 2301.27 -892.09c-880.89,-1721.68 -860.25,-2708.7 -1515.9,-4582.49 -1633.82,333.13 -1418.61,-12.97 -2073.67,1440.44zm119039.18 -1640.31c884.42,-464.03 1097.86,-708.72 1937.47,-1201.05 -612.61,-3030.62 -2319.55,-4480.48 -4873.17,-5460.42 1550.09,1196.92 3264.69,3338.4 2935.69,6661.47zm-61653.11 44592.6c-1817.79,1239.95 -4020.59,1920.37 -5394.39,-130.31l5394.39 130.31zm-46033.03 -22069.89l6473.38 -2167.43 -5169.15 -1115.55 -1304.23 3282.98zm95797.14 -44156.28c880.3,-1731.11 1395.62,-2456.93 1290.67,-5211.02 -2033.58,918.03 -4642.63,3228.13 -1290.67,5211.02zm-50774.13 61225.64l5434.48 -829.59 -3137.93 -2959.28 -2296.56 3788.87zm-37446.46 5558.89c67.22,-1430.41 -705.18,-197.52 511.79,-2101.97 337.84,-528.89 202.83,-95.52 474.05,-920.98 -1813.66,252.94 -972.28,430.41 -2748.79,1570.73 -1493.49,958.71 -1653.87,288.32 -1542.43,2814.23l2923.31 286.55 382.07 -1648.57zm52305.94 -74461.32c587.86,1352.57 2462.24,796.57 4219.88,790.67 5130.83,-17.1 3787.1,394.45 4629.07,-790.67 -1810.12,-655.65 -7388.47,-1180.41 -8848.95,0zm12289.35 70553.94c-760.6,1173.92 322.52,374.41 -834.89,395.63 -500.59,8.85 -371.46,-6.48 -364.97,-547.75l1199.86 152.12zm-14069.98 -68556.92c602,466.39 100.23,567.8 2471.66,630.3l10351.88 -168.63c-1577.22,-1656.82 -11541.72,-1068.38 -12823.54,-461.67zm3241.11 -3294.18l6094.85 165.1c-502.94,-1104.35 -600.82,-969.33 -1334.3,-1833.12l-1999.97 -2096.67c-1070.74,991.74 -2717.54,2313.07 -2760.58,3764.69zm38872.15 20533.94c4670.34,350.82 6619.02,658.6 9219.81,3529.44 -806,-3540.64 -4959.84,-4783.55 -8927.95,-5698.63l-291.86 2169.19zm12657.86 27877.6c-8016.41,2537.11 -7862.52,2582.51 -15887.78,417.44 297.17,790.09 -1020.62,891.5 3178.62,1840.79 2966.36,670.39 5776.46,654.46 8711.57,-63.09 2366.13,-578.42 2775.32,-793.62 3997.6,-2195.14zm-34105.12 -27485.5l3302.44 402.7c1333.12,-21.22 2663.88,-68.98 3998.77,-84.9 2136.77,-25.95 5425.05,360.84 6916.19,-495.28 -3109.63,-1408.59 -8795.88,-186.91 -12670.83,-744.68 -1600.21,-2931.57 -1992.9,-3507.04 -4934.49,-5036.49 -1912.71,-994.1 -3514.69,-859.07 -4673.28,-2784.16 -48.35,-80.78 -397.41,-841.38 -492.92,-1015.91 -662.73,-1209.89 -231.72,-457.54 -618.52,-992.92l-11482.16 -41.86 -1032.42 1671.56c-1432.18,2593.13 -1997.62,1289.49 -4680.96,2731.69 -2238.18,1202.81 -3580.15,2887.34 -4784.14,5638.49 -4495.81,-83.73 -11460.35,-902.7 -12878.38,1185.72l13851.24 -209.91c4035.33,-8237.52 6757.58,-3566 10523.45,-9377.83l10420.26 -165.1 708.13 3019.42c4722.82,406.24 7142.6,2634.4 8527.6,6299.45zm37730.66 76875.8c1978.74,42.45 2212.24,-218.16 3889.1,-886.78l297.75 -3712.81 -3955.73 1688.66c-583.72,372.63 -577.23,458.13 -896.21,757.06l665.08 2153.87zm-126712.44 -76494.91c891.5,344.92 10102.47,294.21 11371.91,-540.68 -1553.04,-1215.2 -5011.73,-465.8 -6965.72,-582.54 -2609.05,-156.26 -3986.98,-2035.94 -4406.2,1123.21zm111705.55 19387.13c-1243.5,-1703.99 -1849.04,-2376.73 -3013.53,-4866.69 -1513.53,-3235.8 -898.57,-3982.85 -2654.45,-5930.93 150.95,3657.96 1233.48,10630.76 5667.98,10797.62zm-86493.76 38936.18l0.02 -0.09c0.42,-2.32 0.86,-4.56 1.3,-6.75m108.14 -8.82c2.2,2.49 4.43,5.03 6.69,7.62m5.78 6.67l2.96 3.44m-1937.8 -23.06c125,165.1 666.26,-556.01 780.06,1576.04 176.3,3294.18 27.71,722.28 -780.06,1523.56 -1433.36,-3274.72 -54.83,-3007.63 0,-3099.61zm71791.55 12543.47c1570.14,1452.23 1570.14,1863.78 3797.12,2578.98 916.26,-1604.34 1294.2,-1418.62 2272.38,-2578.98 -1334.89,-1498.21 -2091.36,-2171.55 -4105.49,-3059.51l-1964 3059.51zm-17858.86 -55396.12l-2001.74 -521.81c696.92,-640.32 -200.47,32.43 890.32,-704.59 323.11,-218.74 267.09,-86.09 800.11,-500.58l311.31 1726.98zm656.83 949.28c-1152.7,-426.29 -974.05,847.28 -656.83,-949.28 1038.32,-1237.6 1532.41,-5118.45 1478.17,-6662.06 -1425.1,-164.51 -11.79,253.53 -1662.71,-737.02 -76.65,-45.4 -218.15,-165.09 -337.85,-229.94 395.63,1423.92 2558.93,2130.87 651.52,4739.33 -1004.12,1373.21 -212.27,538.91 -1645.61,1007.65l0 -1560.7c-2471.08,67.21 -1425.11,438.67 -2096.08,1303.63l-2224.62 1687.48c3511.16,-17.1 2499.96,-763.55 4917.97,1606.7l-2091.95 -91.39c0.36,7.4 0.73,14.5 1.09,21.8m-46613.12 45451.68c4001.13,-1017.09 7189.77,66.63 9861.91,-1972.26m-1808.94 -3127.91c-3026.69,1167.81 -10113.8,750.99 -15502.02,586.47m-572.67 687.1c-9.44,166.28 -3.54,1597.27 -28.31,1716.96 -316.03,1504.69 50.71,655.06 -752.34,1391.5l-737.61 -3090.77 1518.26 -17.69zm-2307.17 -520.04c221.69,1824.27 651.52,2100.8 -288.91,3534.74 -875.58,-1304.81 -591.39,-1463.42 -964.02,-3438.63l1252.93 -96.11zm-1466.38 -192.81l-549.52 419.22c-187.5,1790.07 -41.87,1869.67 -950.47,2961.04 -989.96,-1715.19 357.9,-2057.75 -499.4,-3415.05 -637.38,776.52 -118.52,-181.01 -588.44,984.07l-1141.49 3091.36 8815.92 533.6m-12149.02 -14088.27c-716.38,1124.4 -2275.33,3817.76 -2795.95,4981.66l4624.94 1895.03c1166.26,-751.76 1024.76,-291.27 1951.04,-2435.11 -974.05,-1198.69 -2903.86,-3753.49 -3780.03,-4441.58zm3823.07 22734.39l-6857.82 -1396.8c-538.32,1223.45 -956.94,1646.2 -1302.46,3090.18 1896.21,1153.87 2241.13,1390.9 5023.52,1946.9l3136.76 -3640.28zm-14440.27 -52473.99l2139.13 16.51 -231.72 2766.47c4989.91,485.26 -900.34,1618.49 3925.07,1939.24l237.61 2342.54 2699.85 -2180.4c-1927.44,-1827.22 -3865.51,-3840.75 -4855.48,-6722.2l-3914.46 1837.83zm118563.96 -30665.89c2109.05,-1004.7 3292.4,-1902.1 6021.74,-2163.88 -160.97,5777.04 565.44,8038.81 -3022.37,8940.33l660.36 2576.62 -4163.27 94.34c1425.7,1219.91 2532.99,881.48 4542.39,528.3l230.54 -2533.58c1655.64,-1017.68 591.98,-749.99 2202.21,-2023.55l933.96 -622.64c-1170.98,-1374.99 -1067.79,-3189.23 -966.38,-5391.44 174.52,-3782.97 2162.7,-1849.04 252.94,-4698.05 -2004.69,161.55 -5834.24,4096.05 -6692.13,5293.56zm-80419.39 88544.29c2142.07,-456.36 2416.24,-1010.6 4348.41,-1758.82l-2010.59 -4739.33 -5245.21 1771.21 2907.39 4726.94zm-1497.62 -18118.28c504.71,1153.87 646.8,1208.71 0,2448.67 -1574.86,-2729.92 0,-2448.67 0,-2448.67zm-4125.54 2685.7c-1324.86,-553.06 -637.95,73.71 -1071.32,-1774.74 706.94,-860.84 -1163.31,-1337.84 1256.47,-432.19l1463.43 -396.22c830.77,-2.36 449.87,-1207.53 1014.73,791.26 418.62,1481.12 14.15,959.9 -292.45,1763.54l-760.01 -267.09 -1610.83 315.44zm-10585.35 -3169.16c-1632.84,-49.17 -3105.83,-74.09 -4256.44,-23.02m-395.63 10471.56c36.56,-597.28 878.53,-1474.63 900.34,-4057.14l-6305.34 -306c-930.42,1229.34 -1536.53,2090.77 -2232.29,3296.53 2149.74,1627.34 5008.78,1325.46 7637.29,1066.61zm51134.38 -31719.52l-2898.54 3610.22c914.49,1699.27 1283,1649.74 3076.02,2745.84l7407.34 -7536.46c-3960.45,574.88 -1847.86,1692.78 -7584.81,1180.41zm7695.22 -19281.13c72.9,804.68 234.44,751.32 734.51,1510.7 -1284.18,2302.46 -818.39,3404.44 -608.49,6784.71m275.35 7.07c3939.22,-808.36 5591.32,-5352.52 4523.52,-10402.58l-1283.59 1580.75m-65134.2 -25562.18c1027.7,-1290.66 7100.14,-10790.55 7407.33,-12101.85 -3092.53,1598.44 -4093.69,1843.73 -6377.86,4225.77 -1935.71,2017.66 -2847.25,5227.53 -1029.47,7876.07zm21066.94 55131.38c2668.01,-4690.98 541.86,-13653.72 -2785.92,-15811.12 -673.93,4470.46 1682.76,11961.52 2785.92,15811.12zm63618.3 6083.06l9725.7 177.48 2279.46 -3188.05c-4486.97,308.95 -5350.76,-824.87 -8802.95,-1116.73 -1160.95,1126.16 -2932.75,2406.22 -3202.2,4127.3zm-22000.9 -971.1c-950.46,320.16 -94.34,488.8 -2467.54,122.65 645.63,-1682.76 1479.94,-1130.88 2821.31,-325.47 -115.57,71.35 -264.15,172.76 -353.77,202.83zm-77518.48 11228.05c1614.95,1823.68 4372.59,3551.26 7407.34,3990.52 1188.66,-1029.47 1969.31,-2127.33 2974.02,-3440.4 -2072.5,-1485.84 -2293.02,183.37 -6968.08,-3546.54 -1574.86,815.43 -1918.01,1569.55 -3413.28,2996.42zm12073.55 -16888.34c895.04,1400.34 1050.11,1451.04 2314.25,2950.43 1164.48,1381.47 807.77,1554.22 2504.09,2950.43l1922.14 -1511.77c686.9,-741.73 992.92,-1140.31 1619.67,-1926.85 -1037.14,-1842.55 -2806.56,-3912.1 -4540.03,-5455.71 -1279.47,484.66 -3070.72,2092.54 -3820.12,2993.48zm96823.66 -54948.61c12.38,11.79 534.78,2031.81 4017.64,-333.13 1152.7,-782.41 2530.04,-1965.77 3529.44,-2940.41 3551.26,-3462.81 10162.02,-6936.82 4282.38,-8715.11 -2353.15,2616.72 -3321.3,6229.29 -8275.85,9708.61 -1237.6,869.09 -2684.52,1063.07 -3553.61,2280.04zm-93336.67 90188.73c-3479.91,-445.16 -4112.57,-721.1 -4840.16,-4170.94 -2830.15,-517.68 -3662.68,-947.51 -5310.08,-2121.43 -873.81,697.51 -1863.77,1752.33 -2687.47,2967.53 93.17,96.7 218.16,224.05 283.61,283.6 1908,1743.49 1492.9,1293.62 2944.53,1686.89 4004.09,1086.07 4872.59,5179.77 9609.55,1354.35zm3547.72 -39591.49c2211.05,1066.61 2799.49,2307.17 4772.93,3239.34 2577.8,-3157.39 2372.02,-8630.79 2091.37,-13146.06l-545.4 683.95c-59.55,100.83 -334.9,584.32 -404.47,723.46 -908.6,1812.48 -2027.1,4438.04 -3811.87,6136.72 -1327.22,1264.13 -1197.5,552.47 -2102.56,2362.58zm3510.57 15284.6l4524.11 -250.58c594.93,-2449.26 -129.13,-8916.75 -458.13,-11687.36 -950.46,1550.68 -814.26,1448.1 -2067.78,2706.34l-2226.39 2258.22 228.18 6973.39zm107360.08 26306.27c2709.28,216.97 4550.06,-1618.49 7703.91,-1905.64 3159.17,-287.73 4371.41,-1765.9 5188.62,-4420.94 -2261.18,842.56 -1135.01,681 -2675.68,1915.06 -2218.13,-186.32 -2426.26,-1028.88 -4492.86,-1890.9l-5870.8 2732.28c-76.65,-122.05 -264.73,158.61 -388.56,242.33l535.38 3327.79zm-21529.21 -57065.32c6324.8,1368.5 9248.7,2578.38 15617.73,-302.47l-616.74 -2827.2c-6275.28,2080.75 -8001.67,2435.1 -13603.61,-375l-1397.39 3504.68zm-8110.15 50169.77c-2126.16,-895.63 -2065.43,-274.17 -4350.78,-2124.98 -112.03,-90.8 -497.64,-422.16 -581.95,-491.15l-638.55 -493.51c-1681.58,944.57 -1995.26,1251.76 -3324.84,2317.19 7956.26,6604.87 2966.36,1879.7 6346.03,3817.17 754.7,432.78 1704.58,2043.61 3610.81,2416.83 933.36,182.2 1593.13,148 2452.2,-242.91l1462.26 -1302.47c-5759.36,-1133.23 -1714.02,-2522.37 -4975.17,-3896.17zm-79792.63 -6004.06l10904.34 -225.81 -2124.97 -5044.75 -8757.55 427.47 -21.82 4843.1zm81829.16 -56171.46c-111.44,-96.7 -294.21,-372.05 -340.2,-283.01l340.2 283.01 -1425.1 1951.03c-1817.2,-1715.19 -726.99,-1665.07 -1651.51,-3141.47 -760.6,-1213.43 -1797.74,-1318.38 -1902.1,-1685.71 -758.25,-2652.09 -618.52,-2341.36 961.07,-4183.91 1402.11,-1635.59 1087.84,-2752.33 -433.37,-3913.87l3429.8 -47.76c180.95,3348.05 -300.81,4802.31 -783.31,5580.16 -73.76,118.91 -147.53,222.46 -218.95,314.09 -539.28,691.77 -944.76,729.39 -198.79,1983.01 0.49,-1196.66 77.15,-1703.35 198.79,-1983.01 62.5,-143.71 136.87,-227.83 218.95,-314.09 338.03,-355.2 806.51,-754.15 1111.72,-5573.67 1104.93,1332.53 1359.65,9841.86 1418.03,11461.53l-725.23 -446.34zm31.84 24858.18l2688.65 3626.72c1734.65,-979.94 5397.34,-5953.93 7138.47,-8163.81l2122.62 -3171.55c-4974.59,58.96 -7269.96,3212.22 -11949.74,7708.63zm27803.9 -42477.64l-998.22 -2090.78c-3543,1732.29 -2479.33,5113.73 -2269.43,9815.91 2331.93,1011.2 1764.13,801.29 3908.56,-63.68 682.18,-2104.33 321.93,-4030.61 1448.69,-5575.99 1415.08,852.59 354.35,154.49 1405.05,2015.3l160.97 -672.15c-1203.99,-5143.22 -60.73,-1711.66 -123.82,-5859.6 -2509.4,787.14 -1837.24,1168.62 -3531.8,2430.99zm-87360.93 86651.02c1287.13,-1610.82 -57.78,-1215.19 2063.65,-1609.05 3599.02,-668.62 5366.68,607.3 7192.72,-3515.88 -6174.45,830.77 -4171.53,452.82 -8703.91,-1511.18 -2060.11,1799.51 -2511.76,1897.38 -6031.17,2370.84l719.32 4189.21 4759.38 76.06zm-37847.4 -34885.17l4462.8 -1961.06 -2169.78 -9826.53 -4850.18 -11.2c381.48,3275.9 1527.69,9147.29 2557.16,11798.79zm101725.72 -3346.66l2968.13 1010.02c1084.3,228.77 2224.03,521.22 3460.45,595.52l2776.49 -11367.19c1343.74,-4986.38 620.87,-3104.33 300.12,-3655.03 -1531.82,1298.93 -5939.2,9552.37 -9505.2,13416.69zm-56782.88 4841.93c7447.42,-1602.57 4912.08,-2976.97 11093.02,-9623.11 1398.57,-1503.51 2537.11,-1874.39 4074.82,-3307.15 -1844.31,-726.99 -3031.21,521.22 -4411.5,1488.19 -1565.43,1097.27 -2779.44,1820.14 -4532.37,2958.1 -5436.25,3527.67 -5995.21,2545.37 -6387.89,4624.35 -237.02,1254.11 -31.84,2624.97 163.92,3859.62zm-15582.35 19518.62c4144.4,-433.96 9481.01,-2442.77 11830.63,-4891.44 -586.67,-1284.19 -1587.24,-2353.15 -2844.89,-3097.26 -5675.05,2982.28 -3972.83,2962.23 -12010.47,3147.96 826.64,1675.1 1955.16,3346.66 3024.73,4840.75zm-6124.34 -79473.05c258.84,-242.92 1702.22,-754.71 2476.38,-581.37 1572.51,352 1106.12,-203.42 1035.37,1511.18l-3511.75 -929.82zm31885.21 -2601.39c2373.79,93.75 1175.69,-774.16 3193.35,-1868.49l804.24 1850.8c38.32,76.65 119.1,229.36 193.99,333.72 2741.12,-1172.15 -173.36,-862.01 2496.43,-2058.93l998.22 2437.47c1393.85,-1047.17 916.26,-1218.74 1997.02,-2622.61 72.53,134.43 130.9,198.7 163.33,428.64 162.15,1163.9 550.11,1640.31 1334.3,2058.94l401.53 -849.64c795.39,-1963.41 72.52,-1198.09 1096.09,-1873.8 1700.45,788.32 316.62,1589.6 2024.73,2327.22 1116.73,-1597.27 -216.38,-1556.58 1469.33,-2400.32 1758.23,1195.74 -21.23,424.52 1497.62,2323.68 1203.4,-732.89 527.7,-1054.24 1497.62,-2228.16l938.66 2021.2c53.07,71.93 215.21,185.73 262.97,239.38 48.35,55.42 194.58,142.1 295.98,206.96 490.56,-598.47 268.86,-149.77 627.95,-1065.43 256.48,-652.7 68.4,-561.32 370.86,-1323.1 1538.31,630.89 537.74,554.83 1239.96,1624.39 641.5,976.99 -48.93,220.51 756.48,784.18l867.91 -2260.58c27.13,-81.96 76.06,-243.51 130.9,-358.49 2018.25,772.99 416.27,-436.9 1882.65,2547.73 99.64,-73.11 258.83,-308.37 290.67,-229.36l904.47 -1580.16c48.94,-93.16 155.08,-262.97 196.35,-339.03 41.86,-76.65 137.38,-225.82 219.92,-328.41 2054.81,1357.29 673.93,1925.68 3538.29,2544.78 -357.31,-2630.87 -824.88,-1721.68 -2314.25,-3522.37 -3373.78,-1.77 -27095.17,-466.39 -28249.06,442.21 -515.91,406.25 -1136.77,1827.81 -1128.52,2737.59zm12135.46 57283.47c3660.92,619.11 7233.4,938.68 11053.52,517.1l-708.13 -10900.8c-3482.86,211.67 -3751.72,1995.25 -5761.12,4362.56 -1110.25,1308.36 -4028.85,4629.66 -4584.26,6021.15zm13068.23 -11171.44l1614.95 11534.65 7662.05 -3598.43 -3440.4 -9639.03c-1713.43,870.87 -3630.85,1610.83 -5836.6,1702.81zm-18425.48 -18983.83c-2356.69,-11163.78 7716.88,-9282.31 9152,-13844.17 -2330.16,-2919.18 -7325.38,-2653.86 -11195.03,2547.14 -2772.95,3726.96 -3706.9,10175.58 2043.02,11297.03zm-33286.14 13025.18c-2768.83,1729.34 -12198.55,1300.1 -14002.18,918.62 -1878.52,-397.4 -2206.34,-1078.99 -3986.98,-1100.21 2100.79,1513.53 4235.2,1018.86 6186.23,2266.48 -3241.11,4917.39 -8754.6,4787.68 -11308.81,6489.9l2347.84 5643.8c4046.53,-1253.53 10408.48,-7860.76 11870.72,-12157.86l9877.83 -1135.6c-709.3,-3129.09 -2260,-971.69 -5728.71,-1335.48l-12432.04 -1082.53c898.58,725.23 -784.77,34.2 1309.54,718.74 3459.27,1131.47 12542.29,905.65 15866.55,774.16zm15501.58 -29573.91l9763.43 -204.61c1849.04,-5896.15 8678.56,-4826 8738.69,-8334.79 -3794.76,-189.27 -9366.04,-1031.83 -12204.44,833.71 -2244.08,1474.05 -5281.19,4310.68 -6297.68,7705.69zm35984.21 -6279.99c663.31,387.37 -428.06,30.07 1144.44,540.09 4917.98,1595.49 4367.87,1783 8021.71,6083.06l10176.76 -147.41c-956.36,-3244.06 -4115.51,-6078.93 -6517.02,-7626.08 -2664.47,-1716.96 -9546.46,-1187.48 -13054.08,-928.06l228.18 2078.4zm-54574.79 64247.42c2351.97,487.02 5158.55,553.65 7330.69,-150.36l112.62 -1311.3c-275.94,-1020.63 -2520.6,-3637.33 -4328.37,-9645.51 -887.37,-2948.67 -2387.93,-11640.78 -3272.36,-13357.74l-1996.43 -43.63c-1485.25,3164.47 1715.19,21453.74 2153.86,24508.53zm21090.53 -23977.89l11065.9 -6453.93c2251.16,-1626.74 2532.4,-2212.82 4193.93,-4302.42 1909.18,-2402.09 3113.18,-2116.13 1995.85,-6249.92 -5213.38,1407.42 -3007.04,1948.68 -7951.55,-2175.68 -5187.44,8134.92 -1851.39,4750.53 -4566.57,9391.39 -2340.17,3999.37 -4213.39,4394.41 -4737.56,9790.56zm71915.96 1131.47c-30.07,509.43 87.27,1941.6 120.29,2529.45l1847.86 13160.21c747.62,3101.38 3224.01,11416.72 5707.47,13761.62 764.14,-831.94 1945.73,-2109.64 2905.63,-3044.77l2435.69 -2060.7c489.98,-499.41 318.98,-375 634.43,-850.82 -10185.6,-10416.15 -10195.62,-23460.79 -12964.46,-25635.29 -389.73,566.03 -353.18,134.43 -597.28,1179.82 -40.69,173.94 -86.68,906.24 -89.63,960.48zm-11021.08 -23621.16c-1844.91,-814.85 -1337.84,-3567.76 -1211.66,-4835.44 1830.17,621.46 3922.71,2354.92 3087.23,4648.53 -40.1,19.46 -22.41,1005.3 -1875.57,186.91zm5218.09 11762.82c2664.48,-668.62 9087.75,-7238.71 9521.7,-11072.97l-2988.76 -1936.88c-676.87,839.61 -409.19,778.88 -981.12,1497.61l-4332.49 3709.27c-1907.41,-5109.01 -2542.42,-11484.52 -8706.86,-11154.93 -4450.42,2091.95 3570.13,16957.33 7487.52,18957.89zm-14356.53 4987.55l1044.21 3942.76m515.32 1709.89l68.99 3756.44c1216.97,-496.46 -900.93,-814.26 2605.51,-3604.33 120.87,-96.7 487.61,-371.45 597.29,-488.2 803.05,-853.17 74.88,86.68 765.31,-1153.87l-2096.08 -783.01m-1576.04 833.71l-1021.21 -10785.24c1012.37,-617.92 1702.22,-994.1 2668.01,-2764.7 -2587.23,-862.02 -3094.3,-795.98 -3196.3,-4133.2 1563.07,658 1821.32,1252.93 3693.35,2051.86 -996.46,-9128.43 -40.69,-11586.53 3592.53,-18358.85 1408.59,-2624.38 232.3,-2317.79 206.36,-2371.43 -1294.79,1231.7 -6565.36,10818.85 -7594.83,13164.34 -458.13,-775.35 -651.52,-994.1 -737.01,-2219.32 -102.01,-1449.27 160.97,-1544.79 780.06,-2361.99l-11935.58 -87.27c784.77,712.85 -873.23,620.28 2154.45,701.64 150.36,5464.55 1256.47,12218.6 1859.65,17870.65 314.26,2945.72 636.79,5979.88 979.94,8988.69l721.1 6862.53c406.25,2031.81 209.32,952.82 928.06,1717.55l-3728.14 -33566.21c-31.84,-3187.46 -248.22,-949.28 597.87,-1863.77 756.79,459.29 1283.1,2722.22 1702.12,5896.08m158.1 1279.06c1067.48,9219.99 1459.56,24320.96 3630.87,27529.01 2752.33,-2423.31 1244.09,-3503.49 -1133.83,-5359 433.37,-2076.04 5075.41,-7082.46 -1031.24,-8733.38 -12.97,-3854.91 19.46,-4183.32 1665.66,-7136.7 1973.44,1359.06 910.37,584.31 618.51,3209.27 379.13,-1060.72 333.73,-1172.15 852.59,-2231.11 2507.04,1111.43 2182.17,3335.46 2428.03,9137.28l-783.59 -649.17m-98746.4 -16060.52c733.47,1537.71 555.42,1408 1890.31,2405.62 3596.65,-3089.58 6962.77,-7047.07 9248.11,-11016.36 969.92,-1684.54 1318.97,-3202.79 2480.51,-4220.47 110.26,2635.58 -575.47,3907.38 -1829.58,5856.64 -7448.02,11573.57 -4579.54,5948.04 -11187.36,13783.44 1601.98,599.65 1573.68,4372.59 5903.81,4848.41l5239.92 -8725.71c63.09,-84.31 199.88,-229.35 252.94,-297.16 54.83,-69.58 176.3,-198.7 264.73,-297.75 1513.54,3088.4 1165.08,4257.61 3258.21,7201.56l3449.84 184.55c-790.08,-1817.19 -6409.12,-10991.6 -2423.31,-15471.51 320.74,-360.25 930.41,-579 882.65,-1382.06 -2409.16,-952.23 -1121.44,61.91 -3592.53,473.47 609.08,-2962.23 1380.88,-5900.87 635.02,-8874.89 -1719.91,523.58 -858.48,-548.35 -1863.78,1922.14 -4531.78,11135.47 -9437.97,10254.59 -12609.5,13610.09zm22521.53 1895.03c-2462.23,125.59 -3832.5,-1939.83 -3031.81,-4690.98 3590.77,-880.3 3294.77,1691.01 3031.81,4690.98zm5439.19 2341.94c-119.1,-106.13 -303.64,-414.5 -357.89,-320.16 -51.3,90.81 -262.96,-231.71 -329.59,-319.56 -444.57,-587.85 -239.38,-229.95 -660.37,-1015.33l-2488.17 -4950.99c-1607.29,-2436.29 -3498.78,-2965.77 -6426.81,-1770.03 -1578.98,5473.99 604.36,10544.09 3513.52,13174.36 1593.73,1441.62 2834.28,2967.54 4838.98,3626.72 2928.61,962.85 4865.51,-143.28 6415.6,-1930.98 1056.6,-1218.15 5661.49,-9366.04 6150.28,-11337.71 476.41,-1920.96 227,-2594.9 322.52,-4374.95 97.88,-1830.17 589.62,-1689.25 978.76,-3272.95 431.6,-1756.46 -96.11,-1984.64 818.98,-3702.19 899.75,-1689.25 1252.93,-1186.89 901.52,-3716.93l-1712.83 1425.69c-726.99,721.1 -484.08,633.25 -1555.4,1123.21l99.06 -4416.22c-5126.71,2003.51 -2872.61,8430.32 -4357.85,11907.28 -2387.35,5588.97 -4604.9,5444.51 -6150.29,9870.75z"/>
 </g>
</svg>
