<?xml version="1.0" encoding="UTF-8"?>
<!DOCTYPE svg PUBLIC "-//W3C//DTD SVG 1.1//EN" "http://www.w3.org/Graphics/SVG/1.1/DTD/svg11.dtd">
<!-- Creator: CorelDRAW -->
<svg xmlns="http://www.w3.org/2000/svg" xml:space="preserve" width="500mm" height="500mm" version="1.1" style="shape-rendering:geometricPrecision; text-rendering:geometricPrecision; image-rendering:optimizeQuality; fill-rule:evenodd; clip-rule:evenodd"
viewBox="0 0 50000 50000"
 xmlns:xlink="http://www.w3.org/1999/xlink"
 xmlns:xodm="http://www.corel.com/coreldraw/odm/2003">
 <defs>
  <style type="text/css">
   <![CDATA[
    .fil0 {fill:url(#id0)}
   ]]>
  </style>
  <linearGradient id="id0" gradientUnits="userSpaceOnUse" x1="6373.51" y1="5524.28" x2="43519.34" y2="47253.03">
   <stop offset="0" style="stop-opacity:1; stop-color:#D33230"/>
   <stop offset="1" style="stop-opacity:1; stop-color:#FD8F04"/>
  </linearGradient>
 </defs>
 <g id="Layer_x0020_1">
  <metadata id="CorelCorpID_0Corel-Layer"/>
  <g id="Layer_1">
   <g>
    <path class="fil0" d="M29068.31 1735.73c-184.19,3.92 -356.69,19.62 -509.52,54.9 -646.67,137.22 -1254.18,482.09 -1477.53,842.7l-105.79 172.38 192 227.39c105.79,129.3 290.1,372.31 407.58,548.69l215.54 317.53 -168.57 -113.68c-1258.06,-823.05 -3343.08,-1066.06 -4848.19,-564.34 -607.51,203.84 -1140.5,580.03 -1273.79,901.37 -47.09,109.67 -109.79,160.64 -262.63,199.84 -501.64,137.22 -924.92,474.29 -1132.65,913.22 -117.6,254.82 -160.65,293.99 -403.66,399.78 -721.18,317.4 -1109.14,1058.24 -1109.14,2112.49 0,529.07 90.13,917.11 337.07,1458.02l164.57 352.69 -203.85 192.11c-1022.9,952.38 -3417.64,2249.6 -5001.03,2716.08 -243.01,70.51 -450.75,141.15 -466.36,156.76 -15.74,15.74 -415.47,540.88 -885.76,1164l-858.32 1136.57 -293.98 35.28c-1571.58,195.92 -2935.55,1473.64 -3844.84,3597.83 -74.44,176.38 -246.9,395.85 -556.54,713.37 -532.99,536.88 -1234.51,1453.98 -1454.09,1900.84 -90.14,172.38 -266.56,435.01 -399.78,580.04 -493.82,540.88 -1281.6,1747.96 -1728.46,2637.64 -482.09,968.08 -650.55,1814.71 -505.63,2516.23 246.89,1191.47 1034.7,1979.28 2574.93,2567.12 411.47,152.84 2026.25,674.1 3303.92,1062.14 611.39,184.19 572.23,105.87 427.2,901.37 -54.89,293.98 -105.79,736.8 -117.6,979.81 -15.73,376.31 -47.08,501.71 -195.92,842.71 -391.96,897.56 -960.19,2966.89 -1058.25,3868.38l-58.78 529.18 -321.45 486.02c-1101.29,1681.37 -1309.07,2708.27 -768.15,3817.38 388.04,791.69 1332.61,1540.22 2418.17,1920.34l325.34 113.67 -1446.06 -0.07c-795.62,0 -1653.9,27.42 -1908.65,54.89 -654.47,70.52 -1124.84,148.96 -1152.3,195.93 -11.74,19.61 66.63,50.97 176.38,70.51 352.8,54.89 2853.18,125.41 4585.56,125.41l1673.57 -0.04 403.65 195.92 407.58 195.93 -1516.8 0c-2198.7,3.92 -3809.56,94.05 -4409.14,254.82 -188.12,50.97 -192,50.97 -70.52,97.94 152.84,58.78 913.22,82.32 4213.23,137.14 1983.16,31.35 2696.45,58.78 2927.73,113.68 172.5,39.16 321.45,82.32 333.14,94.05 31.36,31.36 -674.09,74.44 -1767.62,113.6 -2433.9,78.44 -3656.72,168.58 -4236.76,309.6 -164.57,39.16 -164.57,43.09 -50.97,70.52 317.41,74.43 674.09,86.24 3774.32,129.41 2328.04,31.35 3535.25,66.63 4087.85,121.48 427.21,43.17 787.82,86.25 799.51,97.95 23.54,27.42 -631.05,70.51 -1924.38,125.4 -619.24,27.43 -1665.76,70.52 -2328.04,101.99 -1281.6,54.89 -2614.21,164.57 -2798.4,231.27 -435.01,164.58 1034.7,219.47 4742.32,180.31 3068.77,-31.35 6278.75,3.92 6212.04,66.63 -35.27,35.27 -340.95,70.51 -2751.31,297.9 -2139.93,203.85 -3057.03,329.26 -2943.36,407.66l0 0c35.28,27.43 909.3,35.28 2022.33,19.62 1940.08,-23.54 2261.41,-43.16 4369.98,-274.36 807.32,-90.13 1222.82,-97.94 4307.28,-97.94 3300.04,0 3445.07,3.92 4495.39,121.48 595.77,66.63 1336.5,145.03 1646.1,172.38 709.37,66.63 4268.12,121.49 4589.45,70.52l235.2 -35.28 -168.57 -39.16c-388.04,-86.25 -1269.91,-192.12 -2351.59,-290.1 -2163.46,-188.11 -3307.84,-301.79 -3405.9,-340.95 -184.19,-70.51 3198.17,-109.79 6502.1,-74.52 2363.27,23.55 3480.34,19.62 3954.51,-23.42 693.75,-58.78 913.22,-113.68 658.48,-168.57 -446.82,-94.06 -2190.9,-199.93 -5189.15,-325.34 -1383.46,-54.89 -1955.73,-90.13 -1920.46,-125.41 7.81,-11.73 301.79,-54.89 650.56,-94.06 478.17,-58.78 1481.52,-90.24 4111.35,-121.48 1912.65,-23.54 3523.39,-54.9 3578.29,-66.71 54.89,-15.61 207.73,-39.16 340.95,-58.78 360.61,-46.97 199.92,-101.98 -560.42,-188.11 -819.16,-90.14 -1281.6,-117.6 -3260.88,-176.38 -862.21,-27.43 -1708.8,-62.71 -1885.22,-82.33l-317.41 -31.35 317.41 -94.06c293.98,-90.13 556.54,-97.94 3284.42,-137.22 1630.4,-23.42 3127.55,-54.89 3331.4,-70.51 815.24,-66.63 913.22,-129.3 352.8,-215.54 -721.18,-117.6 -1646.1,-164.57 -3660.61,-195.93l-2108.58 -31.35 388.04 -184.19 384.12 -184.19 1795.05 -0.04c987.62,0 2367.31,-23.42 3068.76,-46.97 1889.11,-70.51 2120.3,-125.41 1148.38,-278.25 -403.66,-62.7 -1003.35,-82.32 -2825.87,-101.98 -1273.79,-11.73 -2316.3,-35.27 -2316.3,-54.89 0,-15.74 105.79,-90.14 235.2,-160.65 403.65,-223.35 1634.28,-1222.82 2175.16,-1771.51 1791.16,-1802.85 2943.35,-4279.85 3276.5,-7015.43 86.24,-709.37 70.51,-2273.26 -27.43,-3029.68 -274.37,-2092.83 -1175.85,-4217.14 -2488.69,-5839.69 -689.83,-854.4 -1830.32,-1834.21 -2767.05,-2375.13l-384.11 -223.35 145.03 -141.15c227.27,-227.27 384.11,-623.12 419.39,-1062.13l27.43 -384.04 1595.12 -909.29c874.06,-501.64 1759.81,-999.43 1967.43,-1101.3 223.35,-113.67 415.47,-254.7 482.09,-344.87 219.47,-309.6 97.95,-772.08 -246.89,-952.39 -231.28,-117.6 -474.29,-90.13 -803.43,94.06 -286.06,156.76 -1105.22,533.07 -2516.15,1160.12 -356.69,160.64 -658.48,290.09 -666.29,290.09 -7.81,0 -86.25,-109.67 -172.5,-243.01 -270.43,-419.39 -787.81,-850.51 -1344.3,-1124.84 -654.48,-321.33 -956.27,-395.84 -1724.46,-427.2 -497.71,-23.42 -780,-7.8 -1297.22,70.52 -364.49,58.78 -893.56,137.22 -1175.85,180.3l-517.33 78.33 -207.73 -199.85c-239.09,-223.35 -540.88,-391.96 -705.45,-391.96 -58.78,0 -223.35,46.97 -364.5,105.86l-254.7 101.87 -431.12 -133.22c-239.09,-74.44 -627.13,-223.35 -862.21,-329.26 -364.5,-164.57 -478.18,-192 -713.26,-184.19 -282.17,11.74 -286.06,11.74 -517.33,-235.2 -235.2,-250.82 -537,-415.39 -881.87,-482.09 -141.14,-23.43 -266.55,-109.68 -489.91,-333.15 -391.96,-388.04 -1312.95,-858.32 -2394.62,-1222.82 -70.52,-23.42 -74.44,-50.89 -31.36,-176.3 54.9,-148.95 54.9,-148.95 435.01,-148.95l380.08 -0.04 274.36 -748.53c152.84,-411.47 340.95,-932.84 423.31,-1164l148.96 -415.39 243.01 -86.25c133.22,-46.97 309.6,-145.03 395.84,-219.47 168.58,-141.14 337.07,-458.55 337.07,-634.93 0,-74.44 113.68,-195.93 352.8,-391.97 521.26,-427.2 1026.9,-1069.94 1340.42,-1704.91 489.91,-991.62 631.05,-1595.13 627.13,-2645.57 0,-811.35 -74.44,-1246.36 -309.6,-1896.91l-141.15 -388.04 591.78 -611.39 595.77 -611.39 -125.41 -254.82c-313.52,-642.74 -1132.65,-1261.98 -1967.43,-1485.45 -266.32,-70.4 -587.73,-105.67 -889.56,-101.75l0 0zm-192 717.26c137.22,0 160.65,23.43 188.11,152.84 15.62,86.13 31.36,395.84 31.36,685.82l0 533.07 -293.98 0.04 -290.1 0 -54.9 -207.73c-31.35,-113.68 -97.94,-348.76 -148.95,-517.34 -141.14,-462.47 -137.14,-482.09 156.76,-568.34 141.26,-43.2 325.45,-78.36 411.7,-78.36l0 0zm1336.5 246.82c86.25,0 536.99,254.82 642.74,364.49l113.68 121.49 -305.72 540.87c-168.57,297.79 -317.41,536.88 -337.07,532.99 -15.73,0 -137.22,-62.7 -266.55,-133.21 -215.54,-117.61 -231.28,-141.03 -203.85,-274.25 35.28,-176.38 317.41,-1120.95 344.88,-1148.38 0,0 3.92,0 11.73,0l0.08 -4 0.08 0zm-6941.03 1426.63c215.54,3.92 486.02,43.16 846.59,117.6 917.1,188.11 2708.27,705.44 3213.79,924.91 164.57,70.51 152.84,74.52 -368.42,70.51 -764.27,-7.81 -1383.47,-66.63 -2269.22,-211.54 -662.4,-109.79 -2104.65,-439.01 -2155.66,-489.9 -58.78,-58.78 74.44,-239.09 239.09,-321.34 125.44,-66.7 282.21,-94.13 493.83,-90.24l0 0zm-395.85 286.17c-282.17,0 -113.68,90.13 317.41,168.49 583.96,105.87 681.9,86.25 246.89,-46.97 -215.5,-66.7 -466.32,-121.52 -564.3,-121.52l0 0zm7199.66 525.06l0 219.47c0,470.36 -388.04,1297.33 -979.81,2089.03 -384.12,517.33 -1258.06,1344.31 -1787.24,1696.99 -1117.03,740.72 -2171.28,1132.65 -3503.89,1297.34 -1532.42,191.99 -2978.71,-133.22 -3731.13,-838.67 -145.03,-133.22 -195.92,-199.93 -117.6,-145.03 82.33,50.97 337.07,160.65 564.42,243.01 1332.61,466.36 3100.12,395.85 4730.6,-192.12 446.82,-164.57 536.99,-239.08 141.14,-117.6 -133.22,39.17 -474.29,109.68 -756.46,152.84 -811.35,129.41 -2249.71,31.35 -3006.06,-199.85 -188.11,-58.78 -168.49,-58.78 262.63,-39.27 1336.5,70.51 3292.23,-348.76 4585.57,-983.74 1340.42,-658.47 2222.25,-1418.82 3386.29,-2916l211.54 -266.4zm-8312.81 192.12c129.3,3.92 290.1,19.62 497.72,43.16 321.45,39.16 1124.84,105.87 1787.24,145.03 1602.93,101.98 3582.21,329.26 3919.24,450.74 101.86,35.28 -489.91,329.26 -1073.87,533.07 -1042.52,364.5 -2324.12,623.13 -3531.32,705.45 -1183.66,86.13 -2151.66,27.43 -2857.22,-164.69 -454.67,-125.41 -548.69,-188.11 -470.29,-317.41 168.5,-297.9 203.85,-313.6 564.35,-254.82 1113.03,168.58 3358.82,62.71 4428.8,-215.54 223.35,-54.9 235.2,-62.7 66.63,-43.16 -501.64,62.7 -2904.19,-133.22 -3680.27,-305.72 -403.66,-86.25 -450.75,-168.57 -219.47,-384.11 149.19,-137.11 286.33,-195.89 568.46,-192l0 0zm-344.83 266.55c-70.52,3.93 -121.49,15.74 -137.22,43.16 -15.62,27.43 54.89,62.71 156.76,78.44 101.86,15.62 207.73,39.17 235.2,46.97l0 0c27.43,11.74 180.3,15.74 340.95,15.74l293.94 0 -340.95 -90.13c-235.2,-62.94 -427.2,-94.18 -548.68,-94.18l0 0zm8912.46 580.04c7.81,3.92 23.54,58.78 43.08,148.95 94.06,478.1 -137.22,1277.72 -552.61,1924.38 -403.65,623.13 -1261.98,1383.47 -1963.54,1736.27 -333.14,168.58 -1113.03,474.17 -1113.03,438.94 0,-11.74 94.06,-74.44 207.74,-141.15 619.23,-364.49 1708.8,-1371.77 2261.41,-2088.95 454.66,-587.89 1093.48,-1744.08 1109.14,-2002.78 0,-11.74 3.88,-15.66 7.81,-15.66l0 0zm-2347.66 317.45c50.97,0 -180.31,176.38 -693.75,517.33 -1250.25,842.59 -2661.19,1324.8 -4319.02,1473.64 -309.6,27.43 -583.96,47.09 -611.39,43.16 -27.42,-3.92 -297.9,-23.54 -599.69,-46.97 -713.26,-46.97 -1207.2,-156.76 -1618.67,-364.49 -301.79,-152.84 -646.67,-431.13 -595.77,-486.02 11.73,-11.74 168.49,19.62 344.87,66.7 587.89,164.57 1160.12,215.55 2112.5,184.19 1363.96,-39.16 2198.71,-203.73 4299.47,-842.59 779.88,-235.2 1085.68,-337.06 1642.21,-536.87 19.58,-8.08 31.43,-8.08 39.24,-8.08l0 0zm-7583.78 203.81c-90.13,-3.93 -121.48,19.62 -121.48,70.51 0,43.09 360.61,129.3 685.83,164.57l0 0c239.08,23.55 638.85,23.55 489.9,0 -70.51,-11.73 -337.07,-78.44 -599.69,-145.03 -223.4,-58.7 -368.42,-86.13 -454.56,-90.05l0 0zm9073.11 3519.5c3.93,3.93 0,7.81 -7.81,23.43 -19.62,35.28 -125.41,129.41 -235.2,207.73 -109.79,78.33 -235.2,141.15 -278.24,141.15 -43.05,0 23.54,-54.9 145.03,-125.53 121.48,-70.51 262.62,-160.64 313.52,-207.73 31.35,-27.31 54.82,-42.93 62.7,-39.05l0 0zm-9908 313.53l-415.47 427.2c-1477.52,1512.88 -3488.15,2794.51 -5490.94,3492.04 -454.66,160.64 -681.9,219.46 -681.9,188.11 0,-11.73 156.76,-246.89 348.76,-517.33 254.7,-360.61 384.11,-501.64 478.17,-521.26 1289.41,-282.17 3617.45,-1485.33 5322.37,-2743.51l439.01 -325.25zm8085.53 658.47c62.7,3.93 94.05,54.9 168.57,207.74 62.7,129.41 192,305.71 286.05,399.77 152.84,148.95 168.58,184.19 129.3,301.79 -31.35,86.25 -121.49,172.38 -262.63,243.01 -121.49,62.71 -266.55,109.79 -321.45,109.79 -105.79,0 -317.41,-160.76 -317.41,-239.08 0,-23.55 -148.95,-78.44 -325.33,-121.49 -180.31,-46.97 -415.47,-129.29 -529.07,-184.19 -254.7,-133.22 -615.31,-387.92 -615.31,-442.82 0,-19.62 129.29,-39.28 289.98,-39.28 160.64,0 521.25,-46.97 795.62,-101.86 278.24,-58.78 564.34,-113.68 634.93,-129.41 11.73,0 23.54,-3.93 35.28,-3.93 11.73,0 19.73,-0.04 31.47,-0.04l0 0zm-7137.08 43.09c50.98,0 231.28,46.97 435.01,105.87 834.78,250.82 1167.93,297.79 2092.96,309.6l877.94 7.81 117.6 262.63c156.76,356.68 466.36,756.45 701.56,905.29 105.79,66.71 329.26,156.76 493.83,199.92 376.23,94.06 689.83,62.71 1305.15,-141.14l458.55 -148.95 125.41 121.48 121.49 125.41 -97.95 286.06c-54.89,160.65 -180.3,564.34 -274.36,901.37 -184.19,646.67 -262.63,760.34 -470.28,709.37 -431.13,-101.98 -1058.25,-564.34 -1085.68,-795.62 -15.62,-117.6 -27.43,-105.87 -101.87,105.79 -137.14,388.04 -117.6,454.67 207.74,780 160.64,160.65 289.98,301.79 282.17,305.72 -7.81,7.81 -168.58,-27.43 -356.69,-78.32 -231.28,-66.63 -489.9,-94.06 -807.31,-94.06l-466.36 3.92 368.41 94.06c380.12,101.87 697.64,301.79 729,462.48 15.73,82.32 -15.74,86.24 -407.59,54.89 -384.11,-31.35 -446.81,-23.54 -654.47,78.44l-231.28 109.68 266.56 39.27c286.05,43.09 525.18,156.77 611.39,289.98 82.32,133.22 -19.62,348.76 -215.55,446.82 -372.3,184.19 -862.21,50.98 -1387.39,-384.03 -372.3,-305.72 -685.83,-681.91 -960.19,-1156.19 -391.96,-674.1 -556.53,-1234.52 -615.31,-2112.5l-35.28 -482.1 -129.29 199.93c-152.84,239.01 -360.61,344.87 -670.21,344.87 -290.1,0 -529.07,-141.14 -658.48,-384.03l-94.06 -180.31 -3.92 211.66c0,117.6 31.35,274.24 70.51,352.68 152.84,293.99 560.42,450.75 921.03,352.8 274.36,-74.51 290.1,31.36 31.35,195.93 -572.23,364.49 -1403.12,-215.54 -1293.33,-901.37 23.54,-133.22 678.02,-1383.59 787.81,-1504.99 3.58,-0.12 7.5,-0.12 11.38,-0.12l0 0zm243.01 611.39c-152.83,0 -219.46,27.43 -313.52,137.22 -184.19,211.54 -125.41,525.18 129.3,654.48l0 0c156.76,78.44 172.49,78.44 364.49,-15.74 427.24,-199.81 294.02,-775.96 -180.27,-775.96l0 0zm-1744.07 1234.63l211.65 446.82c117.61,246.9 333.15,607.51 482.1,799.5 258.63,344.88 991.54,1089.49 1454.1,1477.53 231.27,195.92 180.3,195.92 -86.25,-3.93 -90.13,-62.7 -160.65,-90.13 -160.65,-58.78 0,117.6 160.65,662.29 246.9,838.67 47.08,101.87 74.44,184.19 54.89,184.19 -101.86,-3.92 -893.56,-599.7 -1222.82,-917.11 -466.36,-462.47 -787.81,-889.67 -1050.32,-1407.01 -258.63,-505.63 -274.36,-772.07 -66.63,-1120.95l137.03 -238.93zm-1250.25 568.23l86.25 246.89c50.97,137.22 254.7,623.13 454.66,1081.8 764.27,1732.26 1234.52,3127.54 1481.53,4385.6 364.5,1865.56 529.07,4154.44 466.36,6553.11l0 0c-19.62,787.81 -47.09,1430.55 -66.63,1422.74 -15.73,-3.92 -97.94,-15.73 -184.19,-23.54l-152.84 -19.62 -31.35 -721.18c-54.89,-1403.13 -137.14,-2786.6 -199.92,-3315.66l-62.71 -540.88 -7.81 442.94c-15.73,1097.41 -235.2,3108 -333.14,3108 -94.06,0 -101.87,-113.68 -133.22,-1810.79 -39.16,-2304.49 -148.95,-3593.9 -419.39,-4950.06 -344.87,-1720.65 -811.35,-3205.98 -1528.53,-4840.38 -235.2,-525.18 -250.82,-478.17 286.05,-807.43l344.88 -211.54zm-1626.48 952.5c121.49,-7.81 172.5,113.59 344.88,450.62 830.86,1634.41 1458.02,3793.83 1740.15,5996.46 125.41,1003.36 215.54,3111.93 168.57,4130.9 -19.62,438.93 -47.08,795.62 -66.62,791.7 -15.62,0 -109.8,-35.28 -207.74,-74.44l-172.49 -74.52 -31.36 -1062.13c-39.16,-1328.57 -148.95,-2692.54 -301.79,-3707.62 -117.6,-768.15 -117.6,-775.96 -105.79,-340.95 19.62,689.75 -62.7,2810.13 -145.03,3668.45 -94.05,1022.98 -117.6,1152.31 -192,1124.84 -43.08,-15.73 -66.62,-466.47 -90.13,-1795.05 -47.09,-2571.04 -156.76,-3660.61 -552.61,-5377.26 -199.92,-870.13 -705.45,-2441.83 -968.08,-3006.13 -97.94,-215.54 -172.49,-391.96 -164.57,-399.77 3.93,-7.81 188.12,-94.06 403.66,-192 168.46,-74.4 266.51,-125.3 340.95,-133.1l0 0zm-3433.26 889.63l270.44 133.22c391.97,188.23 1183.66,999.43 1481.53,1508.99 615.31,1058.25 917.1,2320.23 858.32,3601.84 -27.43,693.75 -74.44,956.38 -286.05,1614.74 -82.33,258.63 -172.5,489.9 -199.93,517.33 -31.35,31.35 -39.16,15.62 -19.62,-50.97 180.31,-631.05 199.93,-2222.25 35.28,-3013.87 -274.36,-1301.26 -795.62,-2347.65 -1559.89,-3119.85 -352.8,-360.61 -1069.94,-866.13 -1309.07,-924.91 -129.29,-31.35 -94.05,-46.97 293.99,-152.84l435 -113.68zm-1614.74 1081.72c309.6,0 638.86,109.67 995.54,325.22 850.52,513.44 1563.78,1548.15 1849.95,2688.61 133.22,525.18 235.2,1383.58 211.66,1783.35l-15.74 270.44 -129.29 -270.44c-148.95,-309.6 -697.64,-1148.38 -658.48,-1003.35 105.79,384.04 333.14,1642.21 356.69,1971.35 15.73,223.35 19.62,403.77 7.81,403.77 -11.74,0 -78.44,-113.67 -148.96,-254.82 -333.14,-670.21 -995.54,-1430.55 -1712.72,-1975.35 -936.73,-701.56 -2324.12,-1246.36 -3182.44,-1246.36 -133.22,0 -239.09,-19.62 -239.09,-46.97 0,-121.49 1207.21,-983.74 1724.46,-1226.71 250.82,-121.48 274.36,-141.14 137.14,-117.6 -305.71,50.97 -752.53,215.54 -1113.03,411.47l-348.76 188.11 199.93 -329.26c250.82,-403.65 995.54,-1152.3 1379.58,-1375.65 219.27,-129.22 446.63,-195.81 685.75,-195.81l0 0zm8947.7 219.43l525.18 540.8c290.1,297.9 583.96,654.59 658.48,791.69 325.33,595.77 431.12,1485.45 431.12,3515.58 0,1481.45 -74.43,2606.29 -270.44,4091.74 -152.83,1124.84 -258.62,1708.8 -266.55,1469.71 -3.92,-94.05 19.62,-944.57 50.97,-1885.1 117.6,-3550.86 -125.41,-5647.7 -909.29,-7897.42l-219.47 -627zm7576 403.69c86.25,11.73 403.66,176.38 634.94,344.88 231.28,172.38 685.83,830.85 866.13,1261.98 184.19,446.82 325.34,1022.97 356.69,1493.26 58.78,791.69 -223.35,1681.37 -674.1,2143.85 -113.67,113.59 -274.36,258.62 -356.68,317.4l-148.96 105.87 129.3 -168.57c580.04,-775.96 728.99,-1940.08 391.96,-3111.93l-82.32 -293.98 -27.43 540.88c-19.62,372.3 -62.71,650.55 -145.03,905.29l-121.49 368.42 -31.35 -627.12c-66.63,-1250.25 -223.35,-1869.49 -811.35,-3260.88 -3.93,-11.73 -3.93,-15.74 3.92,-19.62 3.93,0.27 11.85,0.27 15.77,0.27l0 0zm-3159.01 297.87c19.62,3.92 47.09,62.7 82.33,168.57 384.11,1187.54 368.42,5153.87 -23.55,6917.61 -258.62,1164 -270.44,1140.49 -243.01,-466.37 15.74,-791.69 39.16,-2445.64 50.97,-3672.46 27.47,-2241.86 51.02,-2962.97 133.26,-2947.35l0 0zm830.98 180.3l70.51 219.47c348.76,1120.95 415.47,3911.43 137.22,5828 -43.09,286.06 -113.68,713.26 -164.57,956.27 -86.25,438.93 -86.25,431.12 -74.44,-3111.93 7.81,-1951.81 19.62,-3625.37 23.54,-3723.31l7.74 -168.5zm4256.3 709.38c23.55,0 160.65,43.16 309.6,97.94 772.08,290.09 1414.82,1752 1258.06,2872.84 -31.35,223.35 -82.33,486.02 -121.49,587.88l-62.7 188.12 -27.43 -391.97c-15.62,-215.54 -78.44,-580.03 -145.03,-807.43l-113.68 -415.39 -27.42 415.39c-43.09,638.86 -270.44,1238.56 -619.24,1622.56 -97.94,109.79 -278.25,266.55 -403.66,352.8l-223.35 148.95 137.22 -168.57c188.11,-231.28 458.55,-795.62 548.69,-1148.38 239.08,-924.92 90.13,-2081.15 -384.12,-3025.68 -94.1,-180.11 -148.99,-329.06 -125.45,-329.06l0 0zm-6165.07 243.01c101.87,0 -7.81,1054.24 -164.57,1528.53 -54.9,168.57 -184.19,454.67 -286.06,631.05 -211.65,356.68 -607.5,819.16 -568.34,658.48 11.73,-54.9 35.28,-207.74 54.9,-340.96 90.13,-674.09 180.3,-952.38 544.8,-1704.91 207.65,-423.32 395.73,-772.19 419.27,-772.19l0 0zm7850.33 439.01c3.92,0 11.73,0 19.62,3.92 43.08,27.43 207.73,94.06 360.61,148.95 321.33,117.6 438.93,274.36 619.24,830.86 235.2,728.99 223.35,1360.04 -43.09,2053.79 -82.32,215.55 -223.35,462.48 -321.33,572.23 -94.06,105.87 -148.95,145.03 -125.41,90.14 27.43,-58.79 74.44,-340.96 105.79,-631.05 94.06,-928.84 -58.78,-1798.98 -466.36,-2657.26 -125.53,-270.56 -176.5,-403.78 -149.07,-411.58l0 0zm2034.17 297.79c184.19,0 388.04,156.76 501.64,391.96 101.87,203.85 109.79,282.17 101.87,1003.35 -3.93,521.26 -31.36,874.06 -78.44,1054.25l-74.44 270.44 -3.92 -325.34c-3.93,-325.21 -117.6,-1066.06 -188.12,-1262.09 -27.43,-70.52 -43.08,47.08 -47.08,321.33 -3.93,356.68 -31.36,505.64 -160.65,862.21l0 0c-86.25,235.2 -164.57,427.2 -172.5,427.2 -3.92,0 -23.54,-293.98 -39.16,-650.55 -27.43,-674.1 -137.22,-1175.74 -333.14,-1563.78 -54.9,-105.86 -90.14,-223.35 -78.44,-254.82 31.47,-78.13 439.05,-274.16 572.38,-274.16l0 0zm10303.74 168.57c27.43,0 39.16,19.62 50.97,46.97 15.62,43.16 -43.08,113.67 -160.64,192.11 -254.71,168.58 -1379.59,787.81 -2010.63,1109.22 -286.06,141.03 -631.05,325.22 -772.08,399.78l-254.7 141.14 -74.44 -176.38c-43.09,-97.94 -74.44,-192 -74.44,-211.54 0,-50.97 823.05,-439.01 2653.37,-1254.17 427.05,-188.31 576,-255.06 642.59,-247.13l0 0zm-5855.43 133.22c344.87,3.92 701.56,101.98 1030.78,301.79 536.99,321.33 634.93,521.25 862.21,1763.69 164.57,877.95 164.57,1109.22 3.92,1254.18 -164.57,160.64 -246.89,105.86 -340.95,-227.4 -113.68,-407.58 -325.33,-979.81 -391.96,-1069.94 -43.09,-58.78 -43.09,97.94 3.92,666.29 66.63,811.35 43.09,952.38 -152.84,1026.78 -231.27,86.24 -286.05,19.62 -442.93,-564.35 -47.09,-160.64 -141.14,-458.55 -211.66,-662.28l-129.29 -364.5 -23.55 921.03c-23.54,842.71 -35.27,928.84 -121.48,991.55l0 0c-160.65,117.6 -348.76,86.24 -486.02,-78.33 -211.66,-250.89 -360.61,-858.32 -521.26,-2104.65 -54.89,-442.81 -105.79,-811.35 -117.6,-819.16 -7.81,-7.81 -27.43,148.95 -47.09,348.76 -35.27,427.2 -141.14,768.27 -317.4,1022.98 -97.95,141.14 -243.01,243.01 -572.23,403.77 -243.01,121.48 -458.56,219.47 -474.29,219.47 -15.62,0 35.28,-117.61 113.68,-262.52 78.44,-145.03 203.85,-513.45 282.17,-823.05 74.44,-305.71 199.92,-685.82 278.25,-842.59 340.95,-693.75 1003.35,-1085.67 1704.91,-1101.29l70.71 -0.04 0 -0.19zm-2190.82 97.98c35.28,-7.81 19.62,39.27 -50.97,133.22 -305.72,431.12 -634.94,1426.66 -638.86,1928.26 0,258.63 -78.44,231.28 -113.68,-43.16 -113.67,-823.05 133.22,-1591.24 619.24,-1916.57 94.14,-62.51 156.84,-97.75 184.27,-101.75l0 0zm-27442.87 43.16c337.06,0 1113.03,125.41 1465.83,239.09 1085.67,348.76 2304.49,1187.54 2904.19,1994.89 368.42,497.72 599.7,1050.33 678.02,1622.55 19.62,141.15 31.35,254.82 27.43,254.82 -3.93,0 -180.31,-250.89 -388.04,-560.41 -842.71,-1234.63 -1516.8,-1846.06 -2700.35,-2437.83 -693.75,-348.77 -1559.88,-591.89 -2300.57,-646.67 -188.11,-11.73 -344.87,-23.43 -348.76,-27.43 -3.92,0 94.06,-97.94 215.54,-219.47 195.89,-200 242.86,-219.54 446.71,-219.54l0 0zm-940.65 924.91l517.33 50.98c1034.71,105.79 1857.76,403.65 2735.7,987.61 897.48,599.7 1438.36,1242.44 1822.52,2163.47 43.08,97.94 74.43,180.31 66.62,180.31 -3.92,-3.93 -172.49,-156.76 -376.22,-344.88 -1175.74,-1093.48 -1791.17,-1559.88 -2567.13,-1928.27 -791.7,-384.11 -1806.78,-666.2 -2386.82,-666.2 -105.79,0 -188.11,-15.74 -188.11,-35.28 0,-23.54 82.32,-125.53 188.11,-223.47l188 -184.27zm16555.05 78.44l35.28 928.84c47.09,1363.96 -74.44,3021.79 -313.52,4213.22 -54.9,270.44 -129.3,591.77 -168.57,709.37 -74.44,223.36 -74.44,223.36 -47.09,-219.46 39.16,-631.05 301.79,-3707.62 403.66,-4750.14l90.24 -881.83zm-17248.69 960.19c305.72,-7.81 1222.82,105.87 1548.16,195.93 893.56,246.89 2002.78,913.22 2539.69,1524.61 133.22,152.83 94.06,164.57 -243.01,54.89 -740.72,-239.08 -1983.16,-384.03 -2841.49,-337.06 -548.68,31.35 -1520.68,176.38 -1947.92,289.98 -141.14,39.27 -258.63,62.7 -258.63,50.97 0,-7.81 137.14,-109.68 305.72,-227.28 572.22,-388.04 1383.46,-623.12 2179.08,-631.05 536.99,-3.92 395.85,-58.78 -442.82,-172.49 -564.34,-74.44 -1160.11,-50.9 -1418.74,54.89 -62.7,23.43 -7.81,-94.05 164.57,-368.42 141.15,-219.46 286.06,-411.46 325.34,-427.2 15.54,-3.88 46.89,-7.77 90.05,-7.77l0 0zm16104.31 439.01c266.56,7.81 466.37,329.26 219.47,603.51 -133.22,141.14 -266.55,184.19 -411.46,125.52 -239.09,-94.05 -282.18,-427.2 -82.33,-611.39 90.13,-86.4 184.19,-117.64 274.32,-117.64l0 0zm13525.46 740.73c31.35,3.92 43.08,23.42 50.97,58.78 82.33,301.79 101.87,290.1 -1077.79,862.21 -607.51,297.9 -1120.95,536.99 -1140.5,536.99 -19.61,0 -62.7,-70.51 -101.86,-156.76 -35.28,-90.14 -78.44,-176.38 -86.25,-195.93 -23.54,-39.16 215.54,-156.76 1661.75,-823.04 427.2,-195.93 603.58,-274.37 678.02,-282.17 7.77,-0.08 11.77,-0.08 15.66,-0.08l0 0zm-28328.63 822.93c1215.01,0 1732.35,148.95 4769.76,1383.58 701.56,286.06 1650.02,666.21 2104.65,842.59 458.55,180.31 842.7,337.07 854.4,348.76 11.73,11.81 -78.44,168.58 -199.93,352.8 -121.48,180.31 -266.55,419.4 -325.33,533.07 -160.65,321.34 -497.72,1175.85 -501.64,1273.79 0,70.52 -11.73,62.71 -50.97,-31.35 -31.35,-70.51 -43.09,-301.79 -27.43,-540.8l23.54 -415.46 -97.94 219.46c-243.01,548.69 -427.2,1293.34 -435.01,1783.24l-3.92 203.85 -97.94 -223.35c-180.31,-411.58 -250.82,-826.97 -250.82,-1469.72 0,-442.93 19.62,-666.28 78.44,-819.16 117.6,-313.6 54.89,-250.9 -145.03,148.84 -482.1,960.26 -748.65,2163.46 -654.48,2951.27l0 0c19.62,160.65 31.35,297.79 23.55,309.6 -23.55,31.36 -270.44,-556.53 -348.77,-842.59 -125.4,-439.01 -125.4,-2163.46 0,-2476.99 43.09,-117.6 74.44,-223.35 66.63,-231.27 -27.43,-27.43 -431.12,705.44 -556.53,1011.16 -223.35,552.61 -317.41,1019.09 -325.33,1622.55 -11.74,615.32 -35.28,631.05 -164.58,109.79 -168.57,-697.64 -62.7,-2382.93 180.31,-2951.28 121.49,-286.05 23.54,-164.57 -250.82,297.91 -262.63,450.63 -509.52,1113.03 -587.88,1575.58l-66.63 387.92 -62.71 -239.08c-156.76,-587.89 -121.48,-1869.49 62.71,-2230.06 133.22,-250.82 31.35,-148.95 -227.28,235.08 -548.68,815.24 -799.5,1544.23 -799.5,2359.4l-3.93 505.63 -125.41 -286.05c-199.92,-446.82 -258.62,-772.08 -254.7,-1387.47 3.92,-623.12 113.68,-1234.51 270.44,-1540.23 82.32,-168.57 86.25,-188.11 15.73,-129.29 -160.64,133.22 -823.05,1179.65 -960.19,1516.68 -156.76,380.23 -266.55,1007.28 -223.35,1273.79 23.54,156.77 7.81,137.15 -129.29,-137.14 -129.3,-266.55 -156.77,-384.11 -172.5,-783.88 -27.43,-540.88 101.87,-1195.47 305.71,-1555.97 160.65,-293.98 39.17,-219.46 -395.84,239.09 -540.88,568.34 -799.51,1128.76 -811.36,1740.15l-3.92 333.14 -97.94 -246.89c-66.63,-160.65 -105.79,-407.66 -125.41,-713.26 -19.62,-399.77 -7.81,-521.25 82.32,-795.62 176.38,-529.06 583.96,-1093.41 1050.32,-1461.9 129.3,-101.87 227.28,-188.12 211.66,-188.12 -78.44,0 -940.65,403.78 -1246.36,580.04 -713.26,419.39 -1324.69,1144.5 -1540.23,1838.21l-109.79 348.76 -15.74 -317.52c-31.35,-638.74 176.39,-1261.98 603.59,-1787.12 309.6,-388.04 466.36,-537 748.65,-717.3 199.92,-125.41 207.73,-141.15 82.32,-113.68 -207.73,50.97 -948.46,372.31 -1226.71,533.07 -125.4,74.52 -321.44,215.54 -427.2,313.52l-199.92 180.31 137.14 -246.9c450.75,-791.69 1171.85,-1371.77 2100.77,-1697.1l399.77 -137.15 -250.86 0.04c-658.48,-3.92 -1881.3,368.42 -2241.79,678.02 -90.13,78.44 -90.13,74.44 -31.35,-39.16 121.48,-227.39 803.42,-858.32 1081.67,-995.54 379.69,-192.12 861.78,-278.25 1520.18,-282.29l0 0zm28559.83 98.06l207.73 192.11 203.85 192 -97.94 105.87c-50.97,62.71 -227.28,203.85 -391.96,317.53 -419.4,293.98 -407.58,293.98 -462.48,148.95 -129.29,-341.07 -3.92,-634.94 368.42,-854.4l172.38 -102.06zm-3511.7 215.58c78.44,-3.92 156.76,11.81 235.2,50.97 321.33,152.84 395.85,611.39 141.15,862.21 -172.5,176.38 -391.97,192.12 -631.05,46.97 -188.12,-117.6 -270.44,-305.71 -235.2,-533.07 39.16,-254.62 250.82,-423.2 489.9,-427.08l0 0zm-5353.72 47.09c7.81,0 23.55,0 35.28,7.81 47.09,15.61 376.23,105.79 736.8,195.92 658.48,168.57 1618.67,301.71 2320.23,325.22 207.73,7.8 364.5,27.42 344.88,46.97 -74.44,66.62 -1128.77,246.89 -1591.24,274.36 -466.36,27.43 -474.29,27.43 -532.99,172.49 -43.09,105.79 -47.09,199.85 -7.81,372.31 31.35,125.41 50.97,231.28 43.08,235.2 -3.92,0 -254.7,15.73 -556.53,35.28 -509.52,27.42 -552.61,23.42 -599.7,-66.63 -86.24,-160.65 -58.78,-184.19 305.72,-266.56 301.79,-66.62 380.11,-105.86 532.99,-278.24l180.3 -195.93 -203.84 31.36c-631.05,90.13 -1258.06,148.83 -1258.06,117.6 0,-54.9 148.95,-842.71 180.3,-944.58 11.81,-43.08 35.36,-66.62 70.59,-62.58l0 0zm-5220.49 301.79c43.08,0 90.13,7.81 129.29,27.43 254.7,113.59 297.91,423.31 86.25,634.93 -133.22,133.22 -364.5,121.48 -513.45,-23.54 -141.14,-141.15 -148.95,-223.36 -50.97,-415.39 74.55,-137.3 211.77,-223.43 348.88,-223.43l0 0zm17785.68 317.41c11.73,0 19.62,35.27 19.62,74.51 0,141.03 -791.69,603.5 -2962.97,1724.46 -756.46,388.04 -1634.4,854.4 -1951.81,1034.7 -517.34,286.06 -587.89,344.88 -685.83,540.88l0 0c-62.71,121.49 -129.3,227.39 -156.76,235.09 -90.14,23.54 -235.2,-243.01 -254.71,-470.29 -27.42,-274.36 -27.42,-274.36 556.54,-568.34 239.08,-117.6 544.8,-278.25 681.9,-352.81l246.9 -137.14 -419.36 0.08c-489.9,-3.92 -1140.49,-188.11 -1842.02,-525.18l-423.31 -203.85 364.49 -184.19c344.88,-172.38 466.37,-278.25 783.89,-693.75 239.09,-309.6 815.24,-478.1 1046.44,-305.72 86.25,66.63 74.44,70.52 -156.76,74.52 -407.58,3.92 -576.15,152.83 -799.51,697.64 -109.79,266.55 -282.17,364.49 -764.26,427.2 -297.91,39.16 -286.06,43.16 270.43,78.43 176.39,11.74 509.53,62.71 736.8,117.61 486.02,117.6 1120.96,129.29 1810.67,31.35 423.32,-58.78 568.35,-109.68 1618.67,-591.77 1097.41,-501.8 2237.91,-1003.43 2280.95,-1003.43l0 0zm-8626.29 160.68c3.93,0 7.81,0 7.81,0 11.73,11.81 -121.48,113.68 -293.98,223.35 -329.26,207.74 -615.32,317.53 -552.61,207.74 43.16,-66.59 768.27,-435.01 838.78,-431.09l0 0zm313.53 329.22c15.73,3.92 94.05,54.9 168.57,117.6l141.14 117.6 -199.92 180.31c-113.68,101.86 -203.85,199.84 -203.85,223.35 0,19.62 184.19,129.29 403.66,246.89 521.25,266.56 1332.61,791.7 1842.01,1199.28l0 0c7.81,3.92 -43.08,94.06 -113.67,192.12 -66.63,101.86 -121.49,164.57 -121.49,137.14 0,-105.87 -1555.96,-1109.15 -2026.25,-1305.07 -105.79,-43.16 -243.01,-66.63 -305.71,-50.97 -97.94,23.54 -117.6,7.81 -145.03,-137.14 -15.62,-90.14 -23.54,-250.9 -15.62,-356.69 15.62,-172.5 47.09,-215.66 282.17,-380.23 145.03,-101.94 278.37,-184.19 293.99,-184.19l0 0zm-2406.48 199.93c82.32,0 219.46,19.61 435.01,46.97 388.04,50.97 944.57,184.19 1003.35,239.08 19.62,15.74 19.62,94.06 0,176.38l-31.35 145.03 -246.9 -58.78c-133.22,-35.28 -462.47,-94.06 -728.99,-133.22 -266.55,-39.16 -486.02,-78.32 -493.83,-86.13 -7.81,-7.81 -23.54,-86.25 -43.08,-172.5 -19.62,-117.67 -31.32,-160.84 105.79,-156.83l0 0zm11581.57 43.08c125.41,0 501.64,286.06 866.13,654.48 239.09,243.01 254.7,274.36 195.92,368.42 -35.27,58.78 -78.44,101.98 -90.13,97.94 -54.9,-19.62 -1081.68,-1046.44 -1081.68,-1081.68 0,-19.54 50.98,-39.16 109.76,-39.16l0 0zm-13725.38 109.68l74.44 137.14c94.05,188.11 97.94,188.11 -113.68,223.35 -101.87,15.73 -317.41,70.51 -486.02,117.6 -215.54,62.7 -317.41,74.44 -352.8,35.28 -101.87,-97.95 -54.9,-172.38 152.84,-246.9 113.67,-43.08 325.33,-121.48 466.36,-172.5l258.86 -93.97zm8034.52 39.16c121.48,-3.93 246.89,50.97 301.79,172.49 47.08,105.79 39.16,145.03 -43.09,258.63 -129.29,176.3 -309.6,192 -482.09,43.09 -129.3,-109.68 -133.22,-125.41 -74.44,-270.44 50.93,-129.26 176.34,-195.85 297.83,-203.77l0 0zm-9437.65 352.8c3.93,7.81 43.09,90.13 82.33,180.3l74.43 168.58 -474.28 235.08c-262.63,133.22 -482.1,239.09 -493.83,239.09 -19.62,0 -137.14,-184.19 -137.14,-215.55 0.04,-27.46 936.8,-627.04 948.49,-607.5l0 0zm14011.48 54.86c211.66,-11.74 462.47,82.32 760.34,282.17 262.63,176.3 689.83,595.77 689.83,678.02 0,15.73 -62.7,70.51 -141.14,117.6 -78.44,43.16 -152.84,82.32 -160.65,82.32 -11.73,0 -97.94,-78.44 -192,-176.38 -250.82,-262.51 -721.18,-560.42 -881.87,-560.42 -121.48,0 -145.03,27.43 -192,195.92 -62.7,235.09 -184.19,262.52 -368.42,78.33 -164.57,-164.57 -152.83,-301.79 43.09,-493.83 129.29,-129.3 274.36,-199.81 442.82,-203.73l0 0zm-17864.13 129.33c117.6,0 219.47,70.51 282.17,211.54 70.52,176.38 23.55,403.77 -109.79,505.64 -137.22,105.87 -348.76,82.32 -482.09,-50.97 -160.65,-164.57 -152.84,-344.88 23.54,-521.26 94.17,-93.98 196.04,-141.07 286.17,-144.95l0 0zm16555.06 113.68c31.35,-7.81 78.44,66.62 164.57,246.89 235.2,489.91 921.03,803.43 1324.69,603.58 86.24,-43.16 160.64,-74.51 164.57,-66.63 3.92,3.93 50.97,94.06 101.86,192.12 105.79,203.85 86.25,243.01 -168.57,325.22 -215.54,74.51 -564.42,66.63 -826.97,-15.62 -599.7,-188.23 -944.57,-693.76 -811.36,-1187.54 15.97,-62.75 31.71,-94.1 51.21,-98.02l0 0zm-10045.11 113.67c623.12,-7.81 1273.79,66.63 1896.91,223.35 1105.22,274.37 2308.5,972 3276.5,1893.03 1563.77,1497.19 2574.94,3566.56 2880.65,5906.33 78.44,591.77 35.28,2331.92 -70.51,2837.56 -286.06,1403.13 -654.48,2355.47 -1332.62,3472.54 -391.96,646.67 -650.55,972 -1250.24,1571.7l0 0c-289.98,289.98 -556.54,525.18 -591.77,521.25 -94.06,-7.81 -905.42,-466.36 -1191.47,-670.21 -133.22,-97.94 -654.48,-580.03 -1152.31,-1066.05 -501.64,-489.91 -1117.03,-1046.44 -1363.96,-1238.56 -450.75,-348.76 -1218.9,-811.35 -1599.05,-960.27 -137.22,-58.78 -243.01,-152.83 -364.49,-337.06 -305.72,-450.63 -1446.18,-1548.04 -1987.09,-1908.65 -807.32,-536.88 -1865.56,-983.74 -2763.05,-1167.93 -274.36,-58.78 -317.41,-82.32 -372.3,-215.54 -78.44,-184.19 -219.47,-909.29 -219.47,-1128.76l0 -160.65 262.63 27.43c293.98,27.43 497.71,-50.97 662.4,-258.63 82.32,-105.86 117.6,-117.6 195.92,-74.43 239.09,129.29 548.69,27.42 728.99,-239.09 82.33,-121.49 195.93,-199.85 395.85,-274.36 152.84,-58.78 309.6,-121.49 352.8,-137.15 50.97,-23.54 290.1,129.3 717.18,446.82 2825.87,2104.65 4013.3,2986.52 4111.36,3049.23 66.63,39.27 117.6,105.86 117.6,145.02 3.92,141.03 199.92,517.34 356.69,678.02 329.25,340.96 740.72,458.56 1167.92,337.07 909.3,-266.44 1199.28,-1438.36 521.26,-2096.76 -203.85,-195.92 -560.42,-337.07 -858.33,-337.07 -188.11,0 -270.44,-46.97 -952.38,-576.03 -411.46,-317.53 -948.46,-732.92 -1191.47,-917.11 -243.01,-188.23 -1113.02,-846.59 -1932.19,-1461.91 -478.17,-360.61 -889.67,-670.21 -1167.92,-885.75l-517.33 -352.8 -23.55 -31.35 -380.11 -348.76c-23.55,11.73 -39.16,15.73 -39.16,15.73 -15.74,0 -70.52,-78.44 -121.49,-160.76l-15.73 -15.62 -376.23 -756.46 0 -3.92 -419.39 -662.29c-86.25,-78.44 -172.5,-145.03 -250.82,-192.11 -82.33,-46.97 -78.44,-66.63 101.86,-282.17 599.7,-717.3 1975.36,-1603.05 3006.06,-1936.2 525.11,-172.69 1124.8,-262.82 1751.85,-270.67l0 0zm-11667.74 74.44c54.9,-3.92 121.49,19.62 215.54,58.78l148.96 62.7 -290.1 399.78c-521.26,736.8 -1003.35,1869.48 -1230.63,2908.07 -82.32,384.12 -109.79,674.1 -113.68,1183.66l0 0c0,368.42 -11.73,670.21 -27.43,666.29 -227.27,-43.09 -270.43,-82.33 -325.33,-289.98 -82.32,-317.53 -78.44,-1132.77 11.73,-1665.76 180.31,-1089.6 846.59,-2598.47 1410.94,-3205.98 74.59,-78.4 125.6,-117.56 200,-117.56l0 0zm964.19 254.7c27.43,0 47.09,19.62 82.33,46.97 47.08,47.09 125.41,82.33 172.49,82.33 43.09,0 82.33,11.73 82.33,27.43 0,11.73 -109.8,172.38 -239.09,356.68 -289.98,395.85 -634.93,1073.87 -862.21,1685.26 -399.77,1085.68 -540.88,1818.48 -501.64,2622.02 15.74,305.72 7.81,552.61 -11.73,552.61 -78.44,0 -246.89,-235.08 -325.33,-442.82 -184.19,-509.52 -125.41,-1411.01 152.83,-2375.12 270.44,-940.65 803.43,-1967.43 1242.44,-2394.63 117.45,-113.64 168.42,-160.73 207.58,-160.73l0 0zm24797.35 94.18c15.62,-3.93 27.43,0 31.35,3.92 82.33,82.33 58.78,203.85 -58.78,317.53 -141.14,133.21 -1497.18,783.88 -2974.71,1426.66 -1215.01,529.07 -2520.15,1164 -2998.24,1453.98 -156.77,94.06 -356.69,258.63 -450.75,364.5 -184.19,215.54 -215.54,207.73 -348.76,-113.68 -94.06,-231.27 -97.94,-427.2 0,-427.2 39.16,0 407.58,-172.38 819.16,-384.11 411.59,-211.66 960.19,-482.1 1222.82,-599.58 258.63,-117.6 466.37,-223.35 458.56,-231.28 -11.74,-7.81 -199.93,7.81 -427.2,39.16 -450.75,58.78 -858.33,160.65 -1117.03,282.17 -125.41,58.78 -172.5,66.63 -188.12,19.62 -7.81,-31.35 -90.13,-164.57 -180.3,-289.98 -576.16,-819.16 -536.99,-744.72 -435.01,-819.16 50.97,-39.28 109.79,-74.51 129.29,-74.51 74.44,-3.93 446.82,376.22 505.64,517.33l62.71 152.84 505.64 -113.6c552.61,-125.41 1152.3,-148.96 1555.96,-62.71 297.9,62.71 313.52,58.78 2484.8,-901.48 862.05,-380.12 1285.37,-548.69 1402.97,-560.42l0 0zm-18040.51 35.27c23.55,0 62.71,43.09 90.14,94.06 43.08,74.44 11.73,117.6 -180.31,254.82 -129.29,90.13 -368.42,278.25 -532.99,423.32 -282.17,246.89 -407.58,313.52 -407.58,215.54 -0.08,-55.01 971.92,-987.74 1030.74,-987.74l0 0zm-5972.95 270.44c43.08,-3.92 148.95,27.43 254.7,74.44l223.35 101.98 -223.35 329.26c-415.47,595.77 -901.49,1755.77 -1101.29,2606.29 -101.87,431.12 -188.12,1109.22 -188.12,1458.02 0,195.92 -19.62,352.8 -43.08,352.8 -23.55,0 -101.87,-109.79 -176.38,-246.9 -427.2,-783.88 19.62,-2857.22 909.29,-4205.41 160.65,-243.01 309.6,-450.74 333.15,-466.48 3.84,-4 7.73,-4 11.73,-4l0 0zm18683.17 137.11c50.97,3.92 97.94,23.54 160.65,54.89 270.43,137.22 254.7,486.02 -23.55,611.39 -156.76,70.51 -254.7,66.63 -419.39,-23.54 -282.17,-152.84 -223.35,-513.33 97.94,-611.39 82.48,-23.55 133.45,-35.24 184.35,-31.35l0 0zm5682.97 309.63c43.09,7.81 97.95,82.33 239.09,278.25 399.77,560.42 983.73,1814.71 1207.2,2582.86 31.35,109.79 15.74,156.76 -70.51,243.01l-113.68 101.87 -184.23 -525.18c-215.54,-619.32 -760.34,-1767.63 -1054.32,-2214.44 -199.93,-313.53 -203.85,-313.53 -105.79,-411.47 35.23,-35.28 54.78,-54.9 82.24,-54.9l0 0zm-862.24 450.71l289.98 438.93c450.74,693.75 1011.16,1928.27 1109.14,2461.26 31.35,164.69 23.54,180.3 -145.03,258.63l-176.38 82.32 -47.09 -125.53c-23.54,-66.62 -47.08,-141.02 -47.08,-160.64 0,-19.62 -97.95,-293.98 -219.47,-615.32 -239.09,-631.05 -576.15,-1301.26 -897.49,-1783.23 -227.27,-340.96 -231.27,-352.69 -148.95,-352.69 35.28,0 109.79,-43.08 168.57,-101.98l113.8 -101.75zm-21818.61 109.79c129.3,0 286.06,3.92 478.18,11.73 964.19,31.36 1305.14,82.33 1653.9,258.63 223.35,109.79 752.54,552.61 713.26,595.77 -11.73,11.81 -105.79,-23.42 -211.66,-74.43 -180.3,-90.14 -454.67,-164.69 -870.13,-231.28l-195.93 -31.35 293.98 215.66c160.65,117.6 513.45,364.37 780.01,548.68 807.31,552.61 905.41,646.67 1081.67,1026.78 258.63,572.23 391.96,1034.71 337.07,1191.47 -101.87,293.98 -293.98,188.11 -748.65,-427.2 -258.63,-348.76 -654.48,-850.52 -748.65,-952.38 -62.7,-70.52 254.7,850.51 517.33,1489.33 243.01,591.77 278.25,783.89 176.38,905.3 -152.83,188.11 -246.89,97.94 -905.41,-905.3 -278.24,-415.47 -536.99,-787.81 -580.03,-823.05 -78.44,-66.63 -35.28,133.22 313.52,1387.47 50.97,188.12 94.06,399.77 94.06,470.36 0,152.84 -152.84,305.72 -262.63,262.52 -47.09,-19.62 -250.82,-278.25 -458.56,-580.04 -450.74,-658.48 -717.18,-987.62 -740.72,-921.03 -15.73,50.89 74.44,513.33 207.73,1093.41 97.95,399.77 94.06,556.61 0,650.55l0 0c-141.14,141.14 -180.3,105.87 -560.41,-486.02 -340.96,-525.18 -631.05,-815.24 -1109.15,-1105.22 -517.33,-313.52 -752.53,-568.34 -752.53,-815.24 3.92,-681.9 329.26,-1853.87 658.48,-2347.66 231.39,-348.64 278.36,-411.35 838.89,-407.46l0 0zm14658.15 207.66c62.7,3.92 145.02,113.67 505.64,595.77 309.6,415.47 340.95,489.9 203.84,529.18 -47.08,15.62 -121.48,43.09 -172.49,62.71 -47.09,19.62 -82.33,11.73 -82.33,-11.81 0,-27.43 -168.57,-262.52 -372.3,-525.19 -388.04,-501.63 -384.12,-486.02 -148.95,-623.12 27.31,-15.73 46.93,-27.54 66.59,-27.54l0 0zm6400.11 352.76c43.09,0 66.63,35.27 129.3,133.22 121.48,203.85 121.48,195.92 -31.36,513.33 -97.94,199.92 -125.41,313.6 -105.79,470.36 54.9,497.72 352.81,819.16 791.7,858.33 254.7,19.62 258.63,23.42 309.6,223.35 43.09,152.84 43.09,211.54 0,239.08 -90.13,54.9 -431.12,39.16 -627.13,-31.35 -462.47,-164.57 -760.34,-493.83 -909.29,-1003.35 -86.25,-297.79 -62.71,-662.29 62.7,-901.37 74.44,-145.03 74.44,-145.03 -39.16,-117.6 -62.7,15.73 -215.54,39.16 -340.95,58.78 -207.73,31.35 -227.28,23.42 -254.7,-82.33 -62.71,-231.27 -54.9,-239 360.61,-239 258.62,0 446.82,-23.55 540.87,-74.52 50.9,-27.39 86.17,-43.01 113.6,-46.93l0 0zm-2100.76 619.24c31.35,0 66.63,15.73 105.79,54.89 195.92,195.93 164.57,693.64 -82.33,1191.47 -137.14,282.17 -521.25,701.56 -905.41,987.62l-148.95 109.79 184.19 -74.52c380.11,-148.95 948.46,-86.24 1591.24,180.31 145.03,58.78 168.49,54.9 262.63,-46.97 137.22,-148.95 403.66,-133.22 427.2,23.54 31.35,219.47 -86.25,509.53 -250.82,607.51 -192,117.6 -195.92,117.6 -297.91,3.92 -117.6,-129.29 -607.5,-340.95 -936.72,-403.65 -192,-35.28 -376.23,-35.28 -619.24,3.92 -188.11,27.43 -360.61,39.16 -384.11,27.43 -23.55,-15.74 -74.44,-94.06 -117.6,-176.38 -39.16,-82.33 -117.6,-223.35 -176.38,-313.53l-101.87 -168.57 160.65 -82.32c266.55,-133.22 607.5,-399.78 740.72,-576.04l125.41 -164.69 -172.5 86.25c-384.11,195.92 -924.91,164.57 -1179.73,-66.63 -133.22,-121.48 -137.22,-184.19 -19.62,-329.14l90.13 -113.68 137.14 105.87c164.58,129.3 435.01,141.03 795.62,31.35 356.69,-105.86 580.04,-329.25 627.13,-627.04 23.85,-176.66 78.75,-266.83 145.34,-270.71l0 0zm-427.2 195.92c23.54,0 43.08,0 66.63,3.92 152.84,19.62 172.49,180.31 39.16,348.76 -176.38,227.4 -438.93,137.15 -438.93,-152.83 0,-97.91 172.49,-195.85 333.14,-199.85l0 0zm3104.12 145.03c70.51,3.92 141.14,43.16 215.54,117.6 141.14,141.14 156.76,321.33 35.27,427.2 -164.57,145.03 -297.9,152.84 -427.2,19.62 -148.95,-148.95 -160.64,-337.07 -27.42,-470.36 66.7,-66.63 133.29,-97.95 203.81,-94.06l0 0zm-2010.6 717.3c137.15,-3.93 297.91,78.43 348.76,188.11 70.52,152.84 -35.27,407.66 -191.99,466.48l0 0c-145.03,54.89 -113.68,54.89 -258.63,-19.62 -66.63,-31.35 -152.84,-117.6 -192,-188.12 -66.63,-113.59 -62.71,-141.02 11.73,-258.62 47.09,-70.52 133.22,-148.84 192,-168.58 27.43,-11.85 58.78,-15.77 90.13,-19.65l0 0zm-3609.67 184.19c7.8,0 11.73,0 15.61,0 43.09,3.92 90.14,66.62 164.57,184.19 192,305.71 215.55,423.31 109.8,505.52 -50.98,35.28 -105.79,70.51 -121.49,70.51 -15.73,0 -90.13,-137.14 -164.57,-301.79 -97.94,-215.54 -121.49,-325.22 -90.13,-376.23 31.35,-51.01 58.78,-78.44 90.13,-82.32l-3.92 0 0 0.12zm8406.86 474.17c66.63,7.81 141.14,188.11 109.79,274.36 -31.35,86.25 -188.12,160.65 -748.65,372.3 -482.1,180.31 -2382.94,838.67 -3629.26,1254.18 -1238.55,415.38 -2755.24,1097.41 -2966.9,1332.49 -90.13,101.98 -90.13,101.98 15.62,39.28 62.71,-39.28 121.49,-54.9 133.22,-43.09 15.73,15.62 43.08,274.25 58.78,580.04 27.43,446.82 23.54,560.42 -35.28,595.77 -35.27,23.43 -125.41,43.17 -192,43.17 -129.29,0 -129.29,0 -184.19,-623.13 -35.27,-344.87 -74.43,-717.29 -90.13,-826.97l-27.43 -203.85 489.91 -246.89c1062.13,-536.88 2516.15,-1073.87 5890.71,-2171.28 603.58,-199.85 1128.76,-368.42 1164,-376.23 4,-0.15 7.88,-0.15 11.81,-0.15l0 0zm-34274.16 196.04c121.49,3.92 438.94,78.44 1207.21,270.43l1117.03 278.37 -548.69 176.38c-301.79,97.94 -760.34,278.25 -1018.97,403.66 -258.63,121.48 -603.58,301.79 -772.08,399.77 -360.61,211.54 -348.76,258.63 -176.38,-752.54 66.63,-391.96 121.49,-728.99 121.49,-748.53 -0.12,-19.73 15.54,-31.47 70.39,-27.54l0 0zm14724.78 333.14l819.16 615.31c454.67,340.96 944.57,709.38 1093.48,826.98 145.03,113.67 587.89,446.82 979.81,740.84 631.05,474.17 2159.55,1646.01 2269.22,1744.07 27.43,19.62 -27.42,113.68 -117.6,211.66 -168.49,176.38 -219.46,203.85 -250.82,133.22 -7.8,-19.62 -1042.51,-803.43 -2292.76,-1740.15 -1254.17,-936.73 -2328.04,-1759.82 -2390.74,-1826.41 -86.25,-97.94 -109.79,-180.3 -109.79,-415.46l0.04 -290.06zm11722.59 27.43c39.16,-3.93 50.97,15.62 66.63,58.78 15.74,46.97 78.44,223.35 141.14,388.04 121.49,313.52 317.41,1034.7 317.41,1160.11 0,43.17 -70.51,109.68 -152.83,152.84 -86.25,43.16 -160.65,74.52 -168.58,74.52 -3.92,0 -50.97,-156.77 -97.94,-352.81 -47.09,-195.92 -160.65,-576.15 -250.82,-842.7 -90.13,-270.44 -145.03,-501.64 -125.41,-517.34 19.62,-15.73 97.94,-54.89 172.5,-90.13 43.01,-15.66 74.36,-27.39 97.9,-31.31l0 0zm7956.2 372.22l62.7 376.31c125.41,787.81 113.68,2676.8 -27.43,3151.09 -11.73,47.08 -66.62,94.05 -121.48,105.87 -97.94,27.42 -101.87,15.73 -62.71,-395.85 78.44,-807.43 11.74,-2614.21 -109.79,-3010.06 -15.73,-54.9 19.62,-105.87 117.6,-152.84l141.11 -74.52zm-5741.87 274.44c109.79,-3.92 129.29,62.71 113.67,203.85 -11.73,94.06 -66.63,137.15 -258.63,203.85 -137.14,43.16 -282.17,97.94 -325.33,117.6 -62.7,27.43 -94.06,-7.81 -141.14,-145.03 -31.36,-97.94 -50.98,-184.19 -43.09,-192.11 11.73,-11.74 172.5,-62.71 356.69,-121.49 141.1,-43.12 235.12,-66.67 297.83,-66.67l0 0zm4699.24 125.41c97.94,3.93 117.6,117.6 172.49,521.26 109.79,858.33 31.36,2406.48 -141.14,2864.92 -35.28,97.94 -82.33,125.52 -195.92,125.52 -176.39,0 -172.5,23.43 -70.52,-638.86 62.71,-399.77 70.52,-709.37 47.09,-1418.74 -15.62,-497.71 -47.09,-1007.35 -70.51,-1136.57l-39.17 -231.28 168.58 -54.89c54.7,-19.62 97.74,-31.36 129.1,-31.36l0 0zm-905.26 497.72c78.44,-3.93 101.87,66.7 101.87,239.08 -3.93,184.19 -19.62,215.55 -195.93,325.34 -250.81,152.84 -403.65,462.47 -403.65,803.43 0,364.49 152.84,615.31 521.25,838.66 58.79,39.16 70.52,94.06 47.09,235.09 -35.27,211.65 -94.06,223.35 -399.77,74.51 -532.99,-258.63 -787.81,-1034.7 -548.69,-1673.56 105.79,-282.17 435.01,-634.94 728.99,-787.81 62.59,-31.2 109.56,-50.82 148.84,-54.74l0 0zm-2379.05 564.46c11.73,0 7.81,58.78 -3.92,125.41 -27.43,137.14 -227.28,317.4 -348.76,317.4 -70.52,0 -70.52,7.81 -7.81,47.09 39.16,27.43 235.2,50.9 431.12,50.9 340.95,0 356.69,3.92 403.66,133.21 39.16,90.14 35.27,168.58 -3.93,270.44l0 0c-35.27,74.44 -74.43,145.03 -90.13,156.76 -19.62,11.74 -317.41,-54.89 -666.28,-145.02 -924.92,-235.21 -1626.48,-513.45 -1301.26,-513.45 58.78,0 438.93,-97.94 838.66,-219.47 403.81,-121.41 736.84,-223.27 748.65,-223.27l0 0zm-28775.37 62.7c148.96,0 290.1,3.93 415.47,11.73l529.07 35.28 -662.4 258.63c-858.33,340.95 -1442.29,634.93 -2081.15,1054.25 -282.17,188.11 -525.18,341.06 -532.99,341.06 -7.81,0 -7.81,-27.42 3.93,-58.78 11.73,-35.27 121.48,-376.22 246.89,-756.45 156.76,-486.02 250.82,-705.45 305.72,-721.19 321.37,-97.94 1128.68,-168.57 1775.46,-164.53l0 0zm31177.85 450.63c54.89,0 113.67,19.62 168.57,62.7 160.65,117.6 188.11,274.37 86.25,431.13 -94.06,141.02 -321.33,164.57 -438.93,46.97 -223.47,-223.28 -54.9,-552.53 184.11,-540.8l0 0zm-26400.28 415.47l-423.32 188.11c-885.75,403.66 -1697.1,968.08 -2281.07,1595.12 -1285.52,1371.78 -2218.36,3676.35 -2300.57,5667.24 -19.62,384.04 -7.81,803.43 23.55,1003.36 54.89,352.68 43.08,466.36 -31.36,266.55 -23.54,-66.71 -90.13,-239.08 -145.03,-388.04 -391.96,-1062.13 -207.73,-2833.68 458.56,-4420.99 337.06,-795.62 693.75,-1442.29 1054.32,-1904.73 195.92,-243.01 160.65,-254.82 -78.44,-19.54 -540.87,529.07 -1175.73,1434.48 -1540.23,2202.63 -446.82,928.84 -815.24,2194.82 -913.22,3139.36 -31.35,301.71 -43.08,325.21 -78.44,195.92 -94.05,-317.53 -101.86,-1164 -19.61,-1642.21 184.19,-1065.94 732.91,-2331.93 1410.93,-3268.69 101.87,-145.03 164.57,-258.63 141.14,-258.63 -27.43,0 -227.27,195.93 -446.82,439.01 -917.1,995.43 -1512.87,2026.25 -1889.1,3256.88l-121.49 395.85 27.43 -423.32c113.68,-1728.46 1195.35,-3519.5 2782.67,-4605.18 1030.78,-709.37 2665.1,-1277.72 4001.6,-1387.47l368.5 -31.23zm23100.24 172.49c599.69,3.93 1191.47,435.01 1301.26,995.55l31.35 156.76 -211.66 0c-192,0 -227.27,-15.74 -301.79,-148.95 -62.7,-109.8 -105.79,-141.15 -148.95,-105.87 -31.35,27.43 -148.95,78.44 -254.71,113.67l-195.92 66.63 219.47 35.28c1293.33,227.39 3166.82,470.36 4362.17,568.34 403.66,35.28 415.47,39.16 431.13,164.57 7.8,94.06 -19.62,156.77 -97.95,207.74l0 0c-109.79,78.44 -164.57,82.32 -529.06,46.97 -94.06,-7.81 -446.82,-39.16 -783.89,-66.63 -1407.01,-121.49 -4142.71,-552.73 -4997.15,-791.7l-560.41 -160.64 219.46 -66.71c117.6,-39.16 384.12,-74.44 583.96,-78.44 203.85,-7.81 415.47,-35.27 474.29,-66.63 58.78,-31.35 297.91,-121.48 532.99,-199.92l427.2 -145.03 -211.66 -58.78c-117.6,-31.35 -376.22,-47.09 -568.34,-39.28 -344.88,19.62 -356.69,15.73 -384.12,-101.87 -39.16,-156.76 54.9,-227.39 407.59,-301.79 86.24,-15.46 168.61,-23.27 254.74,-23.27l0 0zm-21077.92 521.26c321.45,0 627.13,19.62 866.14,66.63 713.25,133.22 1438.36,360.61 2104.64,662.4 364.5,164.57 407.58,227.27 97.95,141.03 -297.91,-82.33 -1395.32,-23.43 -1849.95,97.94 -603.58,160.65 -1348.23,509.52 -889.68,415.47 340.96,-70.52 1963.55,-39.17 2578.86,50.97 1387.39,199.84 2786.59,764.27 3950.59,1587.31 168.58,121.49 297.91,227.28 290.1,239.09 -11.73,11.73 -125.41,-23.54 -250.82,-78.44 -486.02,-207.73 -2167.35,-654.59 -2966.89,-787.81 -631.05,-101.98 -1810.67,-215.66 -1853.87,-172.5 -11.74,15.74 3.92,27.43 35.27,27.43 66.63,0 1011.17,391.96 1595.13,662.4 760.34,352.69 1936.07,830.86 3429.33,1395.2 1614.75,611.39 2649.45,1026.9 3100.12,1238.56l258.62 117.6 -317.4 35.27c-348.77,35.28 -1238.56,-35.27 -1908.73,-148.83 -1418.74,-239.09 -3495.96,-964.2 -5412.5,-1885.22 -388.04,-184.19 -713.25,-329.26 -725.1,-321.34 -31.36,35.28 795.62,799.51 1160.11,1073.87 736.8,548.69 1963.55,1234.51 2970.78,1653.91 1563.78,654.59 3276.5,1164 5847.55,1736.26 1105.22,246.9 1050.32,223.35 736.8,333.15 -1152.31,395.84 -3202.06,478.09 -5095.09,203.73 -2132.12,-309.6 -4511.13,-1199.28 -6247.39,-2343.77 -619.24,-407.59 -1481.53,-1085.68 -1669.64,-1316.88 -117.6,-145.03 -125.41,-145.03 -94.06,-35.28 195.92,697.64 1007.28,1794.97 1806.78,2449.53 1798.97,1465.83 4601.26,2476.99 7501.57,2700.34 885.75,70.51 2430.02,31.35 3158.89,-78.44 599.7,-90.13 1438.37,-290.1 1787.24,-419.39 133.22,-50.97 246.9,-86.25 254.71,-78.44 70.51,70.51 -1046.44,662.29 -1618.67,862.21 -505.64,176.38 -1410.93,368.42 -2100.76,442.93l0 0c-435.01,46.97 -1994.9,58.79 -2461.34,15.62 -1383.47,-121.48 -2904.19,-486.02 -4287.66,-1030.7 -2723.88,-1070.06 -4675.69,-2818.06 -5490.93,-4918.79l-195.93 -505.52 19.62 611.39c15.74,384.12 50.97,689.83 97.94,819.16 43.09,117.6 66.63,207.74 54.9,207.74 -11.73,0 -129.29,-160.77 -258.63,-356.69 -282.17,-431.12 -446.82,-913.22 -486.02,-1399.2 -39.16,-544.8 -117.6,-309.6 -145.03,454.67 -31.35,752.53 47.09,1226.7 305.72,1896.91 282.17,728.99 646.67,1309.07 1269.9,2026.33l297.91 340.95 -380.11 -262.51c-838.67,-576.16 -1407.01,-1230.63 -1842.02,-2120.31 -313.53,-638.86 -670.21,-1689.3 -752.54,-2194.82 -31.35,-211.66 -70.51,-380.11 -82.32,-368.42 -7.81,11.73 -39.16,215.54 -58.78,450.63 -78.44,803.51 97.94,1846.06 419.39,2488.8l168.57 344.88 -199.92 -223.35c-979.81,-1066.06 -1348.23,-2998.25 -854.4,-4468.05 58.78,-184.19 101.86,-333.14 94.05,-333.14 -54.89,0 -470.28,964.08 -560.41,1301.26 -90.14,325.22 -109.8,525.18 -109.8,1175.85 0,709.37 11.74,823.05 133.22,1211.09 156.76,513.33 486.02,1183.54 764.27,1555.96 250.82,333.14 764.27,862.21 1148.38,1183.66 631.05,533.07 1806.78,1230.63 2629.83,1567.69 211.66,86.25 376.23,164.69 368.42,176.38 -35.28,35.28 -917.1,-231.27 -1450.09,-435 -2335.85,-905.42 -3844.84,-2574.94 -4060.39,-4499.32 -164.57,-1477.52 654.48,-3205.98 1994.9,-4201.53 470.28,-352.68 1250.25,-721.18 1853.87,-877.82 407.89,-105.79 987.93,-164.69 1524.8,-160.69l0 0zm-8116.76 454.67c39.16,-3.93 -7.81,23.42 -82.33,70.51 -82.32,50.89 -258.63,180.31 -395.85,286.06 -137.14,101.86 -415.46,325.21 -623.12,493.83 -203.85,168.57 -372.3,293.98 -372.3,278.24 0,-15.61 31.35,-141.02 66.63,-282.17 39.16,-137.22 82.32,-309.6 97.94,-380.23 27.43,-117.6 74.44,-141.14 603.58,-286.05 462.48,-125.41 654.48,-176.31 705.45,-180.19l0 0zm26843.1 423.2l223.39 0 227.27 0 -35.27 403.77c-31.36,391.96 -148.96,1171.85 -195.93,1297.22l0 0c-11.73,35.27 -50.97,62.7 -86.25,58.78 -74.43,-3.93 -282.17,-82.33 -282.17,-109.79 0,-7.81 35.28,-235.09 74.44,-501.64 39.16,-270.44 70.51,-634.94 74.44,-819.16l0 -329.18 0.08 0zm-6243.36 0c129.3,-3.93 270.44,43.16 391.96,164.68 129.3,129.3 168.58,207.74 168.58,344.88 0,227.39 -125.41,415.47 -329.26,501.71 -86.25,35.28 -176.38,66.63 -195.92,66.63 -117.61,-3.92 -372.31,-180.3 -435.01,-297.79 -203.97,-399.88 66.47,-768.3 399.65,-780.11l0 0zm8383.4 642.74c129.29,0 195.92,15.73 215.54,50.97 66.63,101.98 50.97,180.31 -54.9,286.06l0 0c-137.14,137.22 -513.44,137.22 -583.96,3.92 -31.35,-54.9 -50.97,-145.03 -50.97,-207.73 0,-105.87 19.62,-117.6 325.33,-129.3 54.78,-3.92 105.79,-3.92 148.96,-3.92l0 0zm1148.26 156.88c11.74,0 27.43,0 39.16,0 82.33,3.92 148.96,15.73 148.96,23.54 0,7.81 -43.09,97.94 -94.06,199.85 -133.22,262.63 -501.64,568.34 -830.86,697.64 -317.41,125.41 -1015.08,164.68 -1391.39,82.32 -250.82,-54.9 -309.6,-137.22 -97.94,-137.22 211.66,0 1038.63,-235.08 1359.92,-387.92 164.57,-74.52 399.77,-215.66 525.18,-313.6 145.11,-109.83 246.98,-160.73 341.03,-164.61l0 0zm1211.13 94.01c160.65,-3.92 293.98,50.9 317.41,148.84 43.08,152.84 39.16,164.69 -47.09,250.82 -90.13,94.06 -407.58,101.98 -529.07,15.73 -54.89,-43.16 -82.32,-113.67 -70.51,-207.73 11.73,-105.87 50.97,-148.95 164.57,-180.3 54.9,-15.62 113.68,-23.43 164.69,-27.36l0 0zm2598.48 470.29c11.73,3.92 19.62,7.81 31.35,19.62 54.89,54.9 -274.36,972 -587.89,1634.29 -286.05,595.77 -568.34,1066.05 -799.5,1328.57 -94.06,105.86 -156.76,141.14 -156.76,82.32 0,-15.62 129.29,-262.51 286.05,-548.69 352.8,-638.85 482.1,-921.1 819.17,-1775.42 207.61,-532.96 325.21,-748.5 407.58,-740.69l0 0zm-2288.88 278.25c168.49,0 321.33,31.35 415.47,97.94 195.92,145.03 360.61,489.9 360.61,760.34 0,493.83 -309.6,1175.85 -830.86,1845.95 -70.51,90.13 -137.22,160.64 -148.95,156.76 -27.43,-3.93 -258.63,-105.87 -289.98,-125.41 -7.81,-7.81 109.79,-203.85 262.63,-435.01 403.65,-615.31 576.15,-1003.35 583.96,-1328.57 3.92,-243.01 -7.81,-282.17 -137.14,-395.85 -113.68,-97.94 -180.31,-117.6 -309.6,-94.06 -243.01,39.16 -489.91,243.01 -548.69,458.56 -62.71,231.27 -35.28,254.82 109.79,82.32 117.6,-133.22 121.49,-137.14 246.9,-54.9 94.05,62.71 129.29,129.42 129.29,231.28 0,305.72 -580.04,470.36 -775.96,219.47 -301.79,-384.04 -78.44,-1038.63 450.74,-1305.15 140.84,-74.39 317.22,-109.75 481.79,-113.67l0 0zm-1971.47 148.95c94.06,3.92 113.68,90.13 137.14,282.17 23.54,215.54 19.62,227.39 -117.6,254.82 -74.44,15.62 -391.96,105.79 -701.56,199.85 -795.62,235.08 -1030.78,270.44 -1634.4,254.82l-529.07 -15.73 -145.03 442.93c-184.19,576.04 -223.35,627.05 -399.77,532.99 -74.44,-39.16 -133.22,-101.87 -133.22,-133.22 0,-35.27 62.71,-258.63 145.03,-493.83 78.44,-235.08 168.57,-560.42 199.92,-721.18 54.9,-262.51 70.52,-286.06 160.65,-262.51 58.78,19.62 145.03,43.08 192,54.89 70.51,19.62 82.33,58.78 58.78,184.19l-31.35 156.77 415.47 -35.28c658.47,-58.78 1316.87,-246.9 2006.7,-568.34 192.12,-90.25 305.8,-137.22 376.31,-133.34l0 0zm-893.56 1226.74c192,0 239.08,23.55 313.52,109.68 133.22,164.69 117.6,356.69 -43.08,509.52 -74.44,70.52 -215.55,164.57 -317.41,207.74 -168.58,70.51 -184.19,70.51 -231.28,-19.62 -54.9,-105.87 -27.43,-227.39 86.25,-360.61 70.51,-78.44 54.89,-86.13 -215.54,-82.33 -156.77,0 -372.31,31.36 -474.17,66.63 -97.95,35.28 -180.31,58.78 -180.31,50.97 0,-11.73 58.78,-74.43 133.22,-145.03 239.08,-227.39 501.64,-333.14 838.66,-337.06l90.14 0 0 0.11zm1575.62 462.44c82.32,-3.92 160.65,23.55 219.47,86.25 156.76,172.38 101.86,278.25 -254.71,493.83 -180.3,109.67 -344.87,199.92 -364.49,199.92 -15.74,0 -54.9,-47.08 -86.25,-101.98 -152.88,-286.06 195.88,-670.09 485.98,-678.02l0 0zm-4511.17 548.8l3.93 0c15.73,11.74 105.79,46.97 192,82.33 137.14,54.89 160.64,82.32 137.14,176.38 -27.43,105.79 -7.81,117.6 180.3,141.03 113.68,15.73 823.05,35.27 1579.51,47.08 1838.13,31.36 1959.62,66.63 877.94,246.9 -674.09,113.68 -1015.08,141.14 -1834.21,152.95 -552.61,11.74 -1046.44,7.81 -1101.29,-7.81 -184.19,-43.16 -317.41,-133.21 -317.41,-203.84 -0.04,-98.14 235.04,-619.4 282.09,-635.02l0 0zm6259.13 921.03l23.54 0c43.09,7.81 47.09,35.28 47.09,113.68 0,78.4 -43.08,152.84 -117.6,203.85 -243.01,160.65 -1869.49,411.46 -3288.31,509.52 -403.65,27.43 -924.91,58.78 -1160.11,70.52l-423.32 19.62 109.79 -176.39c90.14,-141.14 148.96,-184.19 278.25,-191.99 1309.07,-97.95 3347.13,-344.88 4417.07,-533.07 50.9,-7.93 86.13,-11.93 113.6,-15.74l0 0zm-6745.11 164.57c23.55,-3.92 62.71,7.81 105.79,35.28 66.63,35.28 129.3,70.51 133.22,74.52 7.81,3.92 -47.09,105.86 -121.49,231.27 -74.43,121.49 -148.95,227.28 -168.57,227.28 -15.62,0 -78.44,-39.16 -137.22,-86.13l-105.79 -86.25 125.41 -164.69c66.63,-94.06 129.3,-188.11 137.14,-215.54 4.08,-11.85 15.89,-15.74 31.51,-15.74l0 0zm5102.9 615.32c90.13,0 74.44,39.16 -129.29,297.79 -748.54,952.38 -2226.18,1979.28 -3409.84,2371.2 -195.92,62.7 -435.01,129.41 -529.06,145.03l-172.5 27.43 195.92 -82.33c454.67,-188.11 1442.29,-717.18 1896.92,-1018.97 576.15,-388.04 874.06,-627.12 1544.23,-1265.86 305.71,-290.1 540.91,-474.29 603.62,-474.29l0 0zm-1606.86 113.67c15.62,0 23.55,3.93 27.43,7.81 35.28,35.28 -317.41,415.47 -576.15,619.32 -121.49,97.94 -352.8,250.82 -517.34,344.88 -160.64,90.25 -360.61,195.92 -438.93,231.27 -125.41,50.97 -113.67,31.36 74.44,-121.48 121.48,-97.94 399.77,-364.5 619.24,-591.89 325.33,-337.07 442.93,-423.32 607.5,-462.48 86.25,-19.62 164.57,-27.43 203.81,-27.43l0 0zm-4021.22 43.09l160.65 105.87 160.64 105.87 -188.11 282.17c-105.79,152.83 -348.76,435.01 -540.88,623.12 -192,188.11 -376.22,344.88 -403.65,344.88 -31.36,0 -101.87,-39.17 -164.57,-86.14l-109.8 -86.24 348.77 -391.97c188.11,-215.54 435,-505.64 540.87,-642.74l196.08 -254.82zm1265.91 536.99c70.51,0 129.29,27.43 199.92,82.33l109.79 90.13 -231.28 66.63c-125.4,35.27 -317.4,125.41 -423.31,203.85l0 0c-258.63,188.11 -340.95,180.3 -340.95,-27.43 0,-109.68 101.86,-192.12 411.46,-333.15 117.6,-55.05 203.85,-82.36 274.37,-82.36l0 0zm-31079.87 227.28c-462.47,0 -1058.25,27.43 -1058.25,58.78 0,23.42 62.71,50.89 133.22,58.78l0 0c74.44,7.81 333.15,0 576.16,-15.74 243,-15.61 552.6,-35.27 685.82,-35.27 133.22,-3.93 219.47,-23.43 195.93,-43.09 -27.35,-19.58 -254.63,-27.39 -532.88,-23.46l0 0zm38938.12 11.69c-466.36,3.93 -811.35,7.81 -799.51,19.62 11.74,11.81 717.3,31.35 1559.89,39.28 1167.93,11.73 1544.23,31.35 1559.89,78.44 11.73,39.16 47.09,43.08 97.94,15.62 43.09,-23.43 160.65,-31.36 258.63,-19.62 101.86,11.81 195.92,3.92 211.66,-23.43 15.61,-27.43 -203.85,-58.78 -564.35,-78.44 -415.54,-23.54 -1544.3,-35.28 -2324.15,-31.47l0 0zm-40482.39 51.01c-74.43,0 -156.76,15.74 -172.49,43.16l0 0c-15.74,23.43 50.97,39.17 145.03,39.17 94.05,-3.93 172.49,-23.43 172.49,-46.97 0.04,-23.55 -70.51,-39.28 -145.03,-35.36l0 0zm340.96 3.89c-23.55,0 -47.09,3.92 -62.71,11.81 -35.28,11.73 -7.81,23.42 62.71,23.42 66.62,0 94.05,-11.73 58.78,-23.42 -15.58,-7.81 -39.13,-11.81 -58.78,-11.81l0 0zm42328.32 97.98c-23.54,0 -47.08,3.92 -62.7,11.81 -35.28,11.73 -7.81,23.43 62.7,23.43 66.63,0 94.06,-11.74 58.79,-23.43 -15.62,-7.81 -39.17,-11.81 -58.79,-11.81l0 0zm-838.7 47.05c-15.73,0 -35.28,3.92 -54.9,11.73 -39.16,15.73 -27.42,27.43 31.36,27.43 50.97,3.92 78.44,-7.81 62.7,-23.55 -7.81,-7.69 -23.54,-11.69 -39.16,-15.61l0 0zm-39067.41 533.1l-928.84 27.43c-866.13,27.43 -1587.31,86.13 -1810.67,152.84 -188.11,58.78 47.09,105.87 807.32,160.65 415.46,31.35 979.81,62.7 1246.36,70.51 270.44,3.92 646.67,15.62 834.78,19.62l340.95 11.73 -243.01 -223.35 -246.89 -219.43zm37111.71 3.89l-1348.23 3.92 -266.55 243.01 0 0 -270.44 246.9 587.89 -27.43c321.33,-15.62 1136.57,-39.16 1810.67,-54.9 1258.05,-27.43 2359.39,-97.94 2606.28,-164.57 129.3,-35.27 121.49,-43.08 -129.29,-94.06 -462.48,-98.09 -1587.24,-152.87 -2990.33,-152.87l0 0zm-18514.71 4726.71c-2034.14,0 -4068.19,19.54 -4111.36,43.08 -74.43,47.09 -70.51,239.09 3.93,313.6l0 0c74.44,78.33 8077.6,86.13 8222.63,7.81 117.6,-62.82 125.41,-274.36 7.81,-333.14 -50.9,-27.47 -2088.95,-35.39 -4123.01,-31.35l0 0z"/>
   </g>
  </g>
 </g>
</svg>
