<?xml version="1.0" encoding="UTF-8"?>
<!DOCTYPE svg PUBLIC "-//W3C//DTD SVG 1.1//EN" "http://www.w3.org/Graphics/SVG/1.1/DTD/svg11.dtd">
<!-- Creator: CorelDRAW -->
<svg xmlns="http://www.w3.org/2000/svg" xml:space="preserve" width="33.8666mm" height="33.8666mm" version="1.1" style="shape-rendering:geometricPrecision; text-rendering:geometricPrecision; image-rendering:optimizeQuality; fill-rule:evenodd; clip-rule:evenodd"
viewBox="0 0 3386.66 3386.66"
 xmlns:xlink="http://www.w3.org/1999/xlink"
 xmlns:xodm="http://www.corel.com/coreldraw/odm/2003">
 <defs>
  <style type="text/css">
   <![CDATA[
    .fil0 {fill:black}
   ]]>
  </style>
 </defs>
 <g id="Layer_x0020_1">
  <metadata id="CorelCorpID_0Corel-Layer"/>
  <g id="_2598708821872">
   <path class="fil0" d="M1832.78 1679.75c-21.18,50.1 -27.6,74.43 -77.41,91.51 -64.19,22.01 -91.38,-14.54 -124.26,-31.04 -54.08,32.24 -121.48,67.66 -182.13,99.04 -64.61,33.43 -121.81,66.97 -187.45,102.54 -79.34,42.99 -310.01,173.66 -372.44,201.53l28.74 132.15c3.04,18.53 3.57,34.6 15.31,47.11l836.94 5.31c25.58,-9.76 25.41,-63.82 84.93,-82.37 53.42,-16.65 98.36,7.61 118.4,38.49 35.42,-6.08 248.69,-105.47 299.48,-128.3l888.35 -392.75c-1.81,-50.42 -3.71,-145.54 -25.64,-183.55l-1302.82 100.33z"/>
   <path class="fil0" d="M1407.55 1119.36l-724.75 496.84 51.35 100.04 871.04 -65.98c21.74,-41.34 27.31,-70.76 73.81,-88.36 66,-24.99 91.94,11.26 128.57,29.71l564.32 -309.68c94.71,-52.05 189.79,-106.35 285.59,-155.56 96.62,-49.63 192.56,-112.61 286.21,-154.32 -9.26,-42.26 -97.53,-193.37 -122.28,-220.74 -37.03,0.58 -310.71,70.02 -370.65,83.81l-837.18 195.86c-37.03,13.54 -1.16,19.92 -40.77,74.09 -56.46,77.2 -143.84,22.51 -165.26,14.29z"/>
   <path class="fil0" d="M314.37 1336.76c-118.25,33.41 -100.86,304.19 -86,431.79 28.84,247.8 151.79,597.8 282.93,798.59 44.52,68.16 181.71,276.55 295.73,243.84 110.53,-31.72 94.15,-309.25 80.17,-432.36 -17.21,-151.58 -63.57,-301.99 -109.33,-434.51 -42.29,-122.48 -110.23,-267.09 -173.28,-364.44 -43.76,-67.56 -181.96,-273.51 -290.22,-242.91zm348.48 1094.84c8.29,-100.18 -61.38,-320.78 -93.56,-411.77 -41.81,-118.19 -89.28,-262.31 -161.64,-345.76 -16.77,156.03 179.66,684.12 255.2,757.53z"/>
   <path class="fil0" d="M1831.95 1632.48l1297.6 -100.54c-8.01,-109.52 -118.65,-434.39 -164.1,-518.43 -41.97,15.61 -98.91,53.25 -140.56,74.84l-852.43 464.8c-46.82,24.24 -98.92,52.66 -140.51,79.33z"/>
   <path class="fil0" d="M1794.25 2419.52c-33.96,16.17 -855.89,374.35 -878,394.43 391.04,27.37 974.08,-80.26 1321.9,-257.83 59.28,-30.26 325.9,-150.51 354.68,-178.67l-593.15 -1.37c-19.21,41.59 -35.99,72.9 -81.67,83.39 -70.18,16.12 -89.67,-23.04 -123.76,-39.95z"/>
   <path class="fil0" d="M413.68 1263.2l960.1 -223.26c9.14,-55.61 21.02,-83.04 60.61,-103.33 61.88,-31.7 89.48,0.24 130.25,15.01l478.22 -333.17c-69.19,3.68 -173.91,28.69 -242.44,43.22 -448.73,95.12 -826.29,261.2 -1215.18,489.16l-171.56 112.37z"/>
   <path class="fil0" d="M2005.85 2325.85c136.07,12.41 456.64,2.92 628.27,4.71 84.74,0.88 98.3,-19.24 156.25,-56.15 86.3,-54.96 170.2,-114.33 242.6,-174.45 64.28,-53.38 156.72,-147.75 131.76,-288.07l-1158.88 513.96z"/>
   <path class="fil0" d="M1603.16 985.38c67.05,-15.23 1148.11,-261.4 1184.2,-281.12 -24.51,-38.69 -67.5,-86.09 -103.86,-109.87 -56.4,-36.87 -123.18,-24.71 -194.65,-21.02l-300.61 23.76c-39.45,3.85 -46.7,15.85 -74.22,34.12 -119.56,79.41 -402.84,272.66 -510.86,354.13z"/>
   <path class="fil0" d="M914.31 2756.47l853.82 -376.52 -831.97 -7.09c3.72,146.86 26.98,243.78 -21.85,383.61z"/>
   <path class="fil0" d="M425.16 1311.02c79.25,61.26 126.08,106.61 181.77,187.82 14.51,21.15 35.61,57.14 51.39,75.06 27.96,-12.19 62.8,-39.78 87.99,-56.62l439.2 -303.91c57.01,-39.04 119.8,-78.31 172.24,-120.49l-932.59 218.14z"/>
   <path class="fil0" d="M756.01 1763.22c35.69,105.54 93.82,212.86 119.1,332.69 35.53,-10.94 543.16,-294.44 632.66,-342.81l89.5 -54.07 -841.26 64.19z"/>
   <path class="fil0" d="M1871.11 2290.56c-80.63,26.92 -46.47,144.59 36.07,122.74 78.34,-20.74 47.1,-150.5 -36.07,-122.74z"/>
   <path class="fil0" d="M1469.07 975.01c-85.78,28.32 -45.06,146.89 39.37,120.97 73.39,-22.53 41.15,-147.56 -39.37,-120.97z"/>
   <path class="fil0" d="M1691.77 1609.36c-75.13,41 -22.52,146.14 53.09,115.11 77.81,-31.93 24.18,-157.27 -53.09,-115.11z"/>
  </g>
 </g>
</svg>
