<?xml version="1.0" encoding="UTF-8"?>
<!DOCTYPE svg PUBLIC "-//W3C//DTD SVG 1.1//EN" "http://www.w3.org/Graphics/SVG/1.1/DTD/svg11.dtd">
<!-- Creator: CorelDRAW -->
<svg xmlns="http://www.w3.org/2000/svg" xml:space="preserve" width="1200mm" height="600mm" version="1.1" style="shape-rendering:geometricPrecision; text-rendering:geometricPrecision; image-rendering:optimizeQuality; fill-rule:evenodd; clip-rule:evenodd"
viewBox="0 0 120000 60000"
 xmlns:xlink="http://www.w3.org/1999/xlink"
 xmlns:xodm="http://www.corel.com/coreldraw/odm/2003">
 <defs>
  <style type="text/css">
   <![CDATA[
    .fil1 {fill:url(#id0)}
    .fil3 {fill:url(#id1)}
    .fil6 {fill:url(#id2)}
    .fil9 {fill:url(#id3)}
    .fil10 {fill:url(#id4)}
    .fil2 {fill:url(#id5)}
    .fil5 {fill:url(#id6)}
    .fil0 {fill:url(#id7)}
    .fil7 {fill:url(#id8)}
    .fil4 {fill:url(#id9)}
    .fil8 {fill:url(#id10)}
   ]]>
  </style>
  <linearGradient id="id0" gradientUnits="userSpaceOnUse" x1="18060.8" y1="47705.25" x2="22914.84" y2="52896.28">
   <stop offset="0" style="stop-opacity:1; stop-color:#D33230"/>
   <stop offset="1" style="stop-opacity:1; stop-color:#FD8F04"/>
  </linearGradient>
  <linearGradient id="id1" gradientUnits="userSpaceOnUse" xlink:href="#id0" x1="98801.24" y1="47705.25" x2="103655.34" y2="52896.28">
  </linearGradient>
  <linearGradient id="id2" gradientUnits="userSpaceOnUse" xlink:href="#id0" x1="42294.3" y1="34952.93" x2="45908.92" y2="38818.53">
  </linearGradient>
  <linearGradient id="id3" gradientUnits="userSpaceOnUse" xlink:href="#id0" x1="8715.24" y1="35262.66" x2="80528.98" y2="54487.56">
  </linearGradient>
  <linearGradient id="id4" gradientUnits="userSpaceOnUse" xlink:href="#id0" x1="22349.52" y1="4659.53" x2="109594.15" y2="51540.55">
  </linearGradient>
  <linearGradient id="id5" gradientUnits="userSpaceOnUse" xlink:href="#id0" x1="93264.22" y1="42191.39" x2="109164.82" y2="59196.18">
  </linearGradient>
  <linearGradient id="id6" gradientUnits="userSpaceOnUse" xlink:href="#id0" x1="92937.94" y1="16629.69" x2="108237.17" y2="24474.83">
  </linearGradient>
  <linearGradient id="id7" gradientUnits="userSpaceOnUse" xlink:href="#id0" x1="12523.75" y1="42191.39" x2="28424.34" y2="59196.18">
  </linearGradient>
  <linearGradient id="id8" gradientUnits="userSpaceOnUse" xlink:href="#id0" x1="70358.92" y1="31311.05" x2="82200.08" y2="43974.39">
  </linearGradient>
  <linearGradient id="id9" gradientUnits="userSpaceOnUse" xlink:href="#id0" x1="60069.95" y1="16629.69" x2="81276.1" y2="24474.83">
  </linearGradient>
  <linearGradient id="id10" gradientUnits="userSpaceOnUse" xlink:href="#id0" x1="73735.73" y1="37226.57" x2="79025" y2="37404.06">
  </linearGradient>
 </defs>
 <g id="Layer_x0020_1">
  <metadata id="CorelCorpID_0Corel-Layer"/>
  <g id="_2516886840048">
   <path class="fil0" d="M20493.85 40647.39c-5236.02,0 -9480.65,4244.62 -9480.65,9480.64 0,5236.13 4244.73,9480.82 9480.65,9480.82 5236.13,0 9480.82,-4244.72 9480.82,-9480.82 0,-5236.02 -4244.69,-9480.64 -9480.82,-9480.64zm0 15315.44c-3222.33,0 -5834.72,-2612.3 -5834.72,-5834.73 0,-3222.43 2612.39,-5834.72 5834.72,-5834.72 3222.43,0 5834.72,2612.29 5834.72,5834.72 0,3222.43 -2612.29,5834.73 -5834.72,5834.73z"/>
   <path class="fil1" d="M20493.85 47233.93c-1598.39,0 -2894.17,1295.78 -2894.17,2894.17 0,1598.4 1295.78,2894.18 2894.17,2894.18 1598.5,0 2894.28,-1295.78 2894.28,-2894.18 0,-1598.39 -1295.78,-2894.17 -2894.28,-2894.17z"/>
   <path class="fil2" d="M101234.32 40647.39c-5236.02,0 -9480.65,4244.62 -9480.65,9480.64 0,5236.13 4244.73,9480.82 9480.65,9480.82 5236.13,0 9480.82,-4244.72 9480.82,-9480.82 -0.07,-5236.02 -4244.72,-9480.64 -9480.82,-9480.64zm0 15315.44c-3222.32,0 -5834.72,-2612.3 -5834.72,-5834.73 0,-3222.43 2612.4,-5834.72 5834.72,-5834.72 3222.5,0 5834.72,2612.29 5834.72,5834.72 0,3222.43 -2612.29,5834.73 -5834.72,5834.73z"/>
   <path class="fil3" d="M101234.39 47233.93c-1598.39,0 -2894.28,1295.78 -2894.28,2894.17 0,1598.4 1295.85,2894.18 2894.28,2894.18 1598.43,0 2894.17,-1295.78 2894.17,-2894.18 0.04,-1598.39 -1295.84,-2894.17 -2894.17,-2894.17z"/>
   <path class="fil4" d="M83339.21 18045.9c20.39,-1554.16 -621.92,-2157.87 -2191.91,-2124.41 -3510.8,74.78 -17697.17,51.21 -21276.26,-3.56 -1226.28,-18.73 -1713.16,442.88 -1695.7,1650.05 21.39,1484.67 9.33,2975.45 -102.12,4455.01 -142.55,1892.71 558.65,2675.46 2545.29,2641.11 5469.45,-94.55 10942.09,9.95 16412.72,-44.06 7279.72,-71.77 6207.56,1064.63 6307.98,-6574.14z"/>
   <path class="fil5" d="M109725.57 18045.9c14.72,-1554.16 -448.65,-2157.87 -1581.32,-2124.41 -2532.95,74.78 -12767.7,51.21 -15349.83,-3.56 -884.69,-18.73 -1235.89,442.88 -1223.34,1650.05 15.44,1484.67 6.67,2975.45 -73.71,4455.01 -102.88,1892.71 403.03,2675.46 1836.21,2641.11 3946.12,-94.55 7894.31,9.95 11841.16,-44.06 5251.96,-71.77 4478.43,1064.63 4550.83,-6574.14z"/>
   <circle class="fil6" cx="44106.12" cy="36757.15" r="2155.21"/>
   <path class="fil7" d="M76294.31 30161.24c-3899.2,0 -7060.29,3160.99 -7060.29,7060.18 0,3899.19 3160.99,7060.28 7060.29,7060.28 3899.29,0 7060.28,-3160.99 7060.28,-7060.28 -0.04,-3899.3 -3161.09,-7060.18 -7060.28,-7060.18zm0 11405.29c-2399.74,0 -4345.12,-1945.31 -4345.12,-4345.11 0,-2399.74 1945.38,-4345.01 4345.12,-4345.01 2399.63,0 4345.01,1945.31 4345.01,4345.01 0,2399.73 -1945.42,4345.11 -4345.01,4345.11z"/>
   <path class="fil8" d="M77816.58 35697.25c-841.64,-841.65 -2206.25,-841.65 -3047.9,0 -841.64,841.64 -841.64,2206.25 0,3047.89 841.65,841.65 2206.26,841.65 3047.9,0 841.65,-841.64 841.65,-2206.25 0,-3047.89z"/>
   <path class="fil9" d="M85171.87 53581.75c-8657.13,-49.17 -17322.96,-251.99 -25970.75,0l-4635.42 0c-4088.74,-393.81 -7368.5,-2230.2 -10643.39,-4847.08 -5173.4,-4134.01 -10198.56,-8540.57 -15926.12,-11888.61 -5838.56,-3412.87 -12064.99,-4821.27 -18466.76,-1213.4 -492.43,277.5 -861.57,489.54 -1146.73,617.09 -92.16,-1120.3 -604.82,-1982.15 -1230.78,-2015.43 -0.17,-1.28 -0.38,-2.28 -0.55,-3.49 -0.73,1.11 -1.28,2.11 -2.11,3.21 -11.61,-0.55 -22.84,-3.21 -34.56,-3.21 -709.42,0 -1284.34,1065.63 -1284.34,2380.07 0,1198.95 478.93,2188.04 1101.3,2353.19 100.11,119.6 207.82,233.77 330.98,335.75 1722.32,1424.16 1479,2649.34 129.38,4076.12 -551.6,583.05 -1158.34,1252.79 -852.59,2156.32 752.13,2223.08 -489.15,2661.29 -2269.52,2561.84 -1741.49,-97.21 -2410.86,622.92 -2375.68,2392.96 34.11,1720.66 787.52,2308.92 2380.62,2177.91 537.98,-44.26 1088.3,-59.05 1622.93,1.28 1866.11,210.66 2633.96,-459.36 2718.9,-2469.57 259.39,-6144.6 4826.87,-10992.86 10719.48,-11653.17 5421.63,-607.48 11147.46,3332.42 12675.02,8980.99 763.81,8901.16 2950.05,7321.12 2950.05,7321.12l50287.35 0 -3.11 -52.84c1,0 2.11,0 3.11,0 814.65,-2.83 2315.24,307.66 2281.69,-545.86 -46.1,-1174.63 -1536.26,-660.52 -2358.4,-665.19z"/>
   <path class="fil10" d="M117590.72 51089.44c-811.64,-920.63 -1498.84,-1922.26 -1999.43,-3041.28 -428.54,-957.64 -703.92,-1849.94 898.13,-1905.36 852.7,-29.55 1414.18,-525.93 1402.56,-1418.12 -11.71,-902.9 451.14,-2279.75 -660.41,-2520.4 -1988.75,-430.55 -1692.05,-1800.48 -1697.06,-3088.39 -22.04,-5619.5 -20.56,-11239.24 5.22,-16858.75 18.84,-4106.39 -1281.23,-7682.09 -4083.79,-10712.22 -2760.34,-2984.5 -5766.68,-5709.45 -8829.01,-8369.57 -1567.67,-1361.78 -3485.82,-2030.32 -5553.29,-2265.41 -7357.61,-836.86 -14739.9,-385.48 -22110.57,-385.48 -16907.82,0 -19591.44,9130.93 -22199,10435.28 -2002.91,1001.8 -2107.41,2537.41 -411.98,3722.81 483.93,338.31 468.59,784.75 504.87,1242.01 149.87,1891.92 231.88,3786.3 15.9,5678.11 -59.99,526.1 10.16,1166.5 -504.88,1485.78 -1936.53,1200.4 -3744.69,2655.83 -6238.21,2625.83 -4670.71,-56.22 -23221.91,-74.78 -27825.79,-65.17 -2260.85,4.77 -3630.75,992.3 -4093.12,3134 -241.76,1119.68 -441.81,2269.97 1527.72,2203.86 6119.61,-205.54 11506.96,1792.99 16336.39,5572.58 5538.74,4334.95 11217.48,8491.01 16813.03,12754.19 1682.54,1281.95 3481.92,1847.75 5637.58,1829.71 9884.51,-82.38 19769.92,-43.33 29655.06,-35 4050.62,3.49 4050.62,18.28 5329.57,-3817.36 1787.11,-5359.47 5972.39,-8510.29 11323.01,-8524.36 5828.88,-15.27 9652.26,2731.17 11587.41,8315.25 331.88,957.64 612.03,1943.65 1050.91,2851.39 643.96,1332.17 1713.81,2266.42 3154.31,2675.19 440.43,124.99 1014.91,111.72 1327.4,-290.66 379.16,-488.04 -58.22,-883.41 -362.53,-1228.46zm-97890.4 -21109.42c-1139.96,13.72 -2092.76,-250.54 -2021.75,-1632.71 73.16,-1424.5 1248.06,-1191 2143.36,-1204.72 2501.85,-38.39 12647.3,-38.67 15217.26,-13.82 506.15,4.84 1191,-171.89 1421.77,469.87 237.27,660.41 -260.31,1141.34 -703.64,1561.66 -514.38,487.7 -1148.47,663.25 -1855.99,669.47 -4733.8,41.92 -9467.51,93.13 -14201.01,150.25zm20060.69 6777.13c0,-2399.64 1945.38,-4345.01 4345.11,-4345.01 2399.63,0 4345.01,1945.37 4345.01,4345.01 0,2399.73 -1945.38,4345.11 -4345.01,4345.11 -2399.73,0 -4345.11,-1945.42 -4345.11,-4345.11zm8992.84 9124.71c-851.97,498.31 -1533.22,720.65 -2391.96,105.33 -268.82,-192.66 -1392.68,-1069.68 -2828.45,-2198.65 189.27,15.17 379.27,28.89 572.54,28.89 3899.19,0 7060.29,-3160.99 7060.29,-7060.28 0,-3899.2 -3160.99,-7060.18 -7060.29,-7060.18 -3899.29,0 -7060.28,3160.98 -7060.28,7060.18 0,761.8 124.06,1493.82 347.37,2181.19 -863.13,-683.81 -1551.06,-1229.5 -1909.93,-1514.77 -1002.91,-796.91 -1240.9,-1807.6 -934.52,-3080.43 868.07,-3606.36 4016.24,-6743.29 7411.17,-7256.77 4578.83,-692.52 8342.52,1072.78 10444.79,4898.92 2807.81,5109.96 1219.86,11047.63 -3650.73,13896.57zm27542.74 563.27c-5133.98,-53.66 -9325.59,-4226.17 -9324.32,-9281.77 1.56,-5428.68 3862.64,-9164.04 9474.81,-9166.04 5312.92,-2 9150.6,3769.64 9169.05,9011.23 19.01,5339.83 -4081.07,9491.29 -9319.54,9436.58zm7680.33 -18757.47c-4867.82,-17.66 -23800.15,2.38 -28398.15,29.16 -921.26,5.29 -1853.43,-114.28 -2722.46,515.87 -864.58,626.93 -1574.66,-106.71 -2082.2,-680.43 -696.52,-787.13 100.12,-1317.34 650.37,-1556.82 3042.38,-1323.46 3405.2,-3784.46 3147.16,-6682.85 -167.15,-1877.65 -16.45,-3783.64 -8.78,-5676.9 4.29,-1055.51 468.49,-1641.56 1587.89,-1636.89 1958.37,8.05 20617.23,21.28 27986.52,-82.84 1867.21,-26.33 2461.69,547.31 2398.35,2400.46 -122.44,3579.65 -143.38,7171.56 16.38,10748.44 90.43,2022.37 -785.38,2629.29 -2575.08,2622.8zm27050.65 13.44c-3180.72,22.77 -16176.01,-77.89 -19491.5,-25.44 -1732.1,27.44 -2423.41,-711.97 -2385.01,-2436.29 84.11,-3788.75 103.15,-7580.05 74.23,-11369.73 -11.44,-1496.01 629.97,-2007.21 2073.03,-1997.77 5142.48,33.66 10285.44,-23.4 15427.92,-6.84 1486.88,4.76 4370.44,2259.46 4791.76,3595.26 0,0 1800.76,2733.62 1800.76,10782.09 -26.44,1749.83 -1256.18,1451.29 -2291.19,1458.72z"/>
  </g>
 </g>
</svg>
